<?xml version="1.0" encoding="UTF-8" standalone="no"?>
<!-- Created with Inkscape (http://www.inkscape.org/) -->

<svg
   width="148mm"
   height="54mm"
   viewBox="0 0 148 54"
   version="1.1"
   id="svg1"
   inkscape:version="1.3 (0e150ed6c4, 2023-07-21)"
   sodipodi:docname="EntwicklungGoldpreise.svg"
   xmlns:inkscape="http://www.inkscape.org/namespaces/inkscape"
   xmlns:sodipodi="http://sodipodi.sourceforge.net/DTD/sodipodi-0.dtd"
   xmlns="http://www.w3.org/2000/svg"
   xmlns:svg="http://www.w3.org/2000/svg">
  <sodipodi:namedview
     id="namedview1"
     pagecolor="#ffffff"
     bordercolor="#000000"
     borderopacity="0.25"
     inkscape:showpageshadow="2"
     inkscape:pageopacity="0.0"
     inkscape:pagecheckerboard="0"
     inkscape:deskcolor="#d1d1d1"
     inkscape:document-units="mm"
     inkscape:zoom="1.0218084"
     inkscape:cx="396.84545"
     inkscape:cy="482.96728"
     inkscape:window-width="2560"
     inkscape:window-height="1361"
     inkscape:window-x="2551"
     inkscape:window-y="-9"
     inkscape:window-maximized="1"
     inkscape:current-layer="layer1" />
  <defs
     id="defs1">
    <clipPath
       clipPathUnits="userSpaceOnUse"
       id="clipPath58">
      <path
         d="M 194.72,168.32001 V 285.12 h 474.4 V 168.32001 Z"
         clip-rule="evenodd"
         id="path58" />
    </clipPath>
    <clipPath
       clipPathUnits="userSpaceOnUse"
       id="clipPath60">
      <path
         d="M 194.72,168.32001 V 285.12 h 474.4 V 168.32001 Z"
         transform="translate(-628.46002,-211.02001)"
         clip-rule="evenodd"
         id="path60" />
    </clipPath>
    <clipPath
       clipPathUnits="userSpaceOnUse"
       id="clipPath62">
      <path
         d="M 113.44,155.52 V 335.35999 H 680.64001 V 155.52 Z"
         clip-rule="evenodd"
         id="path62" />
    </clipPath>
    <clipPath
       clipPathUnits="userSpaceOnUse"
       id="clipPath64">
      <path
         d="M 113.44,155.52 V 335.35999 H 680.64001 V 155.52 Z"
         clip-rule="evenodd"
         id="path64" />
    </clipPath>
    <clipPath
       clipPathUnits="userSpaceOnUse"
       id="clipPath66">
      <path
         d="M 113.44,155.52 V 335.35999 H 680.64001 V 155.52 Z"
         clip-rule="evenodd"
         id="path66" />
    </clipPath>
    <clipPath
       clipPathUnits="userSpaceOnUse"
       id="clipPath68">
      <path
         d="M 113.44,155.52 V 335.35999 H 680.64001 V 155.52 Z"
         clip-rule="evenodd"
         id="path68" />
    </clipPath>
    <clipPath
       clipPathUnits="userSpaceOnUse"
       id="clipPath70">
      <path
         d="M 113.44,155.52 V 335.35999 H 680.64001 V 155.52 Z"
         clip-rule="evenodd"
         id="path70" />
    </clipPath>
    <clipPath
       clipPathUnits="userSpaceOnUse"
       id="clipPath72">
      <path
         d="M 113.44,155.52 V 335.35999 H 680.64001 V 155.52 Z"
         clip-rule="evenodd"
         id="path72" />
    </clipPath>
    <clipPath
       clipPathUnits="userSpaceOnUse"
       id="clipPath75">
      <path
         d="M 113.44,155.52 V 335.35999 H 680.64001 V 155.52 Z"
         clip-rule="evenodd"
         id="path75" />
    </clipPath>
    <clipPath
       clipPathUnits="userSpaceOnUse"
       id="clipPath77">
      <path
         d="M 113.44,155.52 V 335.35999 H 680.64001 V 155.52 Z"
         clip-rule="evenodd"
         id="path77" />
    </clipPath>
    <clipPath
       clipPathUnits="userSpaceOnUse"
       id="clipPath79">
      <path
         d="M 113.44,155.52 V 335.35999 H 680.64001 V 155.52 Z"
         clip-rule="evenodd"
         id="path79" />
    </clipPath>
    <clipPath
       clipPathUnits="userSpaceOnUse"
       id="clipPath81">
      <path
         d="M 113.44,155.52 V 335.35999 H 680.64001 V 155.52 Z"
         clip-rule="evenodd"
         id="path81" />
    </clipPath>
    <clipPath
       clipPathUnits="userSpaceOnUse"
       id="clipPath84">
      <path
         d="M 113.44,155.52 V 335.35999 H 680.64001 V 155.52 Z"
         clip-rule="evenodd"
         id="path84" />
    </clipPath>
    <clipPath
       clipPathUnits="userSpaceOnUse"
       id="clipPath87">
      <path
         d="m 342.07999,168.32001 h 1.6 v 116.63998 h -1.6 z"
         clip-rule="evenodd"
         id="path87" />
    </clipPath>
    <clipPath
       clipPathUnits="userSpaceOnUse"
       id="clipPath89">
      <path
         d="M 494.23999,168.32001 H 496 v 116.63998 h -1.76001 z"
         clip-rule="evenodd"
         id="path89" />
    </clipPath>
  </defs>
  <g
     inkscape:label="Ebene 1"
     inkscape:groupmode="layer"
     id="layer1">
    <path
       id="path57"
       d="m 212.48,277.78 v 0 h 1.04 v -1.04001 l 1.05001,1.04001 v -2.09 0 H 215.61 v 1.04999 h 1.03999 v 0 1.04001 H 217.69 v 0 h 1.05 v 0 0 l 1.04,1.04001 V 277.78 h 1.04001 v 0 1.04001 L 221.86,277.78 v 0 l 1.05,-1.04001 v 1.04001 -1.04001 l 1.04,1.04001 v 0 h 1.04 v 0 0 l 1.04,1.04001 V 277.78 h 1.05 v 0 0 l 1.03999,1.04001 v 0 H 229.16 v 0 0 h 1.04 v 0 h 1.05 v 0 0 h 1.03999 v 0 H 233.33 v 0 -1.04001 l 1.03999,1.04001 v 0 H 235.42 v 0 0 h 1.04001 v 0 H 237.5 v 0 0 h 1.05 v 0 h 1.04 v 0 0 h 1.04 v 0 h 1.04 v 0 0 l 1.05,-1.04001 v 0 l 1.03999,1.04001 V 277.78 278.82001 H 244.8 v 0 h 1.04 v 0 0 h 1.05 v 0 l 1.03999,-1.04001 v 0 1.04001 L 248.97,277.78 v 0 -1.04001 h 1.03999 v 0 H 251.06 v 1.04001 0 h 1.04001 v 0 H 253.14 v 0 1.04001 l 1.03999,-1.04001 v 0 H 255.23 v 0 0 h 1.03999 v 0 H 257.31 v 0 0 l 1.04001,-1.04001 v 0 h 1.04998 v 0 0 H 260.44 v 0 h 1.04001 v 0 0 h 1.03998 V 275.69 h 1.05002 v 0 0 h 1.03998 v -1.04001 h 1.04 V 275.69 274.64999 L 266.69,275.69 v 0 h 1.04999 v -1.04001 2.09 L 268.78,275.69 v 0 h 1.04001 v 0 0 h 1.03998 v 0 l 1.05001,-1.04001 v 1.04001 -1.04001 l 1.04001,1.04001 v 0 h 1.03998 v 0 -1.04001 L 275.03,275.69 v 0 h 1.04999 v -1.04001 0 l 1.04001,-1.04 v 0 h 1.04 v -1.04999 0 h 1.04001 v 0 l 1.04999,-1.04001 v 1.04001 1.04999 h 1.04001 v 0 l 1.03998,1.04 v 0 0 H 283.37 v 0 h 1.05001 v 0 -1.04 h 1.03998 V 272.56 L 286.5,271.51999 v 1.04001 0 h 1.04001 v 0 l 1.04999,1.04999 v 0 0 h 1.04 V 272.56 l 1.04001,1.04999 v -1.04999 0 h 1.03998 v -1.04001 h 1.05002 v 0 0 h 1.03998 v 0 H 294.84 v 0 -1.03998 h 1.04 v 1.03998 l 1.04999,-1.03998 v 0 0 l 1.04001,-1.05002 v 0 h 1.04001 v 0 0 l 1.03998,-1.03998 v 1.03998 0 h 1.05002 v 0 h 1.04 v 1.05002 0 l 1.03998,-1.05002 v 1.05002 l 1.05002,-1.05002 v -1.03998 0 h 1.03998 v 1.03998 l 1.04001,1.05002 v 0 1.03998 h 1.04001 v -1.03998 h 1.04998 v 0 0 H 309.44 v -1.05002 l 1.04001,1.05002 v -1.05002 0 l 1.03998,1.05002 v 0 l 1.05002,-1.05002 v 1.05002 -1.05002 h 1.03998 v 0 h 1.04 v 0 0 l 1.04001,-1.03998 v 0 h 1.04999 v 0 0 l 1.04001,-1.04 v 0 h 1.04001 v -1.05002 0 l 1.03998,1.05002 v 0 H 320.91 v 0 1.04 h 1.04001 v 0 h 1.03998 v 1.03998 -1.03998 H 324.03 v -1.04 h 1.04999 v 0 0 l 1.04001,1.04 v 0 h 1.04 v 0 -1.04 h 1.04001 v 1.04 H 329.25 v 0 0 h 1.04001 v 0 l 1.03998,-1.04 v 0 1.04 H 332.37 v 0 h 1.05001 v 0 -1.04 h 1.03998 v 0 H 335.5 v 0 -1.05002 h 1.04001 v -1.03998 H 337.59 v 0 0 h 1.04 v 0 l 1.04001,1.03998 V 265.26001 264.22 h 1.03998 v -1.04001 l 1.05002,-2.08999 v 2.08999 0 l 1.03998,-1.04999 v -1.04 l 1.04001,-1.04001 v 0 V 259 h 1.04 v 1.04999 h 1.04999 V 259 v 0 l 1.04001,2.09 v -1.04001 L 348.01001,259 v -1.04001 -1.03998 h 1.03998 V 254.83 l 1.05002,-1.04001 V 251.7 249.61 l 1.04,3.13 v 1.04999 h 1.03998 v 2.08 2.09 H 353.22 v -2.09 -1.03999 l 1.04999,-2.09 v 3.12999 L 355.31,254.83 v -1.04001 1.04001 l 1.04001,1.03999 V 254.83 h 1.04 v 1.03999 2.09 l 1.04999,-1.03998 v 0 l 1.04001,1.03998 v -1.03998 0 h 1.03998 V 254.83 H 361.56 v 0 0 l 1.04999,-1.04001 V 254.83 l 1.04,1.03999 v 0 -1.03999 l 1.04001,1.03999 V 254.83 h 1.04999 v -1.04001 0 L 366.78,251.7 v 0 h 1.04001 v 2.08999 0 l 1.03998,-1.04999 v 0 H 369.91 v -1.04 -1.04 h 1.04001 v 1.04 l 1.03998,-1.04 v 1.04 1.04 H 373.03 v -1.04 l 1.04999,2.08999 v -1.04999 0 l 1.04001,1.04999 V 252.74 h 1.04 v -1.04 1.04 l 1.04001,-1.04 v 0 l 1.04999,1.04 v 0 -1.04 l 1.04001,-2.09 v 0 l 1.03998,-1.03999 v -1.04001 0 l 1.04001,-1.05 v -1.04 l 1.05001,-1.04001 V 243.35001 241.27 l 1.03998,3.12999 V 242.31 l 1.04001,2.08999 v -1.04998 1.04998 l 1.04001,-2.08999 v -1.04 l 1.04999,-2.09001 v -2.07998 1.03999 l 1.04,-2.09 v 0 h 1.04001 v 1.05001 -3.13001 l 1.03998,-2.09 v 0 l 1.05002,-1.04 v 5.21 -1.04001 l 1.03998,1.04001 v -1.04001 L 392.84,236.05 v 2.09 2.09 l 1.04,-2.09 v -1.03999 l 1.04999,-2.09002 v 3.13001 -1.03999 l 1.04001,2.07998 v -2.07998 l 1.04001,-2.09002 v 0 -2.08999 h 1.03998 v 2.08999 l 1.05002,1.04001 v 3.12999 5.22 l 1.04,-3.12999 v 0 l 1.03998,2.08001 V 246.48 239.17999 L 402.22,238.14 v 3.13 l 1.04999,-1.04 v 4.16999 4.17002 H 404.31 V 247.53 h 1.04001 V 244.39999 242.31 l 1.04,4.17 v -4.17 -1.04 L 407.44,239.17999 V 238.14 l 1.04001,2.09 v 1.04 -4.16999 l 1.03998,-2.09002 V 236.05 l 1.04001,-2.08 v -4.18001 4.18001 h 1.04999 v 1.03999 l 1.04,-2.08999 v 2.08999 2.09002 L 413.69,238.14 v 1.03999 l 1.04001,-3.12999 v 2.09 -2.09 L 415.78,235.00999 V 232.92 l 1.04001,-1.04 v 1.04 1.05 l 1.03998,1.03999 V 233.97 l 1.04,1.03999 v 1.04001 -1.04001 l 1.05002,-1.03999 v 0 l 1.03998,-1.05 v 1.05 0 l 1.04001,-1.05 v -2.08 l 1.04001,-1.05001 v 0 1.05001 l 1.04999,-1.05001 v -2.07998 l 1.04,-1.05001 v 0 1.05001 l 1.04001,-3.13001 v -2.09 l 1.04999,-2.08 v -1.05 0 l 1.04001,3.13 v 1.04 h 1.03998 v 1.05 -3.13 H 430.37 v 3.13 h 1.05001 v 2.08 -2.08 l 1.03998,-2.09 v 0 L 433.5,221.45 v 2.08 0 h 1.04001 v -1.04 l 1.04999,-3.13 v 2.09 -1.04 l 1.04,-2.08999 V 216.23 l 1.04001,-1.04 v 3.13001 -2.09001 h 1.03998 v -1.04 l 1.05002,-2.08999 v 0 3.12999 h 1.03998 v 2.09001 H 441.84 v 0 -1.04001 l 1.04,-1.05 v -1.04 h 1.04999 v -1.04001 0 L 444.97,212.06 v -1.04 l 1.04001,-1.05 v -2.08 -2.09 l 1.03998,3.12999 V 206.84 l 1.05002,-3.12999 v 2.08999 1.04 h 1.04 v -3.12999 l 1.03998,1.04998 v 1.04001 0 l 1.04001,-3.13 v 3.13 l 1.04999,1.04 v 1.05 0 H 453.31 v -1.05 l 1.04001,-2.08001 V 203.71001 201.63 l 1.04,1.04 v 0 H 456.44 v 0 -3.13001 L 457.48001,198.5 V 197.46001 193.28 l 1.03998,5.22 v -1.03999 L 459.56,196.41 V 195.36999 194.33 l 1.04999,1.03999 v 0 l 1.04,2.09002 V 198.5 194.33 L 462.69,191.2 v 0 l 1.04001,-2.09 V 188.07001 181.81 L 464.78,174.50999 V 177.64 l 1.04001,-5.22 v 1.04001 3.12999 l 1.03998,11.48001 V 189.11 l 1.04,-1.03999 v -3.13001 3.13001 l 1.05002,-7.31002 v 0 l 1.03998,-2.08 v 4.17002 2.08999 l 1.04001,-4.18001 v 2.09002 L 472.07001,191.2 V 190.14999 193.28 L 473.12,190.14999 V 189.11 l 1.04,-2.09 v -5.21 0 l 1.04001,1.04001 v 0 l 1.03998,-3.13001 v 4.17 0 l 1.05002,3.13 v 0 l 1.03998,-1.04 v 3.13 -2.09 l 1.04001,1.05001 V 187.02 l 1.04,1.05001 V 192.24 191.2 l 1.04999,2.08 v -4.17 L 482.5,191.2 v -2.09 4.17 l 1.04001,-3.13001 V 192.24 l 1.03998,-1.04 v 1.04 -2.09001 H 485.63 V 189.11 l 1.04001,1.03999 V 185.98 184.94 l 1.03998,-3.13 v -2.09 h 1.05002 v 0 -1.04001 l 1.03998,2.08 v 2.09002 L 490.84,183.89 v 2.09 -4.17 l 1.04,1.04001 v -2.09002 l 1.04999,3.13001 v 0 1.05 l 1.04001,2.08 v 0 l 1.04001,1.05001 V 187.02 184.94 l 1.03998,2.08 v -1.04 h 1.05002 v 4.16999 2.09001 h 1.04 v 0 l 1.03998,-1.04 V 190.14999 191.2 l 1.04001,1.04 v 5.22001 l 1.04999,7.29998 V 200.59 199.53999 L 502.31,201.63 v 5.21 l 1.04001,-2.08001 v 0 0 h 1.04 V 211.02 l 1.04999,4.17 v 1.04 -4.17 l 1.04001,-1.04 v -2.09001 l 1.03998,1.04001 v 0 -4.17 l 1.04001,-1.04001 v 0 h 1.04999 v 5.21001 -1.04001 l 1.04,-1.03999 v 2.08 3.13001 L 511.69,209.97 v -3.13 l 1.03998,3.13 v 2.09 -1.04 l 1.05005,3.12999 v 0 l 1.03998,1.04001 v 0 2.09 l 1.03997,-1.05 v -2.08001 h 1.04004 v 0 -1.04998 l 1.04999,1.04998 v -1.04998 l 1.03998,-4.17002 v 0 0 l 1.04004,-1.03999 v -2.09 l 1.03998,2.09 v 3.13 -1.05 L 522.12,208.92999 V 211.02 h 1.03997 v -1.05 1.05 h 1.04004 v 0 l 1.03998,3.12999 v 0 -2.08999 l 1.04999,-2.09 v -1.04001 h 1.04004 v -1.03999 2.08 h 1.03997 v 1.05 l 1.03998,-1.05 v 0 2.09 h 1.05005 v 1.04001 L 531.5,215.19 v 1.04 0 l 1.03998,1.05 v -1.05 l 1.04004,-1.04 v 0 4.17 H 534.63 v -1.03999 l 1.03998,-1.04001 v 2.08 -1.03999 l 1.04004,-2.09001 v 1.05 H 537.75 v 1.04001 -2.09001 l 1.04999,-4.17 v -1.04 l 1.04004,1.04 v 3.13 0 l 1.03997,2.09 v -1.05 l 1.03998,3.13 v 1.05 -2.08999 l 1.04999,-1.04001 v 0 h 1.04004 v 0 2.08 h 1.03998 v -1.03999 l 1.04004,-3.13001 v 2.09 1.04001 l 1.04998,1.03999 v -1.03999 l 1.03998,-1.04001 v 2.08 0 l 1.03998,1.05 v 1.04 l 1.05005,3.13 v 0 0 l 1.03998,-2.09 v -2.08 l 1.03998,1.04 v 1.04 1.04 l 1.04003,-2.08 v -1.04 l 1.04999,1.04 v -1.04 -2.08999 l 1.03998,1.03999 v 2.09 l 1.04004,3.13 v 0 1.03999 L 557.56,226.66 v -2.08 l 1.04999,1.03999 v 0 0 l 1.04003,1.04001 v -3.13 l 1.03998,1.05 v -1.05 -1.04 l 1.03998,-2.08 v -6.26001 l 1.05005,1.04001 v 1.04 -4.17 l 1.03998,1.04001 v 1.04998 2.08001 l 1.03997,-1.04 v -1.04001 l 1.04004,1.04001 v 0 -4.17 h 1.04999 v 1.04 l 1.03998,2.08999 v 2.08001 -2.08001 l 1.04004,-2.08999 v -1.04 l 1.03998,-2.09001 V 207.89 206.84 l 1.04999,2.08999 v 0 l 1.03997,-1.03999 v 0 0 h 1.04004 v 1.03999 h 1.03998 v 0 1.04001 l 1.04999,-2.08 v 2.08 l 1.04004,4.17999 v 0 -1.04998 l 1.03997,-1.04001 v -2.09 l 1.03998,5.22 v 1.04 2.09001 h 1.05005 V 219.36 l 1.03998,2.09 v 0 -1.04 l 1.03998,-1.05 v -2.08 h 1.04004 v 1.04001 -2.09001 l 1.04998,-1.04 v 0 l 1.03998,-2.08999 v 2.08999 2.09 l 1.04004,-2.09 v -1.04001 H 586.75 V 213.10001 211.02 h 1.04999 v 2.08001 l 1.04004,2.08999 v 0 -1.04001 L 589.88,213.10001 V 212.06 l 1.03998,1.04001 v 0 0 l 1.04999,1.04998 V 216.23 l 1.04004,-1.04 v -2.08999 0 h 1.03998 V 211.02 h 1.04004 v 0 -2.09001 l 1.04998,-1.03999 v 1.03999 l 1.03998,2.09001 v 1.04 0 l 1.03998,-2.09 v 2.09 l 1.04004,1.04001 v 0 -1.04001 l 1.04999,-1.04 v 0 l 1.03998,1.04 v 2.08999 -1.04998 l 1.04003,-1.04001 v -2.09 l 1.03998,-1.04001 v -1.03999 1.03999 l 1.04999,-2.08999 v 1.05 l 1.04004,2.08 v -3.13 2.08999 H 606.56 v 0 l 1.03998,1.04001 v -3.13 2.08999 h 1.05004 V 207.89 H 609.69 v 1.03999 1.04001 l 1.03998,-1.04001 V 211.02 l 1.04004,-1.05 v 1.05 0 l 1.04999,1.04 v 1.04001 l 1.03997,1.04998 v -1.04998 1.04998 l 1.04004,1.04001 v 0 l 1.04999,1.04 v 0 2.09001 l 1.03998,-1.04001 v 0 0 h 1.04004 v 0 h 1.03998 v 0 -1.05 l 1.04999,-1.04 v 0 h 1.03997 v 1.04 -1.04 h 1.04004 v 1.04 l 1.03998,-2.08001 v 1.04001 -2.08999 l 1.04999,-1.04001 v 0 l 1.04004,-1.04 v 1.04 -1.04 l 1.03997,-2.09001 V 209.97 l 1.03998,-1.04001 v 0 2.09001 h 1.05005"
       style="fill:none;stroke:#000000;stroke-width:1.043;stroke-linecap:round;stroke-linejoin:round;stroke-miterlimit:10;stroke-dasharray:none;stroke-opacity:1"
       clip-path="url(#clipPath58)"
       transform="matrix(0.26458333,0,0,0.26458333,-31.371956,-36.332902)" />
    <path
       id="path59"
       d="M 0,0 V -1.05 H 1.04 V 0 0 h 1.04 v 1.04 h 1.04 v 0 V 0 l 1.05,1.04 v 0 l 1.04,-2.09 v -2.08 0 l 1.04,-4.18 v 0 h 1.04 v 0 -1.04 h 1.05 v -2.08 l 1.04,-3.13 v -1.05 -1.04 l 1.04,1.04 v 0 l 1.04,1.05 v -1.05 1.05 l 1.05,-1.05 v 2.09 h 1.04 v -1.04 -1.05 l 1.04,3.13 v 0 h 1.04 v 0 0 l 1.05,-1.04 v 0 l 1.039999,-2.09 V -16.690001 -17.74 H 18.76 v -1.040001 h 1.039999 V -17.74 -18.780001 l 1.050001,-4.17 V -17.74 l 1.039999,-7.300001 V -14.61 v 2.09"
       style="fill:none;stroke:#000000;stroke-width:1.043;stroke-linecap:round;stroke-linejoin:round;stroke-miterlimit:10;stroke-dasharray:none;stroke-opacity:1"
       transform="matrix(0.26458333,0,0,0.26458333,134.90809,19.499471)"
       clip-path="url(#clipPath60)" />
    <path
       id="path61"
       d="M 212.48,284.04001 H 646.17999"
       style="fill:none;stroke:#000000;stroke-width:1.043;stroke-linecap:round;stroke-linejoin:round;stroke-miterlimit:10;stroke-dasharray:none;stroke-opacity:1"
       clip-path="url(#clipPath62)"
       transform="matrix(0.26458333,0,0,0.26458333,-31.371956,-36.332902)" />
    <path
       id="path63"
       d="m 212.48,284.04001 v 9.38998"
       style="fill:none;stroke:#000000;stroke-width:1.043;stroke-linecap:round;stroke-linejoin:round;stroke-miterlimit:10;stroke-dasharray:none;stroke-opacity:1"
       clip-path="url(#clipPath64)"
       transform="matrix(0.26458333,0,0,0.26458333,-31.371956,-36.332902)" />
    <path
       id="path65"
       d="m 320.91,284.04001 v 9.38998"
       style="fill:none;stroke:#000000;stroke-width:1.043;stroke-linecap:round;stroke-linejoin:round;stroke-miterlimit:10;stroke-dasharray:none;stroke-opacity:1"
       clip-path="url(#clipPath66)"
       transform="matrix(0.26458333,0,0,0.26458333,-31.371956,-36.332902)" />
    <path
       id="path67"
       d="m 429.32999,284.04001 v 9.38998"
       style="fill:none;stroke:#000000;stroke-width:1.043;stroke-linecap:round;stroke-linejoin:round;stroke-miterlimit:10;stroke-dasharray:none;stroke-opacity:1"
       clip-path="url(#clipPath68)"
       transform="matrix(0.26458333,0,0,0.26458333,-31.371956,-36.332902)" />
    <path
       id="path69"
       d="m 537.75,284.04001 v 9.38998"
       style="fill:none;stroke:#000000;stroke-width:1.043;stroke-linecap:round;stroke-linejoin:round;stroke-miterlimit:10;stroke-dasharray:none;stroke-opacity:1"
       clip-path="url(#clipPath70)"
       transform="matrix(0.26458333,0,0,0.26458333,-31.371956,-36.332902)" />
    <path
       id="path71"
       d="m 646.17999,284.04001 v 9.38998"
       style="fill:none;stroke:#000000;stroke-width:1.043;stroke-linecap:round;stroke-linejoin:round;stroke-miterlimit:10;stroke-dasharray:none;stroke-opacity:1"
       clip-path="url(#clipPath72)"
       transform="matrix(0.26458333,0,0,0.26458333,-31.371956,-36.332902)" />
    <path
       id="path73"
       d="m 22.46455,47.898651 -0.206705,0.56224 h -1.719792 v -0.0785 c 0.506429,-0.46302 0.86403,-0.84026 1.070736,-1.13275 0.206705,-0.29455 0.310058,-0.56327 0.310058,-0.80615 0,-0.18397 -0.05788,-0.3359 -0.173633,-0.45475 -0.113688,-0.12092 -0.248047,-0.1819 -0.405143,-0.1819 -0.14366,0 -0.272852,0.0434 -0.388607,0.12816 -0.113688,0.0827 -0.197404,0.20567 -0.252181,0.36793 h -0.07855 c 0.03514,-0.26458 0.128158,-0.46819 0.276986,-0.61185 0.148828,-0.14262 0.334863,-0.21497 0.558106,-0.21497 0.236678,0 0.434082,0.0775 0.591178,0.23151 0.159163,0.15193 0.239779,0.33073 0.239779,0.53743 0,0.14883 -0.03514,0.29663 -0.103353,0.44235 -0.107487,0.23462 -0.280087,0.48163 -0.516765,0.74001 -0.358634,0.39171 -0.581876,0.62735 -0.669726,0.70693 h 0.760677 c 0.153996,0 0.262516,-0.005 0.326595,-0.0165 0.06304,-0.0103 0.119889,-0.0341 0.169499,-0.0703 0.04961,-0.0351 0.09198,-0.0847 0.128157,-0.14883 z m 0.344166,-0.88057 c 0,-0.33279 0.04961,-0.62011 0.148828,-0.85989 0.09922,-0.24185 0.232544,-0.42272 0.401009,-0.54157 0.129191,-0.093 0.262516,-0.14056 0.401009,-0.14056 0.223243,0 0.422714,0.11472 0.599447,0.34313 0.223242,0.28422 0.334863,0.66869 0.334863,1.15342 0,0.339 -0.04961,0.62735 -0.148828,0.86403 -0.09715,0.23771 -0.221175,0.40928 -0.37207,0.51676 -0.151929,0.10749 -0.297656,0.16123 -0.438216,0.16123 -0.279053,0 -0.510564,-0.16536 -0.694532,-0.49609 -0.155029,-0.27802 -0.23151,-0.61185 -0.23151,-1.00046 z m 0.421679,0.0537 c 0,0.40307 0.04754,0.7307 0.144694,0.98392 0.08268,0.21497 0.204639,0.32246 0.367937,0.32246 0.07648,0 0.157096,-0.0341 0.239779,-0.10336 0.08268,-0.0713 0.145727,-0.1881 0.190169,-0.35139 0.06615,-0.24805 0.09922,-0.59635 0.09922,-1.04594 0,-0.33279 -0.03514,-0.61185 -0.103353,-0.83509 -0.05271,-0.16536 -0.118856,-0.28215 -0.198438,-0.3514 -0.06098,-0.0465 -0.132291,-0.0703 -0.214974,-0.0703 -0.09715,0 -0.183968,0.0434 -0.260449,0.12816 -0.10232,0.12196 -0.1726,0.31006 -0.21084,0.56637 -0.03617,0.25425 -0.05374,0.50643 -0.05374,0.75655 z m 1.782838,-0.0537 c 0,-0.33279 0.04961,-0.62011 0.148828,-0.85989 0.09922,-0.24185 0.232544,-0.42272 0.401009,-0.54157 0.129191,-0.093 0.262516,-0.14056 0.401009,-0.14056 0.223243,0 0.422714,0.11472 0.599447,0.34313 0.223242,0.28422 0.334863,0.66869 0.334863,1.15342 0,0.339 -0.04961,0.62735 -0.148828,0.86403 -0.09715,0.23771 -0.221175,0.40928 -0.37207,0.51676 -0.151929,0.10749 -0.297656,0.16123 -0.438216,0.16123 -0.279053,0 -0.510564,-0.16536 -0.694532,-0.49609 -0.155029,-0.27802 -0.23151,-0.61185 -0.23151,-1.00046 z m 0.42168,0.0537 c 0,0.40307 0.04754,0.7307 0.144694,0.98392 0.08268,0.21497 0.204638,0.32246 0.367936,0.32246 0.07648,0 0.157096,-0.0341 0.239779,-0.10336 0.08268,-0.0713 0.145727,-0.1881 0.190169,-0.35139 0.06615,-0.24805 0.09922,-0.59635 0.09922,-1.04594 0,-0.33279 -0.03514,-0.61185 -0.103353,-0.83509 -0.05271,-0.16536 -0.118856,-0.28215 -0.198438,-0.3514 -0.06098,-0.0465 -0.132291,-0.0703 -0.214974,-0.0703 -0.09715,0 -0.183968,0.0434 -0.260449,0.12816 -0.102319,0.12196 -0.172599,0.31006 -0.21084,0.56637 -0.03617,0.25425 -0.05374,0.50643 -0.05374,0.75655 z m 1.782837,-0.0537 c 0,-0.33279 0.04961,-0.62011 0.148828,-0.85989 0.09922,-0.24185 0.232544,-0.42272 0.401009,-0.54157 0.129191,-0.093 0.262516,-0.14056 0.401009,-0.14056 0.223242,0 0.422714,0.11472 0.599447,0.34313 0.223242,0.28422 0.334863,0.66869 0.334863,1.15342 0,0.339 -0.04961,0.62735 -0.148828,0.86403 -0.09715,0.23771 -0.221175,0.40928 -0.37207,0.51676 -0.151929,0.10749 -0.297657,0.16123 -0.438216,0.16123 -0.279053,0 -0.510564,-0.16536 -0.694532,-0.49609 -0.155029,-0.27802 -0.23151,-0.61185 -0.23151,-1.00046 z m 0.42168,0.0537 c 0,0.40307 0.04754,0.7307 0.144694,0.98392 0.08268,0.21497 0.204638,0.32246 0.367936,0.32246 0.07648,0 0.157096,-0.0341 0.239778,-0.10336 0.08268,-0.0713 0.145728,-0.1881 0.19017,-0.35139 0.06615,-0.24805 0.09922,-0.59635 0.09922,-1.04594 0,-0.33279 -0.03514,-0.61185 -0.103353,-0.83509 -0.05271,-0.16536 -0.118856,-0.28215 -0.198438,-0.3514 -0.06098,-0.0465 -0.132292,-0.0703 -0.214974,-0.0703 -0.09715,0 -0.183968,0.0434 -0.260449,0.12816 -0.102319,0.12196 -0.172599,0.31006 -0.21084,0.56637 -0.03617,0.25425 -0.05374,0.50643 -0.05374,0.75655 z m 23.525182,0.82682 -0.206705,0.56224 h -1.719793 v -0.0785 c 0.506429,-0.46302 0.86403,-0.84026 1.070737,-1.13275 0.206705,-0.29455 0.310058,-0.56327 0.310058,-0.80615 0,-0.18397 -0.05788,-0.3359 -0.173633,-0.45475 -0.113688,-0.12092 -0.248047,-0.1819 -0.405143,-0.1819 -0.143661,0 -0.272851,0.0434 -0.388607,0.12816 -0.113688,0.0827 -0.197404,0.20567 -0.252182,0.36793 h -0.07855 c 0.03514,-0.26458 0.128157,-0.46819 0.276986,-0.61185 0.148828,-0.14262 0.334863,-0.21497 0.558105,-0.21497 0.236678,0 0.434083,0.0775 0.591179,0.23151 0.159164,0.15193 0.239779,0.33073 0.239779,0.53743 0,0.14883 -0.03514,0.29663 -0.103354,0.44235 -0.107486,0.23462 -0.280086,0.48163 -0.516764,0.74001 -0.358634,0.39171 -0.581877,0.62735 -0.669726,0.70693 h 0.760676 c 0.153996,0 0.262517,-0.005 0.326595,-0.0165 0.06305,-0.0103 0.11989,-0.0341 0.169499,-0.0703 0.04961,-0.0351 0.09198,-0.0847 0.128158,-0.14883 z m 0.344166,-0.88057 c 0,-0.33279 0.04961,-0.62011 0.148827,-0.85989 0.09922,-0.24185 0.232545,-0.42272 0.401009,-0.54157 0.129192,-0.093 0.262516,-0.14056 0.40101,-0.14056 0.223241,0 0.422713,0.11472 0.599446,0.34313 0.223243,0.28422 0.334864,0.66869 0.334864,1.15342 0,0.339 -0.04961,0.62735 -0.148829,0.86403 -0.09715,0.23771 -0.221175,0.40928 -0.37207,0.51676 -0.151929,0.10749 -0.297656,0.16123 -0.438216,0.16123 -0.279053,0 -0.510564,-0.16536 -0.694531,-0.49609 -0.155029,-0.27802 -0.23151,-0.61185 -0.23151,-1.00046 z m 0.42168,0.0537 c 0,0.40307 0.04754,0.7307 0.144693,0.98392 0.08268,0.21497 0.204639,0.32246 0.367937,0.32246 0.07648,0 0.157096,-0.0341 0.239777,-0.10336 0.08268,-0.0713 0.145728,-0.1881 0.19017,-0.35139 0.06615,-0.24805 0.09922,-0.59635 0.09922,-1.04594 0,-0.33279 -0.03514,-0.61185 -0.103352,-0.83509 -0.05271,-0.16536 -0.118856,-0.28215 -0.198438,-0.3514 -0.06098,-0.0465 -0.132292,-0.0703 -0.214975,-0.0703 -0.09715,0 -0.183967,0.0434 -0.260449,0.12816 -0.102319,0.12196 -0.172599,0.31006 -0.21084,0.56637 -0.03617,0.25425 -0.05374,0.50643 -0.05374,0.75655 z m 1.782837,-0.0537 c 0,-0.33279 0.04961,-0.62011 0.148827,-0.85989 0.09922,-0.24185 0.232545,-0.42272 0.401009,-0.54157 0.129192,-0.093 0.262518,-0.14056 0.40101,-0.14056 0.223243,0 0.422713,0.11472 0.599447,0.34313 0.223242,0.28422 0.334862,0.66869 0.334862,1.15342 0,0.339 -0.04961,0.62735 -0.148827,0.86403 -0.09715,0.23771 -0.221175,0.40928 -0.372071,0.51676 -0.151929,0.10749 -0.297656,0.16123 -0.438216,0.16123 -0.279052,0 -0.510564,-0.16536 -0.694531,-0.49609 -0.15503,-0.27802 -0.23151,-0.61185 -0.23151,-1.00046 z m 0.421679,0.0537 c 0,0.40307 0.04754,0.7307 0.144695,0.98392 0.08268,0.21497 0.204637,0.32246 0.367936,0.32246 0.07648,0 0.157096,-0.0341 0.239779,-0.10336 0.08268,-0.0713 0.145727,-0.1881 0.190168,-0.35139 0.06615,-0.24805 0.09922,-0.59635 0.09922,-1.04594 0,-0.33279 -0.03514,-0.61185 -0.103352,-0.83509 -0.05271,-0.16536 -0.118857,-0.28215 -0.198439,-0.3514 -0.06098,-0.0465 -0.132291,-0.0703 -0.214974,-0.0703 -0.09715,0 -0.183967,0.0434 -0.260449,0.12816 -0.102319,0.12196 -0.172599,0.31006 -0.21084,0.56637 -0.03617,0.25425 -0.05374,0.50643 -0.05374,0.75655 z m 3.534669,-1.53376 -0.169499,0.36794 h -0.876433 l -0.194303,0.3886 c 0.380338,0.0579 0.682129,0.20051 0.905371,0.42582 0.19017,0.19637 0.285254,0.42581 0.285254,0.69039 0,0.15503 -0.03204,0.29766 -0.09508,0.42995 -0.06098,0.13023 -0.139527,0.23978 -0.235645,0.33073 -0.09405,0.091 -0.198438,0.16537 -0.314193,0.22324 -0.165365,0.0796 -0.334863,0.11989 -0.508496,0.11989 -0.173632,0 -0.300757,-0.031 -0.380339,-0.0909 -0.08061,-0.0599 -0.119888,-0.12609 -0.119888,-0.19843 0,-0.0383 0.01654,-0.0724 0.04961,-0.10336 0.03307,-0.0331 0.07441,-0.0496 0.124024,-0.0496 0.03824,0 0.07131,0.006 0.09922,0.0165 0.02687,0.0114 0.07441,0.0413 0.14056,0.0909 0.109554,0.0744 0.220142,0.11162 0.330729,0.11162 0.165365,0 0.311092,-0.063 0.438216,-0.19017 0.129191,-0.12919 0.194304,-0.28525 0.194304,-0.46715 0,-0.1757 -0.05788,-0.34003 -0.173634,-0.49196 -0.113688,-0.154 -0.268716,-0.27285 -0.467155,-0.35554 -0.157096,-0.0661 -0.371037,-0.10335 -0.640788,-0.11162 l 0.56224,-1.13688 z m 22.150584,2.36058 -0.2067,0.56224 h -1.71979 v -0.0785 c 0.50643,-0.46302 0.86403,-0.84026 1.07073,-1.13275 0.20671,-0.29455 0.31006,-0.56327 0.31006,-0.80615 0,-0.18397 -0.0579,-0.3359 -0.17363,-0.45475 -0.11369,-0.12092 -0.24805,-0.1819 -0.40514,-0.1819 -0.14367,0 -0.27286,0.0434 -0.38861,0.12816 -0.11369,0.0827 -0.19741,0.20567 -0.25218,0.36793 h -0.0786 c 0.0351,-0.26458 0.12815,-0.46819 0.27698,-0.61185 0.14883,-0.14262 0.33486,-0.21497 0.55811,-0.21497 0.23668,0 0.43408,0.0775 0.59118,0.23151 0.15916,0.15193 0.23977,0.33073 0.23977,0.53743 0,0.14883 -0.0351,0.29663 -0.10335,0.44235 -0.10749,0.23462 -0.28008,0.48163 -0.51676,0.74001 -0.35864,0.39171 -0.58188,0.62735 -0.66973,0.70693 h 0.76068 c 0.15399,0 0.26251,-0.005 0.32659,-0.0165 0.0631,-0.0103 0.11989,-0.0341 0.1695,-0.0703 0.0496,-0.0351 0.092,-0.0847 0.12816,-0.14883 z m 0.34417,-0.88057 c 0,-0.33279 0.0496,-0.62011 0.14883,-0.85989 0.0992,-0.24185 0.23254,-0.42272 0.40101,-0.54157 0.12919,-0.093 0.26251,-0.14056 0.40101,-0.14056 0.22324,0 0.42271,0.11472 0.59944,0.34313 0.22325,0.28422 0.33487,0.66869 0.33487,1.15342 0,0.339 -0.0496,0.62735 -0.14883,0.86403 -0.0971,0.23771 -0.22118,0.40928 -0.37207,0.51676 -0.15193,0.10749 -0.29766,0.16123 -0.43822,0.16123 -0.27905,0 -0.51056,-0.16536 -0.69453,-0.49609 -0.15503,-0.27802 -0.23151,-0.61185 -0.23151,-1.00046 z m 0.42168,0.0537 c 0,0.40307 0.0475,0.7307 0.14469,0.98392 0.0827,0.21497 0.20464,0.32246 0.36794,0.32246 0.0765,0 0.1571,-0.0341 0.23978,-0.10336 0.0827,-0.0713 0.14573,-0.1881 0.19017,-0.35139 0.0662,-0.24805 0.0992,-0.59635 0.0992,-1.04594 0,-0.33279 -0.0351,-0.61185 -0.10336,-0.83509 -0.0527,-0.16536 -0.11885,-0.28215 -0.19843,-0.3514 -0.061,-0.0465 -0.1323,-0.0703 -0.21498,-0.0703 -0.0971,0 -0.18397,0.0434 -0.26045,0.12816 -0.10232,0.12196 -0.1726,0.31006 -0.21084,0.56637 -0.0362,0.25425 -0.0537,0.50643 -0.0537,0.75655 z m 2.18178,-1.24851 0.71107,-0.34726 h 0.0703 v 2.46807 c 0,0.16536 0.006,0.26871 0.0207,0.31005 0.0134,0.0393 0.0413,0.0693 0.0827,0.0909 0.0434,0.0227 0.13229,0.0351 0.26458,0.0372 v 0.0785 h -1.09967 v -0.0785 c 0.13745,-0.002 0.22737,-0.0134 0.26871,-0.0331 0.0413,-0.0217 0.0682,-0.0506 0.0827,-0.0868 0.0165,-0.0351 0.0248,-0.14159 0.0248,-0.31832 v -1.5751 c 0,-0.21498 -0.007,-0.3514 -0.0207,-0.40928 -0.0114,-0.0465 -0.031,-0.0806 -0.0579,-0.10335 -0.0248,-0.0217 -0.0568,-0.0331 -0.0951,-0.0331 -0.0527,0 -0.12609,0.0227 -0.2191,0.0661 z m 1.84898,1.19476 c 0,-0.33279 0.0496,-0.62011 0.14883,-0.85989 0.0992,-0.24185 0.23254,-0.42272 0.40101,-0.54157 0.12919,-0.093 0.26252,-0.14056 0.40101,-0.14056 0.22324,0 0.42271,0.11472 0.59944,0.34313 0.22325,0.28422 0.33487,0.66869 0.33487,1.15342 0,0.339 -0.0496,0.62735 -0.14883,0.86403 -0.0971,0.23771 -0.22118,0.40928 -0.37207,0.51676 -0.15193,0.10749 -0.29766,0.16123 -0.43822,0.16123 -0.27905,0 -0.51056,-0.16536 -0.69453,-0.49609 -0.15503,-0.27802 -0.23151,-0.61185 -0.23151,-1.00046 z m 0.42168,0.0537 c 0,0.40307 0.0475,0.7307 0.1447,0.98392 0.0827,0.21497 0.20463,0.32246 0.36793,0.32246 0.0765,0 0.1571,-0.0341 0.23978,-0.10336 0.0827,-0.0713 0.14573,-0.1881 0.19017,-0.35139 0.0661,-0.24805 0.0992,-0.59635 0.0992,-1.04594 0,-0.33279 -0.0351,-0.61185 -0.10335,-0.83509 -0.0527,-0.16536 -0.11886,-0.28215 -0.19844,-0.3514 -0.061,-0.0465 -0.13229,-0.0703 -0.21497,-0.0703 -0.0971,0 -0.18397,0.0434 -0.26045,0.12816 -0.10232,0.12196 -0.1726,0.31006 -0.21084,0.56637 -0.0362,0.25425 -0.0537,0.50643 -0.0537,0.75655 z m 23.480743,0.82682 -0.2067,0.56224 h -1.71979 v -0.0785 c 0.50642,-0.46302 0.86403,-0.84026 1.07073,-1.13275 0.20671,-0.29455 0.31006,-0.56327 0.31006,-0.80615 0,-0.18397 -0.0579,-0.3359 -0.17363,-0.45475 -0.11369,-0.12092 -0.24805,-0.1819 -0.40515,-0.1819 -0.14366,0 -0.27285,0.0434 -0.3886,0.12816 -0.11369,0.0827 -0.19741,0.20567 -0.25218,0.36793 h -0.0786 c 0.0351,-0.26458 0.12815,-0.46819 0.27698,-0.61185 0.14883,-0.14262 0.33487,-0.21497 0.55811,-0.21497 0.23668,0 0.43408,0.0775 0.59118,0.23151 0.15916,0.15193 0.23977,0.33073 0.23977,0.53743 0,0.14883 -0.0351,0.29663 -0.10335,0.44235 -0.10749,0.23462 -0.28008,0.48163 -0.51676,0.74001 -0.35864,0.39171 -0.58188,0.62735 -0.66973,0.70693 h 0.76068 c 0.15399,0 0.26251,-0.005 0.32659,-0.0165 0.063,-0.0103 0.11989,-0.0341 0.1695,-0.0703 0.0496,-0.0351 0.092,-0.0847 0.12816,-0.14883 z m 0.34417,-0.88057 c 0,-0.33279 0.0496,-0.62011 0.14882,-0.85989 0.0992,-0.24185 0.23255,-0.42272 0.40101,-0.54157 0.1292,-0.093 0.26252,-0.14056 0.40101,-0.14056 0.22325,0 0.42272,0.11472 0.59945,0.34313 0.22324,0.28422 0.33486,0.66869 0.33486,1.15342 0,0.339 -0.0496,0.62735 -0.14882,0.86403 -0.0971,0.23771 -0.22118,0.40928 -0.37207,0.51676 -0.15193,0.10749 -0.29766,0.16123 -0.43822,0.16123 -0.27905,0 -0.51056,-0.16536 -0.69453,-0.49609 -0.15503,-0.27802 -0.23151,-0.61185 -0.23151,-1.00046 z m 0.42168,0.0537 c 0,0.40307 0.0475,0.7307 0.14469,0.98392 0.0827,0.21497 0.20464,0.32246 0.36794,0.32246 0.0765,0 0.15709,-0.0341 0.23978,-0.10336 0.0827,-0.0713 0.14572,-0.1881 0.19017,-0.35139 0.0661,-0.24805 0.0992,-0.59635 0.0992,-1.04594 0,-0.33279 -0.0351,-0.61185 -0.10336,-0.83509 -0.0527,-0.16536 -0.11885,-0.28215 -0.19843,-0.3514 -0.061,-0.0465 -0.1323,-0.0703 -0.21498,-0.0703 -0.0971,0 -0.18397,0.0434 -0.26045,0.12816 -0.10232,0.12196 -0.1726,0.31006 -0.21084,0.56637 -0.0362,0.25425 -0.0537,0.50643 -0.0537,0.75655 z m 2.13837,-1.24851 0.71107,-0.34726 h 0.0703 v 2.46807 c 0,0.16536 0.006,0.26871 0.0207,0.31005 0.0134,0.0393 0.0413,0.0693 0.0827,0.0909 0.0434,0.0227 0.13229,0.0351 0.26458,0.0372 v 0.0785 h -1.09967 v -0.0785 c 0.13745,-0.002 0.22737,-0.0134 0.26871,-0.0331 0.0413,-0.0217 0.0682,-0.0506 0.0827,-0.0868 0.0165,-0.0351 0.0248,-0.14159 0.0248,-0.31832 v -1.5751 c 0,-0.21498 -0.007,-0.3514 -0.0207,-0.40928 -0.0114,-0.0465 -0.031,-0.0806 -0.0579,-0.10335 -0.0248,-0.0217 -0.0568,-0.0331 -0.0951,-0.0331 -0.0527,0 -0.12609,0.0227 -0.21911,0.0661 z m 3.60185,-0.28525 -0.1695,0.36794 h -0.87643 l -0.19431,0.3886 c 0.38034,0.0579 0.68213,0.20051 0.90537,0.42582 0.19017,0.19637 0.28526,0.42581 0.28526,0.69039 0,0.15503 -0.032,0.29766 -0.0951,0.42995 -0.061,0.13023 -0.13952,0.23978 -0.23564,0.33073 -0.0941,0.091 -0.19844,0.16537 -0.31419,0.22324 -0.16537,0.0796 -0.33487,0.11989 -0.5085,0.11989 -0.17363,0 -0.30076,-0.031 -0.38034,-0.0909 -0.0806,-0.0599 -0.11989,-0.12609 -0.11989,-0.19843 0,-0.0383 0.0165,-0.0724 0.0496,-0.10336 0.0331,-0.0331 0.0744,-0.0496 0.12402,-0.0496 0.0382,0 0.0713,0.006 0.0992,0.0165 0.0269,0.0114 0.0744,0.0413 0.14056,0.0909 0.10956,0.0744 0.22014,0.11162 0.33073,0.11162 0.16537,0 0.31109,-0.063 0.43822,-0.19017 0.12919,-0.12919 0.1943,-0.28525 0.1943,-0.46715 0,-0.1757 -0.0579,-0.34003 -0.17363,-0.49196 -0.11369,-0.154 -0.26872,-0.27285 -0.46716,-0.35554 -0.15709,-0.0661 -0.37103,-0.10335 -0.64078,-0.11162 l 0.56224,-1.13688 z m 22.19399,2.36058 -0.2067,0.56224 h -1.71979 v -0.0785 c 0.50643,-0.46302 0.86403,-0.84026 1.07073,-1.13275 0.20671,-0.29455 0.31006,-0.56327 0.31006,-0.80615 0,-0.18397 -0.0579,-0.3359 -0.17363,-0.45475 -0.11369,-0.12092 -0.24805,-0.1819 -0.40515,-0.1819 -0.14366,0 -0.27285,0.0434 -0.3886,0.12816 -0.11369,0.0827 -0.19741,0.20567 -0.25218,0.36793 h -0.0785 c 0.0351,-0.26458 0.12816,-0.46819 0.27698,-0.61185 0.14883,-0.14262 0.33487,-0.21497 0.55811,-0.21497 0.23668,0 0.43408,0.0775 0.59118,0.23151 0.15916,0.15193 0.23978,0.33073 0.23978,0.53743 0,0.14883 -0.0351,0.29663 -0.10336,0.44235 -0.10748,0.23462 -0.28008,0.48163 -0.51676,0.74001 -0.35863,0.39171 -0.58188,0.62735 -0.66973,0.70693 h 0.76068 c 0.154,0 0.26252,-0.005 0.3266,-0.0165 0.063,-0.0103 0.11988,-0.0341 0.16949,-0.0703 0.0496,-0.0351 0.092,-0.0847 0.12816,-0.14883 z m 0.34417,-0.88057 c 0,-0.33279 0.0496,-0.62011 0.14883,-0.85989 0.0992,-0.24185 0.23254,-0.42272 0.40101,-0.54157 0.12919,-0.093 0.26251,-0.14056 0.40101,-0.14056 0.22324,0 0.42271,0.11472 0.59944,0.34313 0.22325,0.28422 0.33487,0.66869 0.33487,1.15342 0,0.339 -0.0496,0.62735 -0.14883,0.86403 -0.0971,0.23771 -0.22118,0.40928 -0.37207,0.51676 -0.15193,0.10749 -0.29766,0.16123 -0.43822,0.16123 -0.27905,0 -0.51056,-0.16536 -0.69453,-0.49609 -0.15503,-0.27802 -0.23151,-0.61185 -0.23151,-1.00046 z m 0.42168,0.0537 c 0,0.40307 0.0475,0.7307 0.14469,0.98392 0.0827,0.21497 0.20464,0.32246 0.36794,0.32246 0.0765,0 0.1571,-0.0341 0.23978,-0.10336 0.0827,-0.0713 0.14573,-0.1881 0.19017,-0.35139 0.0661,-0.24805 0.0992,-0.59635 0.0992,-1.04594 0,-0.33279 -0.0351,-0.61185 -0.10336,-0.83509 -0.0527,-0.16536 -0.11885,-0.28215 -0.19843,-0.3514 -0.061,-0.0465 -0.1323,-0.0703 -0.21498,-0.0703 -0.0971,0 -0.18397,0.0434 -0.26045,0.12816 -0.10232,0.12196 -0.1726,0.31006 -0.21084,0.56637 -0.0362,0.25425 -0.0537,0.50643 -0.0537,0.75655 z m 3.64319,0.82682 -0.20671,0.56224 h -1.71979 v -0.0785 c 0.50643,-0.46302 0.86403,-0.84026 1.07074,-1.13275 0.2067,-0.29455 0.31005,-0.56327 0.31005,-0.80615 0,-0.18397 -0.0579,-0.3359 -0.17363,-0.45475 -0.11369,-0.12092 -0.24805,-0.1819 -0.40514,-0.1819 -0.14366,0 -0.27285,0.0434 -0.38861,0.12816 -0.11369,0.0827 -0.1974,0.20567 -0.25218,0.36793 h -0.0785 c 0.0351,-0.26458 0.12816,-0.46819 0.27699,-0.61185 0.14883,-0.14262 0.33486,-0.21497 0.5581,-0.21497 0.23668,0 0.43409,0.0775 0.59118,0.23151 0.15917,0.15193 0.23978,0.33073 0.23978,0.53743 0,0.14883 -0.0351,0.29663 -0.10335,0.44235 -0.10749,0.23462 -0.28009,0.48163 -0.51677,0.74001 -0.35863,0.39171 -0.58187,0.62735 -0.66972,0.70693 h 0.76067 c 0.154,0 0.26252,-0.005 0.3266,-0.0165 0.063,-0.0103 0.11989,-0.0341 0.1695,-0.0703 0.0496,-0.0351 0.092,-0.0847 0.12816,-0.14883 z m 0.34313,-0.88057 c 0,-0.33279 0.0496,-0.62011 0.14883,-0.85989 0.0992,-0.24185 0.23254,-0.42272 0.40101,-0.54157 0.12919,-0.093 0.26251,-0.14056 0.40101,-0.14056 0.22324,0 0.42271,0.11472 0.59944,0.34313 0.22325,0.28422 0.33487,0.66869 0.33487,1.15342 0,0.339 -0.0496,0.62735 -0.14883,0.86403 -0.0971,0.23771 -0.22118,0.40928 -0.37207,0.51676 -0.15193,0.10749 -0.29766,0.16123 -0.43822,0.16123 -0.27905,0 -0.51056,-0.16536 -0.69453,-0.49609 -0.15503,-0.27802 -0.23151,-0.61185 -0.23151,-1.00046 z m 0.42168,0.0537 c 0,0.40307 0.0475,0.7307 0.14469,0.98392 0.0827,0.21497 0.20464,0.32246 0.36794,0.32246 0.0765,0 0.1571,-0.0341 0.23978,-0.10336 0.0827,-0.0713 0.14573,-0.1881 0.19017,-0.35139 0.0661,-0.24805 0.0992,-0.59635 0.0992,-1.04594 0,-0.33279 -0.0351,-0.61185 -0.10336,-0.83509 -0.0527,-0.16536 -0.11885,-0.28215 -0.19843,-0.3514 -0.061,-0.0465 -0.1323,-0.0703 -0.21498,-0.0703 -0.0971,0 -0.18397,0.0434 -0.26045,0.12816 -0.10232,0.12196 -0.1726,0.31006 -0.21084,0.56637 -0.0362,0.25425 -0.0537,0.50643 -0.0537,0.75655 z m 0,0"
       style="fill:#000000;fill-opacity:1;fill-rule:nonzero;stroke:none;stroke-width:0.0134653"
       aria-label="20002005201020152020" />
    <path
       id="path74"
       d="M 194.75999,263.17999 V 197.46001"
       style="fill:none;stroke:#000000;stroke-width:1.043;stroke-linecap:round;stroke-linejoin:round;stroke-miterlimit:10;stroke-dasharray:none;stroke-opacity:1"
       clip-path="url(#clipPath75)"
       transform="matrix(0.26458333,0,0,0.26458333,-31.371956,-36.332902)" />
    <path
       id="path76"
       d="M 194.75999,263.17999 H 185.38"
       style="fill:none;stroke:#000000;stroke-width:1.043;stroke-linecap:round;stroke-linejoin:round;stroke-miterlimit:10;stroke-dasharray:none;stroke-opacity:1"
       clip-path="url(#clipPath77)"
       transform="matrix(0.26458333,0,0,0.26458333,-31.371956,-36.332902)" />
    <path
       id="path78"
       d="M 194.75999,230.84 H 185.38"
       style="fill:none;stroke:#000000;stroke-width:1.043;stroke-linecap:round;stroke-linejoin:round;stroke-miterlimit:10;stroke-dasharray:none;stroke-opacity:1"
       clip-path="url(#clipPath79)"
       transform="matrix(0.26458333,0,0,0.26458333,-31.371956,-36.332902)" />
    <path
       id="path80"
       d="M 194.75999,197.46001 H 185.38"
       style="fill:none;stroke:#000000;stroke-width:1.043;stroke-linecap:round;stroke-linejoin:round;stroke-miterlimit:10;stroke-dasharray:none;stroke-opacity:1"
       clip-path="url(#clipPath81)"
       transform="matrix(0.26458333,0,0,0.26458333,-31.371956,-36.332902)" />
    <path
       id="path82"
       d="m 11.170147,34.694291 0.367937,0.1695 v 0.87643 l 0.388606,0.1943 c 0.05788,-0.38034 0.200505,-0.68213 0.425814,-0.90537 0.196371,-0.19017 0.425814,-0.28525 0.690398,-0.28525 0.155029,0 0.297656,0.032 0.429948,0.0951 0.130224,0.061 0.239778,0.13953 0.330729,0.23565 0.09095,0.0941 0.165364,0.19843 0.223242,0.31419 0.07958,0.16536 0.119889,0.33486 0.119889,0.5085 0,0.17363 -0.03101,0.30075 -0.09095,0.38033 -0.05994,0.0806 -0.126091,0.11989 -0.198438,0.11989 -0.03824,0 -0.07235,-0.0165 -0.103352,-0.0496 -0.03307,-0.0331 -0.04961,-0.0744 -0.04961,-0.12402 0,-0.0382 0.0062,-0.0713 0.01654,-0.0992 0.01137,-0.0269 0.04134,-0.0744 0.09095,-0.14056 0.07441,-0.10955 0.111621,-0.22014 0.111621,-0.33073 0,-0.16536 -0.06305,-0.31109 -0.190169,-0.43821 -0.129191,-0.12919 -0.285254,-0.19431 -0.467155,-0.19431 -0.1757,0 -0.340031,0.0579 -0.49196,0.17364 -0.153996,0.11368 -0.272851,0.26871 -0.355534,0.46715 -0.06615,0.1571 -0.103353,0.37104 -0.111621,0.64079 l -1.136882,-0.56224 z m 1.480014,-0.45165 c -0.332797,0 -0.620118,-0.0496 -0.859896,-0.14883 -0.241846,-0.0992 -0.422714,-0.23255 -0.54157,-0.40101 -0.09302,-0.12919 -0.140559,-0.26252 -0.140559,-0.40101 0,-0.22324 0.114721,-0.42271 0.343131,-0.59945 0.284221,-0.22324 0.668693,-0.33486 1.153418,-0.33486 0.338998,0 0.627352,0.0496 0.864031,0.14883 0.237711,0.0971 0.409277,0.22117 0.516764,0.37207 0.107487,0.15193 0.16123,0.29765 0.16123,0.43821 0,0.27906 -0.165364,0.51057 -0.496093,0.69454 -0.27802,0.15502 -0.61185,0.23151 -1.000456,0.23151 z m 0.05374,-0.42168 c 0.403076,0 0.730705,-0.0476 0.983919,-0.1447 0.214974,-0.0827 0.322461,-0.20464 0.322461,-0.36793 0,-0.0765 -0.03411,-0.1571 -0.103353,-0.23978 -0.07131,-0.0827 -0.188102,-0.14573 -0.351399,-0.19017 -0.248047,-0.0661 -0.596347,-0.0992 -1.045932,-0.0992 -0.332796,0 -0.611849,0.0351 -0.835091,0.10335 -0.165365,0.0527 -0.282153,0.11886 -0.3514,0.19844 -0.04651,0.061 -0.07028,0.13229 -0.07028,0.21497 0,0.0972 0.04341,0.18397 0.128158,0.26045 0.121956,0.10232 0.310058,0.1726 0.566374,0.21084 0.254248,0.0362 0.506429,0.0538 0.756543,0.0538 z m -0.05374,-1.78284 c -0.332797,0 -0.620118,-0.0496 -0.859896,-0.14883 -0.241846,-0.0992 -0.422714,-0.23254 -0.54157,-0.40101 -0.09302,-0.12919 -0.140559,-0.26251 -0.140559,-0.40101 0,-0.22324 0.114721,-0.42271 0.343131,-0.59944 0.284221,-0.22325 0.668693,-0.33487 1.153418,-0.33487 0.338998,0 0.627352,0.0496 0.864031,0.14883 0.237711,0.0971 0.409277,0.22118 0.516764,0.37207 0.107487,0.15193 0.16123,0.29766 0.16123,0.43822 0,0.27905 -0.165364,0.51056 -0.496093,0.69453 -0.27802,0.15503 -0.61185,0.23151 -1.000456,0.23151 z m 0.05374,-0.42168 c 0.403076,0 0.730705,-0.0475 0.983919,-0.14469 0.214974,-0.0827 0.322461,-0.20464 0.322461,-0.36794 0,-0.0765 -0.03411,-0.1571 -0.103353,-0.23978 -0.07131,-0.0827 -0.188102,-0.14573 -0.351399,-0.19017 -0.248047,-0.0661 -0.596347,-0.0992 -1.045932,-0.0992 -0.332796,0 -0.611849,0.0351 -0.835091,0.10336 -0.165365,0.0527 -0.282153,0.11885 -0.3514,0.19843 -0.04651,0.061 -0.07028,0.13229 -0.07028,0.21498 0,0.0971 0.04341,0.18396 0.128158,0.26045 0.121956,0.10232 0.310058,0.1726 0.566374,0.21084 0.254248,0.0362 0.506429,0.0537 0.756543,0.0537 z m -1.248503,-11.83701 -0.347265,-0.71106 v -0.0703 H 13.5762 c 0.165364,0 0.268717,-0.006 0.310058,-0.0207 0.03927,-0.0134 0.06925,-0.0413 0.09095,-0.0827 0.02274,-0.0434 0.03514,-0.13229 0.03721,-0.26458 h 0.07855 v 1.09967 h -0.07855 c -0.0021,-0.13745 -0.01344,-0.22737 -0.03307,-0.26871 -0.0217,-0.0413 -0.05064,-0.0682 -0.08682,-0.0827 -0.03514,-0.0165 -0.141593,-0.0248 -0.318326,-0.0248 h -1.575098 c -0.214975,0 -0.3514,0.007 -0.409278,0.0207 -0.04651,0.0114 -0.08062,0.031 -0.103353,0.0579 -0.0217,0.0248 -0.03307,0.0568 -0.03307,0.0951 0,0.0527 0.02274,0.12609 0.06615,0.21911 z m -0.285254,-3.60081 0.367937,0.1695 v 0.87643 l 0.388606,0.1943 c 0.05788,-0.38033 0.200505,-0.68212 0.425814,-0.90537 0.196371,-0.19017 0.425814,-0.28525 0.690398,-0.28525 0.155029,0 0.297656,0.032 0.429948,0.0951 0.130224,0.061 0.239778,0.13953 0.330729,0.23565 0.09095,0.0941 0.165364,0.19844 0.223242,0.31419 0.07958,0.16537 0.119889,0.33486 0.119889,0.5085 0,0.17363 -0.03101,0.30075 -0.09095,0.38034 -0.05994,0.0806 -0.126091,0.11989 -0.198438,0.11989 -0.03824,0 -0.07235,-0.0165 -0.103352,-0.0496 -0.03307,-0.0331 -0.04961,-0.0744 -0.04961,-0.12403 0,-0.0382 0.0062,-0.0713 0.01654,-0.0992 0.01137,-0.0269 0.04134,-0.0744 0.09095,-0.14056 0.07441,-0.10955 0.111621,-0.22014 0.111621,-0.33073 0,-0.16536 -0.06305,-0.31109 -0.190169,-0.43821 -0.129191,-0.12919 -0.285254,-0.1943 -0.467155,-0.1943 -0.1757,0 -0.340031,0.0579 -0.49196,0.17363 -0.153996,0.11369 -0.272851,0.26872 -0.355534,0.46715 -0.06615,0.1571 -0.103353,0.37104 -0.111621,0.64079 l -1.136882,-0.56224 z m 1.480014,-0.45165 c -0.332797,0 -0.620118,-0.0496 -0.859896,-0.14883 -0.241846,-0.0992 -0.422714,-0.23254 -0.54157,-0.40101 -0.09302,-0.12919 -0.140559,-0.26252 -0.140559,-0.40101 0,-0.22324 0.114721,-0.42271 0.343131,-0.59945 0.284221,-0.22324 0.668693,-0.33486 1.153418,-0.33486 0.338998,0 0.627352,0.0496 0.864031,0.14883 0.237711,0.0971 0.409277,0.22117 0.516764,0.37207 0.107487,0.15193 0.16123,0.29766 0.16123,0.43822 0,0.27905 -0.165364,0.51056 -0.496093,0.69453 -0.27802,0.15503 -0.61185,0.23151 -1.000456,0.23151 z m 0.05374,-0.42168 c 0.403076,0 0.730705,-0.0475 0.983919,-0.1447 0.214974,-0.0827 0.322461,-0.20464 0.322461,-0.36793 0,-0.0765 -0.03411,-0.1571 -0.103353,-0.23978 -0.07131,-0.0827 -0.188102,-0.14573 -0.351399,-0.19017 -0.248047,-0.0662 -0.596347,-0.0992 -1.045932,-0.0992 -0.332796,0 -0.611849,0.0351 -0.835091,0.10335 -0.165365,0.0527 -0.282153,0.11886 -0.3514,0.19844 -0.04651,0.061 -0.07028,0.13229 -0.07028,0.21497 0,0.0972 0.04341,0.18397 0.128158,0.26045 0.121956,0.10232 0.310058,0.1726 0.566374,0.21084 0.254248,0.0362 0.506429,0.0537 0.756543,0.0537 z m -0.05374,-1.78284 c -0.332797,0 -0.620118,-0.0496 -0.859896,-0.14883 -0.241846,-0.0992 -0.422714,-0.23254 -0.54157,-0.40101 -0.09302,-0.12919 -0.140559,-0.26251 -0.140559,-0.40101 0,-0.22324 0.114721,-0.42271 0.343131,-0.59944 0.284221,-0.22325 0.668693,-0.33487 1.153418,-0.33487 0.338998,0 0.627352,0.0496 0.864031,0.14883 0.237711,0.0971 0.409277,0.22118 0.516764,0.37207 0.107487,0.15193 0.16123,0.29766 0.16123,0.43822 0,0.27905 -0.165364,0.51056 -0.496093,0.69453 -0.27802,0.15503 -0.61185,0.23151 -1.000456,0.23151 z m 0.05374,-0.42168 c 0.403076,0 0.730705,-0.0475 0.983919,-0.14469 0.214974,-0.0827 0.322461,-0.20464 0.322461,-0.36794 0,-0.0765 -0.03411,-0.1571 -0.103353,-0.23978 -0.07131,-0.0827 -0.188102,-0.14573 -0.351399,-0.19017 -0.248047,-0.0661 -0.596347,-0.0992 -1.045932,-0.0992 -0.332796,0 -0.611849,0.0351 -0.835091,0.10336 -0.165365,0.0527 -0.282153,0.11885 -0.3514,0.19843 -0.04651,0.061 -0.07028,0.1323 -0.07028,0.21498 0,0.0971 0.04341,0.18397 0.128158,0.26045 0.121956,0.10232 0.310058,0.1726 0.566374,0.21084 0.254248,0.0362 0.506429,0.0537 0.756543,0.0537 z m 0,0"
       style="fill:#000000;fill-opacity:1;fill-rule:nonzero;stroke:none;stroke-width:0.0134653"
       aria-label="5001500" />
    <path
       id="path83"
       d="M 194.75999,284.04001 H 668.07001 V 168.25 H 194.75999 v 115.79001"
       style="fill:none;stroke:#000000;stroke-width:1.043;stroke-linecap:round;stroke-linejoin:round;stroke-miterlimit:10;stroke-dasharray:none;stroke-opacity:1"
       clip-path="url(#clipPath84)"
       transform="matrix(0.26458333,0,0,0.26458333,-31.371956,-36.332902)" />
    <path
       id="path85"
       d="m 4.3095851,36.528801 0.921908,-0.0744 v 0.0744 c -0.23151,0.0744 -0.405143,0.1726 -0.520898,0.29352 -0.167432,0.17364 -0.252182,0.39688 -0.252182,0.66973 0,0.37207 0.147795,0.65526 0.442351,0.84749 0.248047,0.1633 0.54467,0.24392 0.888835,0.24392 0.279053,0 0.533301,-0.0538 0.764811,-0.16123 0.229444,-0.10749 0.396875,-0.24805 0.504362,-0.42168 0.107487,-0.1757 0.161231,-0.35554 0.161231,-0.53744 0,-0.10748 -0.01344,-0.21084 -0.04134,-0.31006 -0.02687,-0.10128 -0.06718,-0.19947 -0.11989,-0.29352 h -0.847494 c -0.145727,0 -0.240812,0.0114 -0.285254,0.0331 -0.04651,0.0227 -0.08061,0.0568 -0.103352,0.10336 -0.02481,0.0475 -0.03721,0.13022 -0.03721,0.24804 h -0.08268 v -1.13274 h 0.08268 v 0.0537 c 0,0.11369 0.03721,0.19017 0.111621,0.23151 0.05271,0.0279 0.157096,0.0413 0.314192,0.0413 h 0.897104 c 0.08888,0.16537 0.152962,0.3297 0.194303,0.49196 0.04134,0.1602 0.06201,0.33797 0.06201,0.5333 0,0.56534 -0.179834,0.99426 -0.541569,1.28571 -0.272852,0.22118 -0.587045,0.33073 -0.942579,0.33073 -0.256315,0 -0.501261,-0.062 -0.735872,-0.18603 -0.28112,-0.14573 -0.497128,-0.34727 -0.649056,-0.60358 -0.124024,-0.21498 -0.186036,-0.46716 -0.186036,-0.75655 0,-0.10748 0.0083,-0.2036 0.02481,-0.28939 0.01654,-0.0879 0.05581,-0.21084 0.115755,-0.36793 0.03101,-0.0827 0.04548,-0.13746 0.04548,-0.16537 0,-0.0248 -0.0124,-0.0465 -0.03721,-0.0661 -0.02687,-0.0186 -0.07648,-0.031 -0.148828,-0.0372 z m 0.954981,-1.70635 c 0,-0.29766 0.114722,-0.53537 0.343132,-0.71521 0.19327,-0.15399 0.415478,-0.23151 0.665592,-0.23151 0.176734,0 0.355534,0.0434 0.537435,0.12816 0.181901,0.0827 0.320394,0.19844 0.413412,0.34727 0.09095,0.14883 0.136426,0.31419 0.136426,0.49609 0,0.29766 -0.117823,0.5333 -0.355534,0.70693 -0.200505,0.14883 -0.425814,0.22325 -0.673861,0.22325 -0.181901,0 -0.361735,-0.0434 -0.541569,-0.1323 -0.178801,-0.0909 -0.311093,-0.20877 -0.396875,-0.35553 -0.08475,-0.14573 -0.128158,-0.30179 -0.128158,-0.46715 z m 0.14056,0.0703 c 0,0.0744 0.02377,0.15089 0.07028,0.22737 0.04444,0.0775 0.12299,0.13953 0.235644,0.18604 0.113689,0.0475 0.259416,0.0703 0.438217,0.0703 0.287321,0 0.535368,-0.0558 0.744141,-0.1695 0.209806,-0.11266 0.314192,-0.26252 0.314192,-0.45062 0,-0.14056 -0.05788,-0.25425 -0.173632,-0.34313 -0.115756,-0.0909 -0.314193,-0.13643 -0.595313,-0.13643 -0.349333,0 -0.625285,0.0744 -0.826823,0.22325 -0.13746,0.10231 -0.206706,0.23357 -0.206706,0.39274 z m -1.174089,-1.98541 h 2.621029 c 0.124024,0 0.206706,-0.008 0.248047,-0.0248 0.03927,-0.0186 0.06925,-0.0465 0.09095,-0.0827 0.01964,-0.0382 0.02894,-0.10852 0.02894,-0.21084 h 0.07855 v 0.96325 h -0.07855 c 0,-0.0879 -0.0083,-0.14883 -0.0248,-0.1819 -0.0186,-0.0331 -0.05064,-0.0589 -0.09509,-0.0786 -0.04341,-0.0186 -0.12609,-0.0289 -0.248047,-0.0289 h -1.794206 c -0.223242,0 -0.359668,0.006 -0.409277,0.0165 -0.05168,0.008 -0.08682,0.0248 -0.103353,0.0496 -0.0186,0.0227 -0.02894,0.0496 -0.02894,0.0827 0,0.0393 0.01137,0.0858 0.03307,0.14056 l -0.07441,0.0372 -0.243913,-0.58705 z m 2.844272,-1.81798 c 0.102319,0.0971 0.1757,0.19017 0.219108,0.28112 0.04341,0.091 0.06615,0.19017 0.06615,0.29766 0,0.21497 -0.08888,0.40411 -0.268718,0.56637 -0.181901,0.1602 -0.414445,0.23978 -0.698665,0.23978 -0.283187,0 -0.542603,-0.0879 -0.777214,-0.26458 -0.233578,-0.17881 -0.3514,-0.40928 -0.3514,-0.6904 0,-0.17363 0.05581,-0.31626 0.165365,-0.42995 h -0.363803 c -0.225309,0 -0.364835,0.006 -0.417545,0.0165 -0.05168,0.0114 -0.08682,0.0279 -0.103353,0.0496 -0.0186,0.0227 -0.02894,0.0517 -0.02894,0.0868 0,0.0362 0.01137,0.0858 0.03307,0.14883 l -0.07441,0.0289 -0.243913,-0.59118 v -0.0951 h 2.286166 c 0.231511,0 0.374138,-0.005 0.425814,-0.0165 0.04961,-0.0103 0.08475,-0.0269 0.103353,-0.0496 0.01964,-0.0248 0.02894,-0.0517 0.02894,-0.0827 0,-0.0382 -0.0124,-0.091 -0.03721,-0.1571 l 0.07855,-0.0248 0.243913,0.58704 v 0.0992 z m -0.148829,0 h -1.016992 c -0.09922,0.008 -0.188102,0.0351 -0.268717,0.0786 -0.07958,0.0413 -0.14056,0.0982 -0.181901,0.1695 -0.04134,0.0723 -0.06201,0.14056 -0.06201,0.2067 0,0.12713 0.05684,0.23978 0.169498,0.339 0.148829,0.13022 0.367937,0.1943 0.657325,0.1943 0.289388,0 0.511597,-0.062 0.665592,-0.18603 0.15503,-0.12609 0.231511,-0.26665 0.231511,-0.42168 0,-0.13229 -0.06408,-0.25838 -0.194304,-0.38034 z m -1.405599,-0.71417 -0.248047,-0.60771 v -0.0827 h 0.463021 c -0.173633,-0.0992 -0.294555,-0.19947 -0.363802,-0.30179 -0.07131,-0.10438 -0.107487,-0.2129 -0.107487,-0.32659 0,-0.19844 0.07855,-0.3638 0.235645,-0.49609 0.188102,-0.16227 0.434082,-0.24392 0.740006,-0.24392 0.342098,0 0.623218,0.0982 0.84336,0.29352 0.185002,0.1633 0.276986,0.36587 0.276986,0.60772 0,0.10749 -0.0155,0.2005 -0.04548,0.27699 -0.0217,0.0558 -0.06614,0.11885 -0.132291,0.19016 h 0.60358 c 0.134359,0 0.220142,-0.006 0.256315,-0.0207 0.03514,-0.0165 0.06408,-0.0455 0.08682,-0.0868 0.0217,-0.0413 0.03307,-0.11576 0.03307,-0.22324 h 0.07855 v 1.03352 h -0.07855 v -0.0537 c 0.0021,-0.0796 -0.0124,-0.14676 -0.04547,-0.20257 -0.01654,-0.0269 -0.04341,-0.0475 -0.07855,-0.062 -0.03307,-0.0165 -0.121956,-0.0248 -0.264583,-0.0248 h -1.86862 c -0.126091,0 -0.206706,0.006 -0.239779,0.0165 -0.03514,0.0114 -0.06201,0.0289 -0.07855,0.0537 -0.0186,0.0248 -0.02894,0.06 -0.02894,0.10336 0,0.0362 0.01034,0.0806 0.02894,0.13229 z m 0.343132,-0.6904 h 0.735872 c 0.160197,0 0.264584,-0.005 0.314193,-0.0165 0.08268,-0.0186 0.156063,-0.0672 0.219108,-0.1447 0.06408,-0.0796 0.09509,-0.1788 0.09509,-0.29765 0,-0.14263 -0.05478,-0.26045 -0.165365,-0.3514 -0.148828,-0.11576 -0.355534,-0.17364 -0.620117,-0.17364 -0.302824,0 -0.534335,0.0661 -0.694531,0.19844 -0.112655,0.091 -0.169499,0.20051 -0.169499,0.3266 0,0.0692 0.01654,0.13849 0.04961,0.2067 0.02791,0.0496 0.106454,0.13436 0.235645,0.25218 z m -0.599447,-2.23345 h 0.446484 c -0.297656,-0.16537 -0.446484,-0.33486 -0.446484,-0.5085 0,-0.0765 0.02481,-0.14159 0.07441,-0.1943 0.04754,-0.0517 0.10232,-0.0786 0.165365,-0.0786 0.05581,0 0.103353,0.0196 0.144694,0.0579 0.03927,0.0362 0.05788,0.0806 0.05788,0.13229 0,0.0496 -0.0248,0.10645 -0.07441,0.1695 -0.04961,0.0641 -0.07441,0.10955 -0.07441,0.13642 0,0.0279 0.01447,0.0568 0.04134,0.0868 0.05788,0.0641 0.15503,0.13023 0.289389,0.19844 h 0.946712 c 0.110588,0 0.19327,-0.0134 0.248047,-0.0413 0.03927,-0.0165 0.07235,-0.0475 0.09922,-0.0951 0.0248,-0.0496 0.03721,-0.11782 0.03721,-0.2067 h 0.07855 v 1.00872 h -0.07855 c 0,-0.0992 -0.01447,-0.17363 -0.04548,-0.22324 -0.0248,-0.0351 -0.06201,-0.0599 -0.111621,-0.0744 -0.0248,-0.008 -0.09302,-0.0124 -0.206705,-0.0124 h -0.768946 c -0.22841,0 -0.364836,0.006 -0.409277,0.0165 -0.04341,0.008 -0.07545,0.0248 -0.09509,0.0496 -0.0186,0.0248 -0.02894,0.0568 -0.02894,0.0951 0,0.0444 0.01033,0.0941 0.02894,0.14883 l -0.07441,0.0207 -0.243913,-0.59531 z m 0.802018,-1.07384 c 0.29559,0 0.525033,-0.0713 0.690398,-0.21497 0.168465,-0.14263 0.252181,-0.31109 0.252181,-0.50436 0,-0.12919 -0.03514,-0.24082 -0.107487,-0.33487 -0.07131,-0.0961 -0.194304,-0.17776 -0.367936,-0.24391 l 0.04547,-0.0661 c 0.19637,0.031 0.375171,0.11886 0.537435,0.26459 0.163297,0.14366 0.243913,0.32453 0.243913,0.54157 0,0.23771 -0.09198,0.44028 -0.276986,0.60771 -0.183968,0.16847 -0.434082,0.25218 -0.748275,0.25218 -0.335897,0 -0.59738,-0.0848 -0.785482,-0.25631 -0.190169,-0.17364 -0.285254,-0.39068 -0.285254,-0.65319 0,-0.22014 0.07338,-0.40101 0.219108,-0.54157 0.146761,-0.14263 0.341065,-0.21498 0.58291,-0.21498 z m -0.124023,0 v -0.91364 c -0.126091,0.006 -0.216008,0.0207 -0.268717,0.0455 -0.07958,0.0362 -0.141594,0.0899 -0.186036,0.16123 -0.04651,0.0693 -0.07028,0.14263 -0.07028,0.21911 0,0.12195 0.04754,0.22944 0.14056,0.32246 0.09095,0.094 0.219108,0.14883 0.384473,0.16536 z m -1.711524,-2.15801 c 0,-0.0579 0.02274,-0.10748 0.06615,-0.14882 0.04134,-0.0434 0.09302,-0.0662 0.152962,-0.0662 0.06098,0 0.113688,0.0227 0.157097,0.0662 0.04134,0.0413 0.06201,0.0909 0.06201,0.14882 0,0.061 -0.02067,0.11369 -0.06201,0.1571 -0.04341,0.0444 -0.09612,0.0661 -0.157097,0.0661 -0.05994,0 -0.111621,-0.0207 -0.152962,-0.062 -0.04341,-0.0434 -0.06615,-0.0971 -0.06615,-0.16123 z m 1.033529,-0.17776 h 1.5875 c 0.124024,0 0.206706,-0.008 0.248047,-0.0248 0.04134,-0.0186 0.07235,-0.0455 0.09095,-0.0786 0.01964,-0.0351 0.02894,-0.10025 0.02894,-0.1943 h 0.07855 v 0.95498 h -0.07855 c 0,-0.093 -0.0083,-0.1571 -0.0248,-0.19017 -0.0186,-0.0331 -0.05064,-0.0589 -0.09509,-0.0786 -0.04341,-0.0186 -0.12609,-0.0289 -0.248047,-0.0289 h -0.760677 c -0.214974,0 -0.353467,0.006 -0.417545,0.0165 -0.04341,0.0114 -0.07442,0.0279 -0.09095,0.0496 -0.0186,0.0227 -0.02894,0.0517 -0.02894,0.0868 0,0.0413 0.01033,0.0899 0.02894,0.14469 l -0.07441,0.0331 -0.243913,-0.59531 z m 0,-1.64951 h 0.673861 v 0.0703 c -0.211874,0.0558 -0.355534,0.12609 -0.429948,0.21084 -0.07648,0.0827 -0.115755,0.19016 -0.115755,0.32246 0,0.10232 0.0279,0.185 0.08268,0.24804 0.05271,0.061 0.110588,0.0909 0.173633,0.0909 0.08061,0 0.148828,-0.0227 0.206706,-0.0703 0.06098,-0.0434 0.122989,-0.13436 0.186035,-0.27285 l 0.157096,-0.31419 c 0.14056,-0.28939 0.328662,-0.43408 0.56224,-0.43408 0.179834,0 0.324528,0.0682 0.434082,0.20257 0.109554,0.13539 0.165365,0.28732 0.165365,0.45475 0,0.12196 -0.02274,0.25942 -0.06615,0.41341 -0.01344,0.0476 -0.02067,0.0858 -0.02067,0.11576 0,0.0331 0.0186,0.0599 0.05374,0.0786 v 0.0703 h -0.7028 v -0.0703 c 0.201538,-0.0413 0.353467,-0.11783 0.454753,-0.23151 0.102319,-0.11266 0.152962,-0.23978 0.152962,-0.38034 0,-0.0992 -0.02894,-0.1788 -0.08682,-0.23978 -0.05788,-0.0631 -0.128158,-0.0951 -0.21084,-0.0951 -0.09922,0 -0.181901,0.0351 -0.248047,0.10336 -0.06821,0.0692 -0.153996,0.20877 -0.256315,0.41754 -0.104387,0.20671 -0.198438,0.34313 -0.28112,0.40928 -0.08268,0.0641 -0.187069,0.0951 -0.314193,0.0951 -0.159164,0 -0.294556,-0.0548 -0.405143,-0.16536 -0.109554,-0.11266 -0.165365,-0.25735 -0.165365,-0.43408 0,-0.0765 0.01654,-0.17053 0.04961,-0.28112 0.02274,-0.0713 0.03307,-0.11989 0.03307,-0.1447 0,-0.0248 -0.0041,-0.0424 -0.0124,-0.0537 -0.01033,-0.0134 -0.03411,-0.0289 -0.07028,-0.0455 z m -1.033529,-2.00815 c 0,-0.0579 0.02274,-0.10749 0.06615,-0.14883 0.04134,-0.0434 0.09302,-0.0662 0.152962,-0.0662 0.06098,0 0.113688,0.0227 0.157097,0.0662 0.04134,0.0413 0.06201,0.0909 0.06201,0.14883 0,0.061 -0.02067,0.11369 -0.06201,0.15709 -0.04341,0.0445 -0.09612,0.0661 -0.157097,0.0661 -0.05994,0 -0.111621,-0.0207 -0.152962,-0.062 -0.04341,-0.0434 -0.06615,-0.0971 -0.06615,-0.16123 z m 1.033529,-0.17777 h 1.5875 c 0.124024,0 0.206706,-0.008 0.248047,-0.0248 0.04134,-0.0186 0.07235,-0.0455 0.09095,-0.0786 0.01964,-0.0351 0.02894,-0.10025 0.02894,-0.1943 h 0.07855 v 0.95498 h -0.07855 c 0,-0.093 -0.0083,-0.1571 -0.0248,-0.19017 -0.0186,-0.0331 -0.05064,-0.0589 -0.09509,-0.0786 -0.04341,-0.0186 -0.12609,-0.0289 -0.248047,-0.0289 h -0.760677 c -0.214974,0 -0.353467,0.006 -0.417545,0.0165 -0.04341,0.0114 -0.07442,0.0279 -0.09095,0.0496 -0.0186,0.0227 -0.02894,0.0517 -0.02894,0.0868 0,0.0413 0.01033,0.0899 0.02894,0.1447 l -0.07441,0.0331 -0.243913,-0.59531 z m 0.417546,-0.99425 c -0.27802,-0.23151 -0.417546,-0.45166 -0.417546,-0.66146 0,-0.10749 0.02791,-0.19947 0.08268,-0.27699 0.05271,-0.0765 0.14056,-0.13849 0.264584,-0.18603 0.08578,-0.03 0.218074,-0.0455 0.396875,-0.0455 h 0.843359 c 0.124024,0 0.209807,-0.0103 0.256316,-0.0331 0.03617,-0.0134 0.06408,-0.0382 0.08268,-0.0744 0.01964,-0.0351 0.02894,-0.10026 0.02894,-0.19431 h 0.07855 v 0.97152 h -0.07855 v -0.0372 c 0,-0.093 -0.01344,-0.15813 -0.04134,-0.1943 -0.02687,-0.0351 -0.06821,-0.06 -0.124024,-0.0744 -0.0217,-0.008 -0.08888,-0.0124 -0.202572,-0.0124 h -0.810286 c -0.178801,0 -0.307992,0.0238 -0.388607,0.0703 -0.08268,0.0475 -0.124024,0.12609 -0.124024,0.23565 0,0.17156 0.09405,0.34209 0.28112,0.51263 h 1.041797 c 0.135393,0 0.218075,-0.008 0.248047,-0.0248 0.04134,-0.0186 0.07235,-0.0465 0.09095,-0.0827 0.01964,-0.0351 0.02894,-0.10749 0.02894,-0.21497 h 0.07855 v 0.97565 h -0.07855 v -0.0413 c 0,-0.10129 -0.0248,-0.1695 -0.07441,-0.20258 -0.05168,-0.0351 -0.149862,-0.0537 -0.293523,-0.0537 h -0.731738 c -0.236678,0 -0.381372,0.006 -0.434082,0.0165 -0.05168,0.008 -0.08682,0.0248 -0.103353,0.0496 -0.0186,0.0227 -0.02894,0.0517 -0.02894,0.0868 0,0.0413 0.01033,0.0899 0.02894,0.1447 l -0.07441,0.0331 -0.243913,-0.59531 v -0.0909 z m -1.227833,-4.7439 h -0.07855 v -1.0294 h 0.07855 v 0.10749 c 0,0.11576 0.04858,0.20464 0.144694,0.26459 0.04444,0.031 0.147795,0.0455 0.310059,0.0455 h 1.186491 c 0.292489,0 0.519865,0.0289 0.682129,0.0868 0.163298,0.0579 0.301791,0.1726 0.417546,0.34313 0.115755,0.17156 0.173633,0.40308 0.173633,0.69453 0,0.31729 -0.05581,0.55811 -0.165365,0.72347 -0.112654,0.16537 -0.261483,0.28319 -0.446484,0.3514 -0.129191,0.0475 -0.370004,0.0703 -0.72347,0.0703 h -1.141016 c -0.178801,0 -0.29559,0.0248 -0.3514,0.0744 -0.05788,0.0496 -0.08682,0.13023 -0.08682,0.23978 v 0.10749 h -0.07855 v -1.2609 h 0.07855 v 0.11162 c 0,0.12195 0.03927,0.20877 0.115756,0.26045 0.05271,0.0362 0.160197,0.0537 0.322461,0.0537 h 1.273307 c 0.113688,0 0.243913,-0.009 0.392741,-0.0289 0.146761,-0.0217 0.260449,-0.0599 0.343132,-0.11576 0.08061,-0.0548 0.147794,-0.13332 0.202571,-0.23564 0.05271,-0.10129 0.07855,-0.22738 0.07855,-0.3762 0,-0.19224 -0.04134,-0.36381 -0.124024,-0.51263 -0.08475,-0.1509 -0.192236,-0.25425 -0.322461,-0.31006 -0.129191,-0.0548 -0.349333,-0.0827 -0.661458,-0.0827 h -1.182357 c -0.181901,0 -0.29559,0.0207 -0.343132,0.062 -0.06305,0.0558 -0.09509,0.13849 -0.09509,0.24804 z m -0.144694,-3.22358 h 1.008725 v 0.0827 c -0.192237,0.0248 -0.347266,0.0703 -0.463021,0.13642 -0.115756,0.0661 -0.206706,0.16123 -0.272852,0.28526 -0.06821,0.12402 -0.103353,0.25218 -0.103353,0.38447 0,0.14883 0.04754,0.27285 0.14056,0.37207 0.09095,0.0971 0.194303,0.14469 0.310059,0.14469 0.08888,0 0.169498,-0.031 0.243913,-0.0951 0.107486,-0.0878 0.251147,-0.29869 0.429948,-0.63252 0.146761,-0.27285 0.259415,-0.45889 0.338997,-0.55811 0.07752,-0.10128 0.169499,-0.1788 0.276986,-0.23151 0.10542,-0.0548 0.217041,-0.0827 0.334863,-0.0827 0.221175,0 0.411345,0.0868 0.570508,0.26045 0.160197,0.17157 0.239779,0.39171 0.239779,0.66146 0,0.0827 -0.0072,0.16123 -0.02067,0.23564 -0.0062,0.0475 -0.03101,0.14056 -0.07441,0.28112 -0.04651,0.1385 -0.07028,0.22634 -0.07028,0.26459 0,0.0362 0.01137,0.0651 0.03307,0.0868 0.02274,0.0196 0.06615,0.0331 0.132292,0.0413 v 0.0827 h -1.000456 v -0.0827 c 0.209806,-0.0351 0.366903,-0.0847 0.471289,-0.14882 0.102319,-0.0631 0.188102,-0.15917 0.256315,-0.28939 0.06925,-0.12919 0.103353,-0.27079 0.103353,-0.42582 0,-0.1788 -0.04651,-0.32039 -0.14056,-0.42581 -0.09302,-0.10439 -0.204639,-0.1571 -0.334863,-0.1571 -0.07131,0 -0.144694,0.0207 -0.219108,0.062 -0.07441,0.0393 -0.141594,0.0992 -0.202572,0.18191 -0.04341,0.0558 -0.136426,0.20877 -0.276986,0.45888 -0.14056,0.24805 -0.252181,0.42582 -0.334863,0.5333 -0.08268,0.10542 -0.173633,0.185 -0.272852,0.23978 -0.101286,0.0527 -0.212907,0.0786 -0.334863,0.0786 -0.208773,0 -0.389641,-0.0796 -0.541569,-0.23978 -0.150896,-0.15916 -0.227377,-0.3638 -0.227377,-0.61185 0,-0.15399 0.03721,-0.31832 0.111621,-0.49196 0.03617,-0.0827 0.05374,-0.14056 0.05374,-0.17363 0,-0.0351 -0.01033,-0.0641 -0.03307,-0.0868 -0.0217,-0.0248 -0.06615,-0.0434 -0.132292,-0.0579 z m 2.988966,-0.52193 h -0.07855 v -0.11162 c 0,-0.12402 -0.03927,-0.21084 -0.11989,-0.26045 -0.04651,-0.0331 -0.152962,-0.0496 -0.318327,-0.0496 h -1.88929 c -0.181901,0 -0.29559,0.0207 -0.343132,0.062 -0.06305,0.0558 -0.09509,0.1385 -0.09509,0.24805 v 0.11162 h -0.07855 V 9.5320206 c 0,-0.43512 0.04961,-0.76585 0.148828,-0.99219 0.09922,-0.22841 0.264584,-0.41135 0.496094,-0.54984 0.231511,-0.13746 0.499195,-0.2067 0.802019,-0.2067 0.405143,0 0.74414,0.12298 1.016992,0.36793 0.305925,0.27905 0.458887,0.70073 0.458887,1.26504 z m -0.21084,-0.8350904 c 0.03927,-0.1819 0.05788,-0.33486 0.05788,-0.45889 0,-0.33073 -0.116789,-0.60564 -0.3514,-0.82682 -0.233578,-0.22014 -0.550871,-0.33073 -0.950847,-0.33073 -0.405143,0 -0.72347,0.11059 -0.954981,0.33073 -0.233577,0.22118 -0.351399,0.50333 -0.351399,0.84749 0,0.12713 0.02274,0.27286 0.06614,0.43822 z m 0,0"
       style="fill:#000000;fill-opacity:1;fill-rule:nonzero;stroke:none;stroke-width:0.0134653"
       aria-label="Goldpreis in USD" />
    <path
       id="path86"
       d="M 342.79999,284.04001 V 168.25"
       style="fill:none;stroke:#0000ff;stroke-width:1.043;stroke-linecap:round;stroke-linejoin:round;stroke-miterlimit:10;stroke-dasharray:none;stroke-opacity:1"
       clip-path="url(#clipPath87)"
       transform="matrix(0.26458333,0,0,0.26458333,-31.371956,-36.332902)" />
    <path
       id="path88"
       d="M 495.01001,284.04001 V 168.25"
       style="fill:none;stroke:#0000ff;stroke-width:1.043;stroke-linecap:round;stroke-linejoin:round;stroke-miterlimit:10;stroke-dasharray:none;stroke-opacity:1"
       clip-path="url(#clipPath89)"
       transform="matrix(0.26458333,0,0,0.26458333,-31.371956,-36.332902)" />
  </g>
</svg>
