<?xml version="1.0" encoding="UTF-8" standalone="no"?>
<!-- Created with Inkscape (http://www.inkscape.org/) -->

<svg
   width="148mm"
   height="54mm"
   viewBox="0 0 148 54"
   version="1.1"
   id="svg1"
   inkscape:version="1.3 (0e150ed6c4, 2023-07-21)"
   sodipodi:docname="GoldfutureRenditen.svg"
   xmlns:inkscape="http://www.inkscape.org/namespaces/inkscape"
   xmlns:sodipodi="http://sodipodi.sourceforge.net/DTD/sodipodi-0.dtd"
   xmlns="http://www.w3.org/2000/svg"
   xmlns:svg="http://www.w3.org/2000/svg">
  <sodipodi:namedview
     id="namedview1"
     pagecolor="#ffffff"
     bordercolor="#000000"
     borderopacity="0.25"
     inkscape:showpageshadow="2"
     inkscape:pageopacity="0.0"
     inkscape:pagecheckerboard="0"
     inkscape:deskcolor="#d1d1d1"
     inkscape:document-units="mm"
     inkscape:zoom="1.0218084"
     inkscape:cx="396.84545"
     inkscape:cy="482.96728"
     inkscape:window-width="2560"
     inkscape:window-height="1361"
     inkscape:window-x="2551"
     inkscape:window-y="-9"
     inkscape:window-maximized="1"
     inkscape:current-layer="layer1" />
  <defs
     id="defs1">
    <clipPath
       clipPathUnits="userSpaceOnUse"
       id="clipPath58">
      <path
         d="M 194.72,168.32001 V 285.12 h 474.4 V 168.32001 Z"
         clip-rule="evenodd"
         id="path58" />
    </clipPath>
    <clipPath
       clipPathUnits="userSpaceOnUse"
       id="clipPath60">
      <path
         d="M 194.72,168.32001 V 285.12 h 474.4 V 168.32001 Z"
         transform="translate(-628.46002,-211.02001)"
         clip-rule="evenodd"
         id="path60" />
    </clipPath>
    <clipPath
       clipPathUnits="userSpaceOnUse"
       id="clipPath62">
      <path
         d="M 113.44,155.52 V 335.35999 H 680.64001 V 155.52 Z"
         clip-rule="evenodd"
         id="path62" />
    </clipPath>
    <clipPath
       clipPathUnits="userSpaceOnUse"
       id="clipPath64">
      <path
         d="M 113.44,155.52 V 335.35999 H 680.64001 V 155.52 Z"
         clip-rule="evenodd"
         id="path64" />
    </clipPath>
    <clipPath
       clipPathUnits="userSpaceOnUse"
       id="clipPath66">
      <path
         d="M 113.44,155.52 V 335.35999 H 680.64001 V 155.52 Z"
         clip-rule="evenodd"
         id="path66" />
    </clipPath>
    <clipPath
       clipPathUnits="userSpaceOnUse"
       id="clipPath68">
      <path
         d="M 113.44,155.52 V 335.35999 H 680.64001 V 155.52 Z"
         clip-rule="evenodd"
         id="path68" />
    </clipPath>
    <clipPath
       clipPathUnits="userSpaceOnUse"
       id="clipPath70">
      <path
         d="M 113.44,155.52 V 335.35999 H 680.64001 V 155.52 Z"
         clip-rule="evenodd"
         id="path70" />
    </clipPath>
    <clipPath
       clipPathUnits="userSpaceOnUse"
       id="clipPath72">
      <path
         d="M 113.44,155.52 V 335.35999 H 680.64001 V 155.52 Z"
         clip-rule="evenodd"
         id="path72" />
    </clipPath>
    <clipPath
       clipPathUnits="userSpaceOnUse"
       id="clipPath75">
      <path
         d="M 113.44,155.52 V 335.35999 H 680.64001 V 155.52 Z"
         clip-rule="evenodd"
         id="path75" />
    </clipPath>
    <clipPath
       clipPathUnits="userSpaceOnUse"
       id="clipPath77">
      <path
         d="M 113.44,155.52 V 335.35999 H 680.64001 V 155.52 Z"
         clip-rule="evenodd"
         id="path77" />
    </clipPath>
    <clipPath
       clipPathUnits="userSpaceOnUse"
       id="clipPath79">
      <path
         d="M 113.44,155.52 V 335.35999 H 680.64001 V 155.52 Z"
         clip-rule="evenodd"
         id="path79" />
    </clipPath>
    <clipPath
       clipPathUnits="userSpaceOnUse"
       id="clipPath81">
      <path
         d="M 113.44,155.52 V 335.35999 H 680.64001 V 155.52 Z"
         clip-rule="evenodd"
         id="path81" />
    </clipPath>
    <clipPath
       clipPathUnits="userSpaceOnUse"
       id="clipPath84">
      <path
         d="M 113.44,155.52 V 335.35999 H 680.64001 V 155.52 Z"
         clip-rule="evenodd"
         id="path84" />
    </clipPath>
    <clipPath
       clipPathUnits="userSpaceOnUse"
       id="clipPath87">
      <path
         d="m 342.07999,168.32001 h 1.6 v 116.63998 h -1.6 z"
         clip-rule="evenodd"
         id="path87" />
    </clipPath>
    <clipPath
       clipPathUnits="userSpaceOnUse"
       id="clipPath89">
      <path
         d="M 494.23999,168.32001 H 496 v 116.63998 h -1.76001 z"
         clip-rule="evenodd"
         id="path89" />
    </clipPath>
    <clipPath
       clipPathUnits="userSpaceOnUse"
       id="clipPath22">
      <path
         d="M 113.44,589.91998 V 777.28003 H 693.12 V 589.91998 Z"
         clip-rule="evenodd"
         id="path22" />
    </clipPath>
    <clipPath
       clipPathUnits="userSpaceOnUse"
       id="clipPath24">
      <path
         d="M 113.44,589.91998 V 777.28003 H 693.12 V 589.91998 Z"
         clip-rule="evenodd"
         id="path24" />
    </clipPath>
    <clipPath
       clipPathUnits="userSpaceOnUse"
       id="clipPath26">
      <path
         d="M 113.44,589.91998 V 777.28003 H 693.12 V 589.91998 Z"
         clip-rule="evenodd"
         id="path26" />
    </clipPath>
    <clipPath
       clipPathUnits="userSpaceOnUse"
       id="clipPath28">
      <path
         d="M 113.44,589.91998 V 777.28003 H 693.12 V 589.91998 Z"
         clip-rule="evenodd"
         id="path28" />
    </clipPath>
    <clipPath
       clipPathUnits="userSpaceOnUse"
       id="clipPath30">
      <path
         d="M 113.44,589.91998 V 777.28003 H 693.12 V 589.91998 Z"
         clip-rule="evenodd"
         id="path30" />
    </clipPath>
    <clipPath
       clipPathUnits="userSpaceOnUse"
       id="clipPath32">
      <path
         d="M 113.44,589.91998 V 777.28003 H 693.12 V 589.91998 Z"
         clip-rule="evenodd"
         id="path32" />
    </clipPath>
    <clipPath
       clipPathUnits="userSpaceOnUse"
       id="clipPath35">
      <path
         d="M 113.44,589.91998 V 777.28003 H 693.12 V 589.91998 Z"
         clip-rule="evenodd"
         id="path35" />
    </clipPath>
    <clipPath
       clipPathUnits="userSpaceOnUse"
       id="clipPath37">
      <path
         d="M 113.44,589.91998 V 777.28003 H 693.12 V 589.91998 Z"
         clip-rule="evenodd"
         id="path37" />
    </clipPath>
    <clipPath
       clipPathUnits="userSpaceOnUse"
       id="clipPath39">
      <path
         d="M 113.44,589.91998 V 777.28003 H 693.12 V 589.91998 Z"
         clip-rule="evenodd"
         id="path39" />
    </clipPath>
    <clipPath
       clipPathUnits="userSpaceOnUse"
       id="clipPath41">
      <path
         d="M 113.44,589.91998 V 777.28003 H 693.12 V 589.91998 Z"
         clip-rule="evenodd"
         id="path41" />
    </clipPath>
    <clipPath
       clipPathUnits="userSpaceOnUse"
       id="clipPath43">
      <path
         d="M 113.44,589.91998 V 777.28003 H 693.12 V 589.91998 Z"
         clip-rule="evenodd"
         id="path43" />
    </clipPath>
    <clipPath
       clipPathUnits="userSpaceOnUse"
       id="clipPath45">
      <path
         d="M 113.44,589.91998 V 777.28003 H 693.12 V 589.91998 Z"
         clip-rule="evenodd"
         id="path45" />
    </clipPath>
    <clipPath
       clipPathUnits="userSpaceOnUse"
       id="clipPath48">
      <path
         d="M 113.44,589.91998 V 777.28003 H 693.12 V 589.91998 Z"
         clip-rule="evenodd"
         id="path48" />
    </clipPath>
    <clipPath
       clipPathUnits="userSpaceOnUse"
       id="clipPath51">
      <path
         d="M 113.44,589.91998 V 777.28003 H 693.12 V 589.91998 Z"
         clip-rule="evenodd"
         id="path51" />
    </clipPath>
    <clipPath
       clipPathUnits="userSpaceOnUse"
       id="clipPath53">
      <path
         d="M 189.60001,613.59998 V 729.44 h 486.72 V 613.59998 Z"
         clip-rule="evenodd"
         id="path53" />
    </clipPath>
    <clipPath
       clipPathUnits="userSpaceOnUse"
       id="clipPath55">
      <path
         d="M 189.60001,613.59998 V 729.44 h 486.72 V 613.59998 Z"
         transform="translate(-636.25,-675.95002)"
         clip-rule="evenodd"
         id="path55" />
    </clipPath>
  </defs>
  <g
     inkscape:label="Ebene 1"
     inkscape:groupmode="layer"
     id="layer1">
    <path
       id="path21"
       d="M 207.08,728.5 H 652.83002"
       style="fill:none;stroke:#000000;stroke-width:0.975;stroke-linecap:round;stroke-linejoin:round;stroke-miterlimit:10;stroke-dasharray:none;stroke-opacity:1"
       clip-path="url(#clipPath22)"
       transform="matrix(0.26458333,0,0,0.26458333,-32.938725,-153.71852)" />
    <path
       id="path23"
       d="m 207.08,728.5 v 8.76001"
       style="fill:none;stroke:#000000;stroke-width:0.975;stroke-linecap:round;stroke-linejoin:round;stroke-miterlimit:10;stroke-dasharray:none;stroke-opacity:1"
       clip-path="url(#clipPath24)"
       transform="matrix(0.26458333,0,0,0.26458333,-32.938725,-153.71852)" />
    <path
       id="path25"
       d="m 318.26999,728.5 v 8.76001"
       style="fill:none;stroke:#000000;stroke-width:0.975;stroke-linecap:round;stroke-linejoin:round;stroke-miterlimit:10;stroke-dasharray:none;stroke-opacity:1"
       clip-path="url(#clipPath26)"
       transform="matrix(0.26458333,0,0,0.26458333,-32.938725,-153.71852)" />
    <path
       id="path27"
       d="m 430.44,728.5 v 8.76001"
       style="fill:none;stroke:#000000;stroke-width:0.975;stroke-linecap:round;stroke-linejoin:round;stroke-miterlimit:10;stroke-dasharray:none;stroke-opacity:1"
       clip-path="url(#clipPath28)"
       transform="matrix(0.26458333,0,0,0.26458333,-32.938725,-153.71852)" />
    <path
       id="path29"
       d="m 541.63,728.5 v 8.76001"
       style="fill:none;stroke:#000000;stroke-width:0.975;stroke-linecap:round;stroke-linejoin:round;stroke-miterlimit:10;stroke-dasharray:none;stroke-opacity:1"
       clip-path="url(#clipPath30)"
       transform="matrix(0.26458333,0,0,0.26458333,-32.938725,-153.71852)" />
    <path
       id="path31"
       d="m 652.83002,728.5 v 8.76001"
       style="fill:none;stroke:#000000;stroke-width:0.975;stroke-linecap:round;stroke-linejoin:round;stroke-miterlimit:10;stroke-dasharray:none;stroke-opacity:1"
       clip-path="url(#clipPath32)"
       transform="matrix(0.26458333,0,0,0.26458333,-32.938725,-153.71852)" />
    <path
       id="path33"
       d="m 19.585199,47.516744 -0.194303,0.525032 h -1.612304 v -0.07441 c 0.473356,-0.432015 0.807185,-0.785482 1.000455,-1.058333 0.195337,-0.272852 0.293522,-0.522966 0.293522,-0.752409 0,-0.170532 -0.05374,-0.311092 -0.16123,-0.42168 -0.10542,-0.112654 -0.231511,-0.169498 -0.380339,-0.169498 -0.135392,0 -0.256315,0.04031 -0.363802,0.119889 -0.10542,0.07752 -0.183968,0.192236 -0.235644,0.343131 h -0.07441 c 0.03514,-0.248047 0.121956,-0.438216 0.260449,-0.570507 0.14056,-0.134359 0.314193,-0.202572 0.520898,-0.202572 0.220142,0 0.405143,0.07235 0.553971,0.214974 0.148829,0.14056 0.223243,0.309025 0.223243,0.504362 0,0.138493 -0.03204,0.275952 -0.09509,0.413411 -0.09922,0.218075 -0.260449,0.448552 -0.483692,0.690397 -0.33693,0.363802 -0.545703,0.582911 -0.628385,0.657325 h 0.715202 c 0.142627,0 0.243912,-0.0041 0.30179,-0.0124 0.05994,-0.01034 0.113688,-0.03307 0.161231,-0.06615 0.04651,-0.03307 0.08785,-0.07958 0.124023,-0.140559 z m 0.317294,-0.822689 c 0,-0.311092 0.04651,-0.578776 0.140559,-0.802018 0.09302,-0.22531 0.219108,-0.393775 0.376205,-0.504362 0.120923,-0.08785 0.244946,-0.132292 0.37207,-0.132292 0.208773,0 0.397908,0.107487 0.566374,0.322461 0.206705,0.264583 0.310058,0.623218 0.310058,1.07487 0,0.314192 -0.04547,0.58291 -0.136426,0.806152 -0.09095,0.221175 -0.208772,0.382405 -0.351399,0.483691 -0.14056,0.09922 -0.275952,0.148828 -0.405143,0.148828 -0.262517,0 -0.479558,-0.153995 -0.65319,-0.46302 -0.146761,-0.258383 -0.219108,-0.570508 -0.219108,-0.93431 z m 0.396874,0.04961 c 0,0.375171 0.04547,0.681095 0.136426,0.917774 0.07648,0.201538 0.191203,0.30179 0.343132,0.30179 0.07131,0 0.145727,-0.03101 0.223242,-0.09508 0.07958,-0.06615 0.138493,-0.1757 0.177767,-0.330729 0.06305,-0.22841 0.09509,-0.553971 0.09509,-0.975651 0,-0.311092 -0.03204,-0.570508 -0.09509,-0.777213 -0.04961,-0.153996 -0.113689,-0.264584 -0.19017,-0.33073 -0.05581,-0.04341 -0.121956,-0.06614 -0.198437,-0.06614 -0.09095,0 -0.172599,0.04134 -0.243913,0.124023 -0.09715,0.110588 -0.163297,0.285254 -0.198437,0.525033 -0.03307,0.239778 -0.04961,0.475423 -0.04961,0.706933 z m 1.706356,-0.04961 c 0,-0.311092 0.04651,-0.578776 0.14056,-0.802018 0.09302,-0.22531 0.219108,-0.393775 0.376204,-0.504362 0.120923,-0.08785 0.244946,-0.132292 0.37207,-0.132292 0.208773,0 0.397909,0.107487 0.566374,0.322461 0.206706,0.264583 0.310058,0.623218 0.310058,1.07487 0,0.314192 -0.04547,0.58291 -0.136425,0.806152 -0.09095,0.221175 -0.208773,0.382405 -0.3514,0.483691 -0.14056,0.09922 -0.275952,0.148828 -0.405143,0.148828 -0.262516,0 -0.479557,-0.153995 -0.65319,-0.46302 -0.146761,-0.258383 -0.219108,-0.570508 -0.219108,-0.93431 z m 0.396875,0.04961 c 0,0.375171 0.04547,0.681095 0.136426,0.917774 0.07648,0.201538 0.191202,0.30179 0.343131,0.30179 0.07131,0 0.145727,-0.03101 0.223242,-0.09508 0.07958,-0.06615 0.138493,-0.1757 0.177767,-0.330729 0.06305,-0.22841 0.09509,-0.553971 0.09509,-0.975651 0,-0.311092 -0.03204,-0.570508 -0.09509,-0.777213 -0.04961,-0.153996 -0.113688,-0.264584 -0.190169,-0.33073 -0.05581,-0.04341 -0.121957,-0.06614 -0.198438,-0.06614 -0.09095,0 -0.172599,0.04134 -0.243912,0.124023 -0.09715,0.110588 -0.163298,0.285254 -0.198438,0.525033 -0.03307,0.239778 -0.04961,0.475423 -0.04961,0.706933 z m 1.666048,-0.04961 c 0,-0.311092 0.04651,-0.578776 0.140559,-0.802018 0.09302,-0.22531 0.219108,-0.393775 0.376205,-0.504362 0.120923,-0.08785 0.244946,-0.132292 0.37207,-0.132292 0.208773,0 0.397908,0.107487 0.566374,0.322461 0.206705,0.264583 0.310058,0.623218 0.310058,1.07487 0,0.314192 -0.04547,0.58291 -0.136426,0.806152 -0.09095,0.221175 -0.208772,0.382405 -0.351399,0.483691 -0.14056,0.09922 -0.275952,0.148828 -0.405143,0.148828 -0.262517,0 -0.479558,-0.153995 -0.65319,-0.46302 -0.146761,-0.258383 -0.219108,-0.570508 -0.219108,-0.93431 z m 0.396875,0.04961 c 0,0.375171 0.04547,0.681095 0.136425,0.917774 0.07648,0.201538 0.191203,0.30179 0.343132,0.30179 0.07131,0 0.145727,-0.03101 0.223242,-0.09508 0.07958,-0.06615 0.138493,-0.1757 0.177767,-0.330729 0.06304,-0.22841 0.09509,-0.553971 0.09509,-0.975651 0,-0.311092 -0.03204,-0.570508 -0.09509,-0.777213 -0.04961,-0.153996 -0.113688,-0.264584 -0.19017,-0.33073 -0.05581,-0.04341 -0.121956,-0.06614 -0.198437,-0.06614 -0.09095,0 -0.172599,0.04134 -0.243913,0.124023 -0.09715,0.110588 -0.163297,0.285254 -0.198437,0.525033 -0.03307,0.239778 -0.04961,0.475423 -0.04961,0.706933 z m 24.526662,0.77308 -0.194303,0.525032 h -1.612305 v -0.07441 c 0.473357,-0.432015 0.807186,-0.785482 1.000456,-1.058333 0.195337,-0.272852 0.293523,-0.522966 0.293523,-0.752409 0,-0.170532 -0.05374,-0.311092 -0.161231,-0.42168 -0.10542,-0.112654 -0.231511,-0.169498 -0.380338,-0.169498 -0.135393,0 -0.256316,0.04031 -0.363803,0.119889 -0.10542,0.07752 -0.183968,0.192236 -0.235644,0.343131 h -0.07441 c 0.03514,-0.248047 0.121956,-0.438216 0.260449,-0.570507 0.14056,-0.134359 0.314192,-0.202572 0.520899,-0.202572 0.22014,0 0.405143,0.07235 0.553971,0.214974 0.148827,0.14056 0.223242,0.309025 0.223242,0.504362 0,0.138493 -0.03204,0.275952 -0.09509,0.413411 -0.09922,0.218075 -0.260449,0.448552 -0.483692,0.690397 -0.336929,0.363802 -0.545702,0.582911 -0.628385,0.657325 h 0.715202 c 0.142627,0 0.243912,-0.0041 0.30179,-0.0124 0.05994,-0.01034 0.113689,-0.03307 0.161231,-0.06615 0.04651,-0.03307 0.08785,-0.07958 0.124024,-0.140559 z m 0.359668,-0.822689 c 0,-0.311092 0.04651,-0.578776 0.14056,-0.802018 0.09302,-0.22531 0.219108,-0.393775 0.376205,-0.504362 0.120922,-0.08785 0.244946,-0.132292 0.37207,-0.132292 0.208773,0 0.397908,0.107487 0.566373,0.322461 0.206706,0.264583 0.310058,0.623218 0.310058,1.07487 0,0.314192 -0.04547,0.58291 -0.136425,0.806152 -0.09095,0.221175 -0.208772,0.382405 -0.3514,0.483691 -0.140559,0.09922 -0.275951,0.148828 -0.405143,0.148828 -0.262516,0 -0.479557,-0.153995 -0.65319,-0.46302 -0.146761,-0.258383 -0.219108,-0.570508 -0.219108,-0.93431 z m 0.396875,0.04961 c 0,0.375171 0.04547,0.681095 0.136425,0.917774 0.07648,0.201538 0.191204,0.30179 0.343133,0.30179 0.07131,0 0.145727,-0.03101 0.223242,-0.09508 0.07958,-0.06615 0.138492,-0.1757 0.177766,-0.330729 0.06305,-0.22841 0.09508,-0.553971 0.09508,-0.975651 0,-0.311092 -0.03204,-0.570508 -0.09508,-0.777213 -0.04961,-0.153996 -0.113688,-0.264584 -0.190169,-0.33073 -0.05581,-0.04341 -0.121956,-0.06614 -0.198437,-0.06614 -0.09095,0 -0.1726,0.04134 -0.243913,0.124023 -0.09715,0.110588 -0.163298,0.285254 -0.198438,0.525033 -0.03307,0.239778 -0.04961,0.475423 -0.04961,0.706933 z m 1.665015,-0.04961 c 0,-0.311092 0.04651,-0.578776 0.140559,-0.802018 0.09302,-0.22531 0.219108,-0.393775 0.376204,-0.504362 0.120924,-0.08785 0.244946,-0.132292 0.37207,-0.132292 0.208774,0 0.39791,0.107487 0.566375,0.322461 0.206705,0.264583 0.310058,0.623218 0.310058,1.07487 0,0.314192 -0.04548,0.58291 -0.136426,0.806152 -0.09095,0.221175 -0.208773,0.382405 -0.351399,0.483691 -0.14056,0.09922 -0.275953,0.148828 -0.405143,0.148828 -0.262517,0 -0.479558,-0.153995 -0.653191,-0.46302 -0.146761,-0.258383 -0.219107,-0.570508 -0.219107,-0.93431 z m 0.396875,0.04961 c 0,0.375171 0.04547,0.681095 0.136425,0.917774 0.07648,0.201538 0.191203,0.30179 0.343131,0.30179 0.07131,0 0.145728,-0.03101 0.223242,-0.09508 0.07958,-0.06615 0.138493,-0.1757 0.177768,-0.330729 0.06305,-0.22841 0.09508,-0.553971 0.09508,-0.975651 0,-0.311092 -0.03204,-0.570508 -0.09508,-0.777213 -0.04961,-0.153996 -0.113688,-0.264584 -0.19017,-0.33073 -0.05581,-0.04341 -0.121957,-0.06614 -0.198438,-0.06614 -0.09095,0 -0.172598,0.04134 -0.243912,0.124023 -0.09715,0.110588 -0.163297,0.285254 -0.198437,0.525033 -0.03307,0.239778 -0.04961,0.475423 -0.04961,0.706933 z m 3.306257,-1.430403 -0.157097,0.343131 h -0.822688 l -0.177767,0.3638 c 0.355534,0.05271 0.637687,0.185002 0.847494,0.396875 0.175699,0.181901 0.264583,0.396875 0.264583,0.644922 0,0.14366 -0.02894,0.276986 -0.08682,0.401009 -0.05788,0.121956 -0.131259,0.225309 -0.219108,0.310059 -0.08888,0.08578 -0.188102,0.155029 -0.297656,0.206705 -0.155029,0.07441 -0.31316,0.111621 -0.475423,0.111621 -0.163297,0 -0.28112,-0.02791 -0.355534,-0.08268 -0.07441,-0.05788 -0.111622,-0.119889 -0.111622,-0.186035 0,-0.03824 0.01447,-0.07131 0.04548,-0.09922 0.02997,-0.02997 0.06821,-0.04548 0.115755,-0.04548 0.03514,0 0.06615,0.0062 0.09095,0.01654 0.02687,0.01137 0.07235,0.03927 0.136427,0.08268 0.09922,0.07235 0.200504,0.107487 0.305924,0.107487 0.157096,0 0.294555,-0.05891 0.413412,-0.177767 0.117822,-0.120923 0.177766,-0.265617 0.177766,-0.434082 0,-0.165365 -0.05374,-0.319361 -0.161231,-0.463021 -0.105419,-0.142624 -0.251147,-0.253211 -0.438216,-0.330726 -0.146761,-0.05994 -0.345198,-0.09612 -0.595312,-0.107487 l 0.520898,-1.058333 z m 23.571682,2.203483 -0.194303,0.525032 h -1.612304 v -0.07441 c 0.473355,-0.432015 0.807185,-0.785482 1.000455,-1.058333 0.195337,-0.272852 0.293522,-0.522966 0.293522,-0.752409 0,-0.170532 -0.05374,-0.311092 -0.161231,-0.42168 -0.10542,-0.112654 -0.23151,-0.169498 -0.380338,-0.169498 -0.135392,0 -0.256315,0.04031 -0.363801,0.119889 -0.10542,0.07752 -0.183968,0.192236 -0.235646,0.343131 h -0.07441 c 0.03514,-0.248047 0.121956,-0.438216 0.260448,-0.570507 0.140561,-0.134359 0.314194,-0.202572 0.520899,-0.202572 0.220142,0 0.405143,0.07235 0.553971,0.214974 0.148829,0.14056 0.223242,0.309025 0.223242,0.504362 0,0.138493 -0.03204,0.275952 -0.09508,0.413411 -0.09922,0.218075 -0.260448,0.448552 -0.48369,0.690397 -0.336931,0.363802 -0.545704,0.582911 -0.628386,0.657325 h 0.715202 c 0.142626,0 0.243913,-0.0041 0.301791,-0.0124 0.05994,-0.01034 0.113687,-0.03307 0.161229,-0.06615 0.04651,-0.03307 0.08785,-0.07958 0.124024,-0.140559 z m 0.318327,-0.822689 c 0,-0.311092 0.04651,-0.578776 0.14056,-0.802018 0.09302,-0.22531 0.219108,-0.393775 0.376204,-0.504362 0.120923,-0.08785 0.244946,-0.132292 0.37207,-0.132292 0.208773,0 0.397909,0.107487 0.566373,0.322461 0.206707,0.264583 0.310059,0.623218 0.310059,1.07487 0,0.314192 -0.04547,0.58291 -0.136426,0.806152 -0.09095,0.221175 -0.208772,0.382405 -0.351399,0.483691 -0.14056,0.09922 -0.275952,0.148828 -0.405144,0.148828 -0.262516,0 -0.479556,-0.153995 -0.653189,-0.46302 -0.146761,-0.258383 -0.219108,-0.570508 -0.219108,-0.93431 z m 0.396874,0.04961 c 0,0.375171 0.04548,0.681095 0.136426,0.917774 0.07648,0.201538 0.191203,0.30179 0.343132,0.30179 0.07131,0 0.145728,-0.03101 0.223242,-0.09508 0.07958,-0.06615 0.138493,-0.1757 0.177767,-0.330729 0.06305,-0.22841 0.09509,-0.553971 0.09509,-0.975651 0,-0.311092 -0.03204,-0.570508 -0.09509,-0.777213 -0.04961,-0.153996 -0.113689,-0.264584 -0.190169,-0.33073 -0.05581,-0.04341 -0.121957,-0.06614 -0.198438,-0.06614 -0.09095,0 -0.172599,0.04134 -0.243912,0.124023 -0.09715,0.110588 -0.163298,0.285254 -0.198437,0.525033 -0.03307,0.239778 -0.04961,0.475423 -0.04961,0.706933 z m 1.999879,-1.161686 0.665591,-0.326595 h 0.06615 v 2.306836 c 0,0.151928 0.0052,0.247013 0.01654,0.285254 0.01344,0.03617 0.03927,0.06511 0.07855,0.08682 0.04134,0.01964 0.124023,0.03101 0.248046,0.03307 v 0.07441 h -1.025259 v -0.07441 c 0.12609,-0.0021 0.208772,-0.01344 0.248046,-0.03307 0.03824,-0.0186 0.06408,-0.04547 0.07855,-0.07855 0.01344,-0.03307 0.02067,-0.130225 0.02067,-0.293522 v -1.475879 c 0,-0.198438 -0.0062,-0.324528 -0.01654,-0.380339 -0.01137,-0.04341 -0.02894,-0.07545 -0.05374,-0.09508 -0.0248,-0.0186 -0.05581,-0.02894 -0.09095,-0.02894 -0.04961,0 -0.118856,0.02067 -0.206707,0.06201 z m 1.768367,1.112077 c 0,-0.311092 0.04651,-0.578776 0.140559,-0.802018 0.09302,-0.22531 0.219108,-0.393775 0.376204,-0.504362 0.120923,-0.08785 0.244946,-0.132292 0.37207,-0.132292 0.208774,0 0.397909,0.107487 0.566375,0.322461 0.206705,0.264583 0.310058,0.623218 0.310058,1.07487 0,0.314192 -0.04548,0.58291 -0.136425,0.806152 -0.09095,0.221175 -0.208774,0.382405 -0.351401,0.483691 -0.140559,0.09922 -0.275952,0.148828 -0.405142,0.148828 -0.262516,0 -0.479558,-0.153995 -0.653191,-0.46302 -0.146761,-0.258383 -0.219107,-0.570508 -0.219107,-0.93431 z m 0.396875,0.04961 c 0,0.375171 0.04547,0.681095 0.136425,0.917774 0.07648,0.201538 0.191202,0.30179 0.343131,0.30179 0.07131,0 0.145728,-0.03101 0.223242,-0.09508 0.07958,-0.06615 0.138493,-0.1757 0.177767,-0.330729 0.06305,-0.22841 0.09508,-0.553971 0.09508,-0.975651 0,-0.311092 -0.03204,-0.570508 -0.09508,-0.777213 -0.04961,-0.153996 -0.113687,-0.264584 -0.190169,-0.33073 -0.05581,-0.04341 -0.121956,-0.06614 -0.198438,-0.06614 -0.09095,0 -0.172598,0.04134 -0.243912,0.124023 -0.09715,0.110588 -0.163298,0.285254 -0.198437,0.525033 -0.03307,0.239778 -0.04961,0.475423 -0.04961,0.706933 z m 24.527693,0.77308 -0.1943,0.525032 h -1.6123 v -0.07441 c 0.47335,-0.432015 0.80718,-0.785482 1.00045,-1.058333 0.19534,-0.272852 0.29353,-0.522966 0.29353,-0.752409 0,-0.170532 -0.0537,-0.311092 -0.16124,-0.42168 -0.10542,-0.112654 -0.23151,-0.169498 -0.38033,-0.169498 -0.1354,0 -0.25632,0.04031 -0.36381,0.119889 -0.10542,0.07752 -0.18396,0.192236 -0.23564,0.343131 h -0.0744 c 0.0351,-0.248047 0.12196,-0.438216 0.26045,-0.570507 0.14056,-0.134359 0.31419,-0.202572 0.5209,-0.202572 0.22014,0 0.40514,0.07235 0.55397,0.214974 0.14883,0.14056 0.22324,0.309025 0.22324,0.504362 0,0.138493 -0.032,0.275952 -0.0951,0.413411 -0.0992,0.218075 -0.26045,0.448552 -0.48369,0.690397 -0.33693,0.363802 -0.5457,0.582911 -0.62839,0.657325 h 0.71521 c 0.14262,0 0.24391,-0.0041 0.30179,-0.0124 0.06,-0.01034 0.11368,-0.03307 0.16123,-0.06615 0.0465,-0.03307 0.0879,-0.07958 0.12402,-0.140559 z m 0.31833,-0.822689 c 0,-0.311092 0.0465,-0.578776 0.14056,-0.802018 0.093,-0.22531 0.21911,-0.393775 0.37621,-0.504362 0.12092,-0.08785 0.24494,-0.132292 0.37207,-0.132292 0.20877,0 0.3979,0.107487 0.56637,0.322461 0.2067,0.264583 0.31006,0.623218 0.31006,1.07487 0,0.314192 -0.0455,0.58291 -0.13643,0.806152 -0.091,0.221175 -0.20877,0.382405 -0.3514,0.483691 -0.14056,0.09922 -0.27595,0.148828 -0.40514,0.148828 -0.26252,0 -0.47956,-0.153995 -0.65319,-0.46302 -0.14676,-0.258383 -0.21911,-0.570508 -0.21911,-0.93431 z m 0.39688,0.04961 c 0,0.375171 0.0455,0.681095 0.13642,0.917774 0.0765,0.201538 0.19121,0.30179 0.34313,0.30179 0.0713,0 0.14573,-0.03101 0.22325,-0.09508 0.0796,-0.06615 0.13849,-0.1757 0.17776,-0.330729 0.0631,-0.22841 0.0951,-0.553971 0.0951,-0.975651 0,-0.311092 -0.032,-0.570508 -0.0951,-0.777213 -0.0496,-0.153996 -0.11369,-0.264584 -0.19017,-0.33073 -0.0558,-0.04341 -0.12195,-0.06614 -0.19843,-0.06614 -0.0909,0 -0.1726,0.04134 -0.24392,0.124023 -0.0971,0.110588 -0.16329,0.285254 -0.19843,0.525033 -0.0331,0.239778 -0.0496,0.475423 -0.0496,0.706933 z m 2.04121,-1.161686 0.6656,-0.326595 h 0.0662 v 2.306836 c 0,0.151928 0.005,0.247013 0.0165,0.285254 0.0134,0.03617 0.0393,0.06511 0.0786,0.08682 0.0413,0.01964 0.12402,0.03101 0.24804,0.03307 v 0.07441 h -1.02526 v -0.07441 c 0.12609,-0.0021 0.20878,-0.01344 0.24805,-0.03307 0.0382,-0.0186 0.0641,-0.04547 0.0786,-0.07855 0.0134,-0.03307 0.0207,-0.130225 0.0207,-0.293522 v -1.475879 c 0,-0.198438 -0.006,-0.324528 -0.0165,-0.380339 -0.0114,-0.04341 -0.0289,-0.07545 -0.0538,-0.09508 -0.0248,-0.0186 -0.0558,-0.02894 -0.0909,-0.02894 -0.0496,0 -0.11886,0.02067 -0.20671,0.06201 z m 3.36827,-0.268717 -0.15709,0.343131 h -0.82269 l -0.17777,0.363802 c 0.35554,0.05271 0.63769,0.185002 0.8475,0.396875 0.1757,0.181901 0.26458,0.396875 0.26458,0.644922 0,0.14366 -0.0289,0.276986 -0.0868,0.401009 -0.0579,0.121956 -0.13126,0.225309 -0.21911,0.310059 -0.0889,0.08578 -0.1881,0.155029 -0.29765,0.206705 -0.15503,0.07441 -0.31316,0.111621 -0.47543,0.111621 -0.16329,0 -0.28112,-0.02791 -0.35553,-0.08268 -0.0744,-0.05788 -0.11162,-0.119889 -0.11162,-0.186035 0,-0.03824 0.0145,-0.07131 0.0455,-0.09922 0.03,-0.02997 0.0682,-0.04548 0.11575,-0.04548 0.0351,0 0.0661,0.0062 0.0909,0.01654 0.0269,0.01137 0.0724,0.03927 0.13643,0.08268 0.0992,0.07235 0.2005,0.107487 0.30592,0.107487 0.1571,0 0.29456,-0.05891 0.41341,-0.177767 0.11783,-0.120923 0.17777,-0.265617 0.17777,-0.434082 0,-0.165365 -0.0537,-0.319361 -0.16123,-0.463021 -0.10542,-0.142627 -0.25115,-0.253214 -0.43822,-0.330729 -0.14676,-0.05994 -0.34519,-0.09612 -0.59531,-0.107487 l 0.5209,-1.058333 z m 23.32467,2.203483 -0.1943,0.525032 h -1.61231 v -0.07441 c 0.47336,-0.432015 0.80719,-0.785482 1.00046,-1.058333 0.19533,-0.272852 0.29352,-0.522966 0.29352,-0.752409 0,-0.170532 -0.0537,-0.311092 -0.16123,-0.42168 -0.10542,-0.112654 -0.23151,-0.169498 -0.38034,-0.169498 -0.13539,0 -0.25631,0.04031 -0.3638,0.119889 -0.10542,0.07752 -0.18397,0.192236 -0.23565,0.343131 h -0.0744 c 0.0351,-0.248047 0.12196,-0.438216 0.26045,-0.570507 0.14056,-0.134359 0.31419,-0.202572 0.5209,-0.202572 0.22014,0 0.40514,0.07235 0.55397,0.214974 0.14883,0.14056 0.22324,0.309025 0.22324,0.504362 0,0.138493 -0.032,0.275952 -0.0951,0.413411 -0.0992,0.218075 -0.26045,0.448552 -0.48369,0.690397 -0.33694,0.363802 -0.54571,0.582911 -0.62839,0.657325 h 0.7152 c 0.14263,0 0.24391,-0.0041 0.30179,-0.0124 0.06,-0.01034 0.11369,-0.03307 0.16123,-0.06615 0.0465,-0.03307 0.0879,-0.07958 0.12403,-0.140559 z m 0.31729,-0.822689 c 0,-0.311092 0.0465,-0.578776 0.14056,-0.802018 0.093,-0.22531 0.21911,-0.393775 0.37621,-0.504362 0.12092,-0.08785 0.24494,-0.132292 0.37207,-0.132292 0.20877,0 0.39791,0.107487 0.56637,0.322461 0.20671,0.264583 0.31006,0.623218 0.31006,1.07487 0,0.314192 -0.0455,0.58291 -0.13643,0.806152 -0.091,0.221175 -0.20877,0.382405 -0.3514,0.483691 -0.14056,0.09922 -0.27595,0.148828 -0.40514,0.148828 -0.26252,0 -0.47956,-0.153995 -0.65319,-0.46302 -0.14676,-0.258383 -0.21911,-0.570508 -0.21911,-0.93431 z m 0.39688,0.04961 c 0,0.375171 0.0455,0.681095 0.13642,0.917774 0.0765,0.201538 0.19121,0.30179 0.34313,0.30179 0.0713,0 0.14573,-0.03101 0.22325,-0.09508 0.0796,-0.06615 0.13849,-0.1757 0.17776,-0.330729 0.063,-0.22841 0.0951,-0.553971 0.0951,-0.975651 0,-0.311092 -0.032,-0.570508 -0.0951,-0.777213 -0.0496,-0.153996 -0.11368,-0.264584 -0.19017,-0.33073 -0.0558,-0.04341 -0.12195,-0.06614 -0.19843,-0.06614 -0.0909,0 -0.1726,0.04134 -0.24392,0.124023 -0.0972,0.110588 -0.16329,0.285254 -0.19843,0.525033 -0.0331,0.239778 -0.0496,0.475423 -0.0496,0.706933 z m 3.41064,0.77308 -0.1943,0.525032 h -1.61231 v -0.07441 c 0.47336,-0.432015 0.80719,-0.785482 1.00046,-1.058333 0.19534,-0.272852 0.29352,-0.522966 0.29352,-0.752409 0,-0.170532 -0.0537,-0.311092 -0.16123,-0.42168 -0.10542,-0.112654 -0.23151,-0.169498 -0.38034,-0.169498 -0.13539,0 -0.25631,0.04031 -0.3638,0.119889 -0.10542,0.07752 -0.18397,0.192236 -0.23564,0.343131 h -0.0744 c 0.0351,-0.248047 0.12196,-0.438216 0.26045,-0.570507 0.14056,-0.134359 0.31419,-0.202572 0.5209,-0.202572 0.22014,0 0.40514,0.07235 0.55397,0.214974 0.14883,0.14056 0.22324,0.309025 0.22324,0.504362 0,0.138493 -0.032,0.275952 -0.0951,0.413411 -0.0992,0.218075 -0.26045,0.448552 -0.48369,0.690397 -0.33693,0.363802 -0.54571,0.582911 -0.62839,0.657325 h 0.7152 c 0.14263,0 0.24392,-0.0041 0.30179,-0.0124 0.06,-0.01034 0.11369,-0.03307 0.16123,-0.06615 0.0465,-0.03307 0.0879,-0.07958 0.12403,-0.140559 z m 0.31729,-0.822689 c 0,-0.311092 0.0465,-0.578776 0.14056,-0.802018 0.093,-0.22531 0.21911,-0.393775 0.37621,-0.504362 0.12092,-0.08785 0.24495,-0.132292 0.37207,-0.132292 0.20877,0 0.39791,0.107487 0.56637,0.322461 0.20671,0.264583 0.31006,0.623218 0.31006,1.07487 0,0.314192 -0.0455,0.58291 -0.13643,0.806152 -0.091,0.221175 -0.20877,0.382405 -0.35139,0.483691 -0.14056,0.09922 -0.27596,0.148828 -0.40515,0.148828 -0.26251,0 -0.47955,-0.153995 -0.65319,-0.46302 -0.14676,-0.258383 -0.21911,-0.570508 -0.21911,-0.93431 z m 0.39688,0.04961 c 0,0.375171 0.0455,0.681095 0.13643,0.917774 0.0765,0.201538 0.1912,0.30179 0.34313,0.30179 0.0713,0 0.14572,-0.03101 0.22324,-0.09508 0.0796,-0.06615 0.13849,-0.1757 0.17777,-0.330729 0.063,-0.22841 0.0951,-0.553971 0.0951,-0.975651 0,-0.311092 -0.032,-0.570508 -0.0951,-0.777213 -0.0496,-0.153996 -0.11369,-0.264584 -0.19017,-0.33073 -0.0558,-0.04341 -0.12196,-0.06614 -0.19844,-0.06614 -0.091,0 -0.1726,0.04134 -0.24391,0.124023 -0.0972,0.110588 -0.1633,0.285254 -0.19844,0.525033 -0.0331,0.239778 -0.0496,0.475423 -0.0496,0.706933 z m 0,0"
       style="fill:#000000;fill-opacity:1;fill-rule:nonzero;stroke:none;stroke-width:0.0125797"
       aria-label="20002005201020152020" />
    <path
       id="path34"
       d="M 189.52,723.63 V 629.23999"
       style="fill:none;stroke:#000000;stroke-width:0.975;stroke-linecap:round;stroke-linejoin:round;stroke-miterlimit:10;stroke-dasharray:none;stroke-opacity:1"
       clip-path="url(#clipPath35)"
       transform="matrix(0.26458333,0,0,0.26458333,-32.938725,-153.71852)" />
    <path
       id="path36"
       d="m 189.52,723.63 h -8.78"
       style="fill:none;stroke:#000000;stroke-width:0.975;stroke-linecap:round;stroke-linejoin:round;stroke-miterlimit:10;stroke-dasharray:none;stroke-opacity:1"
       clip-path="url(#clipPath37)"
       transform="matrix(0.26458333,0,0,0.26458333,-32.938725,-153.71852)" />
    <path
       id="path38"
       d="m 189.52,699.31 h -8.78"
       style="fill:none;stroke:#000000;stroke-width:0.975;stroke-linecap:round;stroke-linejoin:round;stroke-miterlimit:10;stroke-dasharray:none;stroke-opacity:1"
       clip-path="url(#clipPath39)"
       transform="matrix(0.26458333,0,0,0.26458333,-32.938725,-153.71852)" />
    <path
       id="path40"
       d="m 189.52,675.95001 h -8.78"
       style="fill:none;stroke:#000000;stroke-width:0.975;stroke-linecap:round;stroke-linejoin:round;stroke-miterlimit:10;stroke-dasharray:none;stroke-opacity:1"
       clip-path="url(#clipPath41)"
       transform="matrix(0.26458333,0,0,0.26458333,-32.938725,-153.71852)" />
    <path
       id="path42"
       d="m 189.52,652.59003 h -8.78"
       style="fill:none;stroke:#000000;stroke-width:0.975;stroke-linecap:round;stroke-linejoin:round;stroke-miterlimit:10;stroke-dasharray:none;stroke-opacity:1"
       clip-path="url(#clipPath43)"
       transform="matrix(0.26458333,0,0,0.26458333,-32.938725,-153.71852)" />
    <path
       id="path44"
       d="m 189.52,629.23999 h -8.78"
       style="fill:none;stroke:#000000;stroke-width:0.975;stroke-linecap:round;stroke-linejoin:round;stroke-miterlimit:10;stroke-dasharray:none;stroke-opacity:1"
       clip-path="url(#clipPath45)"
       transform="matrix(0.26458333,0,0,0.26458333,-32.938725,-153.71852)" />
    <path
       id="path46"
       d="m 10.436404,41.823033 v -1.041796 h 0.301791 v 1.041796 z m -0.272852,-1.261938 c -0.3110917,0 -0.5787757,-0.04651 -0.8020176,-0.14056 -0.225309,-0.09302 -0.393774,-0.219108 -0.504362,-0.376204 -0.08785,-0.120923 -0.132291,-0.244946 -0.132291,-0.37207 0,-0.208773 0.107487,-0.397909 0.322461,-0.566374 0.264583,-0.206706 0.6232169,-0.310058 1.0748686,-0.310058 0.314193,0 0.582911,0.04548 0.806154,0.136425 0.221175,0.09095 0.382405,0.208773 0.483691,0.3514 0.09922,0.14056 0.148828,0.275952 0.148828,0.405143 0,0.262516 -0.153996,0.479557 -0.463021,0.65319 -0.258382,0.146761 -0.570509,0.219108 -0.934311,0.219108 z m 0.04961,-0.396875 c 0.375172,0 0.681096,-0.04547 0.917774,-0.136426 0.201538,-0.07648 0.30179,-0.191202 0.30179,-0.343131 0,-0.07131 -0.03101,-0.145728 -0.09508,-0.223242 -0.06615,-0.07958 -0.1757,-0.138493 -0.330729,-0.177767 -0.22841,-0.06304 -0.553973,-0.09508 -0.975652,-0.09508 -0.3110917,0 -0.5705076,0.03204 -0.7772136,0.09508 -0.153996,0.04961 -0.264583,0.113688 -0.330729,0.190169 -0.04341,0.05581 -0.06615,0.121956 -0.06615,0.198438 0,0.09095 0.04134,0.172599 0.124024,0.243912 0.110587,0.09715 0.285254,0.163298 0.5250319,0.198438 0.239779,0.03307 0.475423,0.04961 0.7069337,0.04961 z m 0.909506,-2.033984 c 0,-0.06305 0.02274,-0.115755 0.06615,-0.157096 0.04134,-0.04341 0.09405,-0.06615 0.157096,-0.06615 0.06098,0 0.113688,0.02274 0.157096,0.06615 0.04341,0.04444 0.06615,0.09715 0.06615,0.157096 0,0.06408 -0.02274,0.117822 -0.06615,0.161231 -0.04341,0.04134 -0.09612,0.06201 -0.157096,0.06201 -0.06305,0 -0.115755,-0.02067 -0.157096,-0.06201 -0.04341,-0.04341 -0.06615,-0.09715 -0.06615,-0.161231 z M 9.0514764,37.132881 8.7248814,36.467289 v -0.06615 h 2.3068356 c 0.151929,0 0.247014,-0.0052 0.285254,-0.01654 0.03617,-0.01344 0.06511,-0.03927 0.08682,-0.07855 0.01964,-0.04134 0.03101,-0.124024 0.03307,-0.248047 h 0.07441 v 1.02526 h -0.07441 c -0.0021,-0.126091 -0.01344,-0.208773 -0.03307,-0.248047 -0.0186,-0.03824 -0.04548,-0.06408 -0.07855,-0.07855 -0.03307,-0.01344 -0.130225,-0.02067 -0.293523,-0.02067 H 9.5558393 c -0.1984379,0 -0.3245279,0.0062 -0.3803389,0.01654 -0.04341,0.01137 -0.07545,0.02894 -0.09509,0.05374 -0.0186,0.02481 -0.02894,0.05581 -0.02894,0.09095 0,0.04961 0.02067,0.118856 0.06201,0.206705 z m 1.1120756,-1.728059 c -0.3110917,0 -0.5787757,-0.04651 -0.8020176,-0.14056 -0.225309,-0.09302 -0.393774,-0.219108 -0.504362,-0.376204 -0.08785,-0.120923 -0.132291,-0.244947 -0.132291,-0.372071 0,-0.208772 0.107487,-0.397908 0.322461,-0.566373 0.264583,-0.206706 0.6232169,-0.310059 1.0748686,-0.310059 0.314193,0 0.582911,0.04548 0.806154,0.136426 0.221175,0.09095 0.382405,0.208773 0.483691,0.3514 0.09922,0.14056 0.148828,0.275952 0.148828,0.405143 0,0.262516 -0.153996,0.479557 -0.463021,0.65319 -0.258382,0.146761 -0.570509,0.219108 -0.934311,0.219108 z m 0.04961,-0.396875 c 0.375172,0 0.681096,-0.04547 0.917774,-0.136426 0.201538,-0.07648 0.30179,-0.191203 0.30179,-0.343131 0,-0.07131 -0.03101,-0.145728 -0.09508,-0.223242 -0.06615,-0.07958 -0.1757,-0.138493 -0.330729,-0.177767 -0.22841,-0.06304 -0.553973,-0.09508 -0.975652,-0.09508 -0.3110917,0 -0.5705076,0.03204 -0.7772136,0.09508 -0.153996,0.04961 -0.264583,0.113688 -0.330729,0.190169 -0.04341,0.05581 -0.06615,0.121956 -0.06615,0.198437 0,0.09095 0.04134,0.1726 0.124024,0.243913 0.110587,0.09715 0.285254,0.163298 0.5250319,0.198438 0.239779,0.03307 0.475423,0.04961 0.7069337,0.04961 z m -0.04961,-6.407876 c -0.3110917,0 -0.5787757,-0.04651 -0.8020176,-0.140561 -0.225309,-0.09302 -0.393774,-0.219107 -0.504362,-0.376203 -0.08785,-0.120923 -0.132291,-0.244947 -0.132291,-0.372071 0,-0.208772 0.107487,-0.397908 0.322461,-0.566373 0.264583,-0.206705 0.6232169,-0.310059 1.0748686,-0.310059 0.314193,0 0.582911,0.04548 0.806154,0.136426 0.221175,0.09095 0.382405,0.208773 0.483691,0.351399 0.09922,0.140561 0.148828,0.275953 0.148828,0.405144 0,0.262516 -0.153996,0.479557 -0.463021,0.653189 -0.258382,0.146761 -0.570509,0.219109 -0.934311,0.219109 z m 0.04961,-0.396875 c 0.375172,0 0.681096,-0.04548 0.917774,-0.136426 0.201538,-0.07648 0.30179,-0.191203 0.30179,-0.343131 0,-0.07131 -0.03101,-0.145727 -0.09508,-0.223242 -0.06615,-0.07958 -0.1757,-0.138494 -0.330729,-0.177768 -0.22841,-0.06304 -0.553973,-0.09508 -0.975652,-0.09508 -0.3110917,0 -0.5705076,0.03204 -0.7772136,0.09508 -0.153996,0.04961 -0.264583,0.113689 -0.330729,0.19017 -0.04341,0.05581 -0.06615,0.121956 -0.06615,0.198437 0,0.09095 0.04134,0.1726 0.124024,0.243913 0.110587,0.09715 0.285254,0.163297 0.5250319,0.198438 0.239779,0.03307 0.475423,0.04961 0.7069337,0.04961 z m 0.909506,-2.075325 c 0,-0.06304 0.02274,-0.115756 0.06615,-0.157096 0.04134,-0.04341 0.09405,-0.06615 0.157096,-0.06615 0.06098,0 0.113688,0.02274 0.157096,0.06615 0.04341,0.04444 0.06615,0.09715 0.06615,0.157096 0,0.06408 -0.02274,0.117822 -0.06615,0.161231 -0.04341,0.04134 -0.09612,0.06201 -0.157096,0.06201 -0.06305,0 -0.115755,-0.02067 -0.157096,-0.06201 -0.04341,-0.04341 -0.06615,-0.09715 -0.06615,-0.161231 z M 10.163552,25.50672 c -0.3110917,0 -0.5787757,-0.04651 -0.8020176,-0.140559 -0.225309,-0.09302 -0.393774,-0.219109 -0.504362,-0.376205 -0.08785,-0.120923 -0.132291,-0.244946 -0.132291,-0.372071 0,-0.208772 0.107487,-0.397908 0.322461,-0.566373 0.264583,-0.206705 0.6232169,-0.310058 1.0748686,-0.310058 0.314193,0 0.582911,0.04547 0.806154,0.136425 0.221175,0.09095 0.382405,0.208774 0.483691,0.3514 0.09922,0.14056 0.148828,0.275952 0.148828,0.405143 0,0.262516 -0.153996,0.479558 -0.463021,0.65319 -0.258382,0.146762 -0.570509,0.219108 -0.934311,0.219108 z m 0.04961,-0.396875 c 0.375172,0 0.681096,-0.04548 0.917774,-0.136426 0.201538,-0.07648 0.30179,-0.191203 0.30179,-0.343131 0,-0.07131 -0.03101,-0.145727 -0.09508,-0.223242 -0.06615,-0.07958 -0.1757,-0.138493 -0.330729,-0.177767 -0.22841,-0.06305 -0.553973,-0.09508 -0.975652,-0.09508 -0.3110917,0 -0.5705076,0.03204 -0.7772136,0.09508 -0.153996,0.04961 -0.264583,0.113688 -0.330729,0.190169 -0.04341,0.05581 -0.06615,0.121957 -0.06615,0.198437 0,0.09095 0.04134,0.1726 0.124024,0.243914 0.110587,0.09715 0.285254,0.163296 0.5250319,0.198437 0.239779,0.03307 0.475423,0.04961 0.7069337,0.04961 z m -0.04961,-1.666048 c -0.3110917,0 -0.5787757,-0.04651 -0.8020176,-0.140559 -0.225309,-0.09302 -0.393774,-0.219109 -0.504362,-0.376205 -0.08785,-0.120922 -0.132291,-0.244946 -0.132291,-0.37207 0,-0.208773 0.107487,-0.397908 0.322461,-0.566373 0.264583,-0.206706 0.6232169,-0.310058 1.0748686,-0.310058 0.314193,0 0.582911,0.04547 0.806154,0.136425 0.221175,0.09095 0.382405,0.208772 0.483691,0.3514 0.09922,0.140559 0.148828,0.275951 0.148828,0.405143 0,0.262516 -0.153996,0.479557 -0.463021,0.65319 -0.258382,0.146761 -0.570509,0.219107 -0.934311,0.219107 z m 0.04961,-0.396874 c 0.375172,0 0.681096,-0.04547 0.917774,-0.136425 0.201538,-0.07648 0.30179,-0.191204 0.30179,-0.343133 0,-0.07131 -0.03101,-0.145727 -0.09508,-0.223242 -0.06615,-0.07958 -0.1757,-0.138492 -0.330729,-0.177766 -0.22841,-0.06305 -0.553973,-0.09509 -0.975652,-0.09509 -0.3110917,0 -0.5705076,0.03204 -0.7772136,0.09509 -0.153996,0.04961 -0.264583,0.113688 -0.330729,0.190168 -0.04341,0.05581 -0.06615,0.121957 -0.06615,0.198438 0,0.09095 0.04134,0.1726 0.124024,0.243913 0.110587,0.09715 0.285254,0.163298 0.5250319,0.198437 0.239779,0.03307 0.475423,0.04961 0.7069337,0.04961 z m -0.04961,-6.820254 c -0.3110917,0 -0.5787757,-0.04651 -0.8020176,-0.14056 -0.225309,-0.09302 -0.393774,-0.219108 -0.504362,-0.376205 -0.08785,-0.120922 -0.132291,-0.244946 -0.132291,-0.372069 0,-0.208773 0.107487,-0.397909 0.322461,-0.566374 0.264583,-0.206706 0.6232169,-0.310058 1.0748686,-0.310058 0.314193,0 0.582911,0.04547 0.806154,0.136426 0.221175,0.09095 0.382405,0.208772 0.483691,0.351399 0.09922,0.14056 0.148828,0.275953 0.148828,0.405143 0,0.262516 -0.153996,0.479557 -0.463021,0.65319 -0.258382,0.14676 -0.570509,0.219108 -0.934311,0.219108 z m 0.04961,-0.396875 c 0.375172,0 0.681096,-0.04548 0.917774,-0.136426 0.201538,-0.07648 0.30179,-0.191203 0.30179,-0.343131 0,-0.07131 -0.03101,-0.145728 -0.09508,-0.223243 -0.06615,-0.07958 -0.1757,-0.138492 -0.330729,-0.177766 -0.22841,-0.06304 -0.553973,-0.09508 -0.975652,-0.09508 -0.3110917,0 -0.5705076,0.03204 -0.7772136,0.09508 -0.153996,0.04961 -0.264583,0.113688 -0.330729,0.19017 -0.04341,0.05581 -0.06615,0.121955 -0.06615,0.198437 0,0.09095 0.04134,0.172599 0.124024,0.243912 0.110587,0.09715 0.285254,0.163297 0.5250319,0.198438 0.239779,0.03307 0.475423,0.04961 0.7069337,0.04961 z m 0.909506,-2.033984 c 0,-0.06304 0.02274,-0.115755 0.06615,-0.157096 0.04134,-0.04341 0.09405,-0.06615 0.157096,-0.06615 0.06098,0 0.113688,0.02274 0.157096,0.06615 0.04341,0.04444 0.06615,0.09715 0.06615,0.157096 0,0.06408 -0.02274,0.117822 -0.06615,0.161231 -0.04341,0.04134 -0.09612,0.06201 -0.157096,0.06201 -0.06305,0 -0.115755,-0.02067 -0.157096,-0.06201 -0.04341,-0.04341 -0.06615,-0.09715 -0.06615,-0.161231 z M 9.0514764,12.798455 8.7248814,12.132863 v -0.06615 h 2.3068356 c 0.151929,0 0.247014,-0.0052 0.285254,-0.01654 0.03617,-0.01343 0.06511,-0.03927 0.08682,-0.07855 0.01964,-0.04134 0.03101,-0.124023 0.03307,-0.248046 h 0.07441 v 1.02526 h -0.07441 c -0.0021,-0.126091 -0.01344,-0.208773 -0.03307,-0.248047 -0.0186,-0.03824 -0.04548,-0.06408 -0.07855,-0.07855 -0.03307,-0.01344 -0.130225,-0.02067 -0.293523,-0.02067 H 9.5558393 c -0.1984379,0 -0.3245279,0.0062 -0.3803389,0.01654 -0.04341,0.01137 -0.07545,0.02894 -0.09509,0.05374 -0.0186,0.0248 -0.02894,0.05581 -0.02894,0.09095 0,0.04961 0.02067,0.118856 0.06201,0.206706 z m 1.1120756,-1.728059 c -0.3110917,0 -0.5787757,-0.04651 -0.8020176,-0.14056 -0.225309,-0.09302 -0.393774,-0.219108 -0.504362,-0.376204 -0.08785,-0.120923 -0.132291,-0.244946 -0.132291,-0.37207 0,-0.2087735 0.107487,-0.3979085 0.322461,-0.5663745 0.264583,-0.2067053 0.6232169,-0.3100586 1.0748686,-0.3100586 0.314193,0 0.582911,0.045476 0.806154,0.1364257 0.221175,0.090951 0.382405,0.2087734 0.483691,0.3514007 0.09922,0.1405592 0.148828,0.2759517 0.148828,0.4051417 0,0.262518 -0.153996,0.479558 -0.463021,0.653191 -0.258382,0.146761 -0.570509,0.219108 -0.934311,0.219108 z m 0.04961,-0.396876 c 0.375172,0 0.681096,-0.04547 0.917774,-0.136425 0.201538,-0.07648 0.30179,-0.191202 0.30179,-0.343131 0,-0.07131 -0.03101,-0.145728 -0.09508,-0.2232423 -0.06615,-0.079581 -0.1757,-0.1384924 -0.330729,-0.1777664 -0.22841,-0.063046 -0.553973,-0.095085 -0.975652,-0.095085 -0.3110917,0 -0.5705076,0.032039 -0.7772136,0.095085 -0.153996,0.049609 -0.264583,0.1136872 -0.330729,0.1901684 -0.04341,0.055811 -0.06615,0.1219573 -0.06615,0.1984383 0,0.09095 0.04134,0.172599 0.124024,0.243912 0.110587,0.09715 0.285254,0.163298 0.5250319,0.198437 0.239779,0.03307 0.475423,0.04961 0.7069337,0.04961 z m 0,0"
       style="fill:#000000;fill-opacity:1;fill-rule:nonzero;stroke:none;stroke-width:0.0125797"
       aria-label="-0.100.000.10" />
    <path
       id="path47"
       d="M 189.52,728.5 H 675.26001 V 613.66998 H 189.52 V 728.5"
       style="fill:none;stroke:#000000;stroke-width:0.975;stroke-linecap:round;stroke-linejoin:round;stroke-miterlimit:10;stroke-dasharray:none;stroke-opacity:1"
       clip-path="url(#clipPath48)"
       transform="matrix(0.26458333,0,0,0.26458333,-32.938725,-153.71852)" />
    <path
       id="path49"
       d="m 1.5883658,37.655847 0.859896,-0.07028 v 0.07028 c -0.214974,0.07235 -0.376205,0.164331 -0.4836921,0.276985 -0.157096,0.163298 -0.235644,0.372071 -0.235644,0.628386 0,0.347265 0.138493,0.611848 0.4134111,0.793749 0.231511,0.151929 0.507463,0.227377 0.826823,0.227377 0.262516,0 0.500228,-0.04961 0.7152021,-0.148828 0.212907,-0.101286 0.370003,-0.233578 0.471289,-0.396875 0.09922,-0.165365 0.148828,-0.332796 0.148828,-0.504362 0,-0.101286 -0.0124,-0.199471 -0.03721,-0.293522 -0.02687,-0.09302 -0.06615,-0.182935 -0.115755,-0.268718 H 3.3660318 c -0.137459,0 -0.227376,0.01137 -0.268717,0.03307 -0.04341,0.01964 -0.07648,0.05168 -0.09922,0.09508 -0.0217,0.04134 -0.03307,0.117822 -0.03307,0.227376 h -0.07441 V 37.26724 h 0.07441 v 0.05374 c 0,0.10542 0.03617,0.176733 0.107487,0.214974 0.04961,0.0248 0.147795,0.03721 0.293522,0.03721 h 0.8350911 c 0.08268,0.157096 0.143661,0.312125 0.181901,0.46302 0.03824,0.148828 0.05788,0.314193 0.05788,0.496094 0,0.529166 -0.169499,0.930175 -0.508496,1.203027 -0.253215,0.206706 -0.5457031,0.310058 -0.8764321,0.310058 -0.239779,0 -0.469222,-0.05788 -0.690398,-0.173632 -0.261482,-0.13746 -0.4630201,-0.324528 -0.6035801,-0.56224 -0.115755,-0.200504 -0.1736329,-0.438216 -0.1736329,-0.711067 0,-0.09922 0.0083,-0.188102 0.02481,-0.268718 0.01447,-0.08268 0.04858,-0.198437 0.1033529,-0.347265 0.031,-0.07441 0.04547,-0.125057 0.04547,-0.152962 0,-0.0248 -0.01034,-0.04548 -0.03307,-0.06201 -0.02481,-0.0186 -0.07131,-0.03101 -0.1405599,-0.03721 z m 0.892969,-1.592667 c 0,-0.27802 0.106453,-0.501262 0.318326,-0.669727 0.181901,-0.142627 0.390674,-0.214974 0.624252,-0.214974 0.165364,0 0.3327961,0.04031 0.5002281,0.11989 0.168465,0.07751 0.296622,0.186035 0.384472,0.326594 0.08475,0.138493 0.128158,0.292489 0.128158,0.463021 0,0.279053 -0.111621,0.499194 -0.334863,0.661458 -0.183969,0.138493 -0.393775,0.206706 -0.6283861,0.206706 -0.167431,0 -0.334863,-0.04134 -0.500228,-0.124023 -0.167431,-0.08475 -0.291455,-0.195337 -0.37207,-0.33073 -0.07958,-0.137459 -0.119889,-0.283186 -0.119889,-0.438215 z m 0.132291,0.06614 c 0,0.06925 0.02067,0.14056 0.06201,0.214974 0.04134,0.07235 0.115755,0.130225 0.223242,0.173633 0.10542,0.04444 0.241846,0.06615 0.409278,0.06615 0.267683,0 0.4991941,-0.05374 0.6945311,-0.161231 0.19327,-0.107487 0.289388,-0.248046 0.289388,-0.421679 0,-0.129191 -0.05374,-0.236678 -0.161231,-0.322461 -0.107487,-0.08475 -0.291455,-0.128158 -0.5539711,-0.128158 -0.327629,0 -0.584977,0.07028 -0.773079,0.21084 -0.126091,0.09715 -0.19017,0.219108 -0.19017,0.367936 z M 1.5180857,34.311344 h 2.4432622 c 0.115755,0 0.193269,-0.0083 0.23151,-0.0248 0.03617,-0.01654 0.06408,-0.04134 0.08268,-0.07441 0.01964,-0.03514 0.02894,-0.101286 0.02894,-0.198437 h 0.07441 v 0.905371 h -0.07441 c 0,-0.08475 -0.0083,-0.142627 -0.02481,-0.173633 -0.01654,-0.02997 -0.04341,-0.05374 -0.08268,-0.07028 -0.04134,-0.0186 -0.119889,-0.02894 -0.235644,-0.02894 H 2.2870268 c -0.206705,0 -0.3327961,0.0062 -0.3803381,0.01654 -0.04961,0.0083 -0.08268,0.02377 -0.09922,0.04547 -0.01654,0.01964 -0.02481,0.04547 -0.02481,0.07855 0,0.03307 0.01034,0.07751 0.02894,0.132292 l -0.07028,0.03307 -0.223242,-0.549837 z m 2.6541012,-1.738395 c 0.09405,0.08888 0.161231,0.176733 0.202572,0.264583 0.04134,0.08578 0.06201,0.177767 0.06201,0.276986 0,0.201538 -0.08372,0.378271 -0.252181,0.529166 -0.170532,0.148829 -0.38654,0.223243 -0.6490561,0.223243 -0.264583,0 -0.506429,-0.08268 -0.727604,-0.248047 -0.220142,-0.167432 -0.330729,-0.382406 -0.330729,-0.644922 0,-0.162264 0.05271,-0.295589 0.157096,-0.401009 h -0.338997 c -0.211874,0 -0.3410651,0.0062 -0.3886071,0.01654 -0.04961,0.0083 -0.08268,0.02377 -0.09922,0.04547 -0.01654,0.01964 -0.02481,0.04547 -0.02481,0.07855 0,0.03617 0.01034,0.08268 0.02894,0.14056 l -0.07028,0.0248 -0.223242,-0.549837 v -0.09095 h 2.1290692 c 0.218074,0 0.350366,-0.0041 0.396875,-0.0124 0.04754,-0.01034 0.08061,-0.02687 0.09922,-0.04961 0.01964,-0.0217 0.02894,-0.04754 0.02894,-0.07855 0,-0.03514 -0.01033,-0.08372 -0.03307,-0.144694 l 0.07028,-0.02067 0.227376,0.545702 v 0.09509 z m -0.140559,0 H 3.0807808 c -0.09095,0.0062 -0.173632,0.02894 -0.248047,0.07028 -0.07648,0.04134 -0.133325,0.09508 -0.169498,0.16123 -0.03824,0.06615 -0.05788,0.131259 -0.05788,0.194304 0,0.118856 0.05271,0.223242 0.157097,0.314192 0.140559,0.124024 0.345198,0.186035 0.611848,0.186035 0.270785,0 0.4785241,-0.05891 0.6242521,-0.177766 0.14366,-0.117823 0.214974,-0.250114 0.214974,-0.396875 0,-0.120923 -0.05994,-0.237712 -0.181901,-0.3514 z M 2.6797718,31.131177 h 1.2112961 c 0.173632,0 0.283187,-0.01757 0.326595,-0.05374 0.05788,-0.04961 0.08682,-0.116788 0.08682,-0.202571 v -0.165365 h 0.07441 v 1.103809 h -0.07441 v -0.08268 c 0,-0.05478 -0.0124,-0.104386 -0.03721,-0.148828 -0.02687,-0.04341 -0.06304,-0.07441 -0.107487,-0.09095 -0.04651,-0.01654 -0.136426,-0.02481 -0.268717,-0.02481 H 2.6797728 v 0.359668 h -0.144694 v -0.359668 h -0.119889 c -0.183968,0 -0.340031,-0.02894 -0.4671551,-0.08682 -0.126091,-0.05994 -0.22841,-0.150895 -0.3059239,-0.272852 -0.07958,-0.120923 -0.1198901,-0.257348 -0.1198901,-0.409277 0,-0.142627 0.04547,-0.272851 0.136426,-0.388607 0.06098,-0.07958 0.128158,-0.119889 0.202572,-0.119889 0.04134,0 0.08062,0.0186 0.115755,0.05374 0.03307,0.03617 0.04961,0.07338 0.04961,0.111622 0,0.03101 -0.01034,0.06408 -0.03307,0.09922 -0.0217,0.03307 -0.06821,0.07441 -0.14056,0.124024 -0.07441,0.04961 -0.124023,0.09508 -0.148828,0.136425 -0.02481,0.04444 -0.03721,0.09095 -0.03721,0.14056 0,0.06408 0.01654,0.117823 0.04961,0.161231 0.03307,0.04134 0.08475,0.07235 0.152962,0.09095 0.06925,0.01654 0.2470131,0.02481 0.5333011,0.02481 h 0.132291 v -0.475423 h 0.144694 z m -0.144694,-2.212784 h 1.1162111 c 0.214974,0 0.346232,-0.0052 0.392741,-0.01654 0.04754,-0.01033 0.08061,-0.02687 0.09922,-0.04961 0.01964,-0.0217 0.02894,-0.04754 0.02894,-0.07855 0,-0.04134 -0.01033,-0.08785 -0.03307,-0.14056 l 0.07028,-0.02894 0.227376,0.553971 v 0.09095 h -0.392741 c 0.173633,0.157096 0.283187,0.279052 0.326595,0.363802 0.04341,0.08268 0.06615,0.169498 0.06615,0.260449 0,0.10542 -0.03101,0.19637 -0.09095,0.272851 -0.05994,0.07441 -0.137459,0.127124 -0.23151,0.157097 -0.09302,0.02791 -0.225309,0.04134 -0.396875,0.04134 H 2.8947558 c -0.08785,0 -0.148828,0.01034 -0.181901,0.02894 -0.03307,0.01964 -0.05788,0.04857 -0.07441,0.08682 -0.0186,0.03617 -0.02894,0.102319 -0.02894,0.198437 h -0.07441 v -0.644921 h 1.2319661 c 0.173633,0 0.288355,-0.02997 0.343132,-0.09095 0.05271,-0.05994 0.07855,-0.132291 0.07855,-0.214974 0,-0.05788 -0.01757,-0.124023 -0.05374,-0.198437 -0.03824,-0.07441 -0.10852,-0.161231 -0.210839,-0.260449 H 2.8823668 c -0.104387,0 -0.174666,0.01964 -0.21084,0.05788 -0.03824,0.03927 -0.05891,0.118856 -0.06201,0.239779 h -0.07441 z M 1.9314967,27.975815 h 0.6035811 v -0.429948 h 0.14056 v 0.429948 h 1.1947591 c 0.121957,0 0.202572,-0.01654 0.243913,-0.04961 0.04134,-0.03514 0.06201,-0.07958 0.06201,-0.132291 0,-0.04341 -0.01344,-0.08682 -0.04134,-0.128158 -0.02687,-0.04134 -0.06821,-0.07441 -0.124023,-0.09922 v -0.07855 c 0.132292,0.04754 0.23151,0.114722 0.297656,0.202572 0.06615,0.08578 0.09922,0.173633 0.09922,0.264583 0,0.06098 -0.01654,0.121957 -0.04961,0.181901 -0.03514,0.05788 -0.08475,0.102319 -0.148828,0.132292 -0.06305,0.02791 -0.161231,0.04134 -0.293523,0.04134 H 2.6756378 v 0.289388 h -0.06615 c -0.02997,-0.07441 -0.07958,-0.149862 -0.148828,-0.227376 -0.07131,-0.07648 -0.155029,-0.145728 -0.252181,-0.206706 -0.04961,-0.02997 -0.141593,-0.07235 -0.2769861,-0.128158 z m 0.6035811,-2.151807 h 1.1162111 c 0.214974,0 0.346232,-0.0052 0.392741,-0.01653 0.04754,-0.01034 0.08061,-0.02687 0.09922,-0.04961 0.01964,-0.02171 0.02894,-0.04754 0.02894,-0.07855 0,-0.04134 -0.01033,-0.08785 -0.03307,-0.140559 l 0.07028,-0.02894 0.227376,0.553971 v 0.09095 h -0.392741 c 0.173633,0.157097 0.283187,0.279053 0.326595,0.363803 0.04341,0.08268 0.06615,0.169498 0.06615,0.260449 0,0.10542 -0.03101,0.19637 -0.09095,0.272851 -0.05994,0.07442 -0.137459,0.127124 -0.23151,0.157097 -0.09302,0.02791 -0.225309,0.04134 -0.396875,0.04134 H 2.8947558 c -0.08785,0 -0.148828,0.01034 -0.181901,0.02894 -0.03307,0.01964 -0.05788,0.04858 -0.07441,0.08682 -0.0186,0.03617 -0.02894,0.102319 -0.02894,0.198438 h -0.07441 v -0.644923 h 1.2319661 c 0.173633,0 0.288355,-0.02997 0.343132,-0.09095 0.05271,-0.05994 0.07855,-0.132292 0.07855,-0.214973 0,-0.05788 -0.01757,-0.124024 -0.05374,-0.198439 -0.03824,-0.07441 -0.10852,-0.161229 -0.210839,-0.260449 H 2.8823668 c -0.104387,0 -0.174666,0.01964 -0.21084,0.05788 -0.03824,0.03927 -0.05891,0.118856 -0.06201,0.239779 h -0.07441 z m -0.05374,-0.945678 h 0.413411 c -0.274918,-0.153996 -0.413411,-0.312125 -0.413411,-0.475423 0,-0.07441 0.02377,-0.134359 0.07028,-0.181901 0.04444,-0.04961 0.09508,-0.07441 0.152962,-0.07441 0.05271,0 0.09715,0.0186 0.132292,0.05374 0.03617,0.03617 0.05374,0.07752 0.05374,0.124024 0,0.04754 -0.0217,0.101285 -0.06615,0.16123 -0.04651,0.05788 -0.07028,0.101286 -0.07028,0.128158 0,0.0248 0.0124,0.05168 0.03721,0.07855 0.05581,0.06098 0.146761,0.122989 0.272852,0.186035 h 0.8847001 c 0.10232,0 0.179834,-0.0124 0.231511,-0.03721 0.03617,-0.01654 0.06615,-0.04651 0.09095,-0.09095 0.02274,-0.04651 0.03307,-0.111622 0.03307,-0.194303 h 0.07441 v 0.946711 h -0.07441 c 0,-0.09302 -0.01344,-0.163298 -0.04134,-0.210839 -0.0217,-0.03307 -0.05581,-0.05581 -0.103353,-0.07028 -0.0217,-0.0052 -0.08682,-0.0083 -0.194303,-0.0083 H 3.2502768 c -0.214974,0 -0.343131,0.0041 -0.384473,0.0124 -0.04134,0.0083 -0.07028,0.0248 -0.08682,0.04961 -0.0186,0.02274 -0.02894,0.05168 -0.02894,0.08682 0,0.04134 0.01034,0.08888 0.02894,0.140559 l -0.07441,0.02067 -0.223242,-0.558104 z m 0.748274,-1.088305 c 0.272852,0 0.4878261,-0.06615 0.6449221,-0.198438 0.15503,-0.134359 0.231511,-0.293522 0.231511,-0.475423 0,-0.120923 -0.03307,-0.225309 -0.09922,-0.314192 -0.06615,-0.09095 -0.178801,-0.166398 -0.338997,-0.227376 l 0.03721,-0.06201 c 0.185001,0.03101 0.353466,0.113689 0.504362,0.248048 0.151928,0.135392 0.227376,0.30489 0.227376,0.508495 0,0.221176 -0.08475,0.411344 -0.256315,0.570508 -0.173633,0.157096 -0.406177,0.235644 -0.6986661,0.235644 -0.316259,0 -0.563273,-0.07958 -0.740006,-0.239779 -0.1757,-0.162263 -0.264583,-0.365868 -0.264583,-0.611848 0,-0.206706 0.06925,-0.376204 0.206705,-0.508496 0.135393,-0.134359 0.317294,-0.202572 0.545703,-0.202572 z m -0.115755,0 v -0.855761 c -0.117822,0.0083 -0.202571,0.02274 -0.252181,0.04134 -0.07441,0.03617 -0.132291,0.08682 -0.173633,0.152963 -0.04341,0.06614 -0.06614,0.135392 -0.06614,0.206705 0,0.113689 0.04444,0.213941 0.132291,0.30179 0.08578,0.08578 0.205673,0.136426 0.359668,0.152963 z m 0.190169,-1.500684 V 21.24755 h 0.301791 v 1.041796 z m 1.0748701,-3.940843 v 0.727604 l -1.2774411,0.926041 c 0.0031,0.06615 0.0041,0.121956 0.0041,0.165364 0,0.01654 0,0.03617 0,0.05788 0,0.01964 -0.001,0.04031 -0.0041,0.06201 h 0.7937501 c 0.171566,0 0.279053,-0.0186 0.322461,-0.05788 0.05788,-0.04961 0.08682,-0.125058 0.08682,-0.227377 v -0.107487 h 0.07441 v 1.169954 h -0.07441 v -0.103353 c 0,-0.115755 -0.03721,-0.198437 -0.111621,-0.248046 -0.04134,-0.02687 -0.14056,-0.04134 -0.297656,-0.04134 H 2.1340758 c -0.1736331,0 -0.2811201,0.01964 -0.3224611,0.05788 -0.05788,0.05271 -0.08682,0.130225 -0.08682,0.23151 v 0.103353 h -0.07441 V 20.06829 c 0,-0.289389 0.02274,-0.502296 0.06615,-0.640788 0.04134,-0.137459 0.118855,-0.254248 0.23151,-0.351399 0.1136881,-0.09612 0.2480471,-0.144694 0.4051431,-0.144694 0.168465,0 0.314193,0.05581 0.438216,0.165364 0.121957,0.110588 0.208773,0.280086 0.260449,0.508497 l 0.7813481,-0.56224 c 0.179834,-0.129192 0.299723,-0.239779 0.359668,-0.33073 0.05788,-0.09302 0.09509,-0.214974 0.111621,-0.363801 z m -1.4014651,1.938899 c 0,-0.02481 0,-0.04651 0,-0.06615 0,-0.0186 0,-0.03411 0,-0.04548 0,-0.261482 -0.05581,-0.458886 -0.169498,-0.591178 -0.112655,-0.132291 -0.256315,-0.198437 -0.429948,-0.198437 -0.170532,0 -0.307992,0.05374 -0.4134121,0.161231 -0.107487,0.107487 -0.16123,0.248046 -0.16123,0.421679 0,0.08061 0.0124,0.186035 0.03721,0.318327 z m 0.252181,-2.43706 c 0.272852,0 0.4878261,-0.06615 0.6449221,-0.198438 0.15503,-0.134359 0.231511,-0.293522 0.231511,-0.475423 0,-0.120922 -0.03307,-0.225309 -0.09922,-0.314192 -0.06615,-0.09095 -0.178801,-0.166398 -0.338997,-0.227377 l 0.03721,-0.06201 c 0.185001,0.03101 0.353466,0.113688 0.504362,0.248047 0.151928,0.135392 0.227376,0.304891 0.227376,0.508496 0,0.221175 -0.08475,0.411343 -0.256315,0.570508 -0.173633,0.157096 -0.406177,0.235644 -0.6986661,0.235644 -0.316259,0 -0.563273,-0.07958 -0.740006,-0.239779 -0.1757,-0.162263 -0.264583,-0.365868 -0.264583,-0.611849 0,-0.206705 0.06925,-0.376203 0.206705,-0.508495 0.135393,-0.134359 0.317294,-0.202572 0.545703,-0.202572 z m -0.115755,0 V 16.99458 c -0.117822,0.0083 -0.202571,0.02274 -0.252181,0.04134 -0.07441,0.03617 -0.132291,0.08682 -0.173633,0.152961 -0.04341,0.06615 -0.06614,0.135392 -0.06614,0.206707 0,0.113688 0.04444,0.21394 0.132291,0.30179 0.08578,0.08578 0.205673,0.136426 0.359668,0.152962 z m -0.243913,-2.000911 c -0.258382,-0.217041 -0.388606,-0.423746 -0.388606,-0.620116 0,-0.09922 0.0248,-0.183968 0.07441,-0.256316 0.04961,-0.07441 0.132291,-0.133325 0.248047,-0.177766 0.08268,-0.02687 0.206705,-0.04134 0.37207,-0.04134 h 0.7854821 c 0.118855,0 0.198437,-0.0093 0.239778,-0.02894 0.03307,-0.01654 0.05994,-0.03927 0.07855,-0.07028 0.01654,-0.03307 0.02481,-0.09508 0.02481,-0.186035 h 0.07441 v 0.913639 h -0.07441 v -0.03721 c 0,-0.08475 -0.0124,-0.144693 -0.03721,-0.177767 -0.02687,-0.03514 -0.06615,-0.05994 -0.115755,-0.07441 -0.0186,-0.0052 -0.08268,-0.0083 -0.190169,-0.0083 H 3.2089418 c -0.167432,0 -0.289388,0.02274 -0.363802,0.06615 -0.07648,0.04444 -0.115755,0.117824 -0.115755,0.219109 0,0.160197 0.08682,0.320394 0.260449,0.479556 h 0.9715171 c 0.127124,0 0.204638,-0.0083 0.23151,-0.0248 0.03927,-0.01654 0.06821,-0.04134 0.08682,-0.07441 0.01654,-0.03307 0.02481,-0.100251 0.02481,-0.202571 h 0.07441 v 0.913646 h -0.07441 v -0.04134 c 0,-0.09302 -0.02274,-0.157096 -0.07028,-0.190168 -0.04651,-0.03307 -0.137459,-0.04961 -0.272851,-0.04961 H 3.2792308 c -0.223242,0 -0.357601,0.0062 -0.405143,0.01653 -0.04961,0.0083 -0.08268,0.02377 -0.09922,0.04548 -0.01654,0.02274 -0.02481,0.04961 -0.02481,0.08268 0,0.03927 0.01034,0.08475 0.02894,0.136427 l -0.07441,0.02894 -0.223242,-0.553971 v -0.08682 z m 1.3022461,-2.8267 c 0.09405,0.08888 0.161231,0.176733 0.202572,0.264583 0.04134,0.08578 0.06201,0.177768 0.06201,0.276986 0,0.201538 -0.08372,0.378272 -0.252181,0.529166 -0.170532,0.148829 -0.38654,0.223242 -0.6490561,0.223242 -0.264583,0 -0.506429,-0.08268 -0.727604,-0.248046 -0.220142,-0.167431 -0.330729,-0.382405 -0.330729,-0.644922 0,-0.162263 0.05271,-0.295589 0.157096,-0.401009 h -0.338997 c -0.211874,0 -0.3410651,0.0062 -0.3886071,0.01654 -0.04961,0.0083 -0.08268,0.02377 -0.09922,0.04548 -0.01654,0.01964 -0.02481,0.04547 -0.02481,0.07855 0,0.03617 0.01034,0.08268 0.02894,0.140559 l -0.07028,0.0248 -0.223242,-0.549837 v -0.09095 h 2.1290692 c 0.218074,0 0.350366,-0.0041 0.396875,-0.0124 0.04754,-0.01033 0.08061,-0.02687 0.09922,-0.04961 0.01964,-0.0217 0.02894,-0.04754 0.02894,-0.07855 0,-0.03514 -0.01033,-0.08371 -0.03307,-0.144694 l 0.07028,-0.02067 0.227376,0.545702 v 0.09509 z m -0.140559,0 H 3.0807838 c -0.09095,0.0062 -0.173632,0.02894 -0.248047,0.07028 -0.07648,0.04134 -0.133325,0.09509 -0.169498,0.161231 -0.03824,0.06615 -0.05788,0.131259 -0.05788,0.194303 0,0.118856 0.05271,0.223242 0.157097,0.314192 0.140559,0.124024 0.345198,0.186036 0.611848,0.186036 0.270785,0 0.4785241,-0.05891 0.6242521,-0.177767 0.14366,-0.117822 0.214974,-0.250114 0.214974,-0.396875 0,-0.120923 -0.05994,-0.237711 -0.181901,-0.3514 z M 1.5180857,11.791798 c 0,-0.05478 0.01964,-0.101285 0.05788,-0.140559 0.03927,-0.04134 0.08682,-0.06201 0.1446939,-0.06201 0.05581,0 0.103353,0.02067 0.144694,0.06201 0.04134,0.03927 0.06201,0.08578 0.06201,0.140559 0,0.05788 -0.02067,0.107487 -0.06201,0.148829 -0.04134,0.03927 -0.08888,0.05788 -0.144694,0.05788 -0.05788,0 -0.1054199,-0.0186 -0.1446939,-0.05788 -0.03824,-0.04134 -0.05788,-0.09095 -0.05788,-0.148829 z m 0.9632491,-0.165364 h 1.4800131 c 0.115755,0 0.193269,-0.0083 0.23151,-0.0248 0.03927,-0.01654 0.06821,-0.04134 0.08682,-0.07441 0.01654,-0.03307 0.02481,-0.09302 0.02481,-0.181901 h 0.07441 v 0.897103 h -0.07441 c 0,-0.09095 -0.0083,-0.150896 -0.02481,-0.181901 -0.01654,-0.02997 -0.04341,-0.05374 -0.08268,-0.07028 -0.04134,-0.0186 -0.119889,-0.02894 -0.235644,-0.02894 H 3.2502858 c -0.198438,0 -0.327629,0.0062 -0.388607,0.01654 -0.04134,0.01137 -0.07028,0.02687 -0.08682,0.04548 -0.01654,0.01964 -0.02481,0.04754 -0.02481,0.08268 0,0.03617 0.01034,0.08165 0.02894,0.136425 l -0.07441,0.02894 -0.223244,-0.558107 z M 1.9314967,10.694191 h 0.6035811 v -0.429947 h 0.14056 v 0.429947 h 1.1947591 c 0.121957,0 0.202572,-0.01654 0.243913,-0.04961 0.04134,-0.03514 0.06201,-0.07958 0.06201,-0.132292 0,-0.04341 -0.01344,-0.08682 -0.04134,-0.128157 -0.02687,-0.04134 -0.06821,-0.07441 -0.124023,-0.09922 v -0.07855 c 0.132292,0.04754 0.23151,0.114722 0.297656,0.202572 0.06615,0.08578 0.09922,0.173633 0.09922,0.264583 0,0.06098 -0.01654,0.121957 -0.04961,0.181901 -0.03514,0.05788 -0.08475,0.102319 -0.148828,0.132291 -0.06305,0.02791 -0.161231,0.04134 -0.293523,0.04134 H 2.6756378 v 0.289387 h -0.06615 c -0.02997,-0.07441 -0.07958,-0.149862 -0.148828,-0.227377 -0.07131,-0.07648 -0.155029,-0.145727 -0.252181,-0.206705 -0.04961,-0.02997 -0.141593,-0.07235 -0.2769861,-0.128157 z M 3.2296088,9.8901059 c 0.272852,0 0.4878261,-0.066145 0.6449221,-0.1984369 0.15503,-0.1343588 0.231511,-0.2935217 0.231511,-0.475423 0,-0.1209235 -0.03307,-0.2253089 -0.09922,-0.3141934 -0.06615,-0.09095 -0.178801,-0.1663979 -0.338997,-0.2273758 l 0.03721,-0.062011 c 0.185001,0.031006 0.353466,0.1136873 0.504362,0.2480461 0.151928,0.1353923 0.227376,0.3048917 0.227376,0.5084968 0,0.2211741 -0.08475,0.4113438 -0.256315,0.5705067 -0.173633,0.1570976 -0.406177,0.2356456 -0.6986661,0.2356456 -0.316259,0 -0.563273,-0.07958 -0.740006,-0.2397792 -0.1757,-0.1622643 -0.264583,-0.3658695 -0.264583,-0.6118488 0,-0.2067053 0.06925,-0.3762046 0.206705,-0.5084954 0.135393,-0.1343589 0.317294,-0.2025718 0.545703,-0.2025718 z m -0.115755,0 V 9.0343447 c -0.117822,0.00827 -0.202571,0.022737 -0.252181,0.041341 -0.07441,0.036174 -0.132291,0.086816 -0.173633,0.1529625 -0.04341,0.066146 -0.06614,0.1353922 -0.06614,0.2067053 0,0.1136884 0.04444,0.2139403 0.132291,0.3017914 0.08578,0.085782 0.205673,0.1364257 0.359668,0.1529612 z m 0,0"
       style="fill:#000000;fill-opacity:1;fill-rule:nonzero;stroke:none;stroke-width:0.0125797"
       aria-label="Goldfuture-Rendite" />
    <path
       id="path50"
       d="M 189.52,728.5 H 675.26001 V 613.66998 H 189.52 V 728.5"
       style="fill:none;stroke:#000000;stroke-width:0.975;stroke-linecap:round;stroke-linejoin:round;stroke-miterlimit:10;stroke-dasharray:none;stroke-opacity:1"
       clip-path="url(#clipPath51)"
       transform="matrix(0.26458333,0,0,0.26458333,-32.938725,-153.71852)" />
    <path
       id="path52"
       d="m 208.05,685.67999 v -12.64996 l 0.98,-4.87006 V 687.63 631.17999 l 0.97,43.79999 v 10.70001 l 0.98,10.71002 v -15.57 l 0.97,-4.87 v 8.76001 -8.76001 l 0.97999,11.67999 v -15.57 h 0.97 v 9.72998 l 0.98001,6.81 v -24.32996 l 0.98,17.51996 v -1.94995 0 l 0.97,-21.41004 V 672.06 l 0.98,-3.90003 v 18.49005 l 0.97,-21.41003 v 19.47003 -3.89001 l 0.97999,-2.91999 v 2.91999 l 0.97001,0.96997 v -2.91999 L 221.71001,667.19 v 13.63001 l 0.96998,-10.71002 v 12.65002 -4.85999 L 223.66,676.91998 V 674 l 0.97,7.78998 v -10.70996 l 0.98,7.78997 v 10.70002 -16.53998 l 0.97,3.88995 v -1.94 h 0.98 v -4.86999 h 0.97999 v 9.73004 l 0.97,-7.78003 v 7.78003 1.94995 l 0.98001,1.94 v -7.77997 l 0.97001,3.89002 V 667.19 L 232.44,689.57001 V 679.84003 672.06 l 0.97,0.97003 v -11.68005 l 0.98,37.96002 v -29.20001 l 0.97,12.65002 V 672.06 l 0.98,3.89001 v -7.79004 9.74005 l 0.97,-6.82 v 1.95001 l 0.97999,-30.17005 v 49.63001 l 0.97,2.91998 v -31.13995 15.57001 L 240.24,674 v 5.84003 l 0.98,2.91998 V 674 l 0.97,-1.94 v 8.76001 L 243.17,674 v -7.78003 0.97003 l 0.97,20.44 V 674 l 0.97999,2.91998 v -29.19 l 0.97001,27.25 v 0 1.94 l 0.98001,10.71002 v -2.91998 l 0.96998,-4.86999 v -8.76001 l 0.98001,10.70996 v -0.96997 l 0.97,-1.95002 v -3.89001 0 l 0.98,-4.86999 v 6.80999 l 0.97,1.95001 V 672.06 l 0.98,-9.72998 v 21.39996 0 l 0.97999,-19.45996 v -16.54004 l 0.97,35.03003 v 3.89001 l 0.98002,-18.49005 v 21.41004 l 0.97,-12.65003 v -12.64996 3.88995 l 0.97998,10.71002 v -5.83996 l 0.97,2.91998 v -13.61999 l 0.98001,12.64996 v 2.92004 -0.98004 l 0.97,-15.57 v 6.80999 l 0.98001,10.71002 v 5.84003 l 0.97,-16.55005 v 24.33002 l 0.97998,-12.64996 v -10.70002 -4.86999 l 0.97001,42.82001 v -37.95002 l 0.98001,-3.90002 v 12.66003 l 0.97998,8.75 V 667.19 664.27002 l 0.97,16.54999 V 668.15997 L 268.53,679.84003 V 672.06 l 0.97,12.65002 v -2.92004 l 0.98001,-6.81 v -6.82001 3.90003 l 0.97,4.85998 v -0.96997 l 0.97998,5.83997 v -19.45996 l 0.97,3.88995 v 0 -1.94995 l 0.98001,8.76001 V 672.06 l 0.97001,1.94 v -12.65002 l 0.97998,14.60003 V 674 l 0.97,18.48999 v -8.76001 -5.82996 l 0.98001,-2.92004 v 20.42999 l 0.98001,-3.88995 v -23.36005 l 0.97,16.55005 v -11.67999 4.86999 L 281.20999,667.19 v -1.95001 l 0.97,0.97998 v 1.94 l 0.98001,-9.72998 v 23.35999 l 0.97,-4.87 v 8.76001 -8.76001 l 0.97999,14.60004 v -23.36005 l 0.97,16.55005 V 673.03003 L 287.06,655.51001 v 41.84997 -35.02996 l 0.97,4.85998 v 9.72998 L 289.01001,660.38 V 674 l 0.97,4.86999 v -9.72998 l 0.97998,8.76001 v 12.64997 -19.46997 l 0.98001,7.78997 v -23.35998 l 0.97,26.27997 v -3.88996 l 0.98001,-19.47003 v 20.44 -3.89001 l 0.96998,-10.70996 v 8.76001 l 0.98001,2.91998 v -2.91998 l 0.97,-0.97003 v -8.76001 l 0.98001,35.03003 v -23.35004 7.78003 l 0.97,-8.76001 v -5.84003 l 0.97998,23.36005 v -13.62 l 0.97,-7.79003 v 13.61999 -27.23999 l 0.98001,8.75 v 10.71002 l 0.97,1.95001 v 20.43 l 0.98001,-15.57001 v 2.91998 H 304.62 v -6.81 -12.65002 l 0.97,-0.97998 v 14.60004 l 0.98001,2.91998 v -17.52002 l 0.97,1.95001 v 13.63001 -15.58002 l 0.97998,12.66003 v 17.50995 l 0.97,-19.45996 v -10.71002 l 0.98001,11.67999 v -17.51001 l 0.97,28.22003 v -8.76001 -3.89001 L 312.42001,672.06 V 674 l 0.97,-11.66998 V 672.06 l 0.97999,8.76001 V 670.10999 672.06 l 0.97,-1.95001 V 672.06 l 0.98001,-4.87 V 674 l 0.97998,-5.84003 V 699.31 l 0.97,-31.15003 v 7.79004 4.87 l 0.98001,15.57 V 672.06 h 0.97 v 4.85998 l 0.98001,11.68 v -19.45997 0 l 0.97,-0.98004 v 7.79004 l 0.97998,-12.65002 v 20.42999 l 0.97001,8.76001 V 674 l 0.98001,0.97998 v 3.89001 -12.65002 l 0.97,9.73004 v 8.76001 l 0.97998,-1.95001 v -2.91998 L 328.01999,674 V 671.08002 672.06 L 329,664.27002 V 674 l 0.98001,14.59998 v -6.81 l 0.97,-2.91999 V 672.06 l 0.97998,-0.97998 v -3.89002 0 l 0.97,18.48999 v -9.72998 l 0.98001,-7.79004 v 2.92005 l 0.97001,-5.84003 v 6.82001 -0.97998 l 0.97998,-1.94001 v 12.64997 l 0.97,-2.91999 v -8.76 l 0.98001,21.41003 v -27.25 l 0.97,-4.86005 v 10.70002 -5.83997 l 0.98001,-8.76001 v 42.82001 l 0.97,-21.41004 v -13.61999 l 0.97998,-8.76001 v 7.79004 16.53997 L 342.66,672.06 v -4.87 l 0.97,24.33002 v -16.54004 l 0.97999,-4.86999 v -1.95002 l 0.97,30.17005 v -34.06 7.78998 L 346.56,658.42999 v 10.71002 l 0.97,0.96998 v -21.40998 l 0.98001,13.63001 v -8.76001 3.89001 l 0.97,56.44 v -33.08001 l 0.97998,4.85998 v 11.67999 l 0.97,2.92005 V 671.08002 L 352.41,654.53998 v 5.84002 -7.78997 l 0.97,58.38995 v -45.73999 l 0.97999,1.95001 v 17.52002 l 0.98001,7.77997 v -23.34998 3.89002 l 0.97,14.59997 v 15.57001 l 0.98001,-36.98004 v 2.92004 l 0.97,26.26996 v -32.10998 l 0.97998,9.73004 v 0 -20.44 l 0.97,23.35998 v 5.83997 L 361.19,671.08002 v -8.75 l 0.97,28.21997 v -4.87 V 674 l 0.98001,-9.72998 v 33.08996 l 0.96998,-36.01 v 7.79003 l 0.98001,0.96998 v 2.92004 l 0.97,-11.68005 v 14.60003 -9.73004 l 0.98001,37.95001 v -34.05999 l 0.97998,4.86999 V 674 l 0.97,-1.94 v -4.87 1.95001 L 369.97,672.06 v 13.61999 l 0.97,-17.52002 v 20.44001 l 0.98001,-4.87 v -2.90997 l 0.97,-17.52002 v 32.10998 -25.29998 l 0.97999,6.80999 v 3.90003 l 0.97,-9.73999 V 667.19 l 0.98001,-2.91998 v 29.19995 -28.22998 l 0.97,12.66003 v 8.75 l 0.97998,-17.51001 v 3.89002 l 0.97,-17.52002 v 15.57001 l 0.98001,-8.75 v 6.80999 6.81 l 0.98001,-3.89001 v -4.87 l 0.97,-2.91998 v -1.94 l 0.97998,-0.98004 v 42.82 -49.63 L 383.62,701.25 v -34.06 l 0.98001,10.71002 v -11.68005 l 0.97,-5.83997 v 0.96998 l 0.97998,-1.94001 v 25.30005 -23.36004 l 0.97,14.60003 V 672.06 L 388.5,684.71002 v -29.20001 l 0.97,7.78998 v 11.67999 -10.70996 l 0.98001,50.60998 v -43.79998 l 0.97,15.57 v -17.51001 l 0.97998,12.64997 v 7.78003 l 0.98001,1.95001 v -30.17004 7.79003 l 0.97001,-5.84002 v 33.09002 l 0.97998,-25.30999 v 18.48999 l 0.97,-29.19001 V 662.33002 674 L 397.28,662.33002 v 15.57 l 0.97,13.62 v -6.81 l 0.98001,19.45996 v 13.63001 l 0.97,-65.20996 v 22.38995 18.48999 l 0.97998,5.84003 v -80.77997 l 0.97,45.73999 v 40.86999 L 403.13,661.34998 v 55.47003 -5.84003 l 0.97001,-27.25 v -18.48999 l 0.97998,5.84003 v -25.29999 l 0.98001,16.54999 v 53.51996 l 0.97,-80.76996 v 31.13995 -8.75995 l 0.98001,13.62 v 18.48999 l 0.97,-4.85999 v -38.92999 l 0.97998,14.59997 v 22.38001 -20.42999 l 0.97,-15.58002 v 58.39001 l 0.98001,-29.19 v 6.81 l 0.97,-19.46002 v 29.19 l 0.97999,-2.91998 v -5.84003 0 l 0.97,-32.10998 v 37.95001 L 415.81,662.33002 v 5.82995 l 0.97,-5.82995 v 3.88995 18.49005 l 0.98001,1.94 v -7.78003 L 418.73999,674 v 6.82001 l 0.97,4.85998 v -22.38 l 0.98001,4.85998 V 675.95001 674 l 0.97,7.78998 v -8.75995 L 422.64001,674 v -16.53998 l 0.96998,13.62 V 674 684.71002 L 424.59,670.10999 v -14.59998 l 0.97,19.46997 V 674 l 0.98001,9.72998 V 651.62 l 0.97,15.57 v -3.89001 1.94 l 0.97998,12.66003 v 18.48999 l 0.97,-16.54998 v -0.97004 l 0.98001,0.97004 v -22.38001 22.38001 l 0.98001,13.62994 v -14.59998 l 0.97,10.70002 v -30.16004 l 0.97999,2.92005 v 15.57 l 0.97,-8.76001 V 690.54999 674 l 0.98001,3.90002 V 667.19 l 0.97,-5.84002 v 25.30004 l 0.97998,-17.51001 v -3.90002 -0.96997 l 0.97,4.86999 v 27.25 L 439.22,662.33002 V 674 l 0.97,-2.91998 v -5.84003 l 0.98001,11.67999 V 694.44 674.97998 l 0.97,9.73004 v -8.76001 l 0.97999,2.91998 V 667.19 l 0.98001,4.87 v -0.97998 1.95001 l 0.97,-1.95001 v 6.82 l 0.97998,-13.63 v 4.86999 h 0.97 v -2.92004 L 448,667.19 v 25.29999 -27.25 l 0.97,-2.90997 v 24.32 l 0.98001,-5.83001 v -7.78998 l 0.97,-11.68005 v 22.38 -5.82996 l 0.97998,-1.95001 v -13.61999 l 0.97001,31.13995 v -14.59998 l 0.98001,3.89002 v -6.81 l 0.97,-2.91998 V 672.06 666.21997 l 0.97998,2.92004 v 0 l 0.98001,9.72998 v -0.96997 l 0.97,-4.86999 v 1.94995 -13.63 l 0.98001,10.71002 v -1.95001 l 0.97,-9.72999 v 36.01001 l 0.97998,-20.44 v -4.86999 l 0.97,-2.92005 V 674 v 5.84003 l 0.98001,-6.81 V 687.63 l 0.97001,-5.84002 v -24.32996 l 0.97998,3.88996 v 11.68005 -4.87006 l 0.97,1.95002 v -19.45997 l 0.98001,-2.92004 v 42.82001 l 0.97,-35.03998 v 25.31 l 0.98001,6.80999 v 36 -42.80999 l 0.97998,-8.76001 v -9.72998 l 0.97,27.23999 v -43.78998 l 0.98001,27.25 v -4.87006 25.31 l 0.97,-6.81995 v -28.22003 l 0.97999,27.25 v 24.33002 L 474.32999,674 v 13.63 L 475.31,661.34998 V 672.06 666.21997 l 0.97,-8.75995 V 674 l 0.98001,5.84003 v -3.89002 l 0.97,-13.61999 v 31.13995 -17.51996 l 0.97998,15.57001 V 674 h 0.97 v 13.63 L 481.16,667.19 v 13.63001 l 0.98001,-10.71002 V 681.78998 694.44 L 483.10999,674 v 8.76001 L 484.09,660.38 v 25.29999 l 0.97,-20.44 V 694.44 665.23999 l 0.98001,18.48999 V 672.06 l 0.97,6.80999 v -12.65002 l 0.97998,13.62006 V 672.06 l 0.97,4.85998 v -15.57 V 672.06 L 489.94,661.34998 V 667.19 l 0.97,7.78998 v 1.94 L 491.89001,674 v 7.78998 3.89001 l 0.96998,-5.83996 v 5.83996 L 493.84,660.38 v 20.44001 l 0.98001,-14.60004 V 687.63 l 0.97,-9.72998 v 0.96997 7.78003 l 0.97998,-8.75 v 0 l 0.97,-4.86999 v -3.89002 L 498.72,684.71002 V 672.06 v 4.85998 l 0.97,15.57001 v -5.83997 l 0.98001,-10.70001 v -0.97003 l 0.97,-3.89996 V 672.06 l 0.97999,7.78003 v 1.94995 17.52002 l 0.97,11.66998 v -54.48999 l 0.98001,16.54004 v 11.67999 l 0.97,15.57001 V 669.14001 674 l 0.97998,5.84003 v -4.86005 L 507.5,710.01001 V 701.25 l 0.97,-20.42999 V 651.62 l 0.98001,18.48999 v -3.89002 13.62006 l 0.97,-4.86005 v -19.46997 l 0.97998,12.64996 v 7.79004 l 0.97,3.89002 V 703.20001 667.19 l 0.97999,6.81 v 12.65002 l 0.97003,4.87 v -32.11005 l 0.97998,2.92005 v 27.23999 l 0.97003,-2.91999 v -11.67004 17.51001 L 517.25,674 v 9.72998 L 518.21997,674 v 14.59998 L 519.20001,672.06 v -4.87 5.84003 L 520.17999,674 v -2.91998 l 0.97003,14.59997 V 667.19 L 522.13,655.51001 V 674 l 0.96998,2.91998 v -6.80999 -7.77997 l 0.98004,29.19 v 0 l 0.96997,-18.48999 v -1.95001 l 0.98004,14.59997 V 674 v 0.97998 l 0.96997,6.81 V 674 l 0.97998,2.91998 v 16.54999 L 528.95001,674 v -5.84003 l 0.97998,-7.77997 v 14.59998 0.97003 l 0.97003,-5.84002 v 15.57 l 0.97998,-7.77997 v 1.94001 l 0.97998,-8.76001 v 6.82 7.77997 L 533.83002,674 v 9.72998 l 0.97998,5.84003 v -7.78003 l 0.97003,-4.87 v 7.79004 l 0.97998,-19.47003 v 3.90002 9.72998 l 0.96997,20.44001 v -22.39002 l 0.98004,-6.80999 v 0.97003 l 0.96997,13.63 v -14.60003 -6.81 l 0.97998,23.35003 v -10.70001 l 0.97003,3.89002 v -15.57001 l 0.97999,-10.70001 v 16.53998 11.67999 l 0.97003,10.70001 v -13.62 l 0.97998,5.84003 v -11.67999 l 0.97998,22.37994 v -14.58996 l 0.97003,-17.52002 v 6.81 5.84002 l 0.97998,-0.97003 v 1.94 l 0.97003,10.71002 v -11.67999 l 0.97998,-5.84002 v -7.77997 22.38 l 0.96997,-2.92004 v 2.92004 L 551.39001,672.06 v -4.87 l 0.96997,20.44 v -7.78997 l 0.98005,-0.97004 v 7.78003 8.75995 L 554.31,672.06 v 4.85998 l 0.97998,-8.76001 v -10.69995 l 0.97003,29.19 v -5.83001 2.90997 l 1.95996,-15.57001 0.97003,-2.91998 v 19.47003 h 0.97998 V 699.31 678.86999 l 0.97003,-0.96997 v 6.81 l 0.97999,-20.44 v 15.57001 l 0.97003,0.97998 v -9.73999 11.67999 l 0.97998,-23.35004 v 19.46002 L 565.03998,674 v -6.81 l 0.98004,-7.78003 v -15.57995 l 0.96997,36.01001 v 0 -23.35004 l 0.97998,24.33002 v -2.91999 l 0.97003,10.69996 v -12.64997 l 0.97998,-7.79004 v 11.68006 -1.94001 l 0.98004,-24.33001 V 674 l 0.96997,9.72998 v 0 l 0.97999,7.79004 v -26.28003 l 0.97003,-0.96997 v 4.86999 -2.92004 l 0.97998,2.92004 v 0 l 0.97003,17.51001 v -8.75 L 576.75,667.19 v 12.65003 -3.89002 l 0.96997,-0.97003 v 7.78003 l 0.98004,-6.81 v -2.91998 l 0.96997,11.67999 v -19.47003 l 0.98004,19.47003 V 699.31 674.97998 l 0.96998,-3.89996 v 1.95001 l 0.97998,-7.79004 V 706.12 l 0.98004,-24.33002 V 687.63 676.91998 l 0.96997,5.84003 v 3.89001 l 0.98004,-8.75 v -8.76001 L 586.5,666.21997 V 667.19 l 0.97998,5.84003 v 9.72998 -18.48999 l 0.97003,5.83997 v 4.86999 l 0.97998,-5.83997 V 687.63 l 0.97003,-1.95001 v -20.44 3.90002 l 0.97998,7.77997 v -3.88995 l 0.96998,-8.76001 v 11.67999 l 0.98004,7.77997 v 6.82001 l 0.96997,-14.59998 v -9.73004 4.86005 l 0.98004,0.97998 v 7.78003 l 0.97998,1.94995 v -5.83997 l 0.96997,5.83997 V 687.63 669.14001 l 0.98004,-2.92004 v 4.86005 l 0.96997,7.78997 v -13.63 l 0.97998,11.67999 V 674 l 0.97003,-9.72998 v 4.86999 16.53998 l 0.97999,0.97003 v -5.83001 l 0.97003,-1.95002 v -13.63 l 0.97998,19.47003 v -4.86999 -3.89002 L 605.03003,674 v -5.84003 l 0.97998,11.68006 v -0.97004 l 0.96997,9.72999 v -15.56995 l 0.98004,-4.87006 v -2.91998 4.87 L 608.94,672.06 v 4.85998 l 0.96997,-7.77997 v 13.62 l 0.98004,0.96997 v -21.39996 23.34997 l 0.96997,-7.77997 v -1.95001 l 0.98005,4.87 v -17.52002 l 0.96997,22.38 V 672.06 h 0.97998 v 7.78003 1.94995 l 0.97003,-3.88996 V 674 l 0.97998,12.65002 V 672.06 l 0.97003,6.80999 v -3.89001 9.73004 l 0.97998,-5.84003 v 3.89002 L 619.65997,674 v 7.78998 l 0.98004,-1.94995 v -0.97004 H 621.62 v -0.96997 11.66999 l 0.97003,-25.29999 v 14.59997 l 0.97998,-0.96997 v -1.95001 h 0.96997 v 1.95001 -5.84002 l 0.98004,-1.95001 V 674 h 0.96997 v 1.95001 l 0.97998,9.72998 v -14.59997 l 0.97003,4.86999 v 0.96997 -11.67999 l 0.97998,14.60004 v -9.73004 L 630.39001,667.19 V 674 l 0.97998,0.97998 v 3.89001 -8.76 l 0.97004,-1.95002 v 8.76001 l 0.97998,-1.94 V 672.06 l 0.97998,14.59002 v -10.70001 l 0.97003,-0.97003 v -1.94995 9.72998 l 0.97998,-6.81"
       style="fill:none;stroke:#000000;stroke-width:0.975;stroke-linecap:round;stroke-linejoin:round;stroke-miterlimit:10;stroke-dasharray:none;stroke-opacity:1"
       clip-path="url(#clipPath53)"
       transform="matrix(0.26458333,0,0,0.26458333,-32.938725,-153.71852)" />
    <path
       id="path54"
       d="m 0,0 v 0 l 0.97,6.81 v -10.7 l 0.98,5.84 v -3.9 6.82 L 2.92,-2.92 V -7.79 L 3.9,-12.65 V 0.97 l 0.97,-19.46 v 14.6 L 5.85,3.89 V -3.89 -4.87 L 6.82,2.92 V -9.73 l 0.98,-5.84 v 10.7 l 0.97,0.98 v 6.81 0 l 0.98,1.95 v -9.74 l 0.98,7.79 v -5.84 l 0.97,10.7 v -8.75 l 0.98,-2.92 v 0.97 18.49 l 0.97,-17.52 v 3.9 L 14.63,0 v 0.97 l 0.97,-5.84 v 5.84 -12.65 h 0.98 v 9.73 L 17.549999,0 v -2.92 h 0.980002 V 3.89 L 19.5,-3.89 v -13.63 41.85 l 0.98,-55.469999 V 45.740002 L 21.450001,10.7"
       style="fill:none;stroke:#000000;stroke-width:0.975;stroke-linecap:round;stroke-linejoin:round;stroke-miterlimit:10;stroke-dasharray:none;stroke-opacity:1"
       transform="matrix(0.26458333,0,0,0.26458333,135.40242,25.126588)"
       clip-path="url(#clipPath55)" />
  </g>
</svg>
