<?xml version="1.0" encoding="UTF-8" standalone="no"?>
<svg
   xmlns:dc="http://purl.org/dc/elements/1.1/"
   xmlns:cc="http://creativecommons.org/ns#"
   xmlns:rdf="http://www.w3.org/1999/02/22-rdf-syntax-ns#"
   xmlns:svg="http://www.w3.org/2000/svg"
   xmlns="http://www.w3.org/2000/svg"
   xmlns:sodipodi="http://sodipodi.sourceforge.net/DTD/sodipodi-0.dtd"
   xmlns:inkscape="http://www.inkscape.org/namespaces/inkscape"
   width="20mm"
   height="22mm"
   viewBox="0 0 20.000001 22.000001"
   version="1.1"
   id="svg8"
   inkscape:version="1.0.2-2 (e86c870879, 2021-01-15)"
   sodipodi:docname="Science.svg">
  <defs
     id="defs2" />
  <sodipodi:namedview
     id="base"
     pagecolor="#ffffff"
     bordercolor="#666666"
     borderopacity="1.0"
     inkscape:pageopacity="0.0"
     inkscape:pageshadow="2"
     inkscape:zoom="3.959798"
     inkscape:cx="191.45988"
     inkscape:cy="106.87759"
     inkscape:document-units="mm"
     inkscape:current-layer="layer1"
     inkscape:document-rotation="0"
     showgrid="false"
     inkscape:window-width="2560"
     inkscape:window-height="1360"
     inkscape:window-x="2549"
     inkscape:window-y="-11"
     inkscape:window-maximized="1"
     units="mm"
     height="20in" />
  <metadata
     id="metadata5">
    <rdf:RDF>
      <cc:Work
         rdf:about="">
        <dc:format>image/svg+xml</dc:format>
        <dc:type
           rdf:resource="http://purl.org/dc/dcmitype/StillImage" />
        <dc:title></dc:title>
      </cc:Work>
    </rdf:RDF>
  </metadata>
  <g
     inkscape:label="Ebene 1"
     inkscape:groupmode="layer"
     id="layer1">
    <circle
       cx="10.017614"
       cy="11.045717"
       r="1.5875"
       id="circle833"
       style="stroke-width:0.265;stroke:none;stroke-miterlimit:4;stroke-dasharray:none;fill:#f5f5f5;fill-opacity:1" />
    <path
       d="m 19.330952,5.754047 c -0.44979,-0.767292 -1.45521,-1.137709 -2.83104,-1.137709 -0.87313,0 -1.87854,0.15875 -2.98979,0.449792 -0.7673,-2.778125 -2.0373,-4.60375001 -3.4925,-4.60375001 -1.4287495,0 -2.7252095,1.79916701 -3.4660495,4.55083301 -1.05833,-0.264583 -2.01083,-0.423333 -2.8575,-0.423333 -1.37583,0 -2.38125,0.370417 -2.83104003,1.137708 -0.74083,1.27 0.23813003,3.307292 2.27542003,5.371042 -1.95792,2.010833 -2.85750003,3.96875 -2.14313003,5.212291 0.44980003,0.767292 1.45521003,1.137709 2.83105003,1.137709 0.79375,0 1.71979,-0.132292 2.7252,-0.370417 0.7673,2.751667 2.0373,4.550833 3.4660495,4.550833 1.42875,0 2.7252,-1.799166 3.46604,-4.550833 1.05833,0.264583 2.01083,0.423333 2.8575,0.423333 1.37583,0 2.38125,-0.370416 2.83104,-1.137708 0.71437,-1.243542 -0.18521,-3.201458 -2.14313,-5.212292 2.09021,-2.090208 3.04271,-4.127499 2.30188,-5.397499 z m -2.83104,-0.07937 c 0.97896,0 1.69333,0.238125 1.905,0.608541 0.39687,0.687917 -0.3175,2.301875 -2.11667,4.101042 -0.635,-0.5820835 -1.34937,-1.164167 -2.14312,-1.719792 -0.0794,-0.899583 -0.21167,-1.772708 -0.39688,-2.592916 1.00542,-0.264584 1.95792,-0.396875 2.75167,-0.396875 z m -4.73604,8.122708 c -0.55563,0.3175 -1.11125,0.608541 -1.66688,0.873125 -0.5556195,-0.264584 -1.1112495,-0.555625 -1.6668695,-0.873125 -0.52917,-0.3175 -1.05834,-0.635 -1.53459,-0.9525 -0.0529,-0.582084 -0.0529,-1.164167 -0.0529,-1.799167 0,-0.582083 0.0264,-1.1377075 0.0529,-1.693333 0.52917,-0.370417 1.08479,-0.714375 1.69334,-1.058333 0.5027,-0.291042 1.00541,-0.555625 1.5081195,-0.79375 0.50271,0.238125 1.00542,0.502708 1.50813,0.79375 0.52916,0.317499 1.05833,0.634999 1.53458,0.952499 0.0529,0.5820845 0.0529,1.164167 0.0529,1.799167 0,0.661458 -0.0265,1.296458 -0.0794,1.905 -0.42333,0.291042 -0.87313,0.555625 -1.34938,0.846667 z m 1.21708,0.502708 c -0.0794,0.502708 -0.15875,1.005417 -0.23813,1.455208 -0.44979,-0.15875 -0.92604,-0.3175 -1.40229,-0.529166 0.3175,-0.15875 0.635,-0.343959 0.9525,-0.529167 0.23813,-0.132292 0.47625,-0.264583 0.68792,-0.396875 z m -4.1274995,0.926042 c -0.52917,0.211666 -1.03188,0.396875 -1.53458,0.555625 -0.10584,-0.502709 -0.18521,-1.031875 -0.26459,-1.5875 0.29104,0.185208 0.55563,0.343958 0.87313,0.529166 0.29104,0.15875 0.60854,0.343959 0.92604,0.502709 z m -3.04271,-3.175 c -0.42333,-0.3175 -0.79375,-0.635 -1.13771,-0.9525 0.34396,-0.3175 0.74084,-0.635 1.13771,-0.9525 0,0.291041 -0.0265,0.582083 -0.0265,0.899583 0,0.343958 0,0.687917 0.0265,1.005417 z m 1.21708,-4.048125 c 0.0794,-0.582083 0.15875,-1.137708 0.26459,-1.666875 0.50271,0.15875 1.03187,0.370417 1.56104,0.582083 -0.26458,0.132292 -0.55563,0.291042 -0.82021,0.449792 -0.3175,0.211667 -0.66146,0.423333 -1.00542,0.635 z M 11.314072,6.918218 c 0.47625,-0.211666 0.9525,-0.370416 1.42875,-0.529166 0.10584,0.47625 0.18521,0.978958 0.26459,1.508125 -0.29104,-0.185209 -0.55563,-0.343959 -0.87313,-0.529167 -0.26458,-0.132292 -0.52916,-0.291042 -0.82021,-0.449792 z m 2.91042,3.122083 c 0.47625,0.370417 0.89958,0.714375 1.29646,1.084792 -0.39688,0.343958 -0.82021,0.714375 -1.29646,1.058333 0.0265,-0.370416 0.0265,-0.740833 0.0265,-1.11125 0,-0.370416 0,-0.714375 -0.0265,-1.031875 z m -4.20687,-8.519583 c 0.79375,0 1.82562,1.402292 2.48708,3.836459 -0.76729,0.264583 -1.5875,0.582083 -2.40771,0.9525 C 9.2238725,5.912802 8.3772025,5.568843 7.5569925,5.30426 8.2184525,2.896552 9.2238725,1.520718 10.017622,1.520718 Z m -8.2549995,4.7625 c 0.23812,-0.396875 0.92604,-0.608541 1.905,-0.608541 0.76729,0 1.64041,0.132291 2.59291,0.370416 -0.18521,0.846667 -0.3175,1.772709 -0.39687,2.725208 -0.74084,0.529167 -1.40229,1.0583345 -1.98438,1.613959 -1.77271,-1.799167 -2.51354,-3.413125 -2.11666,-4.101042 z m 2.06375,10.133542 c -0.97896,0 -1.69334,-0.238125 -1.905,-0.608542 -0.39688,-0.687917 0.29104,-2.2225 1.98437,-3.96875 0.60854,0.529167 1.27,1.058333 1.98438,1.5875 0.0794,0.926042 0.21166,1.825625 0.39687,2.645833 -0.87312,0.238125 -1.71979,0.343959 -2.46062,0.343959 z m 6.1912495,4.153958 c -0.7937495,0 -1.7991695,-1.375833 -2.4606295,-3.757083 0.82021,-0.264584 1.66688,-0.582084 2.5399995,-0.978959 0.82021,0.370417 1.61396,0.687917 2.38125,0.926042 -0.66146,2.434167 -1.66687,3.81 -2.46062,3.81 z m 8.255,-4.7625 c -0.23813,0.396875 -0.92605,0.608542 -1.905,0.608542 -0.7673,0 -1.66688,-0.132292 -2.59292,-0.370417 0.15875,-0.79375 0.29104,-1.613958 0.37042,-2.513542 0.79375,-0.555625 1.50812,-1.11125 2.14312,-1.693333 1.69333,1.74625 2.38125,3.280833 1.98438,3.96875 z"
       id="path835"
       style="stroke-width:0.265;stroke:none;stroke-miterlimit:4;stroke-dasharray:none;fill:#f5f5f5;fill-opacity:1" />
    <circle
       cx="10.017614"
       cy="11.045717"
       r="1.5875"
       id="circle846"
       style="stroke-width:0.265;stroke:none;stroke-miterlimit:4;stroke-dasharray:none;fill:#f5f5f5;fill-opacity:1" />
    <path
       d="m 19.330952,5.754047 c -0.44979,-0.767292 -1.45521,-1.137709 -2.83104,-1.137709 -0.87313,0 -1.87854,0.15875 -2.98979,0.449792 -0.7673,-2.778125 -2.0373,-4.60375001 -3.4925,-4.60375001 -1.4287495,0 -2.7252095,1.79916701 -3.4660495,4.55083301 -1.05833,-0.264583 -2.01083,-0.423333 -2.8575,-0.423333 -1.37583,0 -2.38125,0.370417 -2.83104003,1.137708 -0.74083,1.27 0.23813003,3.307292 2.27542003,5.371042 -1.95792,2.010833 -2.85750003,3.96875 -2.14313003,5.212291 0.44980003,0.767292 1.45521003,1.137709 2.83105003,1.137709 0.79375,0 1.71979,-0.132292 2.7252,-0.370417 0.7673,2.751667 2.0373,4.550833 3.4660495,4.550833 1.42875,0 2.7252,-1.799166 3.46604,-4.550833 1.05833,0.264583 2.01083,0.423333 2.8575,0.423333 1.37583,0 2.38125,-0.370416 2.83104,-1.137708 0.71437,-1.243542 -0.18521,-3.201458 -2.14313,-5.212292 2.09021,-2.090208 3.04271,-4.127499 2.30188,-5.397499 z m -2.83104,-0.07937 c 0.97896,0 1.69333,0.238125 1.905,0.608541 0.39687,0.687917 -0.3175,2.301875 -2.11667,4.101042 -0.635,-0.5820835 -1.34937,-1.164167 -2.14312,-1.719792 -0.0794,-0.899583 -0.21167,-1.772708 -0.39688,-2.592916 1.00542,-0.264584 1.95792,-0.396875 2.75167,-0.396875 z m -4.73604,8.122708 c -0.55563,0.3175 -1.11125,0.608541 -1.66688,0.873125 -0.5556195,-0.264584 -1.1112495,-0.555625 -1.6668695,-0.873125 -0.52917,-0.3175 -1.05834,-0.635 -1.53459,-0.9525 -0.0529,-0.582084 -0.0529,-1.164167 -0.0529,-1.799167 0,-0.582083 0.0264,-1.1377075 0.0529,-1.693333 0.52917,-0.370417 1.08479,-0.714375 1.69334,-1.058333 0.5027,-0.291042 1.00541,-0.555625 1.5081195,-0.79375 0.50271,0.238125 1.00542,0.502708 1.50813,0.79375 0.52916,0.317499 1.05833,0.634999 1.53458,0.952499 0.0529,0.5820845 0.0529,1.164167 0.0529,1.799167 0,0.661458 -0.0265,1.296458 -0.0794,1.905 -0.42333,0.291042 -0.87313,0.555625 -1.34938,0.846667 z m 1.21708,0.502708 c -0.0794,0.502708 -0.15875,1.005417 -0.23813,1.455208 -0.44979,-0.15875 -0.92604,-0.3175 -1.40229,-0.529166 0.3175,-0.15875 0.635,-0.343959 0.9525,-0.529167 0.23813,-0.132292 0.47625,-0.264583 0.68792,-0.396875 z m -4.1274995,0.926042 c -0.52917,0.211666 -1.03188,0.396875 -1.53458,0.555625 -0.10584,-0.502709 -0.18521,-1.031875 -0.26459,-1.5875 0.29104,0.185208 0.55563,0.343958 0.87313,0.529166 0.29104,0.15875 0.60854,0.343959 0.92604,0.502709 z m -3.04271,-3.175 c -0.42333,-0.3175 -0.79375,-0.635 -1.13771,-0.9525 0.34396,-0.3175 0.74084,-0.635 1.13771,-0.9525 0,0.291041 -0.0265,0.582083 -0.0265,0.899583 0,0.343958 0,0.687917 0.0265,1.005417 z m 1.21708,-4.048125 c 0.0794,-0.582083 0.15875,-1.137708 0.26459,-1.666875 0.50271,0.15875 1.03187,0.370417 1.56104,0.582083 -0.26458,0.132292 -0.55563,0.291042 -0.82021,0.449792 -0.3175,0.211667 -0.66146,0.423333 -1.00542,0.635 z M 11.314072,6.918218 c 0.47625,-0.211666 0.9525,-0.370416 1.42875,-0.529166 0.10584,0.47625 0.18521,0.978958 0.26459,1.508125 -0.29104,-0.185209 -0.55563,-0.343959 -0.87313,-0.529167 -0.26458,-0.132292 -0.52916,-0.291042 -0.82021,-0.449792 z m 2.91042,3.122083 c 0.47625,0.370417 0.89958,0.714375 1.29646,1.084792 -0.39688,0.343958 -0.82021,0.714375 -1.29646,1.058333 0.0265,-0.370416 0.0265,-0.740833 0.0265,-1.11125 0,-0.370416 0,-0.714375 -0.0265,-1.031875 z m -4.20687,-8.519583 c 0.79375,0 1.82562,1.402292 2.48708,3.836459 -0.76729,0.264583 -1.5875,0.582083 -2.40771,0.9525 C 9.2238725,5.912802 8.3772025,5.568843 7.5569925,5.30426 8.2184525,2.896552 9.2238725,1.520718 10.017622,1.520718 Z m -8.2549995,4.7625 c 0.23812,-0.396875 0.92604,-0.608541 1.905,-0.608541 0.76729,0 1.64041,0.132291 2.59291,0.370416 -0.18521,0.846667 -0.3175,1.772709 -0.39687,2.725208 -0.74084,0.529167 -1.40229,1.0583345 -1.98438,1.613959 -1.77271,-1.799167 -2.51354,-3.413125 -2.11666,-4.101042 z m 2.06375,10.133542 c -0.97896,0 -1.69334,-0.238125 -1.905,-0.608542 -0.39688,-0.687917 0.29104,-2.2225 1.98437,-3.96875 0.60854,0.529167 1.27,1.058333 1.98438,1.5875 0.0794,0.926042 0.21166,1.825625 0.39687,2.645833 -0.87312,0.238125 -1.71979,0.343959 -2.46062,0.343959 z m 6.1912495,4.153958 c -0.7937495,0 -1.7991695,-1.375833 -2.4606295,-3.757083 0.82021,-0.264584 1.66688,-0.582084 2.5399995,-0.978959 0.82021,0.370417 1.61396,0.687917 2.38125,0.926042 -0.66146,2.434167 -1.66687,3.81 -2.46062,3.81 z m 8.255,-4.7625 c -0.23813,0.396875 -0.92605,0.608542 -1.905,0.608542 -0.7673,0 -1.66688,-0.132292 -2.59292,-0.370417 0.15875,-0.79375 0.29104,-1.613958 0.37042,-2.513542 0.79375,-0.555625 1.50812,-1.11125 2.14312,-1.693333 1.69333,1.74625 2.38125,3.280833 1.98438,3.96875 z"
       id="path848"
       style="stroke-width:0.265;stroke:none;stroke-opacity:1;stroke-miterlimit:4;stroke-dasharray:none;fill:#f5f5f5;fill-opacity:1" />
  </g>
</svg>
