<?xml version="1.0" encoding="UTF-8" standalone="no"?>
<svg
   xmlns:dc="http://purl.org/dc/elements/1.1/"
   xmlns:cc="http://creativecommons.org/ns#"
   xmlns:rdf="http://www.w3.org/1999/02/22-rdf-syntax-ns#"
   xmlns:svg="http://www.w3.org/2000/svg"
   xmlns="http://www.w3.org/2000/svg"
   xmlns:sodipodi="http://sodipodi.sourceforge.net/DTD/sodipodi-0.dtd"
   xmlns:inkscape="http://www.inkscape.org/namespaces/inkscape"
   width="23mm"
   height="21mm"
   viewBox="0 0 23 21"
   version="1.1"
   id="svg856"
   inkscape:version="1.0.2-2 (e86c870879, 2021-01-15)"
   sodipodi:docname="Teaching.svg">
  <defs
     id="defs850" />
  <sodipodi:namedview
     id="base"
     pagecolor="#ffffff"
     bordercolor="#666666"
     borderopacity="1.0"
     inkscape:pageopacity="0.0"
     inkscape:pageshadow="2"
     inkscape:zoom="5.6"
     inkscape:cx="126.63026"
     inkscape:cy="90.276399"
     inkscape:document-units="mm"
     inkscape:current-layer="layer1"
     inkscape:document-rotation="0"
     showgrid="false"
     inkscape:window-width="2560"
     inkscape:window-height="1360"
     inkscape:window-x="2549"
     inkscape:window-y="-11"
     inkscape:window-maximized="1" />
  <metadata
     id="metadata853">
    <rdf:RDF>
      <cc:Work
         rdf:about="">
        <dc:format>image/svg+xml</dc:format>
        <dc:type
           rdf:resource="http://purl.org/dc/dcmitype/StillImage" />
        <dc:title></dc:title>
      </cc:Work>
    </rdf:RDF>
  </metadata>
  <g
     inkscape:label="Ebene 1"
     inkscape:groupmode="layer"
     id="layer1">
    <circle
       cx="9.8071566"
       cy="15.732501"
       r="1.2012084"
       id="circle858"
       style="stroke-width:0.264583;fill:#f5f5f5;fill-opacity:1" />
    <path
       d="m 12.169889,19.664211 v -1.201209 c -0.0039,-0.187166 -0.09123,-0.362823 -0.238125,-0.478896 -0.345176,-0.266065 -0.740119,-0.460375 -1.161521,-0.5715 -0.318082,-0.09763 -0.648891,-0.147584 -0.9816042,-0.148166 -0.33237,0.0051 -0.6625434,0.05495 -0.9816044,0.148166 -0.416719,0.123376 -0.809493,0.316627 -1.161521,0.5715 -0.146897,0.116073 -0.234209,0.29173 -0.238125,0.478896 v 1.201209 z"
       id="path860"
       style="stroke-width:0.264583;fill:#f5f5f5;fill-opacity:1" />
    <circle
       cx="15.061788"
       cy="15.732501"
       r="1.2012084"
       id="circle862"
       style="stroke-width:0.264583;fill:#f5f5f5;fill-opacity:1" />
    <path
       d="m 17.461555,19.664211 v -1.201209 c -0.0039,-0.187166 -0.09123,-0.362823 -0.238125,-0.478896 -0.345175,-0.266065 -0.740119,-0.460375 -1.161521,-0.5715 -0.318082,-0.09763 -0.64889,-0.147584 -0.981604,-0.148166 -0.332369,0.0051 -0.662543,0.05495 -0.981604,0.148166 -0.416719,0.123376 -0.809493,0.316627 -1.161521,0.5715 -0.146896,0.116073 -0.234209,0.29173 -0.238125,0.478896 v 1.201209 z"
       id="path864"
       style="stroke-width:0.264583;fill:#f5f5f5;fill-opacity:1" />
    <circle
       cx="20.353453"
       cy="15.732501"
       r="1.2012084"
       id="circle866"
       style="stroke-width:0.264583;fill:#f5f5f5;fill-opacity:1" />
    <path
       d="m 22.753222,19.664211 v -1.201209 c -0.0039,-0.187166 -0.09123,-0.362823 -0.238125,-0.478896 -0.345175,-0.266065 -0.740119,-0.460375 -1.161521,-0.5715 -0.318082,-0.09763 -0.64889,-0.147584 -0.981604,-0.148166 -0.33237,0.0051 -0.662543,0.05495 -0.981604,0.148166 -0.416719,0.123376 -0.809493,0.316627 -1.161521,0.5715 -0.146897,0.116073 -0.234209,0.29173 -0.238125,0.478896 v 1.201209 z"
       id="path868"
       style="stroke-width:0.264583;fill:#f5f5f5;fill-opacity:1" />
    <circle
       cx="4.6239753"
       cy="4.6252928"
       r="1.571625"
       id="circle870"
       style="stroke-width:0.264583;fill:#f5f5f5;fill-opacity:1" />
    <path
       d="m 13.892326,4.0193993 c -0.155548,-0.153327 -0.405368,-0.153327 -0.560917,0 l -3.418416,3.418416 c -0.2731822,-0.0771 -0.5667646,-0.0025 -0.7699386,0.195792 -0.05556,0.05556 -1.042458,1.66952 -1.042458,1.66952 l -0.296333,-1.262062 c -0.03924,-0.162719 -0.120412,-0.312341 -0.235479,-0.433916 -0.487654,-0.394203 -1.048888,-0.687414 -1.651,-0.862542 -0.425662,-0.09104 -0.858705,-0.143298 -1.293813,-0.156104 -0.43897,0.0068 -0.875056,0.07263 -1.296458,0.195791 -0.607563,0.15928 -1.171125,0.454184 -1.648354,0.862542 -0.116097,0.120835 -0.197448,0.270721 -0.235479,0.433916 0,0 -1.14035414,4.7889587 -1.14035414,4.8683337 0,0.438388 0.35537505,0.79375 0.79375014,0.79375 0.351313,-0.009 0.65487,-0.247994 0.746125,-0.587375 l 0.8255,-3.4157707 V 20.722544 h 1.563687 v -7.067021 h 0.79375 v 7.067021 h 1.561042 V 9.6894193 l 0.291041,1.2435417 c 0.02019,0.08596 0.07731,0.158591 0.156105,0.198437 0.304244,0.233521 0.674899,0.364173 1.058333,0.373063 0.249661,0.03495 0.497046,-0.07742 0.635,-0.288396 L 10.341618,8.5702313 c 0.103161,-0.162665 0.141869,-0.357981 0.108479,-0.547687 l 3.439583,-3.439583 c 0.155787,-0.155125 0.156978,-0.406982 0.0026,-0.563562 z"
       id="path872"
       style="stroke-width:0.264583;fill:#f5f5f5;fill-opacity:1" />
    <path
       d="M 19.313639,0.34962828 H 6.3490554 c -0.584491,0 -1.058334,0.473842 -1.058334,1.05833302 v 0.9525 c 0.404548,0.11012 0.770785,0.329883 1.058334,0.635 v -1.5875 H 19.313639 v 8.7312497 h -9.03023 l -0.6455832,1.058333 h 9.6758132 c 0.584491,0 1.058333,-0.473842 1.058333,-1.058333 V 1.4079613 c 0,-0.58449102 -0.473842,-1.05833302 -1.058333,-1.05833302 z"
       id="path874"
       style="stroke-width:0.264583;fill:#f5f5f5;fill-opacity:1" />
  </g>
</svg>
