<?xml version="1.0" encoding="UTF-8" standalone="no"?>
<svg
   xmlns:dc="http://purl.org/dc/elements/1.1/"
   xmlns:cc="http://creativecommons.org/ns#"
   xmlns:rdf="http://www.w3.org/1999/02/22-rdf-syntax-ns#"
   xmlns:svg="http://www.w3.org/2000/svg"
   xmlns="http://www.w3.org/2000/svg"
   xmlns:sodipodi="http://sodipodi.sourceforge.net/DTD/sodipodi-0.dtd"
   xmlns:inkscape="http://www.inkscape.org/namespaces/inkscape"
   width="42mm"
   height="42mm"
   viewBox="0 0 42 42"
   version="1.1"
   id="svg919"
   inkscape:version="1.0.2-2 (e86c870879, 2021-01-15)"
   sodipodi:docname="Visualization.svg">
  <defs
     id="defs913" />
  <sodipodi:namedview
     id="base"
     pagecolor="#ffffff"
     bordercolor="#666666"
     borderopacity="1.0"
     inkscape:pageopacity="0.0"
     inkscape:pageshadow="2"
     inkscape:zoom="2.8"
     inkscape:cx="1.9542221"
     inkscape:cy="140.28433"
     inkscape:document-units="mm"
     inkscape:current-layer="layer1"
     inkscape:document-rotation="0"
     showgrid="false"
     inkscape:window-width="2560"
     inkscape:window-height="1360"
     inkscape:window-x="2549"
     inkscape:window-y="-11"
     inkscape:window-maximized="1" />
  <metadata
     id="metadata916">
    <rdf:RDF>
      <cc:Work
         rdf:about="">
        <dc:format>image/svg+xml</dc:format>
        <dc:type
           rdf:resource="http://purl.org/dc/dcmitype/StillImage" />
        <dc:title />
      </cc:Work>
    </rdf:RDF>
  </metadata>
  <g
     inkscape:label="Ebene 1"
     inkscape:groupmode="layer"
     id="layer1">
    <title
       id="title921">Presentation Bar Chart RTL</title>
    <rect
       x="24.361443"
       y="18.206877"
       width="2.0778551"
       height="7.2724934"
       id="rect925"
       style="stroke-width:0.259732;fill:#f5f5f5;fill-opacity:1" />
    <rect
       x="27.478226"
       y="20.54447"
       width="2.0778551"
       height="4.9349065"
       id="rect927"
       style="stroke-width:0.259732;fill:#f5f5f5;fill-opacity:1" />
    <rect
       x="30.595003"
       y="22.362593"
       width="2.0778551"
       height="3.1167829"
       id="rect929"
       style="stroke-width:0.259732;fill:#f5f5f5;fill-opacity:1" />
    <path
       d="m 15.050309,17.046564 3.696069,3.696069 c 0.906806,-1.029826 1.452339,-2.327664 1.553618,-3.696069 z"
       id="path943"
       style="fill:#f5f5f5;fill-opacity:1;stroke-width:0.452949" />
    <path
       d="m 13.505751,16.779323 v -6.504356 c -3.493962,0.240201 -6.1316273,3.267352 -5.8913823,6.761315 0.2402,3.493963 3.2673533,6.131626 6.7613163,5.891424 1.379324,-0.09485 2.689844,-0.637888 3.732034,-1.546415 z"
       id="path945"
       style="fill:#f5f5f5;fill-opacity:1;stroke-width:0.452949" />
    <path
       d="m 14.41165,16.140664 h 5.888346 C 20.070713,12.992392 17.560782,10.492111 14.41165,10.274967 Z"
       id="path947"
       style="fill:#f5f5f5;fill-opacity:1;stroke-width:0.452949" />
    <path
       d="M 36.089,6.8708931 V 26.210027 H 6.0058964 V 6.8708931 Z M 40.386586,27.284425 H 39.312189 V 5.2592991 h 1.074397 c 0.59339,0 1.074397,-0.481008 1.074397,-1.074397 0,-0.59339 -0.481007,-1.074398 -1.074397,-1.074398 h -18.26474 v -1.074395 c 0,-0.59339 -0.481007,-1.07439699 -1.074397,-1.07439699 -0.593389,0 -1.074397,0.48100699 -1.074397,1.07439699 v 1.074395 H 1.7083114 c -0.5933899,0 -1.07439695,0.481008 -1.07439695,1.074398 0,0.593389 0.48100705,1.074397 1.07439695,1.074397 h 1.074395 V 27.284425 h -1.074395 c -0.5933899,0 -1.07439695,0.481007 -1.07439695,1.074397 0,0.593388 0.48100705,1.074395 1.07439695,1.074395 H 18.114347 l -8.2728552,8.272851 c -0.41982,0.42428 -0.416221,1.10851 0.0081,1.52833 0.4242792,0.41982 1.1085092,0.41622 1.5283302,-0.008 l 8.595171,-8.595172 v 9.546072 c 0,0.59339 0.481007,1.0744 1.074397,1.0744 0.59339,0 1.074397,-0.48101 1.074397,-1.0744 v -9.562124 l 8.59517,8.595174 c 0.41982,0.41982 1.10045,0.41982 1.520271,0 0.419821,-0.41982 0.419821,-1.10045 0,-1.52027 l -8.256737,-8.256741 h 16.406034 c 0.59339,0 1.074397,-0.481007 1.074397,-1.074395 0,-0.59339 -0.481007,-1.074397 -1.074397,-1.074397 z"
       id="path949"
       style="stroke-width:0.537198;fill:#f5f5f5;fill-opacity:1" />
    <title
       id="title988">Statistics RTL</title>
    <title
       id="title1004">Statistics RTL</title>
    <path
       d="m 33.683307,8.1979861 c 4.5e-4,-0.543189 -0.43953,-0.983895 -0.98272,-0.984344 -0.54319,-4.5e-4 -0.98389,0.439525 -0.98434,0.982714 -2.8e-4,0.332882 0.16785,0.643326 0.4468,0.824984 l -0.72781,2.1272299 v 0 c -0.20088,-2.23e-4 -0.39701,0.06106 -0.56201,0.175631 l -1.46687,-1.100143 c 0.18811,-0.5095853 -0.0725,-1.0751679 -0.58208,-1.2632749 -0.50958,-0.188093 -1.07517,0.0725 -1.26326,0.5820786 -0.15698,0.425251 -0.003,0.9026983 0.37285,1.1560993 l -0.93716,2.978684 h -0.0576 c -0.54319,-10e-4 -0.98457,0.438 -0.98586,0.98119 -0.001,0.54319 0.43799,0.98458 0.98118,0.98587 0.54319,10e-4 0.98456,-0.43801 0.98586,-0.9812 5.3e-4,-0.31121 -0.14586,-0.60442 -0.39528,-0.79056 l 0.94559,-3.00538 h 0.0141 c 0.21057,-3.93e-4 0.41545,-0.06835 0.5845,-0.193897 l 1.45422,1.088907 c -0.0468,0.1176 -0.0711,0.24294 -0.0717,0.36953 -2.1e-4,0.54319 0.43996,0.9837 0.98315,0.98391 0.54319,2e-4 0.9837,-0.43996 0.98391,-0.98314 1.3e-4,-0.33155 -0.16679,-0.640855 -0.44399,-0.822725 l 0.725,-2.1286349 c 0.54319,0 0.98353,-0.44034 0.98353,-0.983529 z"
       id="path1020"
       style="stroke-width:0.140504;fill:#f5f5f5;fill-opacity:1" />
    <path
       d="m 25.253057,7.2144561 h -0.84303 v 9.8352889 h 9.69479 v -0.84302 h -8.85176 z"
       id="path1022"
       style="stroke-width:0.140504;fill:#f5f5f5;fill-opacity:1" />
  </g>
</svg>
