<?xml version="1.0" encoding="UTF-8" standalone="no"?>
<svg
   xmlns:dc="http://purl.org/dc/elements/1.1/"
   xmlns:cc="http://creativecommons.org/ns#"
   xmlns:rdf="http://www.w3.org/1999/02/22-rdf-syntax-ns#"
   xmlns:svg="http://www.w3.org/2000/svg"
   xmlns="http://www.w3.org/2000/svg"
   xmlns:sodipodi="http://sodipodi.sourceforge.net/DTD/sodipodi-0.dtd"
   xmlns:inkscape="http://www.inkscape.org/namespaces/inkscape"
   width="22mm"
   height="22mm"
   viewBox="0 0 22 22"
   version="1.1"
   id="svg898"
   inkscape:version="1.0.2-2 (e86c870879, 2021-01-15)"
   sodipodi:docname="Research.svg">
  <defs
     id="defs892" />
  <sodipodi:namedview
     id="base"
     pagecolor="#ffffff"
     bordercolor="#666666"
     borderopacity="1.0"
     inkscape:pageopacity="0.0"
     inkscape:pageshadow="2"
     inkscape:zoom="5.6"
     inkscape:cx="119.81227"
     inkscape:cy="56.558318"
     inkscape:document-units="mm"
     inkscape:current-layer="layer1"
     inkscape:document-rotation="0"
     showgrid="false"
     inkscape:window-width="2560"
     inkscape:window-height="1360"
     inkscape:window-x="2549"
     inkscape:window-y="-11"
     inkscape:window-maximized="1" />
  <metadata
     id="metadata895">
    <rdf:RDF>
      <cc:Work
         rdf:about="">
        <dc:format>image/svg+xml</dc:format>
        <dc:type
           rdf:resource="http://purl.org/dc/dcmitype/StillImage" />
        <dc:title></dc:title>
      </cc:Work>
    </rdf:RDF>
  </metadata>
  <g
     inkscape:label="Ebene 1"
     inkscape:groupmode="layer"
     id="layer1">
    <path
       d="m 17.659592,15.074234 c -0.423334,-0.42333 -1.058334,-0.635 -1.640417,-0.50271 l -1.190625,-1.16416 c 1.058333,-1.37584 1.640417,-3.06917 1.640417,-4.8154199 0.02646,-4.41854 -3.545416,-7.99042004 -7.9374989,-8.01687004 -4.392083,-0.0265 -7.96395804,3.54541004 -7.99041704,7.93750004 -0.02646,4.3920799 3.54541704,7.9639499 7.93750004,7.9904099 1.7462499,0 3.4660419,-0.58208 4.8683319,-1.64041 l 1.164167,1.16416 c -0.105833,0.60854 0.07937,1.21709 0.502708,1.66688 l 3.307292,3.30729 c 0.714375,0.71437 1.905,0.71437 2.619375,0 0.714375,-0.71438 0.714375,-1.905 0,-2.61938 z m -9.1281239,-0.15875 c -3.518958,0 -6.35,-2.83104 -6.35,-6.3499999 0,-3.51896 2.831042,-6.35 6.35,-6.35 3.5189579,0 6.3499989,2.83104 6.3499989,6.35 0,3.4924999 -2.857499,6.3499999 -6.3499989,6.3499999 z"
       id="path900"
       style="stroke-width:0.264583;fill:#f5f5f5;fill-opacity:1" />
    <path
       d="m 14.220008,8.1686141 h -1.508124 c -0.132291,0.0265 -0.264583,0.10583 -0.343958,0.21166 l -1.005417,1.0848 -0.846666,-2.93688 c -0.07937,-0.23812 -0.343959,-0.39687 -0.5820839,-0.3175 -0.132291,0.0529 -0.264583,0.13229 -0.3175,0.29104 L 8.0287601,10.708614 6.9439681,4.8877741 c -0.05292,-0.26458 -0.291042,-0.42333 -0.529167,-0.37041 -0.15875,0.0264 -0.291041,0.15875 -0.370416,0.3175 l -1.137709,3.33375 h -2.06375 v 1.05833 h 2.407709 c 0.211666,-0.0265 0.396875,-0.18521 0.449791,-0.39687 l 0.661459,-2.01084 1.058333,5.6885399 c 0.02646,0.21167 0.211667,0.37042 0.423333,0.37042 h 0.05292 c 0.185209,0 0.370417,-0.10583 0.449792,-0.29104 l 1.6933329,-4.4449999 0.687916,2.3812499 c 0.07937,0.23812 0.3175,0.39687 0.582084,0.3175 0.07937,-0.0265 0.15875,-0.0794 0.211666,-0.13229 l 1.42875,-1.4816699 h 1.296458 v -1.05833 z"
       id="path902"
       style="stroke-width:0.264583;fill:#f5f5f5;fill-opacity:1" />
  </g>
</svg>
