<svg width="1699" height="1124" xmlns="http://www.w3.org/2000/svg" xmlns:xlink="http://www.w3.org/1999/xlink" xml:space="preserve" overflow="hidden"><g transform="translate(-1132 -665)"><path d="M1291.01 1663.09 1275.01 1663.09" stroke="#000000" stroke-width="3.66414" stroke-linejoin="round" stroke-miterlimit="10" fill="none" fill-rule="evenodd"/><path d="M10.7708 29.7407C8.45513 29.7407 6.71267 28.6171 5.54313 26.3696 4.37825 24.1267 3.79564 20.7507 3.79564 16.2419 3.79564 11.7516 4.37825 8.38264 5.54313 6.13515 6.71267 3.88766 8.45513 2.76409 10.7708 2.76409 13.1053 2.76409 14.8549 3.88766 16.0198 6.13515 17.1893 8.38264 17.7741 11.7516 17.7741 16.2419 17.7741 20.7507 17.1893 24.1267 16.0198 26.3696 14.8549 28.6171 13.1053 29.7407 10.7708 29.7407ZM10.7708 33.2524C14.5028 33.2524 17.3533 31.7986 19.3216 28.891 21.2899 25.988 22.2743 21.7715 22.2743 16.2419 22.2743 10.7261 21.2899 6.51428 19.3216 3.60668 17.3533 0.703691 14.5028-0.747627 10.7708-0.747627 7.04318-0.747627 4.1952 0.703691 2.22689 3.60668 0.258221 6.51428-0.725753 10.7261-0.725753 16.2419-0.725753 21.7715 0.258221 25.988 2.22689 28.891 4.1952 31.7986 7.04318 33.2524 10.7708 33.2524Z" fill-rule="evenodd" transform="matrix(1 0 0 -1 1190 1681)"/><path d="M30.0968 14.3105C28.7811 14.3105 27.7481 13.7695 26.9984 12.6881 26.2535 11.6063 25.881 10.0986 25.881 8.16508 25.881 6.26377 26.2535 4.76781 26.9984 3.67684 27.7481 2.58587 28.7811 2.04056 30.0968 2.04056 31.3833 2.04056 32.3991 2.58587 33.144 3.67684 33.8941 4.76781 34.2688 6.26377 34.2688 8.16508 34.2688 10.0845 33.8941 11.5875 33.144 12.6739 32.3991 13.7648 31.3833 14.3105 30.0968 14.3105ZM30.0968 17.0987C32.4861 17.0987 34.3826 16.2933 35.7854 14.6825 37.193 13.0767 37.8967 10.904 37.8967 8.16508 37.8967 5.4304 37.1905 3.26015 35.7781 1.65435 34.3657 0.0527945 32.4719-0.747627 30.0968-0.747627 27.6783-0.747627 25.765 0.0527945 24.3574 1.65435 22.9545 3.26015 22.2531 5.4304 22.2531 8.16508 22.2531 10.9182 22.9593 13.0952 24.3716 14.6967 25.7844 16.2979 27.6925 17.0987 30.0968 17.0987ZM6.69628 30.4642C5.39515 30.4642 4.36954 29.9186 3.61982 28.8276 2.87485 27.7412 2.50237 26.2453 2.50237 24.3397 2.50237 22.4107 2.87265 20.9031 3.61286 19.8167 4.35271 18.735 5.38088 18.1943 6.69628 18.1943 8.01204 18.1943 9.04241 18.735 9.78737 19.8167 10.5371 20.9031 10.9121 22.4107 10.9121 24.3397 10.9121 26.2268 10.5349 27.7178 9.78005 28.8138 9.02557 29.9139 7.99777 30.4642 6.69628 30.4642ZM27.1726 33.2524 30.8005 33.2524 9.62052-0.747627 5.99266-0.747627ZM6.69628 33.2524C9.08595 33.2524 10.9897 32.4516 12.4068 30.8504 13.8291 29.2492 14.54 27.079 14.54 24.3397 14.54 21.5774 13.8338 19.3976 12.4215 17.801 11.0087 16.2044 9.10058 15.4061 6.69628 15.4061 4.29233 15.4061 2.39113 16.2065 0.99341 17.8081-0.404682 19.4142-1.10354 21.5912-1.10354 24.3397-1.10354 27.0648-0.40212 29.2305 1.00073 30.8363 2.40833 32.447 4.30697 33.2524 6.69628 33.2524Z" fill-rule="evenodd" transform="matrix(1 0 0 -1 1218 1681)"/><path d="M1291.01 1469.07 1275.01 1469.07" stroke="#000000" stroke-width="3.66414" stroke-linejoin="round" stroke-miterlimit="10" fill="none" fill-rule="evenodd"/><path d="M4.6876 2.91856 20.3071 2.91856 20.3071-0.770384-0.693611-0.770384-0.693611 2.91856C1.00323 4.64158 3.31682 6.95274 6.24751 9.85202 9.18284 12.7562 11.0263 14.6296 11.7778 15.4725 13.2097 17.0473 14.2094 18.3813 14.7768 19.4741 15.3488 20.5673 15.6345 21.6419 15.6345 22.6979 15.6345 24.421 15.0178 25.8243 13.7843 26.9081 12.5504 27.9964 10.9433 28.5407 8.96296 28.5407 7.55893 28.5407 6.07732 28.302 4.51741 27.825 2.96251 27.3479 1.29855 26.6231-0.473729 25.6505L-0.473729 30.0828C1.3268 30.7915 3.0097 31.3264 4.57426 31.6878 6.14346 32.0491 7.57788 32.2296 8.87786 32.2296 12.3048 32.2296 15.0367 31.3891 17.0739 29.7078 19.1111 28.0311 20.1297 25.7893 20.1297 22.9825 20.1297 21.6489 19.8745 20.3843 19.3639 19.1895 18.8584 17.9992 17.9316 16.5934 16.5848 14.9724 16.2158 14.5507 15.0414 13.3373 13.061 11.3318 11.0853 9.32628 8.29402 6.52198 4.6876 2.91856Z" fill-rule="evenodd" transform="matrix(1 0 0 -1 1161 1486)"/><path d="M10.7708 29.7258C8.45513 29.7258 6.71267 28.6019 5.54313 26.3544 4.37825 24.1119 3.79564 20.7358 3.79564 16.2267 3.79564 11.7367 4.37825 8.36776 5.54313 6.12027 6.71267 3.87278 8.45513 2.74886 10.7708 2.74886 13.1053 2.74886 14.8549 3.87278 16.0198 6.12027 17.1893 8.36776 17.7741 11.7367 17.7741 16.2267 17.7741 20.7358 17.1893 24.1119 16.0198 26.3544 14.8549 28.6019 13.1053 29.7258 10.7708 29.7258ZM10.7708 33.2375C14.5028 33.2375 17.3533 31.7834 19.3216 28.8758 21.2899 25.9728 22.2743 21.7563 22.2743 16.2267 22.2743 10.7113 21.2899 6.4994 19.3216 3.5918 17.3533 0.688809 14.5028-0.762863 10.7708-0.762863 7.04318-0.762863 4.1952 0.688809 2.22689 3.5918 0.258221 6.4994-0.725753 10.7113-0.725753 16.2267-0.725753 21.7563 0.258221 25.9728 2.22689 28.8758 4.1952 31.7834 7.04318 33.2375 10.7708 33.2375Z" fill-rule="evenodd" transform="matrix(1 0 0 -1 1190 1487)"/><path d="M30.0968 14.2953C28.7811 14.2953 27.7481 13.7546 26.9984 12.6728 26.2535 11.5914 25.881 10.0838 25.881 8.14985 25.881 6.24889 26.2535 4.75293 26.9984 3.66196 27.7481 2.57099 28.7811 2.02568 30.0968 2.02568 31.3833 2.02568 32.3991 2.57099 33.144 3.66196 33.8941 4.75293 34.2688 6.24889 34.2688 8.14985 34.2688 10.0696 33.8941 11.5726 33.144 12.659 32.3991 13.75 31.3833 14.2953 30.0968 14.2953ZM30.0968 17.0835C32.4861 17.0835 34.3826 16.2781 35.7854 14.6677 37.193 13.0615 37.8967 10.8891 37.8967 8.14985 37.8967 5.41551 37.1905 3.24527 35.7781 1.63911 34.3657 0.0379128 32.4719-0.762863 30.0968-0.762863 27.6783-0.762863 25.765 0.0379128 24.3574 1.63911 22.9545 3.24527 22.2531 5.41551 22.2531 8.14985 22.2531 10.903 22.9593 13.0803 24.3716 14.6815 25.7844 16.283 27.6925 17.0835 30.0968 17.0835ZM6.69628 30.449C5.39515 30.449 4.36954 29.9037 3.61982 28.8127 2.87485 27.7263 2.50237 26.2304 2.50237 24.3248 2.50237 22.3955 2.87265 20.8879 3.61286 19.8015 4.35271 18.7201 5.38088 18.1794 6.69628 18.1794 8.01204 18.1794 9.04241 18.7201 9.78737 19.8015 10.5371 20.8879 10.9121 22.3955 10.9121 24.3248 10.9121 26.2116 10.5349 27.703 9.78005 28.7985 9.02557 29.8991 7.99777 30.449 6.69628 30.449ZM27.1726 33.2375 30.8005 33.2375 9.62052-0.762863 5.99266-0.762863ZM6.69628 33.2375C9.08595 33.2375 10.9897 32.4367 12.4068 30.8356 13.8291 29.234 14.54 27.0638 14.54 24.3248 14.54 21.5621 13.8338 19.3827 12.4215 17.7861 11.0087 16.1895 9.10058 15.3908 6.69628 15.3908 4.29233 15.3908 2.39113 16.1916 0.99341 17.7928-0.404682 19.399-1.10354 21.5763-1.10354 24.3248-1.10354 27.0499-0.40212 29.2152 1.00073 30.8214 2.40833 32.4321 4.30697 33.2375 6.69628 33.2375Z" fill-rule="evenodd" transform="matrix(1 0 0 -1 1218 1487)"/><path d="M1291.01 1275.05 1275.01 1275.05" stroke="#000000" stroke-width="3.66414" stroke-linejoin="round" stroke-miterlimit="10" fill="none" fill-rule="evenodd"/><path d="M14.1529 28.3259 2.90105 10.7084 14.1529 10.7084ZM12.981 32.2157 18.5856 32.2157 18.5856 10.7084 23.2867 10.7084 23.2867 6.99512 18.5856 6.99512 18.5856-0.78461 14.1529-0.78461 14.1529 6.99512-0.712982 6.99512-0.712982 11.3025Z" fill-rule="evenodd" transform="matrix(1 0 0 -1 1160 1292)"/><path d="M10.7708 30.5841C8.45513 30.5841 6.71267 29.4275 5.54313 27.1139 4.37825 24.8051 3.79564 21.3298 3.79564 16.6885 3.79564 12.0661 4.37825 8.5981 5.54313 6.28453 6.71267 3.97096 8.45513 2.81436 10.7708 2.81436 13.1053 2.81436 14.8549 3.97096 16.0198 6.28453 17.1893 8.5981 17.7741 12.0661 17.7741 16.6885 17.7741 21.3298 17.1893 24.8051 16.0198 27.1139 14.8549 29.4275 13.1053 30.5841 10.7708 30.5841ZM10.7708 34.1991C14.5028 34.1991 17.3533 32.7025 19.3216 29.7095 21.2899 26.7211 22.2743 22.3807 22.2743 16.6885 22.2743 11.0105 21.2899 6.67517 19.3216 3.68172 17.3533 0.693378 14.5028-0.800612 10.7708-0.800612 7.04318-0.800612 4.1952 0.693378 2.22689 3.68172 0.258221 6.67517-0.725753 11.0105-0.725753 16.6885-0.725753 22.3807 0.258221 26.7211 2.22689 29.7095 4.1952 32.7025 7.04318 34.1991 10.7708 34.1991Z" fill-rule="evenodd" transform="matrix(1 0 0 -1 1190 1293)"/><path d="M30.0968 14.7003C28.7811 14.7003 27.7481 14.1437 26.9984 13.0301 26.2535 11.9165 25.881 10.3646 25.881 8.37415 25.881 6.4173 26.2535 4.87735 26.9984 3.75431 27.7481 2.63126 28.7811 2.06956 30.0968 2.06956 31.3833 2.06956 32.3991 2.63126 33.144 3.75431 33.8941 4.87735 34.2688 6.4173 34.2688 8.37415 34.2688 10.3503 33.8941 11.8972 33.144 13.0155 32.3991 14.1386 31.3833 14.7003 30.0968 14.7003ZM30.0968 17.5704C32.4861 17.5704 34.3826 16.7414 35.7854 15.0832 37.193 13.4302 37.8967 11.1936 37.8967 8.37415 37.8967 5.55906 37.1905 3.32537 35.7781 1.67198 34.3657 0.0237083 32.4719-0.800612 30.0968-0.800612 27.6783-0.800612 25.765 0.0237083 24.3574 1.67198 22.9545 3.32537 22.2531 5.55906 22.2531 8.37415 22.2531 11.2082 22.9593 13.4496 24.3716 15.0978 25.7844 16.7461 27.6925 17.5704 30.0968 17.5704ZM6.69628 31.3289C5.39515 31.3289 4.36954 30.7672 3.61982 29.6442 2.87485 28.5262 2.50237 26.9863 2.50237 25.0243 2.50237 23.0387 2.87265 21.4867 3.61286 20.3684 4.35271 19.2552 5.38088 18.6982 6.69628 18.6982 8.01204 18.6982 9.04241 19.2552 9.78737 20.3684 10.5371 21.4867 10.9121 23.0387 10.9121 25.0243 10.9121 26.967 10.5349 28.5022 9.78005 29.6299 9.02557 30.7625 7.99777 31.3289 6.69628 31.3289ZM27.1726 34.1991 30.8005 34.1991 9.62052-0.800612 5.99266-0.800612ZM6.69628 34.1991C9.08595 34.1991 10.9897 33.3751 12.4068 31.7265 13.8291 30.0782 14.54 27.8442 14.54 25.0243 14.54 22.1808 13.8338 19.9369 12.4215 18.2934 11.0087 16.6498 9.10058 15.828 6.69628 15.828 4.29233 15.828 2.39113 16.6524 0.99341 18.3006-0.404682 19.954-1.10354 22.195-1.10354 25.0243-1.10354 27.8296-0.40212 30.0589 1.00073 31.7119 2.40833 33.37 4.30697 34.1991 6.69628 34.1991Z" fill-rule="evenodd" transform="matrix(1 0 0 -1 1218 1293)"/><path d="M1291.01 1081.03 1275.01 1081.03" stroke="#000000" stroke-width="3.66414" stroke-linejoin="round" stroke-miterlimit="10" fill="none" fill-rule="evenodd"/><path d="M11.1557 18.5241C9.13299 18.5241 7.52929 17.8227 6.34424 16.4202 5.16388 15.0221 4.57387 13.1039 4.57387 10.6648 4.57387 8.24074 5.16388 6.32217 6.34424 4.90986 7.52929 3.50267 9.13299 2.79871 11.1557 2.79871 13.1781 2.79871 14.7796 3.50267 15.9596 4.90986 17.14 6.32217 17.73 8.24074 17.73 10.6648 17.73 13.1039 17.14 15.0221 15.9596 16.4202 14.7796 17.8227 13.1781 18.5241 11.1557 18.5241ZM20.1001 32.832 20.1001 28.675C18.9676 29.2148 17.8254 29.627 16.6734 29.9111 15.5219 30.2004 14.3797 30.3448 13.2472 30.3448 10.2727 30.3448 8.00014 29.3279 6.42992 27.294 4.86401 25.2599 3.96947 22.1872 3.74592 18.0758 4.62139 19.3867 5.72076 20.3916 7.04368 21.0908 8.37163 21.7896 9.83026 22.1391 11.4196 22.1391 14.7652 22.1391 17.4089 21.1098 19.3506 19.0518 21.2923 16.9983 22.2632 14.2029 22.2632 10.6648 22.2632 7.19938 21.2516 4.41819 19.2293 2.32162 17.2066 0.229791 14.5154-0.816305 11.1557-0.816305 7.3007-0.816305 4.35501 0.678065 2.31789 3.66644 0.281142 6.65956-0.737234 10.9953-0.737234 16.673-0.737234 22.0041 0.511888 26.2552 3.01049 29.4267 5.50909 32.5982 8.86156 34.1841 13.0686 34.1841 14.2015 34.1841 15.3433 34.0707 16.4952 33.8442 17.6468 33.6177 18.8484 33.2803 20.1001 32.832Z" fill-rule="evenodd" transform="matrix(1 0 0 -1 1161 1099)"/><path d="M10.7708 30.5691C8.45513 30.5691 6.71267 29.4121 5.54313 27.0985 4.37825 24.7901 3.79564 21.3147 3.79564 16.673 3.79564 12.0509 4.37825 8.58287 5.54313 6.26928 6.71267 3.95569 8.45513 2.79871 10.7708 2.79871 13.1053 2.79871 14.8549 3.95569 16.0198 6.26928 17.1893 8.58287 17.7741 12.0509 17.7741 16.673 17.7741 21.3147 17.1893 24.7901 16.0198 27.0985 14.8549 29.4121 13.1053 30.5691 10.7708 30.5691ZM10.7708 34.1841C14.5028 34.1841 17.3533 32.6876 19.3216 29.6941 21.2899 26.7061 22.2743 22.3656 22.2743 16.673 22.2743 10.9953 21.2899 6.65956 19.3216 3.66644 17.3533 0.678065 14.5028-0.816305 10.7708-0.816305 7.04318-0.816305 4.1952 0.678065 2.22689 3.66644 0.258221 6.65956-0.725753 10.9953-0.725753 16.673-0.725753 22.3656 0.258221 26.7061 2.22689 29.6941 4.1952 32.6876 7.04318 34.1841 10.7708 34.1841Z" fill-rule="evenodd" transform="matrix(1 0 0 -1 1190 1099)"/><path d="M30.0968 14.6847C28.7811 14.6847 27.7481 14.1281 26.9984 13.0149 26.2535 11.9013 25.881 10.3493 25.881 8.35855 25.881 6.40168 26.2535 4.86172 26.9984 3.73866 27.7481 2.6156 28.7811 2.05426 30.0968 2.05426 31.3833 2.05426 32.3991 2.6156 33.144 3.73866 33.8941 4.86172 34.2688 6.40168 34.2688 8.35855 34.2688 10.3348 33.8941 11.882 33.144 13.0003 32.3991 14.1234 31.3833 14.6847 30.0968 14.6847ZM30.0968 17.5553C32.4861 17.5553 34.3826 16.7262 35.7854 15.0681 37.193 13.4147 37.8967 11.1784 37.8967 8.35855 37.8967 5.5438 37.1905 3.30972 35.7781 1.65668 34.3657 0.00802444 32.4719-0.816305 30.0968-0.816305 27.6783-0.816305 25.765 0.00802444 24.3574 1.65668 22.9545 3.30972 22.2531 5.5438 22.2531 8.35855 22.2531 11.1926 22.9593 13.434 24.3716 15.0827 25.7844 16.731 27.6925 17.5553 30.0968 17.5553ZM6.69628 31.3139C5.39515 31.3139 4.36954 30.7522 3.61982 29.6292 2.87485 28.5108 2.50237 26.9709 2.50237 25.0093 2.50237 23.0232 2.87265 21.4716 3.61286 20.3533 4.35271 19.2397 5.38088 18.6831 6.69628 18.6831 8.01204 18.6831 9.04241 19.2397 9.78737 20.3533 10.5371 21.4716 10.9121 23.0232 10.9121 25.0093 10.9121 26.9516 10.5349 28.4868 9.78005 29.6146 9.02557 30.7475 7.99777 31.3139 6.69628 31.3139ZM27.1726 34.1841 30.8005 34.1841 9.62052-0.816305 5.99266-0.816305ZM6.69628 34.1841C9.08595 34.1841 10.9897 33.3598 12.4068 31.7115 13.8291 30.0628 14.54 27.8288 14.54 25.0093 14.54 22.1653 13.8338 19.9218 12.4215 18.2782 11.0087 16.6347 9.10058 15.8129 6.69628 15.8129 4.29233 15.8129 2.39113 16.6369 0.99341 18.2855-0.404682 19.9386-1.10354 22.1799-1.10354 25.0093-1.10354 27.8145-0.40212 30.0435 1.00073 31.6969 2.40833 33.3551 4.30697 34.1841 6.69628 34.1841Z" fill-rule="evenodd" transform="matrix(1 0 0 -1 1218 1099)"/><path d="M1291.01 887.015 1275.01 887.015" stroke="#000000" stroke-width="3.66414" stroke-linejoin="round" stroke-miterlimit="10" fill="none" fill-rule="evenodd"/><path d="M10.7666 15.8479C8.61038 15.8479 6.91411 15.2672 5.67779 14.1055 4.44618 12.9438 3.83038 11.3484 3.83038 9.3193 3.83038 7.2851 4.44618 5.68751 5.67779 4.52579 6.91411 3.36407 8.61038 2.78339 10.7666 2.78339 12.9228 2.78339 14.6213 3.36662 15.8623 4.53308 17.1084 5.70428 17.7311 7.29969 17.7311 9.3193 17.7311 11.3484 17.1131 12.9438 15.8768 14.1055 14.6455 15.2672 12.942 15.8479 10.7666 15.8479ZM6.23125 17.7854C4.28562 18.2676 2.76912 19.1784 1.68141 20.5185 0.598406 21.8633 0.0569048 23.4996 0.0569048 25.4276 0.0569048 28.122 1.01051 30.2525 2.91773 31.8187 4.82966 33.3853 7.44582 34.1684 10.7666 34.1684 14.1062 34.1684 16.7275 33.3853 18.6296 31.8187 20.5321 30.2525 21.4832 28.122 21.4832 25.4276 21.4832 23.4996 20.9391 21.8633 19.8514 20.5185 18.7688 19.1784 17.2617 18.2676 15.3306 17.7854 17.5154 17.2744 19.2168 16.2721 20.4339 14.7777 21.6557 13.2885 22.2664 11.4688 22.2664 9.3193 22.2664 6.04642 21.2748 3.53513 19.2911 1.7858 17.307 0.0408517 14.4658-0.831624 10.7666-0.831624 7.07214-0.831624 4.23052 0.0408517 2.24212 1.7858 0.258427 3.53513-0.7336 6.04642-0.7336 9.3193-0.7336 11.4688-0.120334 13.2885 1.10656 14.7777 2.33781 16.2721 4.04604 17.2744 6.23125 17.7854ZM4.57087 24.9939C4.57087 23.249 5.11237 21.8874 6.19537 20.9088 7.28272 19.9305 8.80683 19.441 10.7666 19.441 12.7166 19.441 14.2403 19.9305 15.3378 20.9088 16.4397 21.8874 16.991 23.249 16.991 24.9939 16.991 26.7433 16.4397 28.1074 15.3378 29.0861 14.2403 30.0643 12.7166 30.5534 10.7666 30.5534 8.80683 30.5534 7.28272 30.0643 6.19537 29.0861 5.11237 28.1074 4.57087 26.7433 4.57087 24.9939Z" fill-rule="evenodd" transform="matrix(1 0 0 -1 1161 905)"/><path d="M10.7708 30.5534C8.45513 30.5534 6.71267 29.3968 5.54313 27.0832 4.37825 24.7744 3.79564 21.2994 3.79564 16.6576 3.79564 12.0352 4.37825 8.56719 5.54313 6.25359 6.71267 3.94 8.45513 2.78339 10.7708 2.78339 13.1053 2.78339 14.8549 3.94 16.0198 6.25359 17.1893 8.56719 17.7741 12.0352 17.7741 16.6576 17.7741 21.2994 17.1893 24.7744 16.0198 27.0832 14.8549 29.3968 13.1053 30.5534 10.7708 30.5534ZM10.7708 34.1684C14.5028 34.1684 17.3533 32.6719 19.3216 29.6788 21.2899 26.6904 22.2743 22.3499 22.2743 16.6576 22.2743 10.9796 21.2899 6.64424 19.3216 3.65112 17.3533 0.662746 14.5028-0.831624 10.7708-0.831624 7.04318-0.831624 4.1952 0.662746 2.22689 3.65112 0.258221 6.64424-0.725753 10.9796-0.725753 16.6576-0.725753 22.3499 0.258221 26.6904 2.22689 29.6788 4.1952 32.6719 7.04318 34.1684 10.7708 34.1684Z" fill-rule="evenodd" transform="matrix(1 0 0 -1 1190 905)"/><path d="M30.0968 14.6694C28.7811 14.6694 27.7481 14.1128 26.9984 12.9992 26.2535 11.886 25.881 10.3337 25.881 8.34323 25.881 6.38636 26.2535 4.8464 26.9984 3.72334 27.7481 2.60028 28.7811 2.03857 30.0968 2.03857 31.3833 2.03857 32.3991 2.60028 33.144 3.72334 33.8941 4.8464 34.2688 6.38636 34.2688 8.34323 34.2688 10.3194 33.8941 11.8667 33.144 12.985 32.3991 14.1077 31.3833 14.6694 30.0968 14.6694ZM30.0968 17.5396C32.4861 17.5396 34.3826 16.7105 35.7854 15.0528 37.193 13.3994 37.8967 11.1627 37.8967 8.34323 37.8967 5.52848 37.1905 3.2944 35.7781 1.641 34.3657-0.00729495 32.4719-0.831624 30.0968-0.831624 27.6783-0.831624 25.765-0.00729495 24.3574 1.641 22.9545 3.2944 22.2531 5.52848 22.2531 8.34323 22.2531 11.1773 22.9593 13.4187 24.3716 15.067 25.7844 16.7156 27.6925 17.5396 30.0968 17.5396ZM6.69628 31.2982C5.39515 31.2982 4.36954 30.7369 3.61982 29.6138 2.87485 28.4955 2.50237 26.9556 2.50237 24.9939 2.50237 23.0079 2.87265 21.4559 3.61286 20.3376 4.35271 19.2244 5.38088 18.6674 6.69628 18.6674 8.01204 18.6674 9.04241 19.2244 9.78737 20.3376 10.5371 21.4559 10.9121 23.0079 10.9121 24.9939 10.9121 26.9362 10.5349 28.4715 9.78005 29.5993 9.02557 30.7318 7.99777 31.2982 6.69628 31.2982ZM27.1726 34.1684 30.8005 34.1684 9.62052-0.831624 5.99266-0.831624ZM6.69628 34.1684C9.08595 34.1684 10.9897 33.3445 12.4068 31.6958 13.8291 30.0475 14.54 27.8134 14.54 24.9939 14.54 22.15 13.8338 19.9065 12.4215 18.2625 11.0087 16.619 9.10058 15.7972 6.69628 15.7972 4.29233 15.7972 2.39113 16.6215 0.99341 18.2698-0.404682 19.9232-1.10354 22.1646-1.10354 24.9939-1.10354 27.7989-0.40212 30.0282 1.00073 31.6816 2.40833 33.3394 4.30697 34.1684 6.69628 34.1684Z" fill-rule="evenodd" transform="matrix(1 0 0 -1 1218 905)"/><path d="M1291.01 693.002 1275.01 693.002" stroke="#000000" stroke-width="3.66414" stroke-linejoin="round" stroke-miterlimit="10" fill="none" fill-rule="evenodd"/><path d="M-0.103107 2.92578 7.31954 2.92578 7.31954 28.1036-0.758057 26.5123-0.758057 30.5791 7.27633 32.1704 11.8192 32.1704 11.8192 2.92578 19.2422 2.92578 19.2422-0.829924-0.103107-0.829924Z" fill-rule="evenodd" transform="matrix(1 0 0 -1 1133 710)"/><path d="M10.7683 30.5378C8.45297 30.5378 6.71052 29.3812 5.54061 27.0676 4.3761 24.7588 3.79348 21.2835 3.79348 16.6422 3.79348 12.0198 4.3761 8.55178 5.54061 6.23821 6.71052 3.92464 8.45297 2.76804 10.7683 2.76804 13.1028 2.76804 14.8524 3.92464 16.0173 6.23821 17.1872 8.55178 17.772 12.0198 17.772 16.6422 17.772 21.2835 17.1872 24.7588 16.0173 27.0676 14.8524 29.3812 13.1028 30.5378 10.7683 30.5378ZM10.7683 34.1528C14.5007 34.1528 17.3512 32.6562 19.3195 29.6631 21.2878 26.6748 22.2721 22.3343 22.2721 16.6422 22.2721 10.9642 21.2878 6.62849 19.3195 3.6354 17.3512 0.647055 14.5007-0.846935 10.7683-0.846935 7.04067-0.846935 4.19268 0.647055 2.22437 3.6354 0.256063 6.62849-0.72827 10.9642-0.72827 16.6422-0.72827 22.3343 0.256063 26.6748 2.22437 29.6631 4.19268 32.6562 7.04067 34.1528 10.7683 34.1528Z" fill-rule="evenodd" transform="matrix(1 0 0 -1 1161 711)"/><path d="M10.7708 30.5378C8.45513 30.5378 6.71267 29.3812 5.54313 27.0676 4.37825 24.7588 3.79564 21.2835 3.79564 16.6422 3.79564 12.0198 4.37825 8.55178 5.54313 6.23821 6.71267 3.92464 8.45513 2.76804 10.7708 2.76804 13.1053 2.76804 14.8549 3.92464 16.0198 6.23821 17.1893 8.55178 17.7741 12.0198 17.7741 16.6422 17.7741 21.2835 17.1893 24.7588 16.0198 27.0676 14.8549 29.3812 13.1053 30.5378 10.7708 30.5378ZM10.7708 34.1528C14.5028 34.1528 17.3533 32.6562 19.3216 29.6631 21.2899 26.6748 22.2743 22.3343 22.2743 16.6422 22.2743 10.9642 21.2899 6.62849 19.3216 3.6354 17.3533 0.647055 14.5028-0.846935 10.7708-0.846935 7.04318-0.846935 4.1952 0.647055 2.22689 3.6354 0.258221 6.62849-0.725753 10.9642-0.725753 16.6422-0.725753 22.3343 0.258221 26.6748 2.22689 29.6631 4.1952 32.6562 7.04318 34.1528 10.7708 34.1528Z" fill-rule="evenodd" transform="matrix(1 0 0 -1 1190 711)"/><path d="M30.0968 14.6539C28.7811 14.6539 27.7481 14.097 26.9984 12.9838 26.2535 11.8702 25.881 10.3182 25.881 8.32783 25.881 6.37061 26.2535 4.83066 26.9984 3.70762 27.7481 2.58457 28.7811 2.02323 30.0968 2.02323 31.3833 2.02323 32.3991 2.58457 33.144 3.70762 33.8941 4.83066 34.2688 6.37061 34.2688 8.32783 34.2688 10.3036 33.8941 11.8509 33.144 12.9692 32.3991 14.0922 31.3833 14.6539 30.0968 14.6539ZM30.0968 17.5241C32.4861 17.5241 34.3826 16.695 35.7854 15.0369 37.193 13.3839 37.8967 11.1473 37.8967 8.32783 37.8967 5.51274 37.1905 3.27868 35.7781 1.62566 34.3657-0.0229788 32.4719-0.846935 30.0968-0.846935 27.6783-0.846935 25.765-0.0229788 24.3574 1.62566 22.9545 3.27868 22.2531 5.51274 22.2531 8.32783 22.2531 11.1619 22.9593 13.4029 24.3716 15.0515 25.7844 16.6998 27.6925 17.5241 30.0968 17.5241ZM6.69628 31.2826C5.39515 31.2826 4.36954 30.7209 3.61982 29.5979 2.87485 28.4795 2.50237 26.9396 2.50237 24.978 2.50237 22.9923 2.87265 21.4404 3.61286 20.3221 4.35271 19.2085 5.38088 18.6519 6.69628 18.6519 8.01204 18.6519 9.04241 19.2085 9.78737 20.3221 10.5371 21.4404 10.9121 22.9923 10.9121 24.978 10.9121 26.9206 10.5349 28.4555 9.78005 29.5836 9.02557 30.7162 7.99777 31.2826 6.69628 31.2826ZM27.1726 34.1528 30.8005 34.1528 9.62052-0.846935 5.99266-0.846935ZM6.69628 34.1528C9.08595 34.1528 10.9897 33.3284 12.4068 31.6802 13.8291 30.0319 14.54 27.7978 14.54 24.978 14.54 22.1345 13.8338 19.8906 12.4215 18.247 11.0087 16.6035 9.10058 15.7817 6.69628 15.7817 4.29233 15.7817 2.39113 16.6057 0.99341 18.2543-0.404682 19.9077-1.10354 22.1487-1.10354 24.978-1.10354 27.7833-0.40212 30.0126 1.00073 31.6656 2.40833 33.3237 4.30697 34.1528 6.69628 34.1528Z" fill-rule="evenodd" transform="matrix(1 0 0 -1 1218 711)"/><path d="M1290.99 1662.99 1290.99 667.988" stroke="#000000" stroke-width="3.66414" stroke-linecap="square" stroke-miterlimit="8" fill="none" fill-rule="evenodd"/><path d="M1294.99 1662.99 1302.99 1662.99 1302.99 714.988 1294.99 714.988Z" fill="#1F77B4" fill-rule="evenodd"/><path d="M1310.99 1662.99 1318.99 1662.99 1318.99 1092.99 1310.99 1092.99Z" fill="#1F77B4" fill-rule="evenodd"/><path d="M1325.99 1662.99 1333.99 1662.99 1333.99 1214.99 1325.99 1214.99Z" fill="#1F77B4" fill-rule="evenodd"/><path d="M1341.99 1662.99 1349.99 1662.99 1349.99 1283.99 1341.99 1283.99Z" fill="#1F77B4" fill-rule="evenodd"/><path d="M1356.99 1662.99 1364.99 1662.99 1364.99 1286.99 1356.99 1286.99Z" fill="#1F77B4" fill-rule="evenodd"/><path d="M1372.99 1662.99 1380.99 1662.99 1380.99 1304.99 1372.99 1304.99Z" fill="#1F77B4" fill-rule="evenodd"/><path d="M1387.99 1662.99 1395.99 1662.99 1395.99 1313.99 1387.99 1313.99Z" fill="#1F77B4" fill-rule="evenodd"/><path d="M1403.99 1662.99 1410.99 1662.99 1410.99 1329.99 1403.99 1329.99Z" fill="#1F77B4" fill-rule="evenodd"/><path d="M1418.99 1662.99 1426.99 1662.99 1426.99 1332.99 1418.99 1332.99Z" fill="#1F77B4" fill-rule="evenodd"/><path d="M1434.99 1662.99 1441.99 1662.99 1441.99 1334.99 1434.99 1334.99Z" fill="#1F77B4" fill-rule="evenodd"/><path d="M1449.99 1662.99 1457.99 1662.99 1457.99 1339.99 1449.99 1339.99Z" fill="#1F77B4" fill-rule="evenodd"/><path d="M1465.99 1662.99 1472.99 1662.99 1472.99 1340.99 1465.99 1340.99Z" fill="#1F77B4" fill-rule="evenodd"/><path d="M1480.99 1662.99 1488.99 1662.99 1488.99 1351.99 1480.99 1351.99Z" fill="#1F77B4" fill-rule="evenodd"/><path d="M1496.99 1662.99 1503.99 1662.99 1503.99 1351.99 1496.99 1351.99Z" fill="#1F77B4" fill-rule="evenodd"/><path d="M1511.99 1662.99 1519.99 1662.99 1519.99 1351.99 1511.99 1351.99Z" fill="#1F77B4" fill-rule="evenodd"/><path d="M1527.99 1662.99 1534.99 1662.99 1534.99 1357.99 1527.99 1357.99Z" fill="#1F77B4" fill-rule="evenodd"/><path d="M1542.99 1662.99 1550.99 1662.99 1550.99 1365.99 1542.99 1365.99Z" fill="#1F77B4" fill-rule="evenodd"/><path d="M1558.99 1662.99 1565.99 1662.99 1565.99 1378.99 1558.99 1378.99Z" fill="#1F77B4" fill-rule="evenodd"/><path d="M1573.99 1662.99 1581.99 1662.99 1581.99 1381.99 1573.99 1381.99Z" fill="#1F77B4" fill-rule="evenodd"/><path d="M1589.99 1662.99 1596.99 1662.99 1596.99 1385.99 1589.99 1385.99Z" fill="#1F77B4" fill-rule="evenodd"/><path d="M1604.99 1662.99 1612.99 1662.99 1612.99 1399.99 1604.99 1399.99Z" fill="#1F77B4" fill-rule="evenodd"/><path d="M1620.99 1662.99 1627.99 1662.99 1627.99 1399.99 1620.99 1399.99Z" fill="#1F77B4" fill-rule="evenodd"/><path d="M1635.99 1662.99 1643.99 1662.99 1643.99 1401.99 1635.99 1401.99Z" fill="#1F77B4" fill-rule="evenodd"/><path d="M1651.99 1662.99 1658.99 1662.99 1658.99 1402.99 1651.99 1402.99Z" fill="#1F77B4" fill-rule="evenodd"/><path d="M1666.99 1662.99 1674.99 1662.99 1674.99 1404.99 1666.99 1404.99Z" fill="#1F77B4" fill-rule="evenodd"/><path d="M1682.99 1662.99 1689.99 1662.99 1689.99 1407.99 1682.99 1407.99Z" fill="#1F77B4" fill-rule="evenodd"/><path d="M1697.99 1662.99 1705.99 1662.99 1705.99 1409.99 1697.99 1409.99Z" fill="#1F77B4" fill-rule="evenodd"/><path d="M1713.99 1662.99 1720.99 1662.99 1720.99 1415.99 1713.99 1415.99Z" fill="#1F77B4" fill-rule="evenodd"/><path d="M1728.99 1662.99 1736.99 1662.99 1736.99 1416.99 1728.99 1416.99Z" fill="#1F77B4" fill-rule="evenodd"/><path d="M1744.99 1662.99 1751.99 1662.99 1751.99 1417.99 1744.99 1417.99Z" fill="#1F77B4" fill-rule="evenodd"/><path d="M1759.99 1662.99 1767.99 1662.99 1767.99 1418.99 1759.99 1418.99Z" fill="#1F77B4" fill-rule="evenodd"/><path d="M1775.99 1662.99 1782.99 1662.99 1782.99 1419.99 1775.99 1419.99Z" fill="#1F77B4" fill-rule="evenodd"/><path d="M1790.99 1662.99 1798.99 1662.99 1798.99 1427.99 1790.99 1427.99Z" fill="#1F77B4" fill-rule="evenodd"/><path d="M1805.99 1662.99 1813.99 1662.99 1813.99 1427.99 1805.99 1427.99Z" fill="#1F77B4" fill-rule="evenodd"/><path d="M1821.99 1662.99 1829.99 1662.99 1829.99 1427.99 1821.99 1427.99Z" fill="#1F77B4" fill-rule="evenodd"/><path d="M1836.99 1662.99 1844.99 1662.99 1844.99 1429.99 1836.99 1429.99Z" fill="#1F77B4" fill-rule="evenodd"/><path d="M1852.99 1662.99 1860.99 1662.99 1860.99 1430.99 1852.99 1430.99Z" fill="#1F77B4" fill-rule="evenodd"/><path d="M1867.99 1662.99 1875.99 1662.99 1875.99 1431.99 1867.99 1431.99Z" fill="#1F77B4" fill-rule="evenodd"/><path d="M1883.99 1662.99 1891.99 1662.99 1891.99 1432.99 1883.99 1432.99Z" fill="#1F77B4" fill-rule="evenodd"/><path d="M1898.99 1662.99 1906.99 1662.99 1906.99 1432.99 1898.99 1432.99Z" fill="#1F77B4" fill-rule="evenodd"/><path d="M1914.99 1662.99 1922.99 1662.99 1922.99 1437.99 1914.99 1437.99Z" fill="#1F77B4" fill-rule="evenodd"/><path d="M1929.99 1662.99 1937.99 1662.99 1937.99 1437.99 1929.99 1437.99Z" fill="#1F77B4" fill-rule="evenodd"/><path d="M1945.99 1662.99 1953.99 1662.99 1953.99 1438.99 1945.99 1438.99Z" fill="#1F77B4" fill-rule="evenodd"/><path d="M1960.99 1662.99 1968.99 1662.99 1968.99 1441.99 1960.99 1441.99Z" fill="#1F77B4" fill-rule="evenodd"/><path d="M1976.99 1662.99 1984.99 1662.99 1984.99 1446.99 1976.99 1446.99Z" fill="#1F77B4" fill-rule="evenodd"/><path d="M1991.99 1662.99 1999.99 1662.99 1999.99 1448.99 1991.99 1448.99Z" fill="#1F77B4" fill-rule="evenodd"/><path d="M2007.99 1662.99 2015.99 1662.99 2015.99 1449.99 2007.99 1449.99Z" fill="#1F77B4" fill-rule="evenodd"/><path d="M2022.99 1662.99 2030.99 1662.99 2030.99 1451.99 2022.99 1451.99Z" fill="#1F77B4" fill-rule="evenodd"/><path d="M2038.99 1662.99 2046.99 1662.99 2046.99 1452.99 2038.99 1452.99Z" fill="#1F77B4" fill-rule="evenodd"/><path d="M2053.99 1662.99 2061.99 1662.99 2061.99 1455.99 2053.99 1455.99Z" fill="#1F77B4" fill-rule="evenodd"/><path d="M2069.99 1662.99 2077.99 1662.99 2077.99 1458.99 2069.99 1458.99Z" fill="#1F77B4" fill-rule="evenodd"/><path d="M2084.99 1662.99 2092.99 1662.99 2092.99 1460.99 2084.99 1460.99Z" fill="#1F77B4" fill-rule="evenodd"/><path d="M2100.99 1662.99 2108.99 1662.99 2108.99 1462.99 2100.99 1462.99Z" fill="#1F77B4" fill-rule="evenodd"/><path d="M2115.99 1662.99 2123.99 1662.99 2123.99 1465.99 2115.99 1465.99Z" fill="#1F77B4" fill-rule="evenodd"/><path d="M2131.99 1662.99 2139.99 1662.99 2139.99 1467.99 2131.99 1467.99Z" fill="#1F77B4" fill-rule="evenodd"/><path d="M2146.99 1662.99 2154.99 1662.99 2154.99 1467.99 2146.99 1467.99Z" fill="#1F77B4" fill-rule="evenodd"/><path d="M2162.99 1662.99 2169.99 1662.99 2169.99 1469.99 2162.99 1469.99Z" fill="#1F77B4" fill-rule="evenodd"/><path d="M2177.99 1662.99 2185.99 1662.99 2185.99 1470.99 2177.99 1470.99Z" fill="#1F77B4" fill-rule="evenodd"/><path d="M2193.99 1662.99 2200.99 1662.99 2200.99 1475.99 2193.99 1475.99Z" fill="#1F77B4" fill-rule="evenodd"/><path d="M2208.99 1662.99 2216.99 1662.99 2216.99 1475.99 2208.99 1475.99Z" fill="#1F77B4" fill-rule="evenodd"/><path d="M2224.99 1662.99 2231.99 1662.99 2231.99 1480.99 2224.99 1480.99Z" fill="#1F77B4" fill-rule="evenodd"/><path d="M2239.99 1662.99 2247.99 1662.99 2247.99 1486.99 2239.99 1486.99Z" fill="#1F77B4" fill-rule="evenodd"/><path d="M2255.99 1662.99 2262.99 1662.99 2262.99 1486.99 2255.99 1486.99Z" fill="#1F77B4" fill-rule="evenodd"/><path d="M2270.99 1662.99 2278.99 1662.99 2278.99 1487.99 2270.99 1487.99Z" fill="#1F77B4" fill-rule="evenodd"/><path d="M2286.99 1662.99 2293.99 1662.99 2293.99 1487.99 2286.99 1487.99Z" fill="#1F77B4" fill-rule="evenodd"/><path d="M2301.99 1662.99 2309.99 1662.99 2309.99 1494.99 2301.99 1494.99Z" fill="#1F77B4" fill-rule="evenodd"/><path d="M2317.99 1662.99 2324.99 1662.99 2324.99 1496.99 2317.99 1496.99Z" fill="#1F77B4" fill-rule="evenodd"/><path d="M2332.99 1662.99 2340.99 1662.99 2340.99 1496.99 2332.99 1496.99Z" fill="#1F77B4" fill-rule="evenodd"/><path d="M2348.99 1662.99 2355.99 1662.99 2355.99 1500.99 2348.99 1500.99Z" fill="#1F77B4" fill-rule="evenodd"/><path d="M2363.99 1662.99 2371.99 1662.99 2371.99 1500.99 2363.99 1500.99Z" fill="#1F77B4" fill-rule="evenodd"/><path d="M2379.99 1662.99 2386.99 1662.99 2386.99 1505.99 2379.99 1505.99Z" fill="#1F77B4" fill-rule="evenodd"/><path d="M2394.99 1662.99 2402.99 1662.99 2402.99 1507.99 2394.99 1507.99Z" fill="#1F77B4" fill-rule="evenodd"/><path d="M2410.99 1662.99 2417.99 1662.99 2417.99 1507.99 2410.99 1507.99Z" fill="#1F77B4" fill-rule="evenodd"/><path d="M2425.99 1662.99 2433.99 1662.99 2433.99 1513.99 2425.99 1513.99Z" fill="#1F77B4" fill-rule="evenodd"/><path d="M2441.99 1662.99 2448.99 1662.99 2448.99 1518.99 2441.99 1518.99Z" fill="#1F77B4" fill-rule="evenodd"/><path d="M2456.99 1662.99 2464.99 1662.99 2464.99 1522.99 2456.99 1522.99Z" fill="#1F77B4" fill-rule="evenodd"/><path d="M2472.99 1662.99 2479.99 1662.99 2479.99 1523.99 2472.99 1523.99Z" fill="#1F77B4" fill-rule="evenodd"/><path d="M2487.99 1662.99 2495.99 1662.99 2495.99 1526.99 2487.99 1526.99Z" fill="#1F77B4" fill-rule="evenodd"/><path d="M2503.99 1662.99 2510.99 1662.99 2510.99 1529.99 2503.99 1529.99Z" fill="#1F77B4" fill-rule="evenodd"/><path d="M2518.99 1662.99 2526.99 1662.99 2526.99 1534.99 2518.99 1534.99Z" fill="#1F77B4" fill-rule="evenodd"/><path d="M2533.99 1662.99 2541.99 1662.99 2541.99 1540.99 2533.99 1540.99Z" fill="#1F77B4" fill-rule="evenodd"/><path d="M2549.99 1662.99 2557.99 1662.99 2557.99 1549.99 2549.99 1549.99Z" fill="#1F77B4" fill-rule="evenodd"/><path d="M2564.99 1662.99 2572.99 1662.99 2572.99 1552.99 2564.99 1552.99Z" fill="#1F77B4" fill-rule="evenodd"/><path d="M2580.99 1662.99 2588.99 1662.99 2588.99 1554.99 2580.99 1554.99Z" fill="#1F77B4" fill-rule="evenodd"/><path d="M2595.99 1662.99 2603.99 1662.99 2603.99 1561.99 2595.99 1561.99Z" fill="#1F77B4" fill-rule="evenodd"/><path d="M2611.99 1662.99 2619.99 1662.99 2619.99 1562.99 2611.99 1562.99Z" fill="#1F77B4" fill-rule="evenodd"/><path d="M2626.99 1662.99 2634.99 1662.99 2634.99 1567.99 2626.99 1567.99Z" fill="#1F77B4" fill-rule="evenodd"/><path d="M2642.99 1662.99 2650.99 1662.99 2650.99 1578.99 2642.99 1578.99Z" fill="#1F77B4" fill-rule="evenodd"/><path d="M2657.99 1662.99 2665.99 1662.99 2665.99 1585.99 2657.99 1585.99Z" fill="#1F77B4" fill-rule="evenodd"/><path d="M2673.99 1662.99 2681.99 1662.99 2681.99 1586.99 2673.99 1586.99Z" fill="#1F77B4" fill-rule="evenodd"/><path d="M2688.99 1662.99 2696.99 1662.99 2696.99 1601.99 2688.99 1601.99Z" fill="#1F77B4" fill-rule="evenodd"/><path d="M2704.99 1662.99 2712.99 1662.99 2712.99 1608.99 2704.99 1608.99Z" fill="#1F77B4" fill-rule="evenodd"/><path d="M2719.99 1662.99 2727.99 1662.99 2727.99 1611.99 2719.99 1611.99Z" fill="#1F77B4" fill-rule="evenodd"/><path d="M2735.99 1662.99 2743.99 1662.99 2743.99 1611.99 2735.99 1611.99Z" fill="#1F77B4" fill-rule="evenodd"/><path d="M2750.99 1662.99 2758.99 1662.99 2758.99 1627.99 2750.99 1627.99Z" fill="#1F77B4" fill-rule="evenodd"/><path d="M2766.99 1662.99 2774.99 1662.99 2774.99 1635.99 2766.99 1635.99Z" fill="#1F77B4" fill-rule="evenodd"/><path d="M2781.99 1662.99 2789.99 1662.99 2789.99 1653.99 2781.99 1653.99Z" fill="#1F77B4" fill-rule="evenodd"/><path d="M2797.99 1662.99 2805.99 1662.99 2805.99 1656.99 2797.99 1656.99Z" fill="#1F77B4" fill-rule="evenodd"/><path d="M2812.99 1663.77 2820.99 1663.77 2820.99 1662.76 2812.99 1662.76Z" fill="#1F77B4" fill-rule="evenodd"/><path d="M1291.49 1452.49 2825.49 1452.49" stroke="#FF0000" stroke-width="6.87031" stroke-linecap="square" stroke-linejoin="round" stroke-miterlimit="10" fill="none" fill-rule="evenodd"/><path d="M1290.99 1662.99 2824.99 1662.99" stroke="#000000" stroke-width="3.66414" stroke-linecap="square" stroke-miterlimit="8" fill="none" fill-rule="evenodd"/><text fill="#FF0000" font-family="Aptos,Aptos_MSFontService,sans-serif" font-weight="400" font-size="55" transform="matrix(1 0 0 1 2593.88 1427)">Average</text><text font-family="Aptos,Aptos_MSFontService,sans-serif" font-weight="400" font-size="55" transform="matrix(1 0 0 1 1842.29 1740)">Youtube</text><text font-family="Aptos,Aptos_MSFontService,sans-serif" font-weight="400" font-size="55" transform="matrix(1 0 0 1 2049.84 1740)">channels</text></g></svg>