<?xml version="1.0" encoding="UTF-8" standalone="no"?>
<svg
   xmlns:dc="http://purl.org/dc/elements/1.1/"
   xmlns:cc="http://creativecommons.org/ns#"
   xmlns:rdf="http://www.w3.org/1999/02/22-rdf-syntax-ns#"
   xmlns:svg="http://www.w3.org/2000/svg"
   xmlns="http://www.w3.org/2000/svg"
   xmlns:xlink="http://www.w3.org/1999/xlink"
   xmlns:sodipodi="http://sodipodi.sourceforge.net/DTD/sodipodi-0.dtd"
   xmlns:inkscape="http://www.inkscape.org/namespaces/inkscape"
   height="226pt"
   version="1.1"
   viewBox="0 0 373 226"
   width="373pt"
   id="svg447"
   sodipodi:docname="Channel Marketcap Share.svg"
   inkscape:version="1.0.2-2 (e86c870879, 2021-01-15)">
  <sodipodi:namedview
     pagecolor="#ffffff"
     bordercolor="#666666"
     borderopacity="1"
     objecttolerance="10"
     gridtolerance="10"
     guidetolerance="10"
     inkscape:pageopacity="0"
     inkscape:pageshadow="2"
     inkscape:window-width="2560"
     inkscape:window-height="1360"
     id="namedview449"
     showgrid="false"
     inkscape:zoom="2.2152778"
     inkscape:cx="288"
     inkscape:cy="192"
     inkscape:window-x="2549"
     inkscape:window-y="-11"
     inkscape:window-maximized="1"
     inkscape:current-layer="axes_1" />
  <metadata
     id="metadata2">
    <rdf:RDF>
      <cc:Work>
        <dc:type
           rdf:resource="http://purl.org/dc/dcmitype/StillImage" />
        <dc:date>2023-02-24T13:57:29.705952</dc:date>
        <dc:format>image/svg+xml</dc:format>
        <dc:creator>
          <cc:Agent>
            <dc:title>Matplotlib v3.4.3, https://matplotlib.org/</dc:title>
          </cc:Agent>
        </dc:creator>
        <dc:title></dc:title>
      </cc:Work>
    </rdf:RDF>
  </metadata>
  <defs
     id="defs6">
    <style
       type="text/css"
       id="style4">*{stroke-linecap:butt;stroke-linejoin:round;}</style>
  </defs>
  <g
     id="figure_1">
    <g
       id="patch_1">
      <path
         d="M 0,288 H 432 V 0 H 0 Z"
         style="fill:none"
         id="path8" />
    </g>
    <g
       id="axes_1">
      <g
         id="patch_2"
         transform="translate(-18,-33)">
        <path
           d="M 54,252 H 388.8 V 34.56 H 54 Z"
           style="fill:#ffffff"
           id="path11" />
      </g>
      <g
         id="patch_3"
         transform="translate(-18,-33)">
        <path
           clip-path="url(#p564973e493)"
           d="m 54.845455,252 h 1.690909 V 44.914286 h -1.690909 z"
           style="fill:#1f77b4"
           id="path14" />
      </g>
      <g
         id="patch_4"
         transform="translate(-18,-33)">
        <path
           clip-path="url(#p564973e493)"
           d="m 58.227273,252 h 1.690909 V 127.54552 h -1.690909 z"
           style="fill:#1f77b4"
           id="path17" />
      </g>
      <g
         id="patch_5"
         transform="translate(-18,-33)">
        <path
           clip-path="url(#p564973e493)"
           d="M 61.609091,252 H 63.3 v -97.94371 h -1.690909 z"
           style="fill:#1f77b4"
           id="path20" />
      </g>
      <g
         id="patch_6"
         transform="translate(-18,-33)">
        <path
           clip-path="url(#p564973e493)"
           d="m 64.990909,252 h 1.690909 v -82.82643 h -1.690909 z"
           style="fill:#1f77b4"
           id="path23" />
      </g>
      <g
         id="patch_7"
         transform="translate(-18,-33)">
        <path
           clip-path="url(#p564973e493)"
           d="m 68.372727,252 h 1.690909 v -82.19558 h -1.690909 z"
           style="fill:#1f77b4"
           id="path26" />
      </g>
      <g
         id="patch_8"
         transform="translate(-18,-33)">
        <path
           clip-path="url(#p564973e493)"
           d="m 71.754545,252 h 1.69091 v -78.24354 h -1.69091 z"
           style="fill:#1f77b4"
           id="path29" />
      </g>
      <g
         id="patch_9"
         transform="translate(-18,-33)">
        <path
           clip-path="url(#p564973e493)"
           d="m 75.136364,252 h 1.690909 v -76.35785 h -1.690909 z"
           style="fill:#1f77b4"
           id="path32" />
      </g>
      <g
         id="patch_10"
         transform="translate(-18,-33)">
        <path
           clip-path="url(#p564973e493)"
           d="m 78.518182,252 h 1.690909 v -72.75 h -1.690909 z"
           style="fill:#1f77b4"
           id="path35" />
      </g>
      <g
         id="patch_11"
         transform="translate(-18,-33)">
        <path
           clip-path="url(#p564973e493)"
           d="m 81.9,252 h 1.690909 V 179.88243 H 81.9 Z"
           style="fill:#1f77b4"
           id="path38" />
      </g>
      <g
         id="patch_12"
         transform="translate(-18,-33)">
        <path
           clip-path="url(#p564973e493)"
           d="m 85.281818,252 h 1.690909 v -71.77047 h -1.690909 z"
           style="fill:#1f77b4"
           id="path41" />
      </g>
      <g
         id="patch_13"
         transform="translate(-18,-33)">
        <path
           clip-path="url(#p564973e493)"
           d="m 88.663636,252 h 1.690909 v -70.50178 h -1.690909 z"
           style="fill:#1f77b4"
           id="path44" />
      </g>
      <g
         id="patch_14"
         transform="translate(-18,-33)">
        <path
           clip-path="url(#p564973e493)"
           d="m 92.045455,252 h 1.690909 v -70.29516 h -1.690909 z"
           style="fill:#1f77b4"
           id="path47" />
      </g>
      <g
         id="patch_15"
         transform="translate(-18,-33)">
        <path
           clip-path="url(#p564973e493)"
           d="m 95.427273,252 h 1.690909 v -68.04482 h -1.690909 z"
           style="fill:#1f77b4"
           id="path50" />
      </g>
      <g
         id="patch_16"
         transform="translate(-18,-33)">
        <path
           clip-path="url(#p564973e493)"
           d="M 98.809091,252 H 100.5 v -67.99895 h -1.690909 z"
           style="fill:#1f77b4"
           id="path53" />
      </g>
      <g
         id="patch_17"
         transform="translate(-18,-33)">
        <path
           clip-path="url(#p564973e493)"
           d="m 102.19091,252 h 1.69091 v -67.92021 h -1.69091 z"
           style="fill:#1f77b4"
           id="path56" />
      </g>
      <g
         id="patch_18"
         transform="translate(-18,-33)">
        <path
           clip-path="url(#p564973e493)"
           d="m 105.57273,252 h 1.69091 v -66.64712 h -1.69091 z"
           style="fill:#1f77b4"
           id="path59" />
      </g>
      <g
         id="patch_19"
         transform="translate(-18,-33)">
        <path
           clip-path="url(#p564973e493)"
           d="m 108.95454,252 h 1.69091 v -64.88224 h -1.69091 z"
           style="fill:#1f77b4"
           id="path62" />
      </g>
      <g
         id="patch_20"
         transform="translate(-18,-33)">
        <path
           clip-path="url(#p564973e493)"
           d="m 112.33636,252 h 1.69091 v -62.17357 h -1.69091 z"
           style="fill:#1f77b4"
           id="path65" />
      </g>
      <g
         id="patch_21"
         transform="translate(-18,-33)">
        <path
           clip-path="url(#p564973e493)"
           d="m 115.71818,252 h 1.69091 v -61.4976 h -1.69091 z"
           style="fill:#1f77b4"
           id="path68" />
      </g>
      <g
         id="patch_22"
         transform="translate(-18,-33)">
        <path
           clip-path="url(#p564973e493)"
           d="m 119.1,252 h 1.69091 V 191.38252 H 119.1 Z"
           style="fill:#1f77b4"
           id="path71" />
      </g>
      <g
         id="patch_23"
         transform="translate(-18,-33)">
        <path
           clip-path="url(#p564973e493)"
           d="m 122.48182,252 h 1.69091 v -57.53221 h -1.69091 z"
           style="fill:#1f77b4"
           id="path74" />
      </g>
      <g
         id="patch_24"
         transform="translate(-18,-33)">
        <path
           clip-path="url(#p564973e493)"
           d="m 125.86364,252 h 1.69091 v -57.40172 h -1.69091 z"
           style="fill:#1f77b4"
           id="path77" />
      </g>
      <g
         id="patch_25"
         transform="translate(-18,-33)">
        <path
           clip-path="url(#p564973e493)"
           d="m 129.24545,252 h 1.69091 v -57.05336 h -1.69091 z"
           style="fill:#1f77b4"
           id="path80" />
      </g>
      <g
         id="patch_26"
         transform="translate(-18,-33)">
        <path
           clip-path="url(#p564973e493)"
           d="m 132.62727,252 h 1.69091 v -56.90173 h -1.69091 z"
           style="fill:#1f77b4"
           id="path83" />
      </g>
      <g
         id="patch_27"
         transform="translate(-18,-33)">
        <path
           clip-path="url(#p564973e493)"
           d="M 136.00909,252 H 137.7 v -56.29851 h -1.69091 z"
           style="fill:#1f77b4"
           id="path86" />
      </g>
      <g
         id="patch_28"
         transform="translate(-18,-33)">
        <path
           clip-path="url(#p564973e493)"
           d="m 139.39091,252 h 1.69091 v -55.7089 h -1.69091 z"
           style="fill:#1f77b4"
           id="path89" />
      </g>
      <g
         id="patch_29"
         transform="translate(-18,-33)">
        <path
           clip-path="url(#p564973e493)"
           d="m 142.77273,252 h 1.69091 v -55.32868 h -1.69091 z"
           style="fill:#1f77b4"
           id="path92" />
      </g>
      <g
         id="patch_30"
         transform="translate(-18,-33)">
        <path
           clip-path="url(#p564973e493)"
           d="m 146.15455,252 h 1.6909 v -53.89873 h -1.6909 z"
           style="fill:#1f77b4"
           id="path95" />
      </g>
      <g
         id="patch_31"
         transform="translate(-18,-33)">
        <path
           clip-path="url(#p564973e493)"
           d="m 149.53636,252 h 1.69091 v -53.71046 h -1.69091 z"
           style="fill:#1f77b4"
           id="path98" />
      </g>
      <g
         id="patch_32"
         transform="translate(-18,-33)">
        <path
           clip-path="url(#p564973e493)"
           d="m 152.91818,252 h 1.69091 v -53.60937 h -1.69091 z"
           style="fill:#1f77b4"
           id="path101" />
      </g>
      <g
         id="patch_33"
         transform="translate(-18,-33)">
        <path
           clip-path="url(#p564973e493)"
           d="m 156.3,252 h 1.69091 V 198.61051 H 156.3 Z"
           style="fill:#1f77b4"
           id="path104" />
      </g>
      <g
         id="patch_34"
         transform="translate(-18,-33)">
        <path
           clip-path="url(#p564973e493)"
           d="m 159.68182,252 h 1.69091 v -53.02061 h -1.69091 z"
           style="fill:#1f77b4"
           id="path107" />
      </g>
      <g
         id="patch_35"
         transform="translate(-18,-33)">
        <path
           clip-path="url(#p564973e493)"
           d="m 163.06364,252 h 1.6909 v -51.48303 h -1.6909 z"
           style="fill:#1f77b4"
           id="path110" />
      </g>
      <g
         id="patch_36"
         transform="translate(-18,-33)">
        <path
           clip-path="url(#p564973e493)"
           d="m 166.44545,252 h 1.69091 v -51.47212 h -1.69091 z"
           style="fill:#1f77b4"
           id="path113" />
      </g>
      <g
         id="patch_37"
         transform="translate(-18,-33)">
        <path
           clip-path="url(#p564973e493)"
           d="m 169.82727,252 h 1.69091 v -51.32191 h -1.69091 z"
           style="fill:#1f77b4"
           id="path116" />
      </g>
      <g
         id="patch_38"
         transform="translate(-18,-33)">
        <path
           clip-path="url(#p564973e493)"
           d="M 173.20909,252 H 174.9 v -50.88989 h -1.69091 z"
           style="fill:#1f77b4"
           id="path119" />
      </g>
      <g
         id="patch_39"
         transform="translate(-18,-33)">
        <path
           clip-path="url(#p564973e493)"
           d="m 176.59091,252 h 1.69091 v -50.62031 h -1.69091 z"
           style="fill:#1f77b4"
           id="path122" />
      </g>
      <g
         id="patch_40"
         transform="translate(-18,-33)">
        <path
           clip-path="url(#p564973e493)"
           d="m 179.97273,252 h 1.69091 v -50.53157 h -1.69091 z"
           style="fill:#1f77b4"
           id="path125" />
      </g>
      <g
         id="patch_41"
         transform="translate(-18,-33)">
        <path
           clip-path="url(#p564973e493)"
           d="m 183.35454,252 h 1.69091 v -50.3643 h -1.69091 z"
           style="fill:#1f77b4"
           id="path128" />
      </g>
      <g
         id="patch_42"
         transform="translate(-18,-33)">
        <path
           clip-path="url(#p564973e493)"
           d="m 186.73636,252 h 1.69091 v -50.30403 h -1.69091 z"
           style="fill:#1f77b4"
           id="path131" />
      </g>
      <g
         id="patch_43"
         transform="translate(-18,-33)">
        <path
           clip-path="url(#p564973e493)"
           d="m 190.11818,252 h 1.69091 v -49.21262 h -1.69091 z"
           style="fill:#1f77b4"
           id="path134" />
      </g>
      <g
         id="patch_44"
         transform="translate(-18,-33)">
        <path
           clip-path="url(#p564973e493)"
           d="m 193.5,252 h 1.69091 V 202.81478 H 193.5 Z"
           style="fill:#1f77b4"
           id="path137" />
      </g>
      <g
         id="patch_45"
         transform="translate(-18,-33)">
        <path
           clip-path="url(#p564973e493)"
           d="m 196.88182,252 h 1.69091 v -49.01602 h -1.69091 z"
           style="fill:#1f77b4"
           id="path140" />
      </g>
      <g
         id="patch_46"
         transform="translate(-18,-33)">
        <path
           clip-path="url(#p564973e493)"
           d="m 200.26364,252 h 1.6909 v -48.2696 h -1.6909 z"
           style="fill:#1f77b4"
           id="path143" />
      </g>
      <g
         id="patch_47"
         transform="translate(-18,-33)">
        <path
           clip-path="url(#p564973e493)"
           d="m 203.64545,252 h 1.69091 v -47.27856 h -1.69091 z"
           style="fill:#1f77b4"
           id="path146" />
      </g>
      <g
         id="patch_48"
         transform="translate(-18,-33)">
        <path
           clip-path="url(#p564973e493)"
           d="m 207.02727,252 h 1.69091 v -46.77536 h -1.69091 z"
           style="fill:#1f77b4"
           id="path149" />
      </g>
      <g
         id="patch_49"
         transform="translate(-18,-33)">
        <path
           clip-path="url(#p564973e493)"
           d="M 210.40909,252 H 212.1 v -46.61335 h -1.69091 z"
           style="fill:#1f77b4"
           id="path152" />
      </g>
      <g
         id="patch_50"
         transform="translate(-18,-33)">
        <path
           clip-path="url(#p564973e493)"
           d="m 213.79091,252 h 1.69091 v -46.20414 h -1.69091 z"
           style="fill:#1f77b4"
           id="path155" />
      </g>
      <g
         id="patch_51"
         transform="translate(-18,-33)">
        <path
           clip-path="url(#p564973e493)"
           d="m 217.17273,252 h 1.69091 v -45.97003 h -1.69091 z"
           style="fill:#1f77b4"
           id="path158" />
      </g>
      <g
         id="patch_52"
         transform="translate(-18,-33)">
        <path
           clip-path="url(#p564973e493)"
           d="m 220.55454,252 h 1.69091 v -45.31992 h -1.69091 z"
           style="fill:#1f77b4"
           id="path161" />
      </g>
      <g
         id="patch_53"
         transform="translate(-18,-33)">
        <path
           clip-path="url(#p564973e493)"
           d="m 223.93636,252 h 1.69091 v -44.67533 h -1.69091 z"
           style="fill:#1f77b4"
           id="path164" />
      </g>
      <g
         id="patch_54"
         transform="translate(-18,-33)">
        <path
           clip-path="url(#p564973e493)"
           d="m 227.31818,252 h 1.69091 v -44.10971 h -1.69091 z"
           style="fill:#1f77b4"
           id="path167" />
      </g>
      <g
         id="patch_55"
         transform="translate(-18,-33)">
        <path
           clip-path="url(#p564973e493)"
           d="m 230.7,252 h 1.69091 V 208.17809 H 230.7 Z"
           style="fill:#1f77b4"
           id="path170" />
      </g>
      <g
         id="patch_56"
         transform="translate(-18,-33)">
        <path
           clip-path="url(#p564973e493)"
           d="m 234.08182,252 h 1.69091 v -42.9727 h -1.69091 z"
           style="fill:#1f77b4"
           id="path173" />
      </g>
      <g
         id="patch_57"
         transform="translate(-18,-33)">
        <path
           clip-path="url(#p564973e493)"
           d="m 237.46364,252 h 1.69091 v -42.71584 h -1.69091 z"
           style="fill:#1f77b4"
           id="path176" />
      </g>
      <g
         id="patch_58"
         transform="translate(-18,-33)">
        <path
           clip-path="url(#p564973e493)"
           d="m 240.84545,252 h 1.69091 v -42.67928 h -1.69091 z"
           style="fill:#1f77b4"
           id="path179" />
      </g>
      <g
         id="patch_59"
         transform="translate(-18,-33)">
        <path
           clip-path="url(#p564973e493)"
           d="m 244.22727,252 h 1.69091 v -42.19138 h -1.69091 z"
           style="fill:#1f77b4"
           id="path182" />
      </g>
      <g
         id="patch_60"
         transform="translate(-18,-33)">
        <path
           clip-path="url(#p564973e493)"
           d="M 247.60909,252 H 249.3 v -41.92187 h -1.69091 z"
           style="fill:#1f77b4"
           id="path185" />
      </g>
      <g
         id="patch_61"
         transform="translate(-18,-33)">
        <path
           clip-path="url(#p564973e493)"
           d="m 250.99091,252 h 1.69091 v -40.90554 h -1.69091 z"
           style="fill:#1f77b4"
           id="path188" />
      </g>
      <g
         id="patch_62"
         transform="translate(-18,-33)">
        <path
           clip-path="url(#p564973e493)"
           d="m 254.37273,252 h 1.69091 v -40.85804 h -1.69091 z"
           style="fill:#1f77b4"
           id="path191" />
      </g>
      <g
         id="patch_63"
         transform="translate(-18,-33)">
        <path
           clip-path="url(#p564973e493)"
           d="m 257.75454,252 h 1.69091 v -39.835 h -1.69091 z"
           style="fill:#1f77b4"
           id="path194" />
      </g>
      <g
         id="patch_64"
         transform="translate(-18,-33)">
        <path
           clip-path="url(#p564973e493)"
           d="m 261.13636,252 h 1.69091 v -38.50616 h -1.69091 z"
           style="fill:#1f77b4"
           id="path197" />
      </g>
      <g
         id="patch_65"
         transform="translate(-18,-33)">
        <path
           clip-path="url(#p564973e493)"
           d="m 264.51818,252 h 1.69091 v -38.397 h -1.69091 z"
           style="fill:#1f77b4"
           id="path200" />
      </g>
      <g
         id="patch_66"
         transform="translate(-18,-33)">
        <path
           clip-path="url(#p564973e493)"
           d="m 267.9,252 h 1.69091 V 213.68493 H 267.9 Z"
           style="fill:#1f77b4"
           id="path203" />
      </g>
      <g
         id="patch_67"
         transform="translate(-18,-33)">
        <path
           clip-path="url(#p564973e493)"
           d="m 271.28182,252 h 1.69091 v -38.2948 h -1.69091 z"
           style="fill:#1f77b4"
           id="path206" />
      </g>
      <g
         id="patch_68"
         transform="translate(-18,-33)">
        <path
           clip-path="url(#p564973e493)"
           d="m 274.66364,252 h 1.6909 v -36.78472 h -1.6909 z"
           style="fill:#1f77b4"
           id="path209" />
      </g>
      <g
         id="patch_69"
         transform="translate(-18,-33)">
        <path
           clip-path="url(#p564973e493)"
           d="m 278.04545,252 h 1.69091 v -36.33472 h -1.69091 z"
           style="fill:#1f77b4"
           id="path212" />
      </g>
      <g
         id="patch_70"
         transform="translate(-18,-33)">
        <path
           clip-path="url(#p564973e493)"
           d="m 281.42727,252 h 1.69091 v -36.26253 h -1.69091 z"
           style="fill:#1f77b4"
           id="path215" />
      </g>
      <g
         id="patch_71"
         transform="translate(-18,-33)">
        <path
           clip-path="url(#p564973e493)"
           d="M 284.80909,252 H 286.5 v -35.50543 h -1.69091 z"
           style="fill:#1f77b4"
           id="path218" />
      </g>
      <g
         id="patch_72"
         transform="translate(-18,-33)">
        <path
           clip-path="url(#p564973e493)"
           d="m 288.19091,252 h 1.69091 v -35.5018 h -1.69091 z"
           style="fill:#1f77b4"
           id="path221" />
      </g>
      <g
         id="patch_73"
         transform="translate(-18,-33)">
        <path
           clip-path="url(#p564973e493)"
           d="m 291.57273,252 h 1.69091 v -34.35352 h -1.69091 z"
           style="fill:#1f77b4"
           id="path224" />
      </g>
      <g
         id="patch_74"
         transform="translate(-18,-33)">
        <path
           clip-path="url(#p564973e493)"
           d="m 294.95454,252 h 1.69092 v -33.87073 h -1.69092 z"
           style="fill:#1f77b4"
           id="path227" />
      </g>
      <g
         id="patch_75"
         transform="translate(-18,-33)">
        <path
           clip-path="url(#p564973e493)"
           d="m 298.33636,252 h 1.69091 v -33.858 h -1.69091 z"
           style="fill:#1f77b4"
           id="path230" />
      </g>
      <g
         id="patch_76"
         transform="translate(-18,-33)">
        <path
           clip-path="url(#p564973e493)"
           d="m 301.71818,252 h 1.69091 v -32.63474 h -1.69091 z"
           style="fill:#1f77b4"
           id="path233" />
      </g>
      <g
         id="patch_77"
         transform="translate(-18,-33)">
        <path
           clip-path="url(#p564973e493)"
           d="m 305.1,252 h 1.69091 V 220.42582 H 305.1 Z"
           style="fill:#1f77b4"
           id="path236" />
      </g>
      <g
         id="patch_78"
         transform="translate(-18,-33)">
        <path
           clip-path="url(#p564973e493)"
           d="m 308.48182,252 h 1.69091 v -30.64887 h -1.69091 z"
           style="fill:#1f77b4"
           id="path239" />
      </g>
      <g
         id="patch_79"
         transform="translate(-18,-33)">
        <path
           clip-path="url(#p564973e493)"
           d="m 311.86364,252 h 1.69091 v -30.37383 h -1.69091 z"
           style="fill:#1f77b4"
           id="path242" />
      </g>
      <g
         id="patch_80"
         transform="translate(-18,-33)">
        <path
           clip-path="url(#p564973e493)"
           d="m 315.24545,252 h 1.69091 v -29.77427 h -1.69091 z"
           style="fill:#1f77b4"
           id="path245" />
      </g>
      <g
         id="patch_81"
         transform="translate(-18,-33)">
        <path
           clip-path="url(#p564973e493)"
           d="m 318.62727,252 h 1.69091 v -29.08956 h -1.69091 z"
           style="fill:#1f77b4"
           id="path248" />
      </g>
      <g
         id="patch_82"
         transform="translate(-18,-33)">
        <path
           clip-path="url(#p564973e493)"
           d="M 322.00909,252 H 323.7 v -28.01463 h -1.69091 z"
           style="fill:#1f77b4"
           id="path251" />
      </g>
      <g
         id="patch_83"
         transform="translate(-18,-33)">
        <path
           clip-path="url(#p564973e493)"
           d="m 325.39091,252 h 1.69091 v -26.69245 h -1.69091 z"
           style="fill:#1f77b4"
           id="path254" />
      </g>
      <g
         id="patch_84"
         transform="translate(-18,-33)">
        <path
           clip-path="url(#p564973e493)"
           d="m 328.77273,252 h 1.69091 v -24.63168 h -1.69091 z"
           style="fill:#1f77b4"
           id="path257" />
      </g>
      <g
         id="patch_85"
         transform="translate(-18,-33)">
        <path
           clip-path="url(#p564973e493)"
           d="m 332.15454,252 h 1.69092 v -24.05341 h -1.69092 z"
           style="fill:#1f77b4"
           id="path260" />
      </g>
      <g
         id="patch_86"
         transform="translate(-18,-33)">
        <path
           clip-path="url(#p564973e493)"
           d="m 335.53636,252 h 1.69091 v -23.65121 h -1.69091 z"
           style="fill:#1f77b4"
           id="path263" />
      </g>
      <g
         id="patch_87"
         transform="translate(-18,-33)">
        <path
           clip-path="url(#p564973e493)"
           d="m 338.91818,252 h 1.69091 v -22.14451 h -1.69091 z"
           style="fill:#1f77b4"
           id="path266" />
      </g>
      <g
         id="patch_88"
         transform="translate(-18,-33)">
        <path
           clip-path="url(#p564973e493)"
           d="m 342.3,252 h 1.69091 V 230.13248 H 342.3 Z"
           style="fill:#1f77b4"
           id="path269" />
      </g>
      <g
         id="patch_89"
         transform="translate(-18,-33)">
        <path
           clip-path="url(#p564973e493)"
           d="m 345.68182,252 h 1.69091 v -20.83261 h -1.69091 z"
           style="fill:#1f77b4"
           id="path272" />
      </g>
      <g
         id="patch_90"
         transform="translate(-18,-33)">
        <path
           clip-path="url(#p564973e493)"
           d="m 349.06364,252 h 1.6909 v -18.45587 h -1.6909 z"
           style="fill:#1f77b4"
           id="path275" />
      </g>
      <g
         id="patch_91"
         transform="translate(-18,-33)">
        <path
           clip-path="url(#p564973e493)"
           d="m 352.44545,252 h 1.69091 v -16.7745 h -1.69091 z"
           style="fill:#1f77b4"
           id="path278" />
      </g>
      <g
         id="patch_92"
         transform="translate(-18,-33)">
        <path
           clip-path="url(#p564973e493)"
           d="m 355.82727,252 h 1.69091 v -16.5598 h -1.69091 z"
           style="fill:#1f77b4"
           id="path281" />
      </g>
      <g
         id="patch_93"
         transform="translate(-18,-33)">
        <path
           clip-path="url(#p564973e493)"
           d="M 359.20909,252 H 360.9 v -13.31056 h -1.69091 z"
           style="fill:#1f77b4"
           id="path284" />
      </g>
      <g
         id="patch_94"
         transform="translate(-18,-33)">
        <path
           clip-path="url(#p564973e493)"
           d="m 362.59091,252 h 1.69091 v -11.86028 h -1.69091 z"
           style="fill:#1f77b4"
           id="path287" />
      </g>
      <g
         id="patch_95"
         transform="translate(-18,-33)">
        <path
           clip-path="url(#p564973e493)"
           d="m 365.97273,252 h 1.69091 v -11.17816 h -1.69091 z"
           style="fill:#1f77b4"
           id="path290" />
      </g>
      <g
         id="patch_96"
         transform="translate(-18,-33)">
        <path
           clip-path="url(#p564973e493)"
           d="m 369.35454,252 h 1.69091 v -11.08366 h -1.69091 z"
           style="fill:#1f77b4"
           id="path293" />
      </g>
      <g
         id="patch_97"
         transform="translate(-18,-33)">
        <path
           clip-path="url(#p564973e493)"
           d="m 372.73636,252 h 1.69091 v -7.66085 h -1.69091 z"
           style="fill:#1f77b4"
           id="path296" />
      </g>
      <g
         id="patch_98"
         transform="translate(-18,-33)">
        <path
           clip-path="url(#p564973e493)"
           d="m 376.11818,252 h 1.69091 v -6.01503 h -1.69091 z"
           style="fill:#1f77b4"
           id="path299" />
      </g>
      <g
         id="patch_99"
         transform="translate(-18,-33)">
        <path
           clip-path="url(#p564973e493)"
           d="m 379.5,252 h 1.69091 v -1.93822 H 379.5 Z"
           style="fill:#1f77b4"
           id="path302" />
      </g>
      <g
         id="patch_100"
         transform="translate(-18,-33)">
        <path
           clip-path="url(#p564973e493)"
           d="m 382.88182,252 h 1.69091 v -1.36074 h -1.69091 z"
           style="fill:#1f77b4"
           id="path305" />
      </g>
      <g
         id="patch_101"
         transform="translate(-18,-33)">
        <path
           clip-path="url(#p564973e493)"
           d="m 386.26364,252 h 1.6909 v -0.0108 h -1.6909 z"
           style="fill:#1f77b4"
           id="path308" />
      </g>
      <g
         id="matplotlib.axis_1" />
      <g
         id="matplotlib.axis_2"
         transform="translate(-18,-33)">
        <g
           id="ytick_1">
          <g
             id="line2d_1">
            <defs
               id="defs313">
              <path
                 d="M 0,0 H -3.5"
                 id="m58f76ffe26"
                 style="stroke:#000000;stroke-width:0.8" />
            </defs>
            <g
               id="g317">
              <use
                 style="stroke:#000000;stroke-width:0.8"
                 x="54"
                 xlink:href="#m58f76ffe26"
                 y="252"
                 id="use315"
                 width="100%"
                 height="100%" />
            </g>
          </g>
          <g
             id="text_1">
            <!-- 0% -->
            <g
               transform="matrix(0.1,0,0,-0.1,31.135937,255.79922)"
               id="g328">
              <defs
                 id="defs322">
                <path
                   d="m 2034,4250 q -487,0 -733,-480 -245,-479 -245,-1442 0,-959 245,-1439 246,-480 733,-480 491,0 736,480 246,480 246,1439 0,963 -246,1442 -245,480 -736,480 z m 0,500 q 785,0 1199,-621 414,-620 414,-1801 0,-1178 -414,-1799 -414,-620 -1199,-620 -784,0 -1198,620 -414,621 -414,1799 0,1181 414,1801 414,621 1198,621 z"
                   id="DejaVuSans-30"
                   transform="scale(0.015625)" />
                <path
                   d="m 4653,2053 q -272,0 -427,-231 -154,-231 -154,-644 0,-406 154,-639 155,-233 427,-233 266,0 420,233 155,233 155,639 0,410 -155,642 -154,233 -420,233 z m 0,397 q 494,0 784,-344 291,-343 291,-928 0,-584 -292,-927 -292,-342 -783,-342 -500,0 -791,342 -290,343 -290,927 0,588 292,930 292,342 789,342 z M 1428,4353 q -269,0 -424,-233 -154,-232 -154,-639 0,-412 153,-644 153,-231 425,-231 272,0 426,231 155,232 155,644 0,403 -156,637 -156,235 -425,235 z m 2822,397 h 500 L 1831,-91 h -500 z m -2822,0 q 494,0 787,-342 294,-342 294,-927 0,-590 -292,-931 -292,-341 -789,-341 -497,0 -786,342 -289,343 -289,930 0,582 290,925 291,344 785,344 z"
                   id="DejaVuSans-25"
                   transform="scale(0.015625)" />
              </defs>
              <use
                 xlink:href="#DejaVuSans-30"
                 id="use324"
                 x="0"
                 y="0"
                 width="100%"
                 height="100%" />
              <use
                 x="63.623047"
                 xlink:href="#DejaVuSans-25"
                 id="use326"
                 y="0"
                 width="100%"
                 height="100%" />
            </g>
          </g>
        </g>
        <g
           id="ytick_2">
          <g
             id="line2d_2">
            <g
               id="g334">
              <use
                 style="stroke:#000000;stroke-width:0.8"
                 x="54"
                 xlink:href="#m58f76ffe26"
                 y="209.60025"
                 id="use332"
                 width="100%"
                 height="100%" />
            </g>
          </g>
          <g
             id="text_2">
            <!-- 20% -->
            <g
               transform="matrix(0.1,0,0,-0.1,24.773438,213.39948)"
               id="g346">
              <defs
                 id="defs338">
                <path
                   d="M 1228,531 H 3431 V 0 H 469 v 531 q 359,372 979,998 621,627 780,809 303,340 423,576 121,236 121,464 0,372 -261,606 -261,235 -680,235 -297,0 -627,-103 -329,-103 -704,-313 v 638 q 381,153 712,231 332,78 607,78 725,0 1156,-363 431,-362 431,-968 0,-288 -108,-546 -107,-257 -392,-607 -78,-91 -497,-524 Q 1991,1309 1228,531 Z"
                   id="DejaVuSans-32"
                   transform="scale(0.015625)" />
              </defs>
              <use
                 xlink:href="#DejaVuSans-32"
                 id="use340"
                 x="0"
                 y="0"
                 width="100%"
                 height="100%" />
              <use
                 x="63.623047"
                 xlink:href="#DejaVuSans-30"
                 id="use342"
                 y="0"
                 width="100%"
                 height="100%" />
              <use
                 x="127.24609"
                 xlink:href="#DejaVuSans-25"
                 id="use344"
                 y="0"
                 width="100%"
                 height="100%" />
            </g>
          </g>
        </g>
        <g
           id="ytick_3">
          <g
             id="line2d_3">
            <g
               id="g352">
              <use
                 style="stroke:#000000;stroke-width:0.8"
                 x="54"
                 xlink:href="#m58f76ffe26"
                 y="167.20052"
                 id="use350"
                 width="100%"
                 height="100%" />
            </g>
          </g>
          <g
             id="text_3">
            <!-- 40% -->
            <g
               transform="matrix(0.1,0,0,-0.1,24.773438,170.99973)"
               id="g364">
              <defs
                 id="defs356">
                <path
                   d="M 2419,4116 825,1625 h 1594 z m -166,550 h 794 V 1625 h 666 V 1100 H 3047 V 0 H 2419 V 1100 H 313 v 609 z"
                   id="DejaVuSans-34"
                   transform="scale(0.015625)" />
              </defs>
              <use
                 xlink:href="#DejaVuSans-34"
                 id="use358"
                 x="0"
                 y="0"
                 width="100%"
                 height="100%" />
              <use
                 x="63.623047"
                 xlink:href="#DejaVuSans-30"
                 id="use360"
                 y="0"
                 width="100%"
                 height="100%" />
              <use
                 x="127.24609"
                 xlink:href="#DejaVuSans-25"
                 id="use362"
                 y="0"
                 width="100%"
                 height="100%" />
            </g>
          </g>
        </g>
        <g
           id="ytick_4">
          <g
             id="line2d_4">
            <g
               id="g370">
              <use
                 style="stroke:#000000;stroke-width:0.8"
                 x="54"
                 xlink:href="#m58f76ffe26"
                 y="124.80077"
                 id="use368"
                 width="100%"
                 height="100%" />
            </g>
          </g>
          <g
             id="text_4">
            <!-- 60% -->
            <g
               transform="matrix(0.1,0,0,-0.1,24.773438,128.59999)"
               id="g382">
              <defs
                 id="defs374">
                <path
                   d="m 2113,2584 q -425,0 -674,-291 -248,-290 -248,-796 0,-503 248,-796 249,-292 674,-292 425,0 673,292 248,293 248,796 0,506 -248,796 -248,291 -673,291 z m 1253,1979 v -575 q -238,112 -480,171 -242,60 -480,60 -625,0 -955,-422 -329,-422 -376,-1275 184,272 462,417 279,145 613,145 703,0 1111,-427 408,-426 408,-1160 0,-719 -425,-1154 -425,-434 -1131,-434 -810,0 -1238,620 -428,621 -428,1799 0,1106 525,1764 525,658 1409,658 238,0 480,-47 242,-47 505,-140 z"
                   id="DejaVuSans-36"
                   transform="scale(0.015625)" />
              </defs>
              <use
                 xlink:href="#DejaVuSans-36"
                 id="use376"
                 x="0"
                 y="0"
                 width="100%"
                 height="100%" />
              <use
                 x="63.623047"
                 xlink:href="#DejaVuSans-30"
                 id="use378"
                 y="0"
                 width="100%"
                 height="100%" />
              <use
                 x="127.24609"
                 xlink:href="#DejaVuSans-25"
                 id="use380"
                 y="0"
                 width="100%"
                 height="100%" />
            </g>
          </g>
        </g>
        <g
           id="ytick_5">
          <g
             id="line2d_5">
            <g
               id="g388">
              <use
                 style="stroke:#000000;stroke-width:0.8"
                 x="54"
                 xlink:href="#m58f76ffe26"
                 y="82.401031"
                 id="use386"
                 width="100%"
                 height="100%" />
            </g>
          </g>
          <g
             id="text_5">
            <!-- 80% -->
            <g
               transform="matrix(0.1,0,0,-0.1,24.773438,86.200246)"
               id="g400">
              <defs
                 id="defs392">
                <path
                   d="m 2034,2216 q -450,0 -708,-241 -257,-241 -257,-662 0,-422 257,-663 258,-241 708,-241 450,0 709,242 260,243 260,662 0,421 -258,662 -257,241 -711,241 z m -631,268 q -406,100 -633,378 -226,279 -226,679 0,559 398,884 399,325 1092,325 697,0 1094,-325 397,-325 397,-884 0,-400 -227,-679 -226,-278 -629,-378 456,-106 710,-416 255,-309 255,-755 Q 3634,634 3220,271 2806,-91 2034,-91 1263,-91 848,271 434,634 434,1313 q 0,446 256,755 257,310 713,416 z m -231,997 q 0,-362 226,-565 227,-203 636,-203 407,0 636,203 230,203 230,565 0,363 -230,566 -229,203 -636,203 -409,0 -636,-203 -226,-203 -226,-566 z"
                   id="DejaVuSans-38"
                   transform="scale(0.015625)" />
              </defs>
              <use
                 xlink:href="#DejaVuSans-38"
                 id="use394"
                 x="0"
                 y="0"
                 width="100%"
                 height="100%" />
              <use
                 x="63.623047"
                 xlink:href="#DejaVuSans-30"
                 id="use396"
                 y="0"
                 width="100%"
                 height="100%" />
              <use
                 x="127.24609"
                 xlink:href="#DejaVuSans-25"
                 id="use398"
                 y="0"
                 width="100%"
                 height="100%" />
            </g>
          </g>
        </g>
        <g
           id="ytick_6">
          <g
             id="line2d_6">
            <g
               id="g406">
              <use
                 style="stroke:#000000;stroke-width:0.8"
                 x="54"
                 xlink:href="#m58f76ffe26"
                 y="40.001286"
                 id="use404"
                 width="100%"
                 height="100%" />
            </g>
          </g>
          <g
             id="text_6">
            <!-- 100% -->
            <g
               transform="matrix(0.1,0,0,-0.1,18.410937,43.800503)"
               id="g420">
              <defs
                 id="defs410">
                <path
                   d="M 794,531 H 1825 V 4091 L 703,3866 v 575 l 1116,225 h 631 V 531 H 3481 V 0 H 794 Z"
                   id="DejaVuSans-31"
                   transform="scale(0.015625)" />
              </defs>
              <use
                 xlink:href="#DejaVuSans-31"
                 id="use412"
                 x="0"
                 y="0"
                 width="100%"
                 height="100%" />
              <use
                 x="63.623047"
                 xlink:href="#DejaVuSans-30"
                 id="use414"
                 y="0"
                 width="100%"
                 height="100%" />
              <use
                 x="127.24609"
                 xlink:href="#DejaVuSans-30"
                 id="use416"
                 y="0"
                 width="100%"
                 height="100%" />
              <use
                 x="190.86914"
                 xlink:href="#DejaVuSans-25"
                 id="use418"
                 y="0"
                 width="100%"
                 height="100%" />
            </g>
          </g>
        </g>
      </g>
      <g
         id="line2d_7"
         transform="translate(-18,-33)">
        <path
           clip-path="url(#p564973e493)"
           d="M 54,205.88007 H 388.8"
           style="fill:none;stroke:#ff0000;stroke-width:1.5;stroke-linecap:square"
           id="path425" />
      </g>
      <g
         id="patch_102"
         transform="translate(-18,-33)">
        <path
           d="M 54,252 V 34.56"
           style="fill:none;stroke:#000000;stroke-width:0.8;stroke-linecap:square;stroke-linejoin:miter"
           id="path428" />
      </g>
      <g
         id="patch_104"
         transform="translate(-18,-33)">
        <path
           d="M 54,252 H 388.8"
           style="fill:none;stroke:#000000;stroke-width:0.8;stroke-linecap:square;stroke-linejoin:miter"
           id="path434" />
      </g>
    </g>
  </g>
  <defs
     id="defs445">
    <clipPath
       id="p564973e493">
      <rect
         height="217.44"
         width="334.79999"
         x="54"
         y="34.560001"
         id="rect442" />
    </clipPath>
  </defs>
</svg>
