<svg width="1803" height="1029" xmlns="http://www.w3.org/2000/svg" xmlns:xlink="http://www.w3.org/1999/xlink" xml:space="preserve" overflow="hidden"><g transform="translate(-1247 -772)"><path d="M1518.01 1682.06 1502.01 1682.06" stroke="#000000" stroke-width="3.66919" stroke-linejoin="round" stroke-miterlimit="10" fill="none" fill-rule="evenodd"/><path d="M10.7731 30.6116C8.45755 30.6116 6.7149 29.4547 5.54547 27.1413 4.3807 24.8326 3.79814 21.3572 3.79814 16.7158 3.79814 12.0933 4.3807 8.62556 5.54547 6.31177 6.7149 3.99835 8.45755 2.84146 10.7731 2.84146 13.1076 2.84146 14.8571 3.99835 16.0222 6.31177 17.1917 8.62556 17.7764 12.0933 17.7764 16.7158 17.7764 21.3572 17.1917 24.8326 16.0222 27.1413 14.8571 29.4547 13.1076 30.6116 10.7731 30.6116ZM10.7731 34.2264C14.5055 34.2264 17.3558 32.73 19.324 29.7367 21.2926 26.7483 22.2767 22.4082 22.2767 16.7158 22.2767 11.038 21.2926 6.70226 19.324 3.70904 17.3558 0.720919 14.5055-0.773323 10.7731-0.773323 7.04533-0.773323 4.19753 0.720919 2.22896 3.70904 0.260752 6.70226-0.723353 11.038-0.723353 16.7158-0.723353 22.4082 0.260752 26.7483 2.22896 29.7367 4.19753 32.73 7.04533 34.2264 10.7731 34.2264Z" fill-rule="evenodd" transform="matrix(1 0 0 -1 1416 1700)"/><path d="M29.3275 14.7274C28.0457 14.7274 27.0392 14.1709 26.3086 13.0573 25.583 11.9441 25.2199 10.392 25.2199 8.40138 25.2199 6.4446 25.583 4.90451 26.3086 3.78146 27.0392 2.65841 28.0457 2.09689 29.3275 2.09689 30.5811 2.09689 31.5708 2.65841 32.2968 3.78146 33.0274 4.90451 33.3927 6.4446 33.3927 8.40138 33.3927 10.3775 33.0274 11.9248 32.2968 13.0428 31.5708 14.1658 30.5811 14.7274 29.3275 14.7274ZM29.3275 17.5979C31.6559 17.5979 33.5034 16.7686 34.8702 15.1106 36.2417 13.4573 36.9274 11.221 36.9274 8.40138 36.9274 5.58649 36.2396 3.3524 34.8631 1.69913 33.487 0.0509484 31.6417-0.773323 29.3275-0.773323 26.9709-0.773323 25.107 0.0509484 23.7352 1.69913 22.3684 3.3524 21.6851 5.58649 21.6851 8.40138 21.6851 11.2356 22.3734 13.4766 23.7494 15.1251 25.1259 16.7737 26.9851 17.5979 29.3275 17.5979ZM6.52758 31.3562C5.25973 31.3562 4.26034 30.7946 3.52975 29.6716 2.80415 28.5533 2.44099 27.0135 2.44099 25.0517 2.44099 23.0658 2.80165 21.514 3.52298 20.3957 4.24396 19.2825 5.24549 18.7257 6.52758 18.7257 7.80931 18.7257 8.81333 19.2825 9.53929 20.3957 10.2699 21.514 10.6352 23.0658 10.6352 25.0517 10.6352 26.9943 10.2674 28.5293 9.53217 29.657 8.79696 30.7899 7.79542 31.3562 6.52758 31.3562ZM26.4785 34.2264 30.0132 34.2264 9.37658-0.773323 5.84185-0.773323ZM6.52758 34.2264C8.8557 34.2264 10.7103 33.4021 12.0914 31.7539 13.4771 30.1054 14.1699 27.8713 14.1699 25.0517 14.1699 22.208 13.4817 19.9645 12.1056 18.3207 10.7292 16.6772 8.86994 15.8555 6.52758 15.8555 4.18521 15.8555 2.33275 16.6798 0.970556 18.3279-0.39164 19.9812-1.07238 22.2226-1.07238 25.0517-1.07238 27.8571-0.389148 30.0861 0.977677 31.7394 2.34913 33.3974 4.1991 34.2264 6.52758 34.2264Z" fill-rule="evenodd" transform="matrix(1 0 0 -1 1445 1700)"/><path d="M1518.01 1503.06 1502.01 1503.06" stroke="#000000" stroke-width="3.66919" stroke-linejoin="round" stroke-miterlimit="10" fill="none" fill-rule="evenodd"/><path d="M4.68979 3.09325 20.3087 3.09325 20.3087-0.819674-0.691239-0.819674-0.691239 3.09325C1.00544 4.92064 3.31909 7.37187 6.24972 10.4469 9.18463 13.5268 11.0281 15.5141 11.7796 16.4079 13.2117 18.0781 14.2115 19.493 14.7785 20.6521 15.3504 21.8115 15.6364 22.9512 15.6364 24.0713 15.6364 25.8987 15.0198 27.3871 13.7859 28.5365 12.5523 29.6907 10.9452 30.2682 8.96505 30.2682 7.56115 30.2682 6.07941 30.0153 4.51948 29.509 2.96455 29.0031 1.30072 28.2342-0.471657 27.2028L-0.471657 31.9039C1.32928 32.6553 3.01203 33.2227 4.57625 33.6059 6.14546 33.989 7.58007 34.1808 8.87971 34.1808 12.3066 34.1808 15.0387 33.2891 17.0757 31.5059 19.113 29.7278 20.1313 27.35 20.1313 24.3732 20.1313 22.9587 19.876 21.6175 19.3658 20.3502 18.8598 19.0876 17.9337 17.5967 16.5865 15.8776 16.2177 15.4303 15.0434 14.1433 13.0629 12.0162 11.087 9.88949 8.2963 6.91493 4.68979 3.09325Z" fill-rule="evenodd" transform="matrix(1 0 0 -1 1387 1521)"/><path d="M10.7731 30.5977C8.45755 30.5977 6.7149 29.4408 5.54547 27.1274 4.3807 24.8187 3.79814 21.3432 3.79814 16.7018 3.79814 12.0793 4.3807 8.61145 5.54547 6.29801 6.7149 3.9842 8.45755 2.8273 10.7731 2.8273 13.1076 2.8273 14.8571 3.9842 16.0222 6.29801 17.1917 8.61145 17.7764 12.0793 17.7764 16.7018 17.7764 21.3432 17.1917 24.8187 16.0222 27.1274 14.8571 29.4408 13.1076 30.5977 10.7731 30.5977ZM10.7731 34.2125C14.5055 34.2125 17.3558 32.7161 19.324 29.7229 21.2926 26.7343 22.2767 22.3942 22.2767 16.7018 22.2767 11.0239 21.2926 6.68813 19.324 3.69489 17.3558 0.706734 14.5055-0.787524 10.7731-0.787524 7.04533-0.787524 4.19753 0.706734 2.22896 3.69489 0.260752 6.68813-0.723353 11.0239-0.723353 16.7018-0.723353 22.3942 0.260752 26.7343 2.22896 29.7229 4.19753 32.7161 7.04533 34.2125 10.7731 34.2125Z" fill-rule="evenodd" transform="matrix(1 0 0 -1 1416 1521)"/><path d="M29.3275 14.7137C28.0457 14.7137 27.0392 14.1569 26.3086 13.0433 25.583 11.93 25.2199 10.3779 25.2199 8.38728 25.2199 6.43048 25.583 4.89037 26.3086 3.76731 27.0392 2.64425 28.0457 2.08272 29.3275 2.08272 30.5811 2.08272 31.5708 2.64425 32.2968 3.76731 33.0274 4.89037 33.3927 6.43048 33.3927 8.38728 33.3927 10.3634 33.0274 11.9108 32.2968 13.0291 31.5708 14.1518 30.5811 14.7137 29.3275 14.7137ZM29.3275 17.5839C31.6559 17.5839 33.5034 16.7549 34.8702 15.0965 36.2417 13.4436 36.9274 11.2069 36.9274 8.38728 36.9274 5.57235 36.2396 3.33824 34.8631 1.68495 33.487 0.036756 31.6417-0.787524 29.3275-0.787524 26.9709-0.787524 25.107 0.036756 23.7352 1.68495 22.3684 3.33824 21.6851 5.57235 21.6851 8.38728 21.6851 11.2215 22.3734 13.4629 23.7494 15.1111 25.1259 16.7596 26.9851 17.5839 29.3275 17.5839ZM6.52758 31.3423C5.25973 31.3423 4.26034 30.7808 3.52975 29.6577 2.80415 28.5394 2.44099 26.9996 2.44099 25.0377 2.44099 23.0522 2.80165 21.5001 3.52298 20.3817 4.24396 19.2685 5.24549 18.7117 6.52758 18.7117 7.80931 18.7117 8.81333 19.2685 9.53929 20.3817 10.2699 21.5001 10.6352 23.0522 10.6352 25.0377 10.6352 26.9803 10.2674 28.5154 9.53217 29.6435 8.79696 30.776 7.79542 31.3423 6.52758 31.3423ZM26.4785 34.2125 30.0132 34.2125 9.37658-0.787524 5.84185-0.787524ZM6.52758 34.2125C8.8557 34.2125 10.7103 33.3886 12.0914 31.7401 13.4771 30.0915 14.1699 27.8574 14.1699 25.0377 14.1699 22.1941 13.4817 19.9505 12.1056 18.3067 10.7292 16.6632 8.86994 15.8415 6.52758 15.8415 4.18521 15.8415 2.33275 16.6657 0.970556 18.3139-0.39164 19.9672-1.07238 22.2086-1.07238 25.0377-1.07238 27.8432-0.389148 30.0722 0.977677 31.7255 2.34913 33.3835 4.1991 34.2125 6.52758 34.2125Z" fill-rule="evenodd" transform="matrix(1 0 0 -1 1445 1521)"/><path d="M1518.01 1324.05 1502.01 1324.05" stroke="#000000" stroke-width="3.66919" stroke-linejoin="round" stroke-miterlimit="10" fill="none" fill-rule="evenodd"/><path d="M14.1552 29.1831 2.90327 11.0317 14.1552 11.0317ZM12.9835 33.1909 18.5881 33.1909 18.5881 11.0317 23.2894 11.0317 23.2894 7.20618 18.5881 7.20618 18.5881-0.809123 14.1552-0.809123 14.1552 7.20618-0.710621 7.20618-0.710621 11.6439Z" fill-rule="evenodd" transform="matrix(1 0 0 -1 1386 1342)"/><path d="M10.7731 29.7097C8.45755 29.7097 6.7149 28.5858 5.54547 26.3385 4.3807 24.0957 3.79814 20.7196 3.79814 16.2108 3.79814 11.7203 4.3807 8.35162 5.54547 6.10427 6.7149 3.85658 8.45755 2.73308 10.7731 2.73308 13.1076 2.73308 14.8571 3.85658 16.0222 6.10427 17.1917 8.35162 17.7764 11.7203 17.7764 16.2108 17.7764 20.7196 17.1917 24.0957 16.0222 26.3385 14.8571 28.5858 13.1076 29.7097 10.7731 29.7097ZM10.7731 33.2212C14.5055 33.2212 17.3558 31.7675 19.324 28.8598 21.2926 25.957 22.2767 21.7406 22.2767 16.2108 22.2767 10.6951 21.2926 6.48325 19.324 3.57588 17.3558 0.672753 14.5055-0.77881 10.7731-0.77881 7.04533-0.77881 4.19753 0.672753 2.22896 3.57588 0.260752 6.48325-0.723353 10.6951-0.723353 16.2108-0.723353 21.7406 0.260752 25.957 2.22896 28.8598 4.19753 31.7675 7.04533 33.2212 10.7731 33.2212Z" fill-rule="evenodd" transform="matrix(1 0 0 -1 1416 1342)"/><path d="M29.3275 14.2795C28.0457 14.2795 27.0392 13.7386 26.3086 12.6568 25.583 11.5754 25.2199 10.0676 25.2199 8.13385 25.2199 6.23296 25.583 4.73685 26.3086 3.64588 27.0392 2.55491 28.0457 2.00942 29.3275 2.00942 30.5811 2.00942 31.5708 2.55491 32.2968 3.64588 33.0274 4.73685 33.3927 6.23296 33.3927 8.13385 33.3927 10.0535 33.0274 11.5567 32.2968 12.643 31.5708 13.734 30.5811 14.2795 29.3275 14.2795ZM29.3275 17.0677C31.6559 17.0677 33.5034 16.2624 34.8702 14.6517 36.2417 13.0457 36.9274 10.8729 36.9274 8.13385 36.9274 5.39935 36.2396 3.22908 34.8631 1.62338 33.487 0.0219184 31.6417-0.77881 29.3275-0.77881 26.9709-0.77881 25.107 0.0219184 23.7352 1.62338 22.3684 3.22908 21.6851 5.39935 21.6851 8.13385 21.6851 10.8871 22.3734 13.0644 23.7494 14.6655 25.1259 16.267 26.9851 17.0677 29.3275 17.0677ZM6.52758 30.433C5.25973 30.433 4.26034 29.8875 3.52975 28.7965 2.80415 27.7102 2.44099 26.2144 2.44099 24.3086 2.44099 22.3797 2.80165 20.872 3.52298 19.7856 4.24396 18.7042 5.24549 18.1633 6.52758 18.1633 7.80931 18.1633 8.81333 18.7042 9.53929 19.7856 10.2699 20.872 10.6352 22.3797 10.6352 24.3086 10.6352 26.1957 10.2674 27.6868 9.53217 28.7827 8.79696 29.8829 7.79542 30.433 6.52758 30.433ZM26.4785 33.2212 30.0132 33.2212 9.37658-0.77881 5.84185-0.77881ZM6.52758 33.2212C8.8557 33.2212 10.7103 32.4208 12.0914 30.8194 13.4771 29.2179 14.1699 27.0477 14.1699 24.3086 14.1699 21.5461 13.4817 19.3667 12.1056 17.7698 10.7292 16.1733 8.86994 15.3751 6.52758 15.3751 4.18521 15.3751 2.33275 16.1758 0.970556 17.7769-0.39164 19.3829-1.07238 21.5603-1.07238 24.3086-1.07238 27.0339-0.389148 29.1992 0.977677 30.8053 2.34913 32.4159 4.1991 33.2212 6.52758 33.2212Z" fill-rule="evenodd" transform="matrix(1 0 0 -1 1445 1342)"/><path d="M1518.01 1146.03 1502.01 1146.03" stroke="#000000" stroke-width="3.66919" stroke-linejoin="round" stroke-miterlimit="10" fill="none" fill-rule="evenodd"/><path d="M11.1578 18.5243C9.13523 18.5243 7.53151 17.823 6.3466 16.4205 5.16636 15.0226 4.57606 13.1041 4.57606 10.6654 4.57606 8.24098 5.16636 6.32239 6.3466 4.91038 7.53151 3.50274 9.13523 2.79928 11.1578 2.79928 13.1803 2.79928 14.7819 3.50274 15.9621 4.91038 17.1424 6.32239 17.7327 8.24098 17.7327 10.6654 17.7327 13.1041 17.1424 15.0226 15.9621 16.4205 14.7819 17.823 13.1803 18.5243 11.1578 18.5243ZM20.1025 32.8322 20.1025 28.6751C18.9697 29.2148 17.8276 29.6271 16.6761 29.9114 15.5243 30.2007 14.3821 30.3452 13.2493 30.3452 10.2752 30.3452 8.00281 29.328 6.43216 27.294 4.86654 25.2601 3.97175 22.1875 3.74814 18.0759 4.62388 19.3871 5.72323 20.3919 7.04618 21.091 8.37381 21.7897 9.83266 22.1391 11.422 22.1391 14.7675 22.1391 17.4113 21.1103 19.3529 19.052 21.2946 16.9987 22.2656 14.2031 22.2656 10.6654 22.2656 7.19981 21.2543 4.41872 19.2318 2.32181 17.2089 0.229998 14.5177-0.81591 11.1578-0.81591 7.30322-0.81591 4.35713 0.678348 2.32057 3.66686 0.283645 6.65975-0.734816 10.9955-0.734816 16.6734-0.734816 22.0041 0.514443 26.2554 3.01296 29.427 5.51148 32.5986 8.86417 34.1842 13.071 34.1842 14.2038 34.1842 15.3459 34.071 16.4974 33.8446 17.6492 33.6179 18.8511 33.2805 20.1025 32.8322Z" fill-rule="evenodd" transform="matrix(1 0 0 -1 1387 1164)"/><path d="M10.7731 30.5693C8.45755 30.5693 6.7149 29.4124 5.54547 27.099 4.3807 24.7903 3.79814 21.3148 3.79814 16.6734 3.79814 12.0512 4.3807 8.58307 5.54547 6.26962 6.7149 3.95582 8.45755 2.79928 10.7731 2.79928 13.1076 2.79928 14.8571 3.95582 16.0222 6.26962 17.1917 8.58307 17.7764 12.0512 17.7764 16.6734 17.7764 21.3148 17.1917 24.7903 16.0222 27.099 14.8571 29.4124 13.1076 30.5693 10.7731 30.5693ZM10.7731 34.1842C14.5055 34.1842 17.3558 32.6877 19.324 29.6945 21.2926 26.7063 22.2767 22.3658 22.2767 16.6734 22.2767 10.9955 21.2926 6.65975 19.324 3.66686 17.3558 0.678348 14.5055-0.81591 10.7731-0.81591 7.04533-0.81591 4.19753 0.678348 2.22896 3.66686 0.260752 6.65975-0.723353 10.9955-0.723353 16.6734-0.723353 22.3658 0.260752 26.7063 2.22896 29.6945 4.19753 32.6877 7.04533 34.1842 10.7731 34.1842Z" fill-rule="evenodd" transform="matrix(1 0 0 -1 1416 1164)"/><path d="M29.3275 14.6853C28.0457 14.6853 27.0392 14.1285 26.3086 13.0149 25.583 11.9017 25.2199 10.3495 25.2199 8.35889 25.2199 6.40209 25.583 4.86198 26.3086 3.73892 27.0392 2.61586 28.0457 2.05433 29.3275 2.05433 30.5811 2.05433 31.5708 2.61586 32.2968 3.73892 33.0274 4.86198 33.3927 6.40209 33.3927 8.35889 33.3927 10.335 33.0274 11.8824 32.2968 13.0007 31.5708 14.1238 30.5811 14.6853 29.3275 14.6853ZM29.3275 17.5555C31.6559 17.5555 33.5034 16.7265 34.8702 15.0685 36.2417 13.4152 36.9274 11.1785 36.9274 8.35889 36.9274 5.54397 36.2396 3.30986 34.8631 1.65693 33.487 0.00837017 31.6417-0.81591 29.3275-0.81591 26.9709-0.81591 25.107 0.00837017 23.7352 1.65693 22.3684 3.30986 21.6851 5.54397 21.6851 8.35889 21.6851 11.1931 22.3734 13.4345 23.7494 15.0827 25.1259 16.7313 26.9851 17.5555 29.3275 17.5555ZM6.52758 31.3139C5.25973 31.3139 4.26034 30.7524 3.52975 29.6293 2.80415 28.5114 2.44099 26.9712 2.44099 25.0094 2.44099 23.0238 2.80165 21.4717 3.52298 20.3534 4.24396 19.2401 5.24549 18.6833 6.52758 18.6833 7.80931 18.6833 8.81333 19.2401 9.53929 20.3534 10.2699 21.4717 10.6352 23.0238 10.6352 25.0094 10.6352 26.952 10.2674 28.487 9.53217 29.6151 8.79696 30.7477 7.79542 31.3139 6.52758 31.3139ZM26.4785 34.1842 30.0132 34.1842 9.37658-0.81591 5.84185-0.81591ZM6.52758 34.1842C8.8557 34.1842 10.7103 33.3602 12.0914 31.7117 13.4771 30.0631 14.1699 27.8294 14.1699 25.0094 14.1699 22.1657 13.4817 19.9221 12.1056 18.2783 10.7292 16.6348 8.86994 15.8131 6.52758 15.8131 4.18521 15.8131 2.33275 16.6374 0.970556 18.2856-0.39164 19.9388-1.07238 22.1802-1.07238 25.0094-1.07238 27.8148-0.389148 30.0438 0.977677 31.6971 2.34913 33.3551 4.1991 34.1842 6.52758 34.1842Z" fill-rule="evenodd" transform="matrix(1 0 0 -1 1445 1164)"/><path d="M1518.01 967.019 1502.01 967.019" stroke="#000000" stroke-width="3.66919" stroke-linejoin="round" stroke-miterlimit="10" fill="none" fill-rule="evenodd"/><path d="M10.7688 15.8493C8.61261 15.8493 6.91608 15.2685 5.67997 14.1069 4.44856 12.9453 3.83286 11.3498 3.83286 9.32064 3.83286 7.28671 4.44856 5.68875 5.67997 4.52749 6.91608 3.36587 8.61261 2.78506 10.7688 2.78506 12.9251 2.78506 14.6238 3.36805 15.8646 4.5344 17.1105 5.70585 17.7334 7.30126 17.7334 9.32064 17.7334 11.3498 17.1152 12.9453 15.8791 14.1069 14.6477 15.2685 12.9443 15.8493 10.7688 15.8493ZM6.23341 17.7868C4.28785 18.269 2.77157 19.1799 1.68387 20.5198 0.600863 21.8645 0.0593624 23.501 0.0593624 25.4291 0.0593624 28.1231 1.01278 30.2535 2.91998 31.8202 4.83188 33.3865 7.44817 34.1696 10.7688 34.1696 14.1087 34.1696 16.7297 33.3865 18.6318 31.8202 20.5343 30.2535 21.4852 28.1231 21.4852 25.4291 21.4852 23.501 20.9415 21.8645 19.8538 20.5198 18.7708 19.1799 17.264 18.269 15.3329 17.7868 17.5177 17.2759 19.2189 16.2736 20.4359 14.7794 21.6579 13.2899 22.2689 11.4703 22.2689 9.32064 22.2689 6.04793 21.2771 3.53691 19.2931 1.7872 17.3096 0.0422144 14.4681-0.830094 10.7688-0.830094 7.07426-0.830094 4.23283 0.0422144 2.24419 1.7872 0.260615 3.53691-0.731171 6.04793-0.731171 9.32064-0.731171 11.4703-0.118001 13.2899 1.1087 14.7794 2.34011 16.2736 4.04859 17.2759 6.23341 17.7868ZM4.57308 24.9949C4.57308 23.2503 5.11458 21.8885 6.19758 20.9103 7.28529 19.9317 8.8088 19.4426 10.7688 19.4426 12.7191 19.4426 14.2426 19.9317 15.3401 20.9103 16.4419 21.8885 16.9932 23.2503 16.9932 24.9949 16.9932 26.7446 16.4419 28.1089 15.3401 29.0871 14.2426 30.0657 12.7191 30.5548 10.7688 30.5548 8.8088 30.5548 7.28529 30.0657 6.19758 29.0871 5.11458 28.1089 4.57308 26.7446 4.57308 24.9949Z" fill-rule="evenodd" transform="matrix(1 0 0 -1 1387 985)"/><path d="M10.7731 30.5548C8.45755 30.5548 6.7149 29.3979 5.54547 27.0845 4.3807 24.7758 3.79814 21.3008 3.79814 16.659 3.79814 12.0369 4.3807 8.56879 5.54547 6.25537 6.7149 3.94158 8.45755 2.78506 10.7731 2.78506 13.1076 2.78506 14.8571 3.94158 16.0222 6.25537 17.1917 8.56879 17.7764 12.0369 17.7764 16.659 17.7764 21.3008 17.1917 24.7758 16.0222 27.0845 14.8571 29.3979 13.1076 30.5548 10.7731 30.5548ZM10.7731 34.1696C14.5055 34.1696 17.3558 32.6732 19.324 29.68 21.2926 26.6918 22.2767 22.3514 22.2767 16.659 22.2767 10.9812 21.2926 6.64549 19.324 3.65263 17.3558 0.664148 14.5055-0.830094 10.7731-0.830094 7.04533-0.830094 4.19753 0.664148 2.22896 3.65263 0.260752 6.64549-0.723353 10.9812-0.723353 16.659-0.723353 22.3514 0.260752 26.6918 2.22896 29.68 4.19753 32.6732 7.04533 34.1696 10.7731 34.1696Z" fill-rule="evenodd" transform="matrix(1 0 0 -1 1416 985)"/><path d="M29.3275 14.6709C28.0457 14.6709 27.0392 14.1142 26.3086 13.0006 25.583 11.8873 25.2199 10.3352 25.2199 8.34461 25.2199 6.38783 25.583 4.84774 26.3086 3.72469 27.0392 2.60164 28.0457 2.04012 29.3275 2.04012 30.5811 2.04012 31.5708 2.60164 32.2968 3.72469 33.0274 4.84774 33.3927 6.38783 33.3927 8.34461 33.3927 10.3207 33.0274 11.8681 32.2968 12.9864 31.5708 14.1094 30.5811 14.6709 29.3275 14.6709ZM29.3275 17.5412C31.6559 17.5412 33.5034 16.7122 34.8702 15.0541 36.2417 13.4009 36.9274 11.1642 36.9274 8.34461 36.9274 5.52972 36.2396 3.29599 34.8631 1.64272 33.487-0.00582267 31.6417-0.830094 29.3275-0.830094 26.9709-0.830094 25.107-0.00582267 23.7352 1.64272 22.3684 3.29599 21.6851 5.52972 21.6851 8.34461 21.6851 11.1788 22.3734 13.4202 23.7494 15.0683 25.1259 16.7169 26.9851 17.5412 29.3275 17.5412ZM6.52758 31.2994C5.25973 31.2994 4.26034 30.7379 3.52975 29.6148 2.80415 28.4969 2.44099 26.9568 2.44099 24.9949 2.44099 23.0094 2.80165 21.4573 3.52298 20.339 4.24396 19.2257 5.24549 18.6689 6.52758 18.6689 7.80931 18.6689 8.81333 19.2257 9.53929 20.339 10.2699 21.4573 10.6352 23.0094 10.6352 24.9949 10.6352 26.9375 10.2674 28.4725 9.53217 29.6006 8.79696 30.7331 7.79542 31.2994 6.52758 31.2994ZM26.4785 34.1696 30.0132 34.1696 9.37658-0.830094 5.84185-0.830094ZM6.52758 34.1696C8.8557 34.1696 10.7103 33.3457 12.0914 31.6972 13.4771 30.0486 14.1699 27.8149 14.1699 24.9949 14.1699 22.1513 13.4817 19.9077 12.1056 18.2639 10.7292 16.6204 8.86994 15.7987 6.52758 15.7987 4.18521 15.7987 2.33275 16.623 0.970556 18.2712-0.39164 19.9244-1.07238 22.1658-1.07238 24.9949-1.07238 27.8003-0.389148 30.0293 0.977677 31.6826 2.34913 33.3406 4.1991 34.1696 6.52758 34.1696Z" fill-rule="evenodd" transform="matrix(1 0 0 -1 1445 985)"/><path d="M1518.01 788.004 1502.01 788.004" stroke="#000000" stroke-width="3.66919" stroke-linejoin="round" stroke-miterlimit="10" fill="none" fill-rule="evenodd"/><path d="M-0.100796 3.01716 7.32218 3.01716 7.32218 28.9582-0.755966 27.3187-0.755966 31.5085 7.27903 33.148 11.8217 33.148 11.8217 3.01716 19.2447 3.01716 19.2447-0.852036-0.100796-0.852036Z" fill-rule="evenodd" transform="matrix(1 0 0 -1 1360 806)"/><path d="M10.7709 29.6683C8.4554 29.6683 6.71274 28.5445 5.54295 26.2971 4.37819 24.0544 3.79599 20.6786 3.79599 16.1694 3.79599 11.6793 4.37819 8.31026 5.54295 6.06291 6.71274 3.81522 8.4554 2.69172 10.7709 2.69172 13.1051 2.69172 14.855 3.81522 16.0197 6.06291 17.1895 8.31026 17.7742 11.6793 17.7742 16.1694 17.7742 20.6786 17.1895 24.0544 16.0197 26.2971 14.855 28.5445 13.1051 29.6683 10.7709 29.6683ZM10.7709 33.1802C14.503 33.1802 17.3533 31.7262 19.3219 28.8185 21.2904 25.9157 22.2745 21.6992 22.2745 16.1694 22.2745 10.6538 21.2904 6.44224 19.3219 3.53452 17.3533 0.631391 14.503-0.820172 10.7709-0.820172 7.04317-0.820172 4.19537 0.631391 2.22681 3.53452 0.258238 6.44224-0.725867 10.6538-0.725867 16.1694-0.725867 21.6992 0.258238 25.9157 2.22681 28.8185 4.19537 31.7262 7.04317 33.1802 10.7709 33.1802Z" fill-rule="evenodd" transform="matrix(1 0 0 -1 1387 806)"/><path d="M10.7731 29.6683C8.45755 29.6683 6.7149 28.5445 5.54547 26.2971 4.3807 24.0544 3.79814 20.6786 3.79814 16.1694 3.79814 11.6793 4.3807 8.31026 5.54547 6.06291 6.7149 3.81522 8.45755 2.69172 10.7731 2.69172 13.1076 2.69172 14.8571 3.81522 16.0222 6.06291 17.1917 8.31026 17.7764 11.6793 17.7764 16.1694 17.7764 20.6786 17.1917 24.0544 16.0222 26.2971 14.8571 28.5445 13.1076 29.6683 10.7731 29.6683ZM10.7731 33.1802C14.5055 33.1802 17.3558 31.7262 19.324 28.8185 21.2926 25.9157 22.2767 21.6992 22.2767 16.1694 22.2767 10.6538 21.2926 6.44224 19.324 3.53452 17.3558 0.631391 14.5055-0.820172 10.7731-0.820172 7.04533-0.820172 4.19753 0.631391 2.22896 3.53452 0.260752 6.44224-0.723353 10.6538-0.723353 16.1694-0.723353 21.6992 0.260752 25.9157 2.22896 28.8185 4.19753 31.7262 7.04533 33.1802 10.7731 33.1802Z" fill-rule="evenodd" transform="matrix(1 0 0 -1 1416 806)"/><path d="M29.3275 14.2381C28.0457 14.2381 27.0392 13.6972 26.3086 12.6155 25.583 11.534 25.2199 10.0263 25.2199 8.09249 25.2199 6.19159 25.583 4.69549 26.3086 3.60452 27.0392 2.51355 28.0457 1.96806 29.3275 1.96806 30.5811 1.96806 31.5708 2.51355 32.2968 3.60452 33.0274 4.69549 33.3927 6.19159 33.3927 8.09249 33.3927 10.0121 33.0274 11.5153 32.2968 12.6017 31.5708 13.6926 30.5811 14.2381 29.3275 14.2381ZM29.3275 17.0264C31.6559 17.0264 33.5034 16.221 34.8702 14.6104 36.2417 13.0043 36.9274 10.8316 36.9274 8.09249 36.9274 5.35799 36.2396 3.18807 34.8631 1.58201 33.487-0.0194437 31.6417-0.820172 29.3275-0.820172 26.9709-0.820172 25.107-0.0194437 23.7352 1.58201 22.3684 3.18807 21.6851 5.35799 21.6851 8.09249 21.6851 10.8457 22.3734 13.0231 23.7494 14.6242 25.1259 16.2256 26.9851 17.0264 29.3275 17.0264ZM6.52758 30.3916C5.25973 30.3916 4.26034 29.8461 3.52975 28.7552 2.80415 27.6692 2.44099 26.173 2.44099 24.2676 2.44099 22.3384 2.80165 20.8306 3.52298 19.7442 4.24396 18.6628 5.24549 18.1219 6.52758 18.1219 7.80931 18.1219 8.81333 18.6628 9.53929 19.7442 10.2699 20.8306 10.6352 22.3384 10.6352 24.2676 10.6352 26.1543 10.2674 27.6455 9.53217 28.7414 8.79696 29.8415 7.79542 30.3916 6.52758 30.3916ZM26.4785 33.1802 30.0132 33.1802 9.37658-0.820172 5.84185-0.820172ZM6.52758 33.1802C8.8557 33.1802 10.7103 32.3795 12.0914 30.778 13.4771 29.1766 14.1699 27.0066 14.1699 24.2676 14.1699 21.5048 13.4817 19.3253 12.1056 17.7288 10.7292 16.1319 8.86994 15.3337 6.52758 15.3337 4.18521 15.3337 2.33275 16.1344 0.970556 17.7355-0.39164 19.3416-1.07238 21.5189-1.07238 24.2676-1.07238 26.9925-0.389148 29.1578 0.977677 30.7639 2.34913 32.3745 4.1991 33.1802 6.52758 33.1802Z" fill-rule="evenodd" transform="matrix(1 0 0 -1 1445 806)"/><path d="M1522 1681.99 1529 1681.99 1529 787.987 1522 787.987Z" fill="#1F77B4" fill-rule="evenodd"/><path d="M1518.49 1682.49 1518.49 788.487" stroke="#000000" stroke-width="3.479" stroke-linecap="square" stroke-miterlimit="8" fill="none" fill-rule="evenodd"/><path d="M1536.99 1681.99 1545 1681.99 1545 787.987 1536.99 787.987Z" fill="#1F77B4" fill-rule="evenodd"/><path d="M1551.99 1681.99 1559.99 1681.99 1559.99 787.987 1551.99 787.987Z" fill="#1F77B4" fill-rule="evenodd"/><path d="M1568 1681.99 1575 1681.99 1575 787.987 1568 787.987Z" fill="#1F77B4" fill-rule="evenodd"/><path d="M1582.99 1681.99 1590.99 1681.99 1590.99 797.987 1582.99 797.987Z" fill="#1F77B4" fill-rule="evenodd"/><path d="M1599 1681.99 1606 1681.99 1606 805.987 1599 805.987Z" fill="#1F77B4" fill-rule="evenodd"/><path d="M1613.99 1681.99 1622 1681.99 1622 808.987 1613.99 808.987Z" fill="#1F77B4" fill-rule="evenodd"/><path d="M1628.99 1681.99 1636.99 1681.99 1636.99 812.987 1628.99 812.987Z" fill="#1F77B4" fill-rule="evenodd"/><path d="M1645 1681.99 1652 1681.99 1652 818.987 1645 818.987Z" fill="#1F77B4" fill-rule="evenodd"/><path d="M1659.99 1681.99 1667.99 1681.99 1667.99 819.987 1659.99 819.987Z" fill="#1F77B4" fill-rule="evenodd"/><path d="M1674.99 1681.99 1683 1681.99 1683 820.987 1674.99 820.987Z" fill="#1F77B4" fill-rule="evenodd"/><path d="M1691 1681.99 1698 1681.99 1698 826.987 1691 826.987Z" fill="#1F77B4" fill-rule="evenodd"/><path d="M1705.99 1681.99 1713.99 1681.99 1713.99 827.987 1705.99 827.987Z" fill="#1F77B4" fill-rule="evenodd"/><path d="M1720.99 1681.99 1729 1681.99 1729 831.987 1720.99 831.987Z" fill="#1F77B4" fill-rule="evenodd"/><path d="M1737 1681.99 1744 1681.99 1744 831.987 1737 831.987Z" fill="#1F77B4" fill-rule="evenodd"/><path d="M1751.99 1681.99 1760 1681.99 1760 832.987 1751.99 832.987Z" fill="#1F77B4" fill-rule="evenodd"/><path d="M1766.99 1681.99 1775 1681.99 1775 834.987 1766.99 834.987Z" fill="#1F77B4" fill-rule="evenodd"/><path d="M1783 1681.99 1790 1681.99 1790 839.987 1783 839.987Z" fill="#1F77B4" fill-rule="evenodd"/><path d="M1797.99 1681.99 1806 1681.99 1806 840.987 1797.99 840.987Z" fill="#1F77B4" fill-rule="evenodd"/><path d="M1814 1681.99 1821 1681.99 1821 842.987 1814 842.987Z" fill="#1F77B4" fill-rule="evenodd"/><path d="M1828.99 1681.99 1837 1681.99 1837 848.987 1828.99 848.987Z" fill="#1F77B4" fill-rule="evenodd"/><path d="M1843.99 1681.99 1852 1681.99 1852 850.987 1843.99 850.987Z" fill="#1F77B4" fill-rule="evenodd"/><path d="M1860 1681.99 1867 1681.99 1867 851.987 1860 851.987Z" fill="#1F77B4" fill-rule="evenodd"/><path d="M1874.99 1681.99 1883 1681.99 1883 851.987 1874.99 851.987Z" fill="#1F77B4" fill-rule="evenodd"/><path d="M1889.99 1681.99 1897.99 1681.99 1897.99 853.987 1889.99 853.987Z" fill="#1F77B4" fill-rule="evenodd"/><path d="M1906 1681.99 1913 1681.99 1913 858.987 1906 858.987Z" fill="#1F77B4" fill-rule="evenodd"/><path d="M1920.99 1681.99 1928.99 1681.99 1928.99 860.987 1920.99 860.987Z" fill="#1F77B4" fill-rule="evenodd"/><path d="M1935.99 1681.99 1943.99 1681.99 1943.99 873.987 1935.99 873.987Z" fill="#1F77B4" fill-rule="evenodd"/><path d="M1952 1681.99 1959 1681.99 1959 874.987 1952 874.987Z" fill="#1F77B4" fill-rule="evenodd"/><path d="M1966.99 1681.99 1974.99 1681.99 1974.99 879.987 1966.99 879.987Z" fill="#1F77B4" fill-rule="evenodd"/><path d="M1981.99 1681.99 1989.99 1681.99 1989.99 884.987 1981.99 884.987Z" fill="#1F77B4" fill-rule="evenodd"/><path d="M1998 1681.99 2005 1681.99 2005 885.987 1998 885.987Z" fill="#1F77B4" fill-rule="evenodd"/><path d="M2012.99 1681.99 2020.99 1681.99 2020.99 907.987 2012.99 907.987Z" fill="#1F77B4" fill-rule="evenodd"/><path d="M2027.99 1681.99 2036 1681.99 2036 910.987 2027.99 910.987Z" fill="#1F77B4" fill-rule="evenodd"/><path d="M2043.99 1681.99 2051.99 1681.99 2051.99 912.987 2043.99 912.987Z" fill="#1F77B4" fill-rule="evenodd"/><path d="M2058.99 1681.99 2067 1681.99 2067 918.987 2058.99 918.987Z" fill="#1F77B4" fill-rule="evenodd"/><path d="M2075 1681.99 2082 1681.99 2082 920.987 2075 920.987Z" fill="#1F77B4" fill-rule="evenodd"/><path d="M2089.99 1681.99 2098 1681.99 2098 923.987 2089.99 923.987Z" fill="#1F77B4" fill-rule="evenodd"/><path d="M2104.99 1681.99 2113 1681.99 2113 924.987 2104.99 924.987Z" fill="#1F77B4" fill-rule="evenodd"/><path d="M2121 1681.99 2128 1681.99 2128 924.987 2121 924.987Z" fill="#1F77B4" fill-rule="evenodd"/><path d="M2135.99 1681.99 2144 1681.99 2144 924.987 2135.99 924.987Z" fill="#1F77B4" fill-rule="evenodd"/><path d="M2150.99 1681.99 2158.99 1681.99 2158.99 930.987 2150.99 930.987Z" fill="#1F77B4" fill-rule="evenodd"/><path d="M2167 1681.99 2174 1681.99 2174 931.987 2167 931.987Z" fill="#1F77B4" fill-rule="evenodd"/><path d="M2181.99 1681.99 2189.99 1681.99 2189.99 935.987 2181.99 935.987Z" fill="#1F77B4" fill-rule="evenodd"/><path d="M2196.99 1681.99 2205 1681.99 2205 948.987 2196.99 948.987Z" fill="#1F77B4" fill-rule="evenodd"/><path d="M2213 1681.99 2220 1681.99 2220 948.987 2213 948.987Z" fill="#1F77B4" fill-rule="evenodd"/><path d="M2227.99 1681.99 2236 1681.99 2236 951.987 2227.99 951.987Z" fill="#1F77B4" fill-rule="evenodd"/><path d="M2242.99 1681.99 2250.99 1681.99 2250.99 952.987 2242.99 952.987Z" fill="#1F77B4" fill-rule="evenodd"/><path d="M2259 1681.99 2266 1681.99 2266 953.987 2259 953.987Z" fill="#1F77B4" fill-rule="evenodd"/><path d="M2273.99 1681.99 2282 1681.99 2282 954.987 2273.99 954.987Z" fill="#1F77B4" fill-rule="evenodd"/><path d="M2290 1681.99 2297 1681.99 2297 966.987 2290 966.987Z" fill="#1F77B4" fill-rule="evenodd"/><path d="M2304.99 1681.99 2313 1681.99 2313 976.987 2304.99 976.987Z" fill="#1F77B4" fill-rule="evenodd"/><path d="M2319.99 1681.99 2328 1681.99 2328 977.987 2319.99 977.987Z" fill="#1F77B4" fill-rule="evenodd"/><path d="M2336 1681.99 2343 1681.99 2343 980.987 2336 980.987Z" fill="#1F77B4" fill-rule="evenodd"/><path d="M2350.99 1681.99 2359 1681.99 2359 981.987 2350.99 981.987Z" fill="#1F77B4" fill-rule="evenodd"/><path d="M2365.99 1681.99 2374 1681.99 2374 982.987 2365.99 982.987Z" fill="#1F77B4" fill-rule="evenodd"/><path d="M2382 1681.99 2389 1681.99 2389 998.987 2382 998.987Z" fill="#1F77B4" fill-rule="evenodd"/><path d="M2396.99 1681.99 2405 1681.99 2405 1000.99 2396.99 1000.99Z" fill="#1F77B4" fill-rule="evenodd"/><path d="M2411.99 1681.99 2419.99 1681.99 2419.99 1002.99 2411.99 1002.99Z" fill="#1F77B4" fill-rule="evenodd"/><path d="M2428 1681.99 2435 1681.99 2435 1004.99 2428 1004.99Z" fill="#1F77B4" fill-rule="evenodd"/><path d="M2442.99 1681.99 2451 1681.99 2451 1020.99 2442.99 1020.99Z" fill="#1F77B4" fill-rule="evenodd"/><path d="M2457.99 1681.99 2465.99 1681.99 2465.99 1021.99 2457.99 1021.99Z" fill="#1F77B4" fill-rule="evenodd"/><path d="M2474 1681.99 2481 1681.99 2481 1031.99 2474 1031.99Z" fill="#1F77B4" fill-rule="evenodd"/><path d="M2488.99 1681.99 2496.99 1681.99 2496.99 1031.99 2488.99 1031.99Z" fill="#1F77B4" fill-rule="evenodd"/><path d="M2503.99 1681.99 2511.99 1681.99 2511.99 1034.99 2503.99 1034.99Z" fill="#1F77B4" fill-rule="evenodd"/><path d="M2519.99 1681.99 2527.99 1681.99 2527.99 1039.99 2519.99 1039.99Z" fill="#1F77B4" fill-rule="evenodd"/><path d="M2534.99 1681.99 2542.99 1681.99 2542.99 1043.99 2534.99 1043.99Z" fill="#1F77B4" fill-rule="evenodd"/><path d="M2551 1681.99 2558 1681.99 2558 1050.99 2551 1050.99Z" fill="#1F77B4" fill-rule="evenodd"/><path d="M2565.99 1681.99 2573.99 1681.99 2573.99 1057.99 2565.99 1057.99Z" fill="#1F77B4" fill-rule="evenodd"/><path d="M2580.99 1681.99 2588.99 1681.99 2588.99 1065.99 2580.99 1065.99Z" fill="#1F77B4" fill-rule="evenodd"/><path d="M2597 1681.99 2604 1681.99 2604 1067.99 2597 1067.99Z" fill="#1F77B4" fill-rule="evenodd"/><path d="M2611.99 1681.99 2619.99 1681.99 2619.99 1068.99 2611.99 1068.99Z" fill="#1F77B4" fill-rule="evenodd"/><path d="M2626.99 1681.99 2634.99 1681.99 2634.99 1071.99 2626.99 1071.99Z" fill="#1F77B4" fill-rule="evenodd"/><path d="M2643 1681.99 2650 1681.99 2650 1073.99 2643 1073.99Z" fill="#1F77B4" fill-rule="evenodd"/><path d="M2657.99 1681.99 2665.99 1681.99 2665.99 1083.99 2657.99 1083.99Z" fill="#1F77B4" fill-rule="evenodd"/><path d="M2672.99 1681.99 2680.99 1681.99 2680.99 1084.99 2672.99 1084.99Z" fill="#1F77B4" fill-rule="evenodd"/><path d="M2689 1681.99 2696 1681.99 2696 1085.99 2689 1085.99Z" fill="#1F77B4" fill-rule="evenodd"/><path d="M2703.99 1681.99 2711.99 1681.99 2711.99 1089.99 2703.99 1089.99Z" fill="#1F77B4" fill-rule="evenodd"/><path d="M2718.99 1681.99 2726.99 1681.99 2726.99 1097.99 2718.99 1097.99Z" fill="#1F77B4" fill-rule="evenodd"/><path d="M2735 1681.99 2742 1681.99 2742 1106.99 2735 1106.99Z" fill="#1F77B4" fill-rule="evenodd"/><path d="M2749.99 1681.99 2757.99 1681.99 2757.99 1112.99 2749.99 1112.99Z" fill="#1F77B4" fill-rule="evenodd"/><path d="M2766 1681.99 2773 1681.99 2773 1116.99 2766 1116.99Z" fill="#1F77B4" fill-rule="evenodd"/><path d="M2780.99 1681.99 2788.99 1681.99 2788.99 1118.99 2780.99 1118.99Z" fill="#1F77B4" fill-rule="evenodd"/><path d="M2795.99 1681.99 2803.99 1681.99 2803.99 1139.99 2795.99 1139.99Z" fill="#1F77B4" fill-rule="evenodd"/><path d="M2812 1681.99 2819 1681.99 2819 1169.99 2812 1169.99Z" fill="#1F77B4" fill-rule="evenodd"/><path d="M2826.99 1681.99 2834.99 1681.99 2834.99 1180.99 2826.99 1180.99Z" fill="#1F77B4" fill-rule="evenodd"/><path d="M2841.99 1681.99 2849.99 1681.99 2849.99 1185.99 2841.99 1185.99Z" fill="#1F77B4" fill-rule="evenodd"/><path d="M2858 1681.99 2865 1681.99 2865 1213.99 2858 1213.99Z" fill="#1F77B4" fill-rule="evenodd"/><path d="M2872.99 1681.99 2880.99 1681.99 2880.99 1247.99 2872.99 1247.99Z" fill="#1F77B4" fill-rule="evenodd"/><path d="M2887.99 1681.99 2895.99 1681.99 2895.99 1247.99 2887.99 1247.99Z" fill="#1F77B4" fill-rule="evenodd"/><path d="M2904 1681.99 2911 1681.99 2911 1250.99 2904 1250.99Z" fill="#1F77B4" fill-rule="evenodd"/><path d="M2918.99 1681.99 2926.99 1681.99 2926.99 1255.99 2918.99 1255.99Z" fill="#1F77B4" fill-rule="evenodd"/><path d="M2933.99 1681.99 2942 1681.99 2942 1277.99 2933.99 1277.99Z" fill="#1F77B4" fill-rule="evenodd"/><path d="M2950 1681.99 2957 1681.99 2957 1284.99 2950 1284.99Z" fill="#1F77B4" fill-rule="evenodd"/><path d="M2964.99 1681.99 2972.99 1681.99 2972.99 1290.99 2964.99 1290.99Z" fill="#1F77B4" fill-rule="evenodd"/><path d="M2979.99 1681.99 2987.99 1681.99 2987.99 1302.99 2979.99 1302.99Z" fill="#1F77B4" fill-rule="evenodd"/><path d="M2995.99 1681.99 3003.99 1681.99 3003.99 1341.99 2995.99 1341.99Z" fill="#1F77B4" fill-rule="evenodd"/><path d="M3010.99 1681.99 3019 1681.99 3019 1343.99 3010.99 1343.99Z" fill="#1F77B4" fill-rule="evenodd"/><path d="M3027 1681.99 3034 1681.99 3034 1358.99 3027 1358.99Z" fill="#1F77B4" fill-rule="evenodd"/><path d="M3041.99 1681.99 3049.99 1681.99 3049.99 1374.99 3041.99 1374.99Z" fill="#1F77B4" fill-rule="evenodd"/><path d="M1582.99 797.988 1590.99 797.988 1590.99 794.988 1582.99 794.988Z" fill="#FF7F0E" fill-rule="evenodd"/><path d="M1628.99 812.987 1636.99 812.987 1636.99 808.987 1628.99 808.987Z" fill="#FF7F0E" fill-rule="evenodd"/><path d="M1659.99 819.987 1667.99 819.987 1667.99 794.987 1659.99 794.987Z" fill="#FF7F0E" fill-rule="evenodd"/><path d="M1674.99 820.987 1683 820.987 1683 810.987 1674.99 810.987Z" fill="#FF7F0E" fill-rule="evenodd"/><path d="M1691 826.988 1698 826.988 1698 820.988 1691 820.988Z" fill="#FF7F0E" fill-rule="evenodd"/><path d="M1737 831.987 1744 831.987 1744 825.987 1737 825.987Z" fill="#FF7F0E" fill-rule="evenodd"/><path d="M1751.99 832.986 1760 832.986 1760 829.986 1751.99 829.986Z" fill="#FF7F0E" fill-rule="evenodd"/><path d="M1783 839.987 1790 839.987 1790 820.987 1783 820.987Z" fill="#FF7F0E" fill-rule="evenodd"/><path d="M1814 842.987 1821 842.987 1821 809.987 1814 809.987Z" fill="#FF7F0E" fill-rule="evenodd"/><path d="M1828.99 848.988 1837 848.988 1837 846.988 1828.99 846.988Z" fill="#FF7F0E" fill-rule="evenodd"/><path d="M1843.99 850.987 1852 850.987 1852 847.987 1843.99 847.987Z" fill="#FF7F0E" fill-rule="evenodd"/><path d="M1860 851.987 1867 851.987 1867 840.987 1860 840.987Z" fill="#FF7F0E" fill-rule="evenodd"/><path d="M1889.99 853.987 1897.99 853.987 1897.99 842.987 1889.99 842.987Z" fill="#FF7F0E" fill-rule="evenodd"/><path d="M1906 858.987 1913 858.987 1913 846.987 1906 846.987Z" fill="#FF7F0E" fill-rule="evenodd"/><path d="M1920.99 860.987 1928.99 860.987 1928.99 844.987 1920.99 844.987Z" fill="#FF7F0E" fill-rule="evenodd"/><path d="M1935.99 873.988 1943.99 873.988 1943.99 858.988 1935.99 858.988Z" fill="#FF7F0E" fill-rule="evenodd"/><path d="M1952 874.987 1959 874.987 1959 855.987 1952 855.987Z" fill="#FF7F0E" fill-rule="evenodd"/><path d="M1966.99 879.988 1974.99 879.988 1974.99 868.988 1966.99 868.988Z" fill="#FF7F0E" fill-rule="evenodd"/><path d="M1981.99 884.987 1989.99 884.987 1989.99 861.987 1981.99 861.987Z" fill="#FF7F0E" fill-rule="evenodd"/><path d="M1998 885.987 2005 885.987 2005 828.987 1998 828.987Z" fill="#FF7F0E" fill-rule="evenodd"/><path d="M2012.99 907.987 2020.99 907.987 2020.99 886.987 2012.99 886.987Z" fill="#FF7F0E" fill-rule="evenodd"/><path d="M2027.99 910.987 2036 910.987 2036 895.988 2027.99 895.988Z" fill="#FF7F0E" fill-rule="evenodd"/><path d="M2043.99 912.988 2051.99 912.988 2051.99 888.987 2043.99 888.987Z" fill="#FF7F0E" fill-rule="evenodd"/><path d="M2058.99 918.987 2067 918.987 2067 897.987 2058.99 897.987Z" fill="#FF7F0E" fill-rule="evenodd"/><path d="M2075 920.988 2082 920.988 2082 915.988 2075 915.988Z" fill="#FF7F0E" fill-rule="evenodd"/><path d="M2089.99 923.987 2098 923.987 2098 900.987 2089.99 900.987Z" fill="#FF7F0E" fill-rule="evenodd"/><path d="M2104.99 924.981 2113 924.981 2113 921.981 2104.99 921.981Z" fill="#FF7F0E" fill-rule="evenodd"/><path d="M2121 924.986 2128 924.986 2128 916.986 2121 916.986Z" fill="#FF7F0E" fill-rule="evenodd"/><path d="M2135.99 924.987 2144 924.987 2144 897.987 2135.99 897.987Z" fill="#FF7F0E" fill-rule="evenodd"/><path d="M2150.99 930.986 2158.99 930.986 2158.99 922.987 2150.99 922.987Z" fill="#FF7F0E" fill-rule="evenodd"/><path d="M2167 931.987 2174 931.987 2174 910.987 2167 910.987Z" fill="#FF7F0E" fill-rule="evenodd"/><path d="M2181.99 935.987 2189.99 935.987 2189.99 912.987 2181.99 912.987Z" fill="#FF7F0E" fill-rule="evenodd"/><path d="M2196.99 948.987 2205 948.987 2205 939.987 2196.99 939.987Z" fill="#FF7F0E" fill-rule="evenodd"/><path d="M2213 948.987 2220 948.987 2220 894.987 2213 894.987Z" fill="#FF7F0E" fill-rule="evenodd"/><path d="M2227.99 951.987 2236 951.987 2236 928.987 2227.99 928.987Z" fill="#FF7F0E" fill-rule="evenodd"/><path d="M2242.99 952.987 2250.99 952.987 2250.99 925.987 2242.99 925.987Z" fill="#FF7F0E" fill-rule="evenodd"/><path d="M2259 953.988 2266 953.988 2266 940.988 2259 940.988Z" fill="#FF7F0E" fill-rule="evenodd"/><path d="M2273.99 954.987 2282 954.987 2282 943.987 2273.99 943.987Z" fill="#FF7F0E" fill-rule="evenodd"/><path d="M2290 966.987 2297 966.987 2297 899.987 2290 899.987Z" fill="#FF7F0E" fill-rule="evenodd"/><path d="M2304.99 976.987 2313 976.987 2313 945.987 2304.99 945.987Z" fill="#FF7F0E" fill-rule="evenodd"/><path d="M2319.99 977.987 2328 977.987 2328 937.987 2319.99 937.987Z" fill="#FF7F0E" fill-rule="evenodd"/><path d="M2336 980.987 2343 980.987 2343 934.987 2336 934.987Z" fill="#FF7F0E" fill-rule="evenodd"/><path d="M2350.99 981.987 2359 981.987 2359 962.987 2350.99 962.987Z" fill="#FF7F0E" fill-rule="evenodd"/><path d="M2382 998.987 2389 998.987 2389 950.987 2382 950.987Z" fill="#FF7F0E" fill-rule="evenodd"/><path d="M2396.99 1000.99 2405 1000.99 2405 917.987 2396.99 917.987Z" fill="#FF7F0E" fill-rule="evenodd"/><path d="M2411.99 1002.99 2419.99 1002.99 2419.99 995.988 2411.99 995.988Z" fill="#FF7F0E" fill-rule="evenodd"/><path d="M2428 1004.99 2435 1004.99 2435 987.987 2428 987.987Z" fill="#FF7F0E" fill-rule="evenodd"/><path d="M2442.99 1020.99 2451 1020.99 2451 954.987 2442.99 954.987Z" fill="#FF7F0E" fill-rule="evenodd"/><path d="M2457.99 1021.99 2465.99 1021.99 2465.99 1006.99 2457.99 1006.99Z" fill="#FF7F0E" fill-rule="evenodd"/><path d="M2474 1031.99 2481 1031.99 2481 940.987 2474 940.987Z" fill="#FF7F0E" fill-rule="evenodd"/><path d="M2488.99 1031.99 2496.99 1031.99 2496.99 1014.99 2488.99 1014.99Z" fill="#FF7F0E" fill-rule="evenodd"/><path d="M2503.99 1034.99 2511.99 1034.99 2511.99 1006.99 2503.99 1006.99Z" fill="#FF7F0E" fill-rule="evenodd"/><path d="M2519.99 1039.99 2527.99 1039.99 2527.99 1000.99 2519.99 1000.99Z" fill="#FF7F0E" fill-rule="evenodd"/><path d="M2534.99 1043.99 2542.99 1043.99 2542.99 1006.99 2534.99 1006.99Z" fill="#FF7F0E" fill-rule="evenodd"/><path d="M2551 1050.99 2558 1050.99 2558 907.987 2551 907.987Z" fill="#FF7F0E" fill-rule="evenodd"/><path d="M2565.99 1057.99 2573.99 1057.99 2573.99 1027.99 2565.99 1027.99Z" fill="#FF7F0E" fill-rule="evenodd"/><path d="M2580.99 1065.99 2588.99 1065.99 2588.99 941.987 2580.99 941.987Z" fill="#FF7F0E" fill-rule="evenodd"/><path d="M2597 1067.99 2604 1067.99 2604 1026.99 2597 1026.99Z" fill="#FF7F0E" fill-rule="evenodd"/><path d="M2611.99 1068.99 2619.99 1068.99 2619.99 1062.99 2611.99 1062.99Z" fill="#FF7F0E" fill-rule="evenodd"/><path d="M2626.99 1071.99 2634.99 1071.99 2634.99 1003.99 2626.99 1003.99Z" fill="#FF7F0E" fill-rule="evenodd"/><path d="M2643 1073.99 2650 1073.99 2650 994.987 2643 994.987Z" fill="#FF7F0E" fill-rule="evenodd"/><path d="M2657.99 1083.99 2665.99 1083.99 2665.99 1046.99 2657.99 1046.99Z" fill="#FF7F0E" fill-rule="evenodd"/><path d="M2672.99 1084.99 2680.99 1084.99 2680.99 1064.99 2672.99 1064.99Z" fill="#FF7F0E" fill-rule="evenodd"/><path d="M2689 1085.99 2696 1085.99 2696 1040.99 2689 1040.99Z" fill="#FF7F0E" fill-rule="evenodd"/><path d="M2703.99 1089.99 2711.99 1089.99 2711.99 854.987 2703.99 854.987Z" fill="#FF7F0E" fill-rule="evenodd"/><path d="M2718.99 1097.99 2726.99 1097.99 2726.99 1071.99 2718.99 1071.99Z" fill="#FF7F0E" fill-rule="evenodd"/><path d="M2735 1106.99 2742 1106.99 2742 1056.99 2735 1056.99Z" fill="#FF7F0E" fill-rule="evenodd"/><path d="M2749.99 1112.99 2757.99 1112.99 2757.99 980.987 2749.99 980.987Z" fill="#FF7F0E" fill-rule="evenodd"/><path d="M2766 1116.99 2773 1116.99 2773 954.987 2766 954.987Z" fill="#FF7F0E" fill-rule="evenodd"/><path d="M2780.99 1118.99 2788.99 1118.99 2788.99 1082.99 2780.99 1082.99Z" fill="#FF7F0E" fill-rule="evenodd"/><path d="M2795.99 1139.99 2803.99 1139.99 2803.99 1116.99 2795.99 1116.99Z" fill="#FF7F0E" fill-rule="evenodd"/><path d="M2812 1169.99 2819 1169.99 2819 1038.99 2812 1038.99Z" fill="#FF7F0E" fill-rule="evenodd"/><path d="M2826.99 1180.99 2834.99 1180.99 2834.99 1145.99 2826.99 1145.99Z" fill="#FF7F0E" fill-rule="evenodd"/><path d="M2841.99 1185.99 2849.99 1185.99 2849.99 1181.99 2841.99 1181.99Z" fill="#FF7F0E" fill-rule="evenodd"/><path d="M2858 1213.99 2865 1213.99 2865 1195.99 2858 1195.99Z" fill="#FF7F0E" fill-rule="evenodd"/><path d="M2872.99 1247.99 2880.99 1247.99 2880.99 1021.99 2872.99 1021.99Z" fill="#FF7F0E" fill-rule="evenodd"/><path d="M2887.99 1247.99 2895.99 1247.99 2895.99 1197.99 2887.99 1197.99Z" fill="#FF7F0E" fill-rule="evenodd"/><path d="M2904 1250.99 2911 1250.99 2911 1126.99 2904 1126.99Z" fill="#FF7F0E" fill-rule="evenodd"/><path d="M2918.99 1255.99 2926.99 1255.99 2926.99 1179.99 2918.99 1179.99Z" fill="#FF7F0E" fill-rule="evenodd"/><path d="M2933.99 1277.99 2942 1277.99 2942 1257.99 2933.99 1257.99Z" fill="#FF7F0E" fill-rule="evenodd"/><path d="M2950 1284.99 2957 1284.99 2957 1110.99 2950 1110.99Z" fill="#FF7F0E" fill-rule="evenodd"/><path d="M2964.99 1290.99 2972.99 1290.99 2972.99 1130.99 2964.99 1130.99Z" fill="#FF7F0E" fill-rule="evenodd"/><path d="M2979.99 1302.99 2987.99 1302.99 2987.99 1066.99 2979.99 1066.99Z" fill="#FF7F0E" fill-rule="evenodd"/><path d="M2995.99 1341.99 3003.99 1341.99 3003.99 1092.99 2995.99 1092.99Z" fill="#FF7F0E" fill-rule="evenodd"/><path d="M3010.99 1343.99 3019 1343.99 3019 1109.99 3010.99 1109.99Z" fill="#FF7F0E" fill-rule="evenodd"/><path d="M3027 1358.99 3034 1358.99 3034 1018.99 3027 1018.99Z" fill="#FF7F0E" fill-rule="evenodd"/><path d="M3041.99 1374.99 3049.99 1374.99 3049.99 1195.99 3041.99 1195.99Z" fill="#FF7F0E" fill-rule="evenodd"/><path d="M1582.99 794.987 1590.99 794.987 1590.99 787.986 1582.99 787.986Z" fill="#2CA02C" fill-rule="evenodd"/><path d="M1599 805.987 1606 805.987 1606 787.987 1599 787.987Z" fill="#2CA02C" fill-rule="evenodd"/><path d="M1613.99 808.987 1622 808.987 1622 787.987 1613.99 787.987Z" fill="#2CA02C" fill-rule="evenodd"/><path d="M1628.99 808.986 1636.99 808.986 1636.99 787.986 1628.99 787.986Z" fill="#2CA02C" fill-rule="evenodd"/><path d="M1645 818.987 1652 818.987 1652 787.987 1645 787.987Z" fill="#2CA02C" fill-rule="evenodd"/><path d="M1659.99 794.988 1667.99 794.988 1667.99 787.987 1659.99 787.987Z" fill="#2CA02C" fill-rule="evenodd"/><path d="M1674.99 810.987 1683 810.987 1683 787.987 1674.99 787.987Z" fill="#2CA02C" fill-rule="evenodd"/><path d="M1691 820.987 1698 820.987 1698 787.987 1691 787.987Z" fill="#2CA02C" fill-rule="evenodd"/><path d="M1705.99 827.987 1713.99 827.987 1713.99 787.987 1705.99 787.987Z" fill="#2CA02C" fill-rule="evenodd"/><path d="M1720.99 831.987 1729 831.987 1729 787.987 1720.99 787.987Z" fill="#2CA02C" fill-rule="evenodd"/><path d="M1737 825.987 1744 825.987 1744 787.987 1737 787.987Z" fill="#2CA02C" fill-rule="evenodd"/><path d="M1751.99 829.987 1760 829.987 1760 787.987 1751.99 787.987Z" fill="#2CA02C" fill-rule="evenodd"/><path d="M1766.99 834.987 1775 834.987 1775 787.987 1766.99 787.987Z" fill="#2CA02C" fill-rule="evenodd"/><path d="M1783 820.987 1790 820.987 1790 787.987 1783 787.987Z" fill="#2CA02C" fill-rule="evenodd"/><path d="M1797.99 840.988 1806 840.988 1806 787.987 1797.99 787.987Z" fill="#2CA02C" fill-rule="evenodd"/><path d="M1814 809.987 1821 809.987 1821 787.987 1814 787.987Z" fill="#2CA02C" fill-rule="evenodd"/><path d="M1828.99 846.987 1837 846.987 1837 787.987 1828.99 787.987Z" fill="#2CA02C" fill-rule="evenodd"/><path d="M1843.99 847.987 1852 847.987 1852 787.987 1843.99 787.987Z" fill="#2CA02C" fill-rule="evenodd"/><path d="M1860 840.987 1867 840.987 1867 787.987 1860 787.987Z" fill="#2CA02C" fill-rule="evenodd"/><path d="M1874.99 851.987 1883 851.987 1883 787.987 1874.99 787.987Z" fill="#2CA02C" fill-rule="evenodd"/><path d="M1889.99 842.987 1897.99 842.987 1897.99 787.987 1889.99 787.987Z" fill="#2CA02C" fill-rule="evenodd"/><path d="M1906 846.987 1913 846.987 1913 787.987 1906 787.987Z" fill="#2CA02C" fill-rule="evenodd"/><path d="M1920.99 844.987 1928.99 844.987 1928.99 787.987 1920.99 787.987Z" fill="#2CA02C" fill-rule="evenodd"/><path d="M1935.99 858.987 1943.99 858.987 1943.99 787.987 1935.99 787.987Z" fill="#2CA02C" fill-rule="evenodd"/><path d="M1952 855.987 1959 855.987 1959 787.987 1952 787.987Z" fill="#2CA02C" fill-rule="evenodd"/><path d="M1966.99 868.987 1974.99 868.987 1974.99 787.987 1966.99 787.987Z" fill="#2CA02C" fill-rule="evenodd"/><path d="M1981.99 861.987 1989.99 861.987 1989.99 787.987 1981.99 787.987Z" fill="#2CA02C" fill-rule="evenodd"/><path d="M1998 828.987 2005 828.987 2005 787.987 1998 787.987Z" fill="#2CA02C" fill-rule="evenodd"/><path d="M2012.99 886.987 2020.99 886.987 2020.99 787.987 2012.99 787.987Z" fill="#2CA02C" fill-rule="evenodd"/><path d="M2027.99 895.987 2036 895.987 2036 787.987 2027.99 787.987Z" fill="#2CA02C" fill-rule="evenodd"/><path d="M2043.99 888.987 2051.99 888.987 2051.99 787.987 2043.99 787.987Z" fill="#2CA02C" fill-rule="evenodd"/><path d="M2058.99 897.987 2067 897.987 2067 787.987 2058.99 787.987Z" fill="#2CA02C" fill-rule="evenodd"/><path d="M2075 915.987 2082 915.987 2082 787.987 2075 787.987Z" fill="#2CA02C" fill-rule="evenodd"/><path d="M2089.99 900.987 2098 900.987 2098 787.987 2089.99 787.987Z" fill="#2CA02C" fill-rule="evenodd"/><path d="M2104.99 921.987 2113 921.987 2113 787.987 2104.99 787.987Z" fill="#2CA02C" fill-rule="evenodd"/><path d="M2121 916.987 2128 916.987 2128 787.987 2121 787.987Z" fill="#2CA02C" fill-rule="evenodd"/><path d="M2135.99 897.987 2144 897.987 2144 787.987 2135.99 787.987Z" fill="#2CA02C" fill-rule="evenodd"/><path d="M2150.99 922.987 2158.99 922.987 2158.99 787.987 2150.99 787.987Z" fill="#2CA02C" fill-rule="evenodd"/><path d="M2167 910.987 2174 910.987 2174 787.987 2167 787.987Z" fill="#2CA02C" fill-rule="evenodd"/><path d="M2181.99 912.987 2189.99 912.987 2189.99 787.987 2181.99 787.987Z" fill="#2CA02C" fill-rule="evenodd"/><path d="M2196.99 939.987 2205 939.987 2205 787.987 2196.99 787.987Z" fill="#2CA02C" fill-rule="evenodd"/><path d="M2213 894.988 2220 894.988 2220 787.987 2213 787.987Z" fill="#2CA02C" fill-rule="evenodd"/><path d="M2227.99 928.987 2236 928.987 2236 787.987 2227.99 787.987Z" fill="#2CA02C" fill-rule="evenodd"/><path d="M2242.99 925.987 2250.99 925.987 2250.99 787.987 2242.99 787.987Z" fill="#2CA02C" fill-rule="evenodd"/><path d="M2259 940.987 2266 940.987 2266 787.987 2259 787.987Z" fill="#2CA02C" fill-rule="evenodd"/><path d="M2273.99 943.987 2282 943.987 2282 787.987 2273.99 787.987Z" fill="#2CA02C" fill-rule="evenodd"/><path d="M2290 899.987 2297 899.987 2297 787.987 2290 787.987Z" fill="#2CA02C" fill-rule="evenodd"/><path d="M2304.99 945.987 2313 945.987 2313 787.987 2304.99 787.987Z" fill="#2CA02C" fill-rule="evenodd"/><path d="M2319.99 937.987 2328 937.987 2328 787.987 2319.99 787.987Z" fill="#2CA02C" fill-rule="evenodd"/><path d="M2336 934.987 2343 934.987 2343 787.987 2336 787.987Z" fill="#2CA02C" fill-rule="evenodd"/><path d="M2350.99 962.987 2359 962.987 2359 787.987 2350.99 787.987Z" fill="#2CA02C" fill-rule="evenodd"/><path d="M2365.99 982.987 2374 982.987 2374 787.987 2365.99 787.987Z" fill="#2CA02C" fill-rule="evenodd"/><path d="M2382 950.987 2389 950.987 2389 787.987 2382 787.987Z" fill="#2CA02C" fill-rule="evenodd"/><path d="M2396.99 917.987 2405 917.987 2405 787.987 2396.99 787.987Z" fill="#2CA02C" fill-rule="evenodd"/><path d="M2411.99 995.987 2419.99 995.987 2419.99 787.987 2411.99 787.987Z" fill="#2CA02C" fill-rule="evenodd"/><path d="M2428 987.987 2435 987.987 2435 787.987 2428 787.987Z" fill="#2CA02C" fill-rule="evenodd"/><path d="M2442.99 954.987 2451 954.987 2451 787.987 2442.99 787.987Z" fill="#2CA02C" fill-rule="evenodd"/><path d="M2457.99 1006.99 2465.99 1006.99 2465.99 787.987 2457.99 787.987Z" fill="#2CA02C" fill-rule="evenodd"/><path d="M2474 940.987 2481 940.987 2481 787.987 2474 787.987Z" fill="#2CA02C" fill-rule="evenodd"/><path d="M2488.99 1014.99 2496.99 1014.99 2496.99 787.987 2488.99 787.987Z" fill="#2CA02C" fill-rule="evenodd"/><path d="M2503.99 1006.99 2511.99 1006.99 2511.99 787.987 2503.99 787.987Z" fill="#2CA02C" fill-rule="evenodd"/><path d="M2519.99 1000.99 2527.99 1000.99 2527.99 787.987 2519.99 787.987Z" fill="#2CA02C" fill-rule="evenodd"/><path d="M2534.99 1006.99 2542.99 1006.99 2542.99 787.987 2534.99 787.987Z" fill="#2CA02C" fill-rule="evenodd"/><path d="M2551 907.987 2558 907.987 2558 787.987 2551 787.987Z" fill="#2CA02C" fill-rule="evenodd"/><path d="M2565.99 1027.99 2573.99 1027.99 2573.99 787.987 2565.99 787.987Z" fill="#2CA02C" fill-rule="evenodd"/><path d="M2580.99 941.987 2588.99 941.987 2588.99 787.987 2580.99 787.987Z" fill="#2CA02C" fill-rule="evenodd"/><path d="M2597 1026.99 2604 1026.99 2604 787.987 2597 787.987Z" fill="#2CA02C" fill-rule="evenodd"/><path d="M2611.99 1062.99 2619.99 1062.99 2619.99 787.987 2611.99 787.987Z" fill="#2CA02C" fill-rule="evenodd"/><path d="M2626.99 1003.99 2634.99 1003.99 2634.99 787.987 2626.99 787.987Z" fill="#2CA02C" fill-rule="evenodd"/><path d="M2643 994.988 2650 994.988 2650 787.987 2643 787.987Z" fill="#2CA02C" fill-rule="evenodd"/><path d="M2657.99 1046.99 2665.99 1046.99 2665.99 787.987 2657.99 787.987Z" fill="#2CA02C" fill-rule="evenodd"/><path d="M2672.99 1064.99 2680.99 1064.99 2680.99 787.987 2672.99 787.987Z" fill="#2CA02C" fill-rule="evenodd"/><path d="M2689 1040.99 2696 1040.99 2696 787.987 2689 787.987Z" fill="#2CA02C" fill-rule="evenodd"/><path d="M2703.99 854.987 2711.99 854.987 2711.99 787.987 2703.99 787.987Z" fill="#2CA02C" fill-rule="evenodd"/><path d="M2718.99 1071.99 2726.99 1071.99 2726.99 787.987 2718.99 787.987Z" fill="#2CA02C" fill-rule="evenodd"/><path d="M2735 1056.99 2742 1056.99 2742 787.987 2735 787.987Z" fill="#2CA02C" fill-rule="evenodd"/><path d="M2749.99 980.987 2757.99 980.987 2757.99 787.987 2749.99 787.987Z" fill="#2CA02C" fill-rule="evenodd"/><path d="M2766 954.987 2773 954.987 2773 787.987 2766 787.987Z" fill="#2CA02C" fill-rule="evenodd"/><path d="M2780.99 1082.99 2788.99 1082.99 2788.99 787.987 2780.99 787.987Z" fill="#2CA02C" fill-rule="evenodd"/><path d="M2795.99 1116.99 2803.99 1116.99 2803.99 787.987 2795.99 787.987Z" fill="#2CA02C" fill-rule="evenodd"/><path d="M2812 1038.99 2819 1038.99 2819 787.987 2812 787.987Z" fill="#2CA02C" fill-rule="evenodd"/><path d="M2826.99 1145.99 2834.99 1145.99 2834.99 787.987 2826.99 787.987Z" fill="#2CA02C" fill-rule="evenodd"/><path d="M2841.99 1181.99 2849.99 1181.99 2849.99 787.987 2841.99 787.987Z" fill="#2CA02C" fill-rule="evenodd"/><path d="M2858 1195.99 2865 1195.99 2865 787.987 2858 787.987Z" fill="#2CA02C" fill-rule="evenodd"/><path d="M2872.99 1021.99 2880.99 1021.99 2880.99 787.987 2872.99 787.987Z" fill="#2CA02C" fill-rule="evenodd"/><path d="M2887.99 1197.99 2895.99 1197.99 2895.99 787.987 2887.99 787.987Z" fill="#2CA02C" fill-rule="evenodd"/><path d="M2904 1126.99 2911 1126.99 2911 787.987 2904 787.987Z" fill="#2CA02C" fill-rule="evenodd"/><path d="M2918.99 1179.99 2926.99 1179.99 2926.99 787.987 2918.99 787.987Z" fill="#2CA02C" fill-rule="evenodd"/><path d="M2933.99 1257.99 2942 1257.99 2942 787.987 2933.99 787.987Z" fill="#2CA02C" fill-rule="evenodd"/><path d="M2950 1110.99 2957 1110.99 2957 787.987 2950 787.987Z" fill="#2CA02C" fill-rule="evenodd"/><path d="M2964.99 1130.99 2972.99 1130.99 2972.99 787.987 2964.99 787.987Z" fill="#2CA02C" fill-rule="evenodd"/><path d="M2979.99 1066.99 2987.99 1066.99 2987.99 787.987 2979.99 787.987Z" fill="#2CA02C" fill-rule="evenodd"/><path d="M2995.99 1092.99 3003.99 1092.99 3003.99 787.987 2995.99 787.987Z" fill="#2CA02C" fill-rule="evenodd"/><path d="M3010.99 1109.99 3019 1109.99 3019 787.987 3010.99 787.987Z" fill="#2CA02C" fill-rule="evenodd"/><path d="M3027 1018.99 3034 1018.99 3034 787.987 3027 787.987Z" fill="#2CA02C" fill-rule="evenodd"/><path d="M3041.99 1195.99 3049.99 1195.99 3049.99 787.987 3041.99 787.987Z" fill="#2CA02C" fill-rule="evenodd"/><path d="M1546.67 1671.49 2333.32 1671.49C2339.44 1671.49 2342.5 1668.42 2342.5 1662.3L2342.5 1464.67C2342.5 1458.54 2339.44 1455.49 2333.32 1455.49L1546.67 1455.49C1540.56 1455.49 1537.5 1458.54 1537.5 1464.67L1537.5 1662.3C1537.5 1668.42 1540.56 1671.49 1546.67 1671.49Z" stroke="#CCCCCC" stroke-width="4.58622" stroke-miterlimit="8" stroke-opacity="0.8" fill="#FFFFFF" fill-rule="evenodd" fill-opacity="0.8"/><path d="M1556 1507.99 1647 1507.99 1647 1475.99 1556 1475.99Z" fill="#1F77B4" fill-rule="evenodd"/><path d="M26.2193 31.0017 26.2193 26.1936C24.6934 27.6252 23.067 28.693 21.3401 29.3964 19.6133 30.105 17.7787 30.4594 15.8369 30.4594 12.0099 30.4594 9.08015 29.2807 7.04724 26.9239 5.01434 24.5668 3.99788 21.1591 3.99788 16.7007 3.99788 12.2568 5.01434 8.85637 7.04724 6.49926 9.08015 4.14251 12.0099 2.96377 15.8369 2.96377 17.7787 2.96377 19.6133 3.31823 21.3401 4.02678 23.067 4.73533 24.6934 5.80526 26.2193 7.23693L26.2193 2.46483C24.6359 1.38035 22.9568 0.565897 21.1822 0.0211074 19.4124-0.518587 17.542-0.788616 15.5713-0.788616 10.5009-0.788616 6.50668 0.773331 3.58884 3.8965 0.675709 7.02476-0.780859 11.2928-0.780859 16.7007-0.780859 22.1231 0.675709 26.3963 3.58884 29.5194 6.50668 32.6477 10.5009 34.2118 15.5713 34.2118 17.5706 34.2118 19.4554 33.9443 21.2252 33.409 22.9998 32.874 24.6645 32.0716 26.2193 31.0017Z" fill-rule="evenodd" transform="matrix(1 0 0 -1 1687 1509)"/><path d="M12.8494 13.6425C9.5497 13.6425 7.26286 13.253 5.98926 12.4742 4.71566 11.6954 4.07904 10.3633 4.07904 8.47763 4.07904 6.97877 4.55722 5.78834 5.51358 4.9067 6.46995 4.03024 7.76716 3.59164 9.40521 3.59164 11.6731 3.59164 13.4914 4.42187 14.8594 6.08234 16.2282 7.74281 16.912 9.94949 16.912 12.702L16.912 13.6425ZM20.9953 15.3909 20.9953 0.71892 16.912 0.71892 16.912 4.62046C15.9792 3.0628 14.8172 1.91157 13.4249 1.16713 12.0332 0.422698 10.3308 0.0502948 8.31866 0.0502948 5.77646 0.0502948 3.75214 0.789924 2.24678 2.26918 0.745707 3.74844-0.00464949 5.72732-0.00464949 8.20582-0.00464949 11.0955 0.930256 13.2752 2.80042 14.7445 4.6756 16.2138 7.46887 16.9486 11.181 16.9486L16.912 16.9486 16.912 17.3676C16.912 19.3121 16.2943 20.8158 15.0586 21.8786 13.8226 22.9414 12.0872 23.4729 9.85263 23.4729 8.43239 23.4729 7.04756 23.2965 5.69813 22.9437 4.35371 22.5912 3.06115 22.062 1.82045 21.3568L1.82045 25.2654C3.31187 25.863 4.76072 26.309 6.16701 26.6026 7.57295 26.9014 8.94133 27.0508 10.2718 27.0508 13.8698 27.0508 16.5572 26.086 18.3326 24.1563 20.1076 22.231 20.9953 19.3095 20.9953 15.3909Z" fill-rule="evenodd" transform="matrix(1 0 0 -1 1719 1509)"/><path d="M3.4849 13.2398 3.4849-0.354674-0.759999-0.354674-0.759999 35.0305 3.4849 35.0305 3.4849 31.1412C4.37582 32.6646 5.49714 33.795 6.84812 34.5324 8.20429 35.2745 9.82229 35.6458 11.7025 35.6458 14.8257 35.6458 17.362 34.4103 19.3102 31.9394 21.2637 29.4685 22.2404 26.2189 22.2404 22.1903 22.2404 18.1621 21.2637 14.9099 19.3102 12.4342 17.362 9.9633 14.8257 8.72784 11.7025 8.72784 9.82229 8.72784 8.20429 9.09911 6.84812 9.84127 5.49714 10.5834 4.37582 11.7164 3.4849 13.2398ZM17.8565 22.1903C17.8565 25.2862 17.2174 27.7154 15.9396 29.4785 14.6619 31.2411 12.9067 32.1227 10.6744 32.1227 8.43691 32.1227 6.67948 31.2411 5.40135 29.4785 4.12359 27.7154 3.4849 25.2862 3.4849 22.1903 3.4849 19.0945 4.12359 16.6652 5.40135 14.9026 6.67948 13.1399 8.43691 12.2584 10.6744 12.2584 12.9067 12.2584 14.6619 13.1399 15.9396 14.9026 17.2174 16.6652 17.8565 19.0945 17.8565 22.1903Z" fill-rule="evenodd" transform="matrix(1 0 0 -1 1748 1518)"/><path d="M-0.278191 24.3684 3.72229 24.3684 3.72229-0.822001-0.278191-0.822001ZM-0.278191 34.1784 3.72229 34.1784 3.72229 28.9316-0.278191 28.9316Z" fill-rule="evenodd" transform="matrix(1 0 0 -1 1778 1508)"/><path d="M6.89659 31.253 6.89659 24.1753 15.5707 24.1753 15.5707 20.9922 6.89659 20.9922 6.89659 7.46299C6.89659 5.43147 7.18252 4.12611 7.75363 3.54691 8.32512 2.96771 9.48986 2.6781 11.2482 2.6781L15.5707 2.6781 15.5707-0.746944 11.2482-0.746944C7.99566-0.746944 5.7514-0.158421 4.51582 1.01898 3.27987 2.20105 2.66227 4.34905 2.66227 7.46299L2.66227 20.9922-0.429446 20.9922-0.429446 24.1753 2.66227 24.1753 2.66227 31.253Z" fill-rule="evenodd" transform="matrix(1 0 0 -1 1787 1508)"/><path d="M12.7882 13.6425C9.48818 13.6425 7.20135 13.253 5.92774 12.4742 4.65414 11.6954 4.01752 10.3633 4.01752 8.47763 4.01752 6.97877 4.4957 5.78834 5.45207 4.9067 6.40843 4.03024 7.70564 3.59164 9.34369 3.59164 11.6116 3.59164 13.4299 4.42187 14.7979 6.08234 16.1663 7.74281 16.8505 9.94949 16.8505 12.702L16.8505 13.6425ZM20.9338 15.3909 20.9338 0.71892 16.8505 0.71892 16.8505 4.62046C15.9177 3.0628 14.7557 1.91157 13.3634 1.16713 11.9717 0.422698 10.2693 0.0502948 8.25714 0.0502948 5.71458 0.0502948 3.69062 0.789924 2.1849 2.26918 0.684191 3.74844-0.0665235 5.72732-0.0665235 8.20582-0.0665235 11.0955 0.869097 13.2752 2.73891 14.7445 4.61373 16.2138 7.40736 16.9486 11.1194 16.9486L16.8505 16.9486 16.8505 17.3676C16.8505 19.3121 16.2328 20.8158 14.9968 21.8786 13.7611 22.9414 12.0257 23.4729 9.79111 23.4729 8.37087 23.4729 6.98604 23.2965 5.63661 22.9437 4.2922 22.5912 2.99928 22.062 1.75894 21.3568L1.75894 25.2654C3.25035 25.863 4.69921 26.309 6.10514 26.6026 7.51143 26.9014 8.87981 27.0508 10.2103 27.0508 13.8083 27.0508 16.4953 26.086 18.2707 24.1563 20.0461 22.231 20.9338 19.3095 20.9338 15.3909Z" fill-rule="evenodd" transform="matrix(1 0 0 -1 1807 1509)"/><path d="M-0.0994077 35.0453 4.90076 35.0453 4.90076 0.0452843-0.0994077 0.0452843Z" fill-rule="evenodd" transform="matrix(1 0 0 -1 1836 1508)"/><path d="M-0.935716 32.2275 5.67694 32.2275 14.0396 9.77241 22.4515 32.2275 29.0642 32.2275 29.0642-0.772509 24.7353-0.772509 24.7353 28.2033 16.2813 5.57132 11.826 5.57132 3.37198 28.2033 3.37198-0.772509-0.935716-0.772509Z" fill-rule="evenodd" transform="matrix(1 0 0 -1 1864 1508)"/><path d="M12.7214 13.6425C9.4213 13.6425 7.13482 13.253 5.86122 12.4742 4.58762 11.6954 3.951 10.3633 3.951 8.47763 3.951 6.97877 4.42882 5.78834 5.38518 4.9067 6.34155 4.03024 7.63876 3.59164 9.27681 3.59164 11.545 3.59164 13.363 4.42187 14.731 6.08234 16.0998 7.74281 16.7836 9.94949 16.7836 12.702L16.7836 13.6425ZM20.8673 15.3909 20.8673 0.71892 16.7836 0.71892 16.7836 4.62046C15.8512 3.0628 14.6888 1.91157 13.2968 1.16713 11.9048 0.422698 10.2028 0.0502948 8.19062 0.0502948 5.64806 0.0502948 3.6241 0.789924 2.11802 2.26918 0.617309 3.74844-0.133047 5.72732-0.133047 8.20582-0.133047 11.0955 0.801859 13.2752 2.67238 14.7445 4.5472 16.2138 7.34048 16.9486 11.0526 16.9486L16.7836 16.9486 16.7836 17.3676C16.7836 19.3121 16.1659 20.8158 14.9302 21.8786 13.6945 22.9414 11.9589 23.4729 9.72459 23.4729 8.30435 23.4729 6.91916 23.2965 5.56973 22.9437 4.22532 22.5912 2.93276 22.062 1.69242 21.3568L1.69242 25.2654C3.18347 25.863 4.63268 26.309 6.03826 26.6026 7.44455 26.9014 8.81293 27.0508 10.1438 27.0508 13.7418 27.0508 16.4288 26.086 18.2042 24.1563 19.9796 22.231 20.8673 19.3095 20.8673 15.3909Z" fill-rule="evenodd" transform="matrix(1 0 0 -1 1902 1509)"/><path d="M14.457 20.9007C13.9838 21.1716 13.469 21.3699 12.913 21.4955 12.3569 21.6262 11.7448 21.6916 11.0764 21.6916 8.69585 21.6916 6.86919 20.9248 5.59566 19.3918 4.3225 17.8585 3.6861 15.6555 3.6861 12.7828L3.6861-0.594481-0.543168-0.594481-0.543168 24.7966 3.6861 24.7966 3.6861 20.8499C4.57381 22.3927 5.725 23.5364 7.13967 24.2813 8.55913 25.031 10.2837 25.4057 12.313 25.4057 12.6008 25.4057 12.9203 25.3863 13.2715 25.3476 13.6227 25.314 14.0107 25.2581 14.4352 25.1811Z" fill-rule="evenodd" transform="matrix(1 0 0 -1 1931 1508)"/><path d="M-0.712473 34.1784 3.38014 34.1784 3.38014 13.5078 15.531 24.3684 20.7284 24.3684 7.58616 12.5865 21.2875-0.822001 15.9771-0.822001 3.38014 11.4783 3.38014-0.822001-0.712473-0.822001Z" fill-rule="evenodd" transform="matrix(1 0 0 -1 1950 1508)"/><path d="M23.8078 14.6343 23.8078 12.57 4.24741 12.57C4.43407 9.6603 5.31745 7.444 6.89533 5.92073 8.47395 4.39747 10.6733 3.63565 13.4948 3.63565 15.1275 3.63565 16.7106 3.83424 18.2445 4.23105 19.7788 4.62786 21.3022 5.22511 22.8164 6.02354L22.8164 2.02695C21.2877 1.38533 19.7217 0.895321 18.1185 0.557311 16.5157 0.2193 14.8909 0.0502948 13.2437 0.0502948 9.10994 0.0502948 5.83757 1.24332 3.42587 3.62862 1.01379 6.01873-0.191878 9.25128-0.191878 13.3266-0.191878 17.534 0.952313 20.872 3.24107 23.3405 5.52945 25.8142 8.61702 27.0508 12.5034 27.0508 15.9855 27.0508 18.7404 25.9366 20.7672 23.7081 22.7944 21.4844 23.8078 18.4597 23.8078 14.6343ZM19.5541 15.8761C19.5243 18.183 18.8734 20.0247 17.601 21.4012 16.3283 22.7821 14.6442 23.4729 12.5481 23.4729 10.1751 23.4729 8.27648 22.8068 6.85136 21.4744 5.42587 20.1423 4.60471 18.2663 4.3875 15.8466Z" fill-rule="evenodd" transform="matrix(1 0 0 -1 1973 1509)"/><path d="M6.91408 31.253 6.91408 24.1753 15.588 24.1753 15.588 20.9922 6.91408 20.9922 6.91408 7.46299C6.91408 5.43147 7.19965 4.12611 7.77115 3.54691 8.34265 2.96771 9.50742 2.6781 11.2658 2.6781L15.588 2.6781 15.588-0.746944 11.2658-0.746944C8.01281-0.746944 5.7685-0.158421 4.53289 1.01898 3.29729 2.20105 2.6793 4.34905 2.6793 7.46299L2.6793 20.9922-0.412115 20.9922-0.412115 24.1753 2.6793 24.1753 2.6793 31.253Z" fill-rule="evenodd" transform="matrix(1 0 0 -1 2000 1508)"/><path d="M15.0041 14.7019C15.9724 14.3768 16.914 13.6837 17.8297 12.6229 18.7454 11.562 19.6657 10.1024 20.5907 8.24484L25.1756-0.772509 20.3188-0.772509 16.0556 7.69305C14.9494 9.90449 13.8788 11.3708 12.8443 12.0924 11.8094 12.8137 10.398 13.1743 8.60956 13.1743L3.68863 13.1743 3.68863-0.772509-0.824898-0.772509-0.824898 32.2275 9.36781 32.2275C13.1825 32.2275 16.0297 31.4379 17.9082 29.8583 19.7871 28.2834 20.7265 25.905 20.7265 22.7221 20.7265 20.6431 20.2377 18.9172 19.2601 17.5452 18.2825 16.1778 16.8639 15.2302 15.0041 14.7019ZM3.68863 28.5572 3.68863 16.845 9.36781 16.845C11.5424 16.845 13.185 17.3423 14.2963 18.3373 15.4072 19.3323 15.9627 20.7937 15.9627 22.7221 15.9627 24.6509 15.4072 26.1051 14.2963 27.0859 13.185 28.0666 11.5424 28.5572 9.36781 28.5572Z" fill-rule="evenodd" transform="matrix(1 0 0 -1 2036 1508)"/><path d="M22.753 14.6343 22.753 12.57 4.00687 12.57C4.18647 9.6603 5.03269 7.444 6.54517 5.92073 8.05801 4.39747 10.1657 3.63565 12.8697 3.63565 14.4343 3.63565 15.9511 3.83424 17.4214 4.23105 18.8914 4.62786 20.3518 5.22511 21.8028 6.02354L21.8028 2.02695C20.3375 1.38533 18.8371 0.895321 17.3007 0.557311 15.7647 0.2193 14.2072 0.0502948 12.6283 0.0502948 8.6675 0.0502948 5.53149 1.24332 3.21992 3.62862 0.908347 6.01873-0.247082 9.25128-0.247082 13.3266-0.247082 17.534 0.849433 20.872 3.04246 23.3405 5.23585 25.8142 8.19512 27.0508 11.9196 27.0508 15.2562 27.0508 17.8963 25.9366 19.839 23.7081 21.7814 21.4844 22.753 18.4597 22.753 14.6343ZM18.6765 15.8761C18.6479 18.183 18.0238 20.0247 16.8048 21.4012 15.5851 22.7821 13.9708 23.4729 11.962 23.4729 9.68832 23.4729 7.86877 22.8068 6.50232 21.4744 5.13659 20.1423 4.35 18.2663 4.14148 15.8466Z" fill-rule="evenodd" transform="matrix(1 0 0 -1 2064 1509)"/><path d="M-0.256422 35.0453 3.74335 35.0453 3.74335 0.0452843-0.256422 0.0452843Z" fill-rule="evenodd" transform="matrix(1 0 0 -1 2094 1508)"/><path d="M12.5787 13.6425C9.27824 13.6425 6.99141 13.253 5.7178 12.4742 4.44456 11.6954 3.80758 10.3633 3.80758 8.47763 3.80758 6.97877 4.28576 5.78834 5.24212 4.9067 6.19849 4.03024 7.4957 3.59164 9.13411 3.59164 11.4016 3.59164 13.2199 4.42187 14.5883 6.08234 15.9563 7.74281 16.6405 9.94949 16.6405 12.702L16.6405 13.6425ZM20.7246 15.3909 20.7246 0.71892 16.6405 0.71892 16.6405 4.62046C15.7078 3.0628 14.5458 1.91157 13.1534 1.16713 11.7618 0.422698 10.0597 0.0502948 8.04756 0.0502948 5.50464 0.0502948 3.48068 0.789924 1.97532 2.26918 0.474606 3.74844-0.275751 5.72732-0.275751 8.20582-0.275751 11.0955 0.659155 13.2752 2.52897 14.7445 4.40378 16.2138 7.19741 16.9486 10.9095 16.9486L16.6405 16.9486 16.6405 17.3676C16.6405 19.3121 16.0229 20.8158 14.7872 21.8786 13.5511 22.9414 11.8161 23.4729 9.58153 23.4729 8.16093 23.4729 6.7761 23.2965 5.42667 22.9437 4.08225 22.5912 2.78934 22.062 1.549 21.3568L1.549 25.2654C3.04041 25.863 4.48926 26.309 5.89556 26.6026 7.30149 26.9014 8.67023 27.0508 10.0003 27.0508 13.599 27.0508 16.2857 26.086 18.0608 24.1563 19.8369 22.231 20.7246 19.3095 20.7246 15.3909Z" fill-rule="evenodd" transform="matrix(1 0 0 -1 2105 1509)"/><path d="M6.49163 31.253 6.49163 24.1753 14.6238 24.1753 14.6238 20.9922 6.49163 20.9922 6.49163 7.46299C6.49163 5.43147 6.75969 4.12611 7.29513 3.54691 7.83091 2.96771 8.92322 2.6781 10.5714 2.6781L14.6238 2.6781 14.6238-0.746944 10.5714-0.746944C7.52203-0.746944 5.41799-0.158421 4.25961 1.01898 3.10123 2.20105 2.52187 4.34905 2.52187 7.46299L2.52187 20.9922-0.376672 20.9922-0.376672 24.1753 2.52187 24.1753 2.52187 31.253Z" fill-rule="evenodd" transform="matrix(1 0 0 -1 2132 1508)"/><path d="M22.6923 14.6343 22.6923 12.57 3.94783 12.57C4.12492 9.6603 4.97326 7.444 6.48427 5.92073 7.99528 4.39747 10.1054 3.63565 12.8097 3.63565 14.3749 3.63565 15.8906 3.83424 17.3605 4.23105 18.8308 4.62786 20.2919 5.22511 21.744 6.02354L21.744 2.02695C20.2783 1.38533 18.7762 0.895321 17.2381 0.557311 15.7046 0.2193 14.1482 0.0502948 12.569 0.0502948 8.60796 0.0502948 5.47241 1.24332 3.15841 3.62862 0.848693 6.01873-0.308129 9.25128-0.308129 13.3266-0.308129 17.534 0.78978 20.872 2.98131 23.3405 5.1732 25.8142 8.13595 27.0508 11.8567 27.0508 15.1961 27.0508 17.8372 25.9366 19.7791 23.7081 21.7211 21.4844 22.6923 18.4597 22.6923 14.6343ZM18.613 15.8761C18.5859 18.183 17.9643 20.0247 16.7436 21.4012 15.5228 22.7821 13.9076 23.4729 11.902 23.4729 9.62875 23.4729 7.80926 22.8068 6.44356 21.4744 5.07787 20.1423 4.28809 18.2663 4.07958 15.8466Z" fill-rule="evenodd" transform="matrix(1 0 0 -1 2151 1509)"/><path d="M18.4351 22.2826 18.4351 36.0462 22.6605 36.0462 22.6605 0.707053 18.4351 0.707053 18.4351 4.52214C17.5457 3.01074 16.4212 1.88669 15.066 1.15038 13.7109 0.414063 12.0873 0.0457225 10.1815 0.0457225 7.07611 0.0457225 4.54462 1.27145 2.58703 3.72291 0.639075 6.17913-0.339902 9.40567-0.339902 13.4026-0.339902 17.3991 0.639075 20.6234 2.58703 23.0749 4.54462 25.526 7.07611 26.7517 10.1815 26.7517 12.0873 26.7517 13.7109 26.3834 15.066 25.6471 16.4212 24.9155 17.5457 23.794 18.4351 22.2826ZM4.03143 13.4026C4.03143 10.3311 4.67162 7.92061 5.9468 6.17181 7.2268 4.42302 8.9863 3.54843 11.2216 3.54843 13.4565 3.54843 15.2164 4.42302 16.5012 6.17181 17.7904 7.92061 18.4351 10.3311 18.4351 13.4026 18.4351 16.474 17.7904 18.8841 16.5012 20.6329 15.2164 22.3821 13.4565 23.2563 11.2216 23.2563 8.9863 23.2563 7.2268 22.3821 5.9468 20.6329 4.67162 18.8841 4.03143 16.474 4.03143 13.4026Z" fill-rule="evenodd" transform="matrix(1 0 0 -1 2179 1509)"/><path d="M1556 1575.99 1647 1575.99 1647 1542.99 1556 1542.99Z" fill="#FF7F0E" fill-rule="evenodd"/><path d="M14.6438 30.5155C11.3516 30.5155 8.7367 29.2789 6.79851 26.8064 4.86537 24.3386 3.8988 20.9717 3.8988 16.7061 3.8988 12.4595 4.86537 9.1002 6.79851 6.62772 8.7367 4.15961 11.3516 2.92592 14.6438 2.92592 17.931 2.92592 20.5365 4.15961 22.4602 6.62772 24.384 9.1002 25.3458 12.4595 25.3458 16.7061 25.3458 20.9717 24.384 24.3386 22.4602 26.8064 20.5365 29.2789 17.931 30.5155 14.6438 30.5155ZM14.6438 34.2169C19.3379 34.2169 23.0896 32.6313 25.8985 29.4597 28.7118 26.2882 30.1187 22.0368 30.1187 16.7061 30.1187 11.3896 28.7118 7.14558 25.8985 3.97401 23.0896 0.802445 19.3379-0.783157 14.6438-0.783157 9.93533-0.783157 6.16919 0.797714 3.34612 3.95982 0.527745 7.12629-0.881623 11.3751-0.881623 16.7061-0.881623 22.0368 0.527745 26.2882 3.34612 29.4597 6.16919 32.6313 9.93533 34.2169 14.6438 34.2169Z" fill-rule="evenodd" transform="matrix(1 0 0 -1 1687 1576)"/><path d="M6.89142 32.2353 6.89142 24.9364 15.5652 24.9364 15.5652 21.6538 6.89142 21.6538 6.89142 7.70176C6.89142 5.60639 7.17698 4.26023 7.74847 3.66293 8.31996 3.06599 9.4847 2.76734 11.2431 2.76734L15.5652 2.76734 15.5652-0.764743 11.2431-0.764743C7.99012-0.764743 5.74623-0.157828 4.51029 1.05637 3.27471 2.27538 2.65673 4.49051 2.65673 7.70176L2.65673 21.6538-0.434611 21.6538-0.434611 24.9364 2.65673 24.9364 2.65673 32.2353Z" fill-rule="evenodd" transform="matrix(1 0 0 -1 1721 1576)"/><path d="M20.9787 15.2583 20.9787 0.0503562 16.8603 0.0503562 16.8603 15.1217C16.8603 17.5062 16.3972 19.2886 15.4709 20.4692 14.5443 21.6542 13.1574 22.2469 11.3096 22.2469 9.08444 22.2469 7.33002 21.5343 6.04487 20.1091 4.76044 18.689 4.1184 16.748 4.1184 14.2867L4.1184 0.0503562-0.0212809 0.0503562-0.0212809 35.0508 4.1184 35.0508 4.1184 21.3257C5.10707 22.8418 6.26742 23.9742 7.59946 24.7227 8.93656 25.4712 10.4785 25.8454 12.2264 25.8454 15.1055 25.8454 17.2827 24.9506 18.7583 23.1609 20.2385 21.3713 20.9787 18.7368 20.9787 15.2583Z" fill-rule="evenodd" transform="matrix(1 0 0 -1 1742 1576)"/><path d="M22.9593 14.0976 22.9593 12.1094 4.21289 12.1094C4.39249 9.30784 5.23906 7.17363 6.75119 5.70678 8.26403 4.23993 10.3717 3.50633 13.0757 3.50633 14.6403 3.50633 16.1574 3.69757 17.6274 4.07932 19.0978 4.46144 20.5578 5.03692 22.0088 5.80578L22.0088 1.95687C20.5439 1.339 19.0432 0.867502 17.5067 0.542011 15.9707 0.216519 14.4136 0.0537737 12.8343 0.0537737 8.87352 0.0537737 5.73751 1.20225 3.4263 3.49921 1.11472 5.80115-0.0410613 8.91397-0.0410613 12.8384-0.0410613 16.8899 1.05581 20.1043 3.24884 22.4813 5.44223 24.8634 8.40114 26.0543 12.1256 26.0543 15.4626 26.0543 18.1027 24.9813 20.045 22.835 21.9878 20.6936 22.9593 17.7813 22.9593 14.0976ZM18.8825 15.2931C18.8539 17.5146 18.2301 19.288 17.0108 20.6135 15.7911 21.9436 14.1772 22.6088 12.1684 22.6088 9.89434 22.6088 8.07479 21.9671 6.7087 20.6844 5.34297 19.4013 4.55602 17.595 4.34785 15.265Z" fill-rule="evenodd" transform="matrix(1 0 0 -1 1770 1576)"/><path d="M13.4832 20.9061C13.0416 21.1767 12.5614 21.3754 12.0424 21.501 11.5234 21.6314 10.9518 21.6967 10.3283 21.6967 8.10648 21.6967 6.40126 20.9302 5.21298 19.3969 4.02469 17.864 3.43038 15.661 3.43038 12.7883L3.43038-0.589368-0.51693-0.589368-0.51693 24.8017 3.43038 24.8017 3.43038 20.8554C4.25891 22.3982 5.3337 23.5419 6.65405 24.2868 7.97888 25.0365 9.58814 25.4111 11.4822 25.4111 11.7508 25.4111 12.049 25.3918 12.3771 25.3531 12.7049 25.3191 13.0667 25.2636 13.4629 25.1862Z" fill-rule="evenodd" transform="matrix(1 0 0 -1 1800 1576)"/><path d="M-0.969479 33.2096 5.86405 33.2096 14.5053 10.0741 23.1977 33.2096 30.0312 33.2096 30.0312-0.790417 25.5579-0.790417 25.5579 29.0635 16.822 5.74565 12.2181 5.74565 3.48223 29.0635 3.48223-0.790417-0.969479-0.790417Z" fill-rule="evenodd" transform="matrix(1 0 0 -1 1833 1576)"/><path d="M10.8331 21.9963C8.62826 21.9963 6.88379 21.1452 5.6004 19.4422 4.31665 17.7396 3.6746 15.4074 3.6746 12.4452 3.6746 9.48341 4.3116 7.15084 5.58598 5.44824 6.86504 3.74564 8.61384 2.89417 10.8331 2.89417 13.0282 2.89417 14.7654 3.74778 16.0445 5.45536 17.3283 7.16758 17.9699 9.49729 17.9699 12.4452 17.9699 15.3789 17.3283 17.7044 16.0445 19.4212 14.7654 21.1381 13.0282 21.9963 10.8331 21.9963ZM10.8331 25.4421C14.4122 25.4421 17.2233 24.2911 19.2656 21.9895 21.3129 19.6922 22.3367 16.511 22.3367 12.4452 22.3367 8.39369 21.3129 5.21249 19.2656 2.90129 17.2233 0.594716 14.4122-0.558392 10.8331-0.558392 7.2396-0.558392 4.42372 0.594716 2.38616 2.90129 0.352932 5.21249-0.663324 8.39369-0.663324 12.4452-0.663324 16.511 0.352932 19.6922 2.38616 21.9895 4.42372 24.2911 7.2396 25.4421 10.8331 25.4421Z" fill-rule="evenodd" transform="matrix(1 0 0 -1 1871 1576)"/><path d="M20.8669 15.3838 20.8669 0.054774 16.7487 0.054774 16.7487 15.2462C16.7487 17.6496 16.2852 19.4462 15.3592 20.6363 14.4329 21.8307 13.0457 22.4281 11.1974 22.4281 8.97221 22.4281 7.21774 21.7099 5.93326 20.2733 4.64878 18.8419 4.00637 16.8854 4.00637 14.4045L4.00637 0.054774-0.133461 0.054774-0.133461 25.4458 4.00637 25.4458 4.00637 21.4995C4.9947 23.0277 6.15509 24.1692 7.48754 24.9236 8.82432 25.6781 10.3667 26.0553 12.1143 26.0553 14.9938 26.0553 17.1714 25.1533 18.6464 23.3494 20.1271 21.5455 20.8669 18.8901 20.8669 15.3838Z" fill-rule="evenodd" transform="matrix(1 0 0 -1 1901 1576)"/><path d="M22.8483 14.0976 22.8483 12.1094 4.10184 12.1094C4.2818 9.30784 5.12802 7.17363 6.6405 5.70678 8.15263 4.23993 10.261 3.50633 12.9643 3.50633 14.5289 3.50633 16.0464 3.69757 17.5164 4.07932 18.9864 4.46144 20.4467 5.03692 21.8982 5.80578L21.8982 1.95687C20.4328 1.339 18.9318 0.867502 17.3957 0.542011 15.86 0.216519 14.3022 0.0537737 12.7233 0.0537737 8.76248 0.0537737 5.62611 1.20225 3.31525 3.49921 1.00368 5.80115-0.152105 8.91397-0.152105 12.8384-0.152105 16.8899 0.944767 20.1043 3.1378 22.4813 5.33083 24.8634 8.28974 26.0543 12.0145 26.0543 15.3516 26.0543 17.9913 24.9813 19.934 22.835 21.8767 20.6936 22.8483 17.7813 22.8483 14.0976ZM18.7711 15.2931C18.7429 17.5146 18.1191 19.288 16.8994 20.6135 15.6801 21.9436 14.0658 22.6088 12.057 22.6088 9.78365 22.6088 7.9641 21.9671 6.59766 20.6844 5.23192 19.4013 4.44462 17.595 4.23681 15.265Z" fill-rule="evenodd" transform="matrix(1 0 0 -1 1928 1576)"/><path d="M12.5394 6.95837C11.3982 3.93959 10.2825 1.97143 9.19236 1.05391 8.10719 0.131283 6.6558-0.330031 4.83784-0.330031L1.59653-0.330031 1.59653 3.1548 3.97801 3.1548C5.09157 3.1548 5.95601 3.42758 6.57134 3.9735 7.19129 4.51431 7.87475 5.79688 8.62174 7.82046L9.34743 9.71859-0.623139 34.6704 3.66821 34.6704 11.3769 14.8408 19.0859 34.6704 23.3769 34.6704Z" fill-rule="evenodd" transform="matrix(1 0 0 -1 1955 1585)"/><path d="M15.0016 15.1529C15.9695 14.8177 16.9111 14.1035 17.8268 13.0105 18.7425 11.9175 19.6628 10.4141 20.5879 8.50019L25.1727-0.790417 20.3159-0.790417 16.0531 7.93168C14.9465 10.2101 13.8759 11.7209 12.8414 12.464 11.8065 13.2075 10.3952 13.579 8.60667 13.579L3.68574 13.579 3.68574-0.790417-0.82778-0.790417-0.82778 33.2096 9.36493 33.2096C13.18 33.2096 16.0268 32.3961 17.9053 30.7687 19.7842 29.146 20.7237 26.6952 20.7237 23.4161 20.7237 21.2738 20.2349 19.496 19.2572 18.0824 18.28 16.6736 16.8611 15.6972 15.0016 15.1529ZM3.68574 29.4277 3.68574 17.3609 9.36493 17.3609C11.5396 17.3609 13.1822 17.8733 14.2934 18.8985 15.4043 19.9233 15.9598 21.4293 15.9598 23.4161 15.9598 25.403 15.4043 26.9017 14.2934 27.9122 13.1822 28.9227 11.5396 29.4277 9.36493 29.4277Z" fill-rule="evenodd" transform="matrix(1 0 0 -1 2000 1576)"/><path d="M22.7783 14.0976 22.7783 12.1094 4.03228 12.1094C4.21188 9.30784 5.05776 7.17363 6.57062 5.70678 8.08313 4.23993 10.1912 3.50633 12.8945 3.50633 14.4592 3.50633 15.9767 3.69757 17.4463 4.07932 18.9167 4.46144 20.3774 5.03692 21.8285 5.80578L21.8285 1.95687C20.3628 1.339 18.8621 0.867502 17.3263 0.542011 15.7896 0.216519 14.2324 0.0537737 12.6539 0.0537737 8.69299 0.0537737 5.55621 1.20225 3.24496 3.49921 0.933712 5.80115-0.221734 8.91397-0.221734 12.8384-0.221734 16.8899 0.87444 20.1043 3.06786 22.4813 5.26092 24.8634 8.21988 26.0543 11.9444 26.0543 15.2815 26.0543 17.9216 24.9813 19.864 22.835 21.8071 20.6936 22.7783 17.7813 22.7783 14.0976ZM18.7017 15.2931C18.6728 17.5146 18.049 19.288 16.8297 20.6135 15.61 21.9436 13.996 22.6088 11.9872 22.6088 9.71382 22.6088 7.89389 21.9671 6.52777 20.6844 5.16166 19.4013 4.3747 17.595 4.16689 15.265Z" fill-rule="evenodd" transform="matrix(1 0 0 -1 2028 1576)"/><path d="M-0.231922 35.0508 3.76856 35.0508 3.76856 0.0503562-0.231922 0.0503562Z" fill-rule="evenodd" transform="matrix(1 0 0 -1 2058 1576)"/><path d="M12.6037 13.1425C9.30399 13.1425 7.0168 12.7675 5.7432 12.0175 4.46995 11.2676 3.83297 9.98482 3.83297 8.16862 3.83297 6.72563 4.31115 5.57929 5.26752 4.73031 6.22424 3.88595 7.52145 3.46395 9.1595 3.46395 11.427 3.46395 13.2453 4.26344 14.6137 5.8624 15.9817 7.46137 16.6663 9.58597 16.6663 12.2369L16.6663 13.1425ZM20.75 14.8262 20.75 0.697634 16.6663 0.697634 16.6663 4.45432C15.7332 2.95471 14.5711 1.84611 13.1792 1.12925 11.7872 0.412384 10.0847 0.0537737 8.07259 0.0537737 5.53075 0.0537737 3.50607 0.766009 2.00071 2.19048 0.499999 3.61495-0.250357 5.52053-0.250357 7.90687-0.250357 10.6899 0.684548 12.7885 2.55472 14.2037 4.42989 15.6186 7.22281 16.3262 10.9349 16.3262L16.6663 16.3262 16.6663 16.7293C16.6663 18.6018 16.0483 20.0498 14.8126 21.0732 13.5769 22.0971 11.8415 22.6088 9.60692 22.6088 8.18633 22.6088 6.80149 22.439 5.45242 22.0992 4.10765 21.7598 2.81545 21.2502 1.57439 20.5711L1.57439 24.3349C3.06616 24.9104 4.51466 25.3395 5.92095 25.6226 7.32724 25.9104 8.69562 26.0543 10.0257 26.0543 13.6244 26.0543 16.3108 25.1252 18.0869 23.2666 19.8623 21.413 20.75 18.5997 20.75 14.8262Z" fill-rule="evenodd" transform="matrix(1 0 0 -1 2069 1576)"/><path d="M6.48886 32.2353 6.48886 24.9364 14.621 24.9364 14.621 21.6538 6.48886 21.6538 6.48886 7.70176C6.48886 5.60639 6.75692 4.26023 7.29271 3.66293 7.82814 3.06599 8.92046 2.76734 10.5686 2.76734L14.621 2.76734 14.621-0.764743 10.5686-0.764743C7.51926-0.764743 5.41523-0.157828 4.25685 1.05637 3.09847 2.27538 2.5191 4.49051 2.5191 7.70176L2.5191 21.6538-0.379439 21.6538-0.379439 24.9364 2.5191 24.9364 2.5191 32.2353Z" fill-rule="evenodd" transform="matrix(1 0 0 -1 2096 1576)"/><path d="M22.7172 14.0976 22.7172 12.1094 3.97122 12.1094C4.15083 9.30784 4.9967 7.17363 6.50921 5.70678 8.02207 4.23993 10.1302 3.50633 12.8338 3.50633 14.3985 3.50633 15.9156 3.69757 17.3856 4.07932 18.8556 4.46144 20.3164 5.03692 21.7671 5.80578L21.7671 1.95687C20.3017 1.339 18.8014 0.867502 17.2653 0.542011 15.7289 0.216519 14.1714 0.0537737 12.5928 0.0537737 8.63193 0.0537737 5.49551 1.20225 3.18391 3.49921 0.873012 5.80115-0.282792 8.91397-0.282792 12.8384-0.282792 16.8899 0.813383 20.1043 3.0068 22.4813 5.19987 24.8634 8.15918 26.0543 11.8837 26.0543 15.2204 26.0543 17.8605 24.9813 19.8033 22.835 21.746 20.6936 22.7172 17.7813 22.7172 14.0976ZM18.6407 15.2931C18.6121 17.5146 17.988 19.288 16.7686 20.6135 15.5489 21.9436 13.935 22.6088 11.9262 22.6088 9.65277 22.6088 7.83283 21.9671 6.46707 20.6844 5.10061 19.4013 4.31364 17.595 4.10584 15.265Z" fill-rule="evenodd" transform="matrix(1 0 0 -1 2115 1576)"/><path d="M17.6575 21.669 17.6575 35.0499 21.7 35.0499 21.7 0.692747 17.6575 0.692747 17.6575 4.40186C16.8066 2.93244 15.7354 1.83962 14.4343 1.12376 13.1424 0.407896 11.5845 0.0497867 9.76585 0.0497867 6.79029 0.0497867 4.3684 1.24147 2.50018 3.62483 0.631952 6.01281-0.300035 9.14973-0.300035 13.0352-0.300035 16.9211 0.631952 20.0555 2.50018 22.4389 4.3684 24.8222 6.79029 26.0139 9.76585 26.0139 11.5845 26.0139 13.1424 25.6558 14.4343 24.9399 15.7354 24.2287 16.8066 23.1384 17.6575 21.669ZM3.87779 13.0352C3.87779 10.0491 4.4899 7.70592 5.71449 6.0057 6.93872 4.30548 8.61814 3.4552 10.7563 3.4552 12.8948 3.4552 14.5785 4.30548 15.8073 6.0057 17.0407 7.70592 17.6575 10.0491 17.6575 13.0352 17.6575 16.0214 17.0407 18.3649 15.8073 20.0651 14.5785 21.7653 12.8948 22.6156 10.7563 22.6156 8.61814 22.6156 6.93872 21.7653 5.71449 20.0651 4.4899 18.3649 3.87779 16.0214 3.87779 13.0352Z" fill-rule="evenodd" transform="matrix(1 0 0 -1 2143 1576)"/><path d="M-0.63092 33.2096 27.3693 33.2096 27.3693 29.3331 15.6215 29.3331 15.6215-0.790417 11.124-0.790417 11.124 29.3331-0.63092 29.3331Z" fill-rule="evenodd" transform="matrix(1 0 0 -1 2184 1576)"/><path d="M10.8594 21.9963C8.65457 21.9963 6.91046 21.1452 5.62672 19.4422 4.34297 17.7396 3.70091 15.4074 3.70091 12.4452 3.70091 9.48341 4.33828 7.15084 5.6123 5.44824 6.89136 3.74564 8.64051 2.89417 10.8594 2.89417 13.0549 2.89417 14.7918 3.74778 16.0708 5.45536 17.3546 7.16758 17.9966 9.49729 17.9966 12.4452 17.9966 15.3789 17.3546 17.7044 16.0708 19.4212 14.7918 21.1381 13.0549 21.9963 10.8594 21.9963ZM10.8594 25.4421C14.4388 25.4421 17.2497 24.2911 19.2923 21.9895 21.3396 19.6922 22.363 16.511 22.363 12.4452 22.363 8.39369 21.3396 5.21249 19.2923 2.90129 17.2497 0.594716 14.4388-0.558392 10.8594-0.558392 7.26592-0.558392 4.4504 0.594716 2.41248 2.90129 0.379609 5.21249-0.637007 8.39369-0.637007 12.4452-0.637007 16.511 0.379609 19.6922 2.41248 21.9895 4.4504 24.2911 7.26592 25.4421 10.8594 25.4421Z" fill-rule="evenodd" transform="matrix(1 0 0 -1 2207 1576)"/><path d="M3.37087 12.8774 3.37087-0.339445-0.689103-0.339445-0.689103 34.0627 3.37087 34.0627 3.37087 30.2812C4.22305 31.7626 5.29562 32.8616 6.58822 33.5785 7.88542 34.3 9.43307 34.6606 11.2312 34.6606 14.2189 34.6606 16.6446 33.4595 18.5085 31.0576 20.377 28.6553 21.3113 25.496 21.3113 21.5793 21.3113 17.6626 20.377 14.5008 18.5085 12.0938 16.6446 9.69191 14.2189 8.49077 11.2312 8.49077 9.43307 8.49077 7.88542 8.85137 6.58822 9.57327 5.29562 10.2948 4.22305 11.3959 3.37087 12.8774ZM17.1176 21.5793C17.1176 24.5891 16.5066 26.9509 15.2844 28.6646 14.0619 30.3787 12.3833 31.2353 10.2478 31.2353 8.10757 31.2353 6.42656 30.3787 5.20435 28.6646 3.98215 26.9509 3.37087 24.5891 3.37087 21.5793 3.37087 18.5694 3.98215 16.2077 5.20435 14.494 6.42656 12.7799 8.10757 11.9232 10.2478 11.9232 12.3833 11.9232 14.0619 12.7799 15.2844 14.494 16.5066 16.2077 17.1176 18.5694 17.1176 21.5793Z" fill-rule="evenodd" transform="matrix(1 0 0 -1 2237 1585)"/><path d="M-0.240702 24.3738 3.75978 24.3738 3.75978-0.816567-0.240702-0.816567ZM-0.240702 34.1835 3.75978 34.1835 3.75978 28.9367-0.240702 28.9367Z" fill-rule="evenodd" transform="matrix(1 0 0 -1 2266 1576)"/><path d="M19.5976 24.5119 19.5976 20.7054C18.4233 21.3421 17.2489 21.8186 16.0655 22.1348 14.8864 22.4507 13.6936 22.6088 12.4916 22.6088 9.79624 22.6088 7.69715 21.7716 6.20851 20.0971 4.71986 18.4273 3.97554 16.0808 3.97554 13.0574 3.97554 10.0343 4.71986 7.68537 6.20851 6.01091 7.69715 4.34107 9.79624 3.50633 12.4916 3.50633 13.6936 3.50633 14.8864 3.66445 16.0655 3.98032 17.2489 4.29656 18.4233 4.77269 19.5976 5.40942L19.5976 1.64562C18.4371 1.1175 17.2351 0.721138 15.996 0.457255 14.7569 0.188386 13.4393 0.0537737 12.0339 0.0537737 8.22429 0.0537737 5.2008 1.22576 2.95364 3.57008 0.715946 5.91404-0.40272 9.07672-0.40272 13.0574-0.40272 17.0951 0.730134 20.2691 2.99075 22.5803 5.26082 24.8962 8.36762 26.0543 12.3112 26.0543 13.5873 26.0543 14.8355 25.9243 16.0513 25.665 17.2718 25.4104 18.4509 25.0258 19.5976 24.5119Z" fill-rule="evenodd" transform="matrix(1 0 0 -1 2277 1576)"/><path d="M17.1381 24.1188 17.1381 20.2702C15.9877 20.8596 14.7894 21.3008 13.5443 21.5932 12.3034 21.8902 11.0157 22.039 9.68041 22.039 7.65369 22.039 6.13382 21.7299 5.12046 21.1121 4.1071 20.4942 3.60024 19.5651 3.60024 18.3244 3.60024 17.3814 3.96259 16.6407 4.68693 16.1029 5.41163 15.5652 6.86997 15.0534 9.06231 14.5677L10.4616 14.2564C13.3597 13.6386 15.4193 12.7661 16.6409 11.6386 17.8628 10.5115 18.4737 8.93855 18.4737 6.91972 18.4737 4.61813 17.5598 2.79517 15.732 1.45082 13.9041 0.111465 11.392-0.558392 8.19596-0.558392 6.86532-0.558392 5.4778-0.428765 4.03341-0.169156 2.58938 0.0900977 1.06952 0.476841-0.526533 0.991075L-0.526533 5.19362C0.98403 4.41051 2.47099 3.82328 3.93397 3.4319 5.39732 3.04516 6.84851 2.85179 8.28825 2.85179 10.2105 2.85179 11.6882 3.17942 12.7201 3.83503 13.7575 4.49064 14.2758 5.41512 14.2758 6.60847 14.2758 7.71208 13.9016 8.55893 13.1537 9.1483 12.41 9.73803 10.7717 10.3064 8.23852 10.8534L6.81774 11.186C4.28917 11.7141 2.46133 12.5279 1.33458 13.6268 0.212116 14.7258-0.348757 16.2325-0.348757 18.1477-0.348757 20.4778 0.479674 22.2748 2.13725 23.5386 3.79447 24.8075 6.14777 25.4421 9.19716 25.4421 10.7031 25.4421 12.1213 25.331 13.452 25.1095 14.7873 24.8923 16.016 24.5621 17.1381 24.1188Z" fill-rule="evenodd" transform="matrix(1 0 0 -1 2302 1576)"/><path d="M1556 1642.99 1647 1642.99 1647 1610.99 1556 1610.99Z" fill="#2CA02C" fill-rule="evenodd"/><path d="M14.6438 30.5206C11.3516 30.5206 8.7367 29.2843 6.79851 26.8119 4.86537 24.3437 3.8988 20.9771 3.8988 16.7116 3.8988 12.465 4.86537 9.10566 6.79851 6.63282 8.7367 4.16507 11.3516 2.93102 14.6438 2.93102 17.931 2.93102 20.5365 4.16507 22.4602 6.63282 24.384 9.10566 25.3458 12.465 25.3458 16.7116 25.3458 20.9771 24.384 24.3437 22.4602 26.8119 20.5365 29.2843 17.931 30.5206 14.6438 30.5206ZM14.6438 34.2224C19.3379 34.2224 23.0896 32.6368 25.8985 29.4652 28.7118 26.2936 30.1187 22.0423 30.1187 16.7116 30.1187 11.3951 28.7118 7.15104 25.8985 3.97947 23.0896 0.807904 19.3379-0.777698 14.6438-0.777698 9.93533-0.777698 6.16919 0.803173 3.34612 3.96492 0.527745 7.13175-0.881623 11.3805-0.881623 16.7116-0.881623 22.0423 0.527745 26.2936 3.34612 29.4652 6.16919 32.6368 9.93533 34.2224 14.6438 34.2224Z" fill-rule="evenodd" transform="matrix(1 0 0 -1 1687 1644)"/><path d="M6.89142 31.2638 6.89142 24.1857 15.5652 24.1857 15.5652 21.003 6.89142 21.003 6.89142 7.47374C6.89142 5.44187 7.17698 4.13651 7.74847 3.5573 8.31996 2.9781 9.4847 2.6885 11.2431 2.6885L15.5652 2.6885 15.5652-0.73655 11.2431-0.73655C7.99012-0.73655 5.74623-0.147668 4.51029 1.02938 3.27471 2.21144 2.65673 4.35945 2.65673 7.47374L2.65673 21.003-0.434611 21.003-0.434611 24.1857 2.65673 24.1857 2.65673 31.2638Z" fill-rule="evenodd" transform="matrix(1 0 0 -1 1721 1643)"/><path d="M20.9787 15.2637 20.9787 0.0557903 16.8603 0.0557903 16.8603 15.1268C16.8603 17.5116 16.3972 19.294 15.4709 20.4743 14.5443 21.6597 13.1574 22.252 11.3096 22.252 9.08444 22.252 7.33002 21.5394 6.04487 20.1146 4.76044 18.6941 4.1184 16.7534 4.1184 14.2921L4.1184 0.0557903-0.0212809 0.0557903-0.0212809 35.0559 4.1184 35.0559 4.1184 21.3307C5.10707 22.8472 6.26742 23.9793 7.59946 24.7281 8.93656 25.4766 10.4785 25.8508 12.2264 25.8508 15.1055 25.8508 17.2827 24.956 18.7583 23.166 20.2385 21.3764 20.9787 18.7423 20.9787 15.2637Z" fill-rule="evenodd" transform="matrix(1 0 0 -1 1742 1643)"/><path d="M22.9593 14.6454 22.9593 12.5807 4.21289 12.5807C4.39249 9.67139 5.23906 7.45509 6.75119 5.93146 8.26403 4.40819 10.3717 3.64674 13.0757 3.64674 14.6403 3.64674 16.1574 3.84496 17.6274 4.24177 19.0978 4.63858 20.5578 5.23621 22.0088 6.03426L22.0088 2.03768C20.5439 1.39605 19.0432 0.906416 17.5067 0.568405 15.9707 0.230394 14.4136 0.0613892 12.8343 0.0613892 8.87352 0.0613892 5.73751 1.25404 3.4263 3.63935 1.11472 6.02946-0.0410613 9.26238-0.0410613 13.3374-0.0410613 17.5447 1.05581 20.8827 3.24884 23.3516 5.44223 25.8249 8.40114 27.0616 12.1256 27.0616 15.4626 27.0616 18.1027 25.9473 20.045 23.7188 21.9878 21.4951 22.9593 18.4708 22.9593 14.6454ZM18.8825 15.8869C18.8539 18.1938 18.2301 20.0354 17.0108 21.4119 15.7911 22.7932 14.1772 23.4836 12.1684 23.4836 9.89434 23.4836 8.07479 22.8176 6.7087 21.4851 5.34297 20.153 4.55602 18.277 4.34785 15.8576Z" fill-rule="evenodd" transform="matrix(1 0 0 -1 1770 1644)"/><path d="M13.4832 20.9113C13.0416 21.1822 12.5614 21.3805 12.0424 21.5065 11.5234 21.6368 10.9518 21.7022 10.3283 21.7022 8.10648 21.7022 6.40126 20.9357 5.21298 19.4024 4.02469 17.8695 3.43038 15.6665 3.43038 12.7934L3.43038-0.583891-0.51693-0.583891-0.51693 24.8072 3.43038 24.8072 3.43038 20.8605C4.25891 22.4033 5.3337 23.5473 6.65405 24.2919 7.97888 25.0416 9.58814 25.4166 11.4822 25.4166 11.7508 25.4166 12.049 25.3973 12.3771 25.3585 12.7049 25.3246 13.0667 25.2691 13.4629 25.1917Z" fill-rule="evenodd" transform="matrix(1 0 0 -1 1800 1643)"/><path d="M-0.658778 33.2151 27.3411 33.2151 27.3411 29.3386 15.5935 29.3386 15.5935-0.785282 11.096-0.785282 11.096 29.3386-0.658778 29.3386Z" fill-rule="evenodd" transform="matrix(1 0 0 -1 1829 1643)"/><path d="M10.8316 22.8479C8.62681 22.8479 6.88235 21.9637 5.5986 20.1956 4.31485 18.4275 3.67316 16.0052 3.67316 12.9295 3.67316 9.85334 4.31016 7.43142 5.58454 5.66334 6.86324 3.89489 8.61239 3.01103 10.8316 3.01103 13.0267 3.01103 14.764 3.89748 16.0431 5.67037 17.3268 7.44844 17.9685 9.86813 17.9685 12.9295 17.9685 15.976 17.3268 18.3905 16.0431 20.1738 14.764 21.9566 13.0267 22.8479 10.8316 22.8479ZM10.8316 26.4258C14.4107 26.4258 17.2215 25.2306 19.2641 22.8405 21.3114 20.4552 22.3353 17.1516 22.3353 12.9295 22.3353 8.72208 21.3114 5.41815 19.2641 3.01806 17.2215 0.623138 14.4107-0.574322 10.8316-0.574322 7.23816-0.574322 4.42228 0.623138 2.38472 3.01806 0.35149 5.41815-0.664766 8.72208-0.664766 12.9295-0.664766 17.1516 0.35149 20.4552 2.38472 22.8405 4.42228 25.2306 7.23816 26.4258 10.8316 26.4258Z" fill-rule="evenodd" transform="matrix(1 0 0 -1 1852 1644)"/><path d="M3.49562 12.8824 3.49562-0.334068-0.749273-0.334068-0.749273 34.0678 3.49562 34.0678 3.49562 30.2866C4.38654 31.7676 5.50786 32.8666 6.85885 33.5835 8.21501 34.305 9.83301 34.666 11.7132 34.666 14.8364 34.666 17.3727 33.4649 19.321 31.0626 21.2744 28.6607 22.2511 25.501 22.2511 21.5847 22.2511 17.668 21.2744 14.5061 19.321 12.0992 17.3727 9.69693 14.8364 8.49579 11.7132 8.49579 9.83301 8.49579 8.21501 8.85674 6.85885 9.57829 5.50786 10.2998 4.38654 11.4013 3.49562 12.8824ZM17.8672 21.5847C17.8672 24.5945 17.2281 26.9563 15.9504 28.67 14.6726 30.384 12.9174 31.2407 10.6851 31.2407 8.44763 31.2407 6.68984 30.384 5.41208 28.67 4.13432 26.9563 3.49562 24.5945 3.49562 21.5847 3.49562 18.5748 4.13432 16.2127 5.41208 14.499 6.68984 12.7853 8.44763 11.9282 10.6851 11.9282 12.9174 11.9282 14.6726 12.7853 15.9504 14.499 17.2281 16.2127 17.8672 18.5748 17.8672 21.5847Z" fill-rule="evenodd" transform="matrix(1 0 0 -1 1881 1652)"/><path d="M-0.26803 24.3789 3.73245 24.3789 3.73245-0.811133-0.26803-0.811133ZM-0.26803 34.1889 3.73245 34.1889 3.73245 28.9421-0.26803 28.9421Z" fill-rule="evenodd" transform="matrix(1 0 0 -1 1911 1643)"/><path d="M19.8515 25.4603 19.8515 21.5073C18.6766 22.1685 17.4991 22.6633 16.3195 22.9914 15.1398 23.3198 13.9478 23.4836 12.7438 23.4836 10.0476 23.4836 7.95276 22.6142 6.46027 20.8757 4.97216 19.1416 4.22791 16.7049 4.22791 13.5652 4.22791 10.4254 4.97216 7.98652 6.46027 6.24765 7.95276 4.51359 10.0476 3.64674 12.7438 3.64674 13.9478 3.64674 15.1398 3.81094 16.3195 4.13896 17.4991 4.46699 18.6766 4.9618 19.8515 5.62303L19.8515 1.71446C18.6911 1.16566 17.4897 0.754422 16.2471 0.480019 15.0096 0.200809 13.6903 0.0613892 12.2891 0.0613892 8.47984 0.0613892 5.4534 1.27845 3.2094 3.71294 0.97086 6.14706-0.148775 9.43138-0.148775 13.5652-0.148775 17.7578 0.982864 21.0543 3.24541 23.4544 5.51379 25.8593 8.61952 27.0616 12.5637 27.0616 13.8394 27.0616 15.0867 26.9269 16.3049 26.6577 17.5235 26.3933 18.7053 25.9939 19.8515 25.4603Z" fill-rule="evenodd" transform="matrix(1 0 0 -1 1921 1644)"/><path d="M17.1105 25.052 17.1105 21.0554C15.9598 21.6674 14.7619 22.1256 13.5164 22.4293 12.2759 22.7377 10.9878 22.8919 9.65251 22.8919 7.62579 22.8919 6.10592 22.5713 5.09256 21.9296 4.0792 21.288 3.5727 20.3228 3.5727 19.0347 3.5727 18.0551 3.93469 17.2862 4.65939 16.7278 5.38373 16.1694 6.84207 15.638 9.03476 15.1336L10.4337 14.8103C13.3318 14.1687 15.3918 13.2623 16.6133 12.0918 17.8349 10.9214 18.4458 9.28752 18.4458 7.19141 18.4458 4.8013 17.5319 2.90785 15.7041 1.51217 13.8766 0.120929 11.3645-0.574322 8.16806-0.574322 6.83742-0.574322 5.4499-0.43971 4.00587-0.170485 2.56148 0.0991103 1.04162 0.500729-0.554076 1.03437L-0.554076 5.39855C0.956487 4.5857 2.44308 3.97588 3.90643 3.56945 5.36978 3.16746 6.82096 2.96665 8.26034 2.96665 10.183 2.96665 11.6603 3.30725 12.6926 3.98808 13.7296 4.66891 14.2482 5.62895 14.2482 6.8682 14.2482 8.01425 13.8741 8.8933 13.1258 9.50571 12.3825 10.1178 10.7442 10.7084 8.21062 11.2764L6.7902 11.6218C4.26163 12.1702 2.43378 13.0153 1.30667 14.1565 0.184573 15.2978-0.376657 16.8624-0.376657 18.8513-0.376657 21.2706 0.452132 23.1367 2.10935 24.4496 3.76657 25.7672 6.12023 26.4258 9.16962 26.4258 10.6755 26.4258 12.0934 26.3108 13.4241 26.0804 14.7594 25.8552 15.9884 25.5124 17.1105 25.052Z" fill-rule="evenodd" transform="matrix(1 0 0 -1 1947 1644)"/><text font-family="Aptos,Aptos_MSFontService,sans-serif" font-weight="400" font-size="55" transform="matrix(-1.83697e-16 -1 1 -1.83697e-16 1315.4 1504)">Topic Distribution in %</text><text font-family="Aptos,Aptos_MSFontService,sans-serif" font-weight="400" font-size="55" transform="matrix(1 0 0 1 2067.86 1753)">Youtube</text><text font-family="Aptos,Aptos_MSFontService,sans-serif" font-weight="400" font-size="55" transform="matrix(1 0 0 1 2275.41 1753)">channels</text></g></svg>