<svg width="1716" height="1132" xmlns="http://www.w3.org/2000/svg" xmlns:xlink="http://www.w3.org/1999/xlink" xml:space="preserve" overflow="hidden"><g transform="translate(-1341 -721)"><path d="M1518.01 1722.07 1502.01 1722.07" stroke="#000000" stroke-width="3.66414" stroke-linejoin="round" stroke-miterlimit="10" fill="none" fill-rule="evenodd"/><path d="M10.7683 30.6171C8.45297 30.6171 6.71052 29.4605 5.54061 27.1469 4.37574 24.838 3.79348 21.3627 3.79348 16.7214 3.79348 12.0989 4.37574 8.63092 5.54061 6.31733 6.71052 4.00374 8.45297 2.84676 10.7683 2.84676 13.1028 2.84676 14.8524 4.00374 16.0173 6.31733 17.1872 8.63092 17.772 12.0989 17.772 16.7214 17.772 21.3627 17.1872 24.838 16.0173 27.1469 14.8524 29.4605 13.1028 30.6171 10.7683 30.6171ZM10.7683 34.2321C14.5007 34.2321 17.3512 32.7356 19.3195 29.7425 21.2878 26.7538 22.2721 22.4135 22.2721 16.7214 22.2721 11.0435 21.2878 6.70784 19.3195 3.71441 17.3512 0.726067 14.5007-0.76792 10.7683-0.76792 7.04067-0.76792 4.19268 0.726067 2.22437 3.71441 0.256063 6.70784-0.72827 11.0435-0.72827 16.7214-0.72827 22.4135 0.256063 26.7538 2.22437 29.7425 4.19268 32.7356 7.04067 34.2321 10.7683 34.2321Z" fill-rule="evenodd" transform="matrix(1 0 0 -1 1372 1740)"/><path d="M-0.38166 5.93362 4.6185 5.93362 4.6185-0.0665716-0.38166-0.0665716Z" fill-rule="evenodd" transform="matrix(1 0 0 -1 1403 1739)"/><path d="M10.7719 30.6171C8.45621 30.6171 6.71375 29.4605 5.5442 27.1469 4.37933 24.838 3.79672 21.3627 3.79672 16.7214 3.79672 12.0989 4.37933 8.63092 5.5442 6.31733 6.71375 4.00374 8.45621 2.84676 10.7719 2.84676 13.1063 2.84676 14.856 4.00374 16.0209 6.31733 17.1904 8.63092 17.7752 12.0989 17.7752 16.7214 17.7752 21.3627 17.1904 24.838 16.0209 27.1469 14.856 29.4605 13.1063 30.6171 10.7719 30.6171ZM10.7719 34.2321C14.5043 34.2321 17.3544 32.7356 19.3231 29.7425 21.2914 26.7538 22.2754 22.4135 22.2754 16.7214 22.2754 11.0435 21.2914 6.70784 19.3231 3.71441 17.3544 0.726067 14.5043-0.76792 10.7719-0.76792 7.04426-0.76792 4.19628 0.726067 2.22797 3.71441 0.2593 6.70784-0.724674 11.0435-0.724674 16.7214-0.724674 22.4135 0.2593 26.7538 2.22797 29.7425 4.19628 32.7356 7.04426 34.2321 10.7719 34.2321Z" fill-rule="evenodd" transform="matrix(1 0 0 -1 1416 1740)"/><path d="M30.0974 14.7332C28.7816 14.7332 27.7491 14.1763 26.999 13.063 26.2541 11.9494 25.882 10.3975 25.882 8.40673 25.882 6.4498 26.2541 4.90996 26.999 3.78683 27.7491 2.6637 28.7816 2.10214 30.0974 2.10214 31.3842 2.10214 32.3999 2.6637 33.1449 3.78683 33.8946 4.90996 34.2696 6.4498 34.2696 8.40673 34.2696 10.3829 33.8946 11.9301 33.1449 13.0485 32.3999 14.1716 31.3842 14.7332 30.0974 14.7332ZM30.0974 17.6032C32.487 17.6032 34.383 16.7741 35.7859 15.116 37.1934 13.463 37.8974 11.2266 37.8974 8.40673 37.8974 5.59199 37.1912 3.35774 35.7785 1.70471 34.3662 0.0560473 32.4724-0.76792 30.0974-0.76792 27.6788-0.76792 25.7656 0.0560473 24.358 1.70471 22.9552 3.35774 22.2538 5.59199 22.2538 8.40673 22.2538 11.2408 22.96 13.4823 24.3727 15.1306 25.785 16.7789 27.6935 17.6032 30.0974 17.6032ZM6.69761 31.3617C5.39614 31.3617 4.37092 30.8002 3.62085 29.6774 2.87589 28.559 2.50378 27.0192 2.50378 25.0575 2.50378 23.0715 2.8737 21.5196 3.61389 20.4012 4.35372 19.2879 5.38187 18.7311 6.69761 18.7311 8.01299 18.7311 9.04333 19.2879 9.78829 20.4012 10.5384 21.5196 10.913 23.0715 10.913 25.0575 10.913 26.9999 10.5358 28.535 9.78133 29.6628 9.0265 30.7954 7.99872 31.3617 6.69761 31.3617ZM27.1732 34.2321 30.8013 34.2321 9.62144-0.76792 5.99364-0.76792ZM6.69761 34.2321C9.08687 34.2321 10.9906 33.4078 12.4077 31.7595 13.8299 30.1112 14.5408 27.877 14.5408 25.0575 14.5408 22.2136 13.8347 19.9699 12.4223 18.3264 11.0096 16.6828 9.10151 15.861 6.69761 15.861 4.29335 15.861 2.39219 16.685 0.994489 18.3336-0.403577 19.9867-1.10243 22.2282-1.10243 25.0575-1.10243 27.8624-0.401015 30.0919 1.00181 31.745 2.40938 33.4031 4.30799 34.2321 6.69761 34.2321Z" fill-rule="evenodd" transform="matrix(1 0 0 -1 1444 1740)"/><path d="M1518.01 1610.08 1502.01 1610.08" stroke="#000000" stroke-width="3.66414" stroke-linejoin="round" stroke-miterlimit="10" fill="none" fill-rule="evenodd"/><path d="M0.671025 34.2253 17.9079 34.2253 17.9079 30.3112 4.69156 30.3112 4.69156 21.9012C5.32681 22.1319 5.96206 22.3034 6.5973 22.4163 7.23746 22.5289 7.87727 22.5856 8.51742 22.5856 12.1391 22.5856 15.0074 21.536 17.1218 19.4363 19.2412 17.3371 20.3009 14.4945 20.3009 10.9089 20.3009 7.21557 19.2135 4.34334 17.0384 2.29297 14.8636 0.247778 11.7982-0.774816 7.84254-0.774816 6.47909-0.774816 5.09039-0.652223 3.67608-0.407038 2.26633-0.161852 0.807826 0.205926-0.699438 0.696668L-0.699438 5.36853C0.603677 4.61816 1.95099 4.0589 3.34215 3.69112 4.73331 3.32334 6.20339 3.13927 7.75204 3.13927 10.2611 3.13927 12.2458 3.83593 13.7064 5.2289 15.1719 6.62186 15.9047 8.5152 15.9047 10.9089 15.9047 13.2978 15.1719 15.1885 13.7064 16.5815 12.2458 17.9797 10.2611 18.6786 7.75204 18.6786 6.57906 18.6786 5.40784 18.5411 4.23942 18.2667 3.07556 17.9919 1.8861 17.5626 0.671025 16.9789Z" fill-rule="evenodd" transform="matrix(1 0 0 -1 1373 1629)"/><path d="M-0.38166 5.92414 4.6185 5.92414 4.6185-0.0756969-0.38166-0.0756969Z" fill-rule="evenodd" transform="matrix(1 0 0 -1 1403 1628)"/><path d="M10.7719 30.6084C8.45621 30.6084 6.71375 29.4517 5.5442 27.1382 4.37933 24.8293 3.79672 21.354 3.79672 16.7123 3.79672 12.0902 4.37933 8.62218 5.5442 6.30859 6.71375 3.99501 8.45621 2.83803 10.7719 2.83803 13.1063 2.83803 14.856 3.99501 16.0209 6.30859 17.1904 8.62218 17.7752 12.0902 17.7752 16.7123 17.7752 21.354 17.1904 24.8293 16.0209 27.1382 14.856 29.4517 13.1063 30.6084 10.7719 30.6084ZM10.7719 34.2234C14.5043 34.2234 17.3544 32.7269 19.3231 29.7334 21.2914 26.7451 22.2754 22.4047 22.2754 16.7123 22.2754 11.0344 21.2914 6.69874 19.3231 3.70567 17.3544 0.717332 14.5043-0.777019 10.7719-0.777019 7.04426-0.777019 4.19628 0.717332 2.22797 3.70567 0.2593 6.69874-0.724674 11.0344-0.724674 16.7123-0.724674 22.4047 0.2593 26.7451 2.22797 29.7334 4.19628 32.7269 7.04426 34.2234 10.7719 34.2234Z" fill-rule="evenodd" transform="matrix(1 0 0 -1 1416 1629)"/><path d="M30.0974 14.7241C28.7816 14.7241 27.7491 14.1676 26.999 13.0539 26.2541 11.9406 25.882 10.3884 25.882 8.39799 25.882 6.44107 26.2541 4.90123 26.999 3.7781 27.7491 2.65497 28.7816 2.0934 30.0974 2.0934 31.3842 2.0934 32.3999 2.65497 33.1449 3.7781 33.8946 4.90123 34.2696 6.44107 34.2696 8.39799 34.2696 10.3742 33.8946 11.9213 33.1449 13.0397 32.3999 14.1625 31.3842 14.7241 30.0974 14.7241ZM30.0974 17.5945C32.487 17.5945 34.383 16.7654 35.7859 15.1073 37.1934 13.4543 37.8974 11.2175 37.8974 8.39799 37.8974 5.58325 37.1912 3.34901 35.7785 1.69561 34.3662 0.0473126 32.4724-0.777019 30.0974-0.777019 27.6788-0.777019 25.7656 0.0473126 24.358 1.69561 22.9552 3.34901 22.2538 5.58325 22.2538 8.39799 22.2538 11.232 22.96 13.4735 24.3727 15.1218 25.785 16.7701 27.6935 17.5945 30.0974 17.5945ZM6.69761 31.353C5.39614 31.353 4.37092 30.7914 3.62085 29.6683 2.87589 28.5503 2.50378 27.0104 2.50378 25.0484 2.50378 23.0627 2.8737 21.5109 3.61389 20.3925 4.35372 19.2792 5.38187 18.7223 6.69761 18.7223 8.01299 18.7223 9.04333 19.2792 9.78829 20.3925 10.5384 21.5109 10.913 23.0627 10.913 25.0484 10.913 26.9911 10.5358 28.5262 9.78133 29.6541 9.0265 30.7867 7.99872 31.353 6.69761 31.353ZM27.1732 34.2234 30.8013 34.2234 9.62144-0.777019 5.99364-0.777019ZM6.69761 34.2234C9.08687 34.2234 10.9906 33.3991 12.4077 31.7508 13.8299 30.1021 14.5408 27.8682 14.5408 25.0484 14.5408 22.2049 13.8347 19.9612 12.4223 18.3173 11.0096 16.6737 9.10151 15.8519 6.69761 15.8519 4.29335 15.8519 2.39219 16.6762 0.994489 18.3245-0.403577 19.9779-1.10243 22.2191-1.10243 25.0484-1.10243 27.8537-0.401015 30.0828 1.00181 31.7362 2.40938 33.3943 4.30799 34.2234 6.69761 34.2234Z" fill-rule="evenodd" transform="matrix(1 0 0 -1 1444 1629)"/><path d="M1518.01 1499.07 1502.01 1499.07" stroke="#000000" stroke-width="3.66414" stroke-linejoin="round" stroke-miterlimit="10" fill="none" fill-rule="evenodd"/><path d="M-0.103106 3.07604 7.3194 3.07604 7.3194 29.0173-0.758044 27.3777-0.758044 31.5677 7.2762 33.2074 11.819 33.2074 11.819 3.07604 19.2419 3.07604 19.2419-0.793036-0.103106-0.793036Z" fill-rule="evenodd" transform="matrix(1 0 0 -1 1345 1517)"/><path d="M10.7683 29.7253C8.45297 29.7253 6.71052 28.6014 5.54061 26.3539 4.37574 24.1114 3.79348 20.7354 3.79348 16.2263 3.79348 11.7359 4.37574 8.36699 5.54061 6.11986 6.71052 3.87237 8.45297 2.74846 10.7683 2.74846 13.1028 2.74846 14.8524 3.87237 16.0173 6.11986 17.1872 8.36699 17.772 11.7359 17.772 16.2263 17.772 20.7354 17.1872 24.1114 16.0173 26.3539 14.8524 28.6014 13.1028 29.7253 10.7683 29.7253ZM10.7683 33.2371C14.5007 33.2371 17.3512 31.783 19.3195 28.8754 21.2878 25.9725 22.2721 21.7561 22.2721 16.2263 22.2721 10.7106 21.2878 6.49886 19.3195 3.59131 17.3512 0.688351 14.5007-0.763303 10.7683-0.763303 7.04067-0.763303 4.19268 0.688351 2.22437 3.59131 0.256063 6.49886-0.72827 10.7106-0.72827 16.2263-0.72827 21.7561 0.256063 25.9725 2.22437 28.8754 4.19268 31.783 7.04067 33.2371 10.7683 33.2371Z" fill-rule="evenodd" transform="matrix(1 0 0 -1 1372 1517)"/><path d="M-0.38166 5.91501 4.6185 5.91501 4.6185-0.0848262-0.38166-0.0848262Z" fill-rule="evenodd" transform="matrix(1 0 0 -1 1403 1517)"/><path d="M10.7719 29.7253C8.45621 29.7253 6.71375 28.6014 5.5442 26.3539 4.37933 24.1114 3.79672 20.7354 3.79672 16.2263 3.79672 11.7359 4.37933 8.36699 5.5442 6.11986 6.71375 3.87237 8.45621 2.74846 10.7719 2.74846 13.1063 2.74846 14.856 3.87237 16.0209 6.11986 17.1904 8.36699 17.7752 11.7359 17.7752 16.2263 17.7752 20.7354 17.1904 24.1114 16.0209 26.3539 14.856 28.6014 13.1063 29.7253 10.7719 29.7253ZM10.7719 33.2371C14.5043 33.2371 17.3544 31.783 19.3231 28.8754 21.2914 25.9725 22.2754 21.7561 22.2754 16.2263 22.2754 10.7106 21.2914 6.49886 19.3231 3.59131 17.3544 0.688351 14.5043-0.763303 10.7719-0.763303 7.04426-0.763303 4.19628 0.688351 2.22797 3.59131 0.2593 6.49886-0.724674 10.7106-0.724674 16.2263-0.724674 21.7561 0.2593 25.9725 2.22797 28.8754 4.19628 31.783 7.04426 33.2371 10.7719 33.2371Z" fill-rule="evenodd" transform="matrix(1 0 0 -1 1416 1517)"/><path d="M30.0974 14.2949C28.7816 14.2949 27.7491 13.7539 26.999 12.6725 26.2541 11.591 25.882 10.0831 25.882 8.14956 25.882 6.24855 26.2541 4.75235 26.999 3.66166 27.7491 2.57062 28.7816 2.0251 30.0974 2.0251 31.3842 2.0251 32.3999 2.57062 33.1449 3.66166 33.8946 4.75235 34.2696 6.24855 34.2696 8.14956 34.2696 10.0693 33.8946 11.5722 33.1449 12.6583 32.3999 13.7493 31.3842 14.2949 30.0974 14.2949ZM30.0974 17.0833C32.487 17.0833 34.383 16.2779 35.7859 14.6672 37.1934 13.061 37.8974 10.8885 37.8974 8.14956 37.8974 5.41489 37.1912 3.24483 35.7785 1.63868 34.3662 0.0374757 32.4724-0.763303 30.0974-0.763303 27.6788-0.763303 25.7656 0.0374757 24.358 1.63868 22.9552 3.24483 22.2538 5.41489 22.2538 8.14956 22.2538 10.9026 22.96 13.0797 24.3727 14.6813 25.785 16.2825 27.6935 17.0833 30.0974 17.0833ZM6.69761 30.4487C5.39614 30.4487 4.37092 29.9032 3.62085 28.8121 2.87589 27.726 2.50378 26.2298 2.50378 24.3242 2.50378 22.3953 2.8737 20.8874 3.61389 19.8013 4.35372 18.7195 5.38187 18.1789 6.69761 18.1789 8.01299 18.1789 9.04333 18.7195 9.78829 19.8013 10.5384 20.8874 10.913 22.3953 10.913 24.3242 10.913 26.2111 10.5358 27.7027 9.78133 28.7983 9.0265 29.8986 7.99872 30.4487 6.69761 30.4487ZM27.1732 33.2371 30.8013 33.2371 9.62144-0.763303 5.99364-0.763303ZM6.69761 33.2371C9.08687 33.2371 10.9906 32.4363 12.4077 30.8351 13.8299 29.2335 14.5408 27.0635 14.5408 24.3242 14.5408 21.5616 13.8347 19.382 12.4223 17.7854 11.0096 16.1888 9.10151 15.3905 6.69761 15.3905 4.29335 15.3905 2.39219 16.1913 0.994489 17.7925-0.403577 19.3986-1.10243 21.5758-1.10243 24.3242-1.10243 27.0493-0.401015 29.2148 1.00181 30.821 2.40938 32.4317 4.30799 33.2371 6.69761 33.2371Z" fill-rule="evenodd" transform="matrix(1 0 0 -1 1444 1517)"/><path d="M1518.01 1388.06 1502.01 1388.06" stroke="#000000" stroke-width="3.66414" stroke-linejoin="round" stroke-miterlimit="10" fill="none" fill-rule="evenodd"/><path d="M-0.103106 3.06724 7.3194 3.06724 7.3194 29.0085-0.758044 27.3689-0.758044 31.5589 7.2762 33.1982 11.819 33.1982 11.819 3.06724 19.2419 3.06724 19.2419-0.802206-0.103106-0.802206Z" fill-rule="evenodd" transform="matrix(1 0 0 -1 1345 1406)"/><path d="M0.671025 33.2301 17.9079 33.2301 17.9079 29.4275 4.69156 29.4275 4.69156 21.2581C5.32681 21.4819 5.96206 21.6488 6.5973 21.7582 7.23746 21.868 7.87727 21.9226 8.51742 21.9226 12.1391 21.9226 15.0074 20.903 17.1218 18.8637 19.2412 16.8244 20.3009 14.0631 20.3009 10.5799 20.3009 6.99177 19.2135 4.20197 17.0384 2.21018 14.8636 0.223069 11.7982-0.770308 7.84254-0.770308 6.47909-0.770308 5.09039-0.651218 3.67608-0.413037 2.26633-0.174498 0.807826 0.182773-0.699438 0.659133L-0.699438 5.19787C0.603677 4.46894 1.95099 3.92565 3.34215 3.56802 4.73331 3.21075 6.20339 3.0323 7.75204 3.0323 10.2611 3.0323 12.2458 3.7087 13.7064 5.06187 15.1719 6.41539 15.9047 8.25463 15.9047 10.5799 15.9047 12.9002 15.1719 14.7373 13.7064 16.0905 12.2458 17.4483 10.2611 18.1276 7.75204 18.1276 6.57906 18.1276 5.40784 17.9941 4.23942 17.7271 3.07556 17.4605 1.8861 17.0436 0.671025 16.4765Z" fill-rule="evenodd" transform="matrix(1 0 0 -1 1373 1406)"/><path d="M-0.38166 5.90588 4.6185 5.90588 4.6185-0.0939555-0.38166-0.0939555Z" fill-rule="evenodd" transform="matrix(1 0 0 -1 1403 1406)"/><path d="M10.7719 29.7168C8.45621 29.7168 6.71375 28.5929 5.5442 26.3454 4.37933 24.1026 3.79672 20.7269 3.79672 16.2178 3.79672 11.7274 4.37933 8.3585 5.5442 6.11102 6.71375 3.86354 8.45621 2.73997 10.7719 2.73997 13.1063 2.73997 14.856 3.86354 16.0209 6.11102 17.1904 8.3585 17.7752 11.7274 17.7752 16.2178 17.7752 20.7269 17.1904 24.1026 16.0209 26.3454 14.856 28.5929 13.1063 29.7168 10.7719 29.7168ZM10.7719 33.2282C14.5043 33.2282 17.3544 31.7745 19.3231 28.8669 21.2914 25.964 22.2754 21.7476 22.2754 16.2178 22.2754 10.7021 21.2914 6.49037 19.3231 3.58282 17.3544 0.679866 14.5043-0.771788 10.7719-0.771788 7.04426-0.771788 4.19628 0.679866 2.22797 3.58282 0.2593 6.49037-0.724674 10.7021-0.724674 16.2178-0.724674 21.7476 0.2593 25.964 2.22797 28.8669 4.19628 31.7745 7.04426 33.2282 10.7719 33.2282Z" fill-rule="evenodd" transform="matrix(1 0 0 -1 1416 1406)"/><path d="M30.0974 14.2864C28.7816 14.2864 27.7491 13.7455 26.999 12.664 26.2541 11.5825 25.882 10.0746 25.882 8.14072 25.882 6.23971 26.2541 4.74386 26.999 3.65282 27.7491 2.56214 28.7816 2.01662 30.0974 2.01662 31.3842 2.01662 32.3999 2.56214 33.1449 3.65282 33.8946 4.74386 34.2696 6.23971 34.2696 8.14072 34.2696 10.0605 33.8946 11.5637 33.1449 12.6498 32.3999 13.7409 31.3842 14.2864 30.0974 14.2864ZM30.0974 17.0744C32.487 17.0744 34.383 16.2694 35.7859 14.6587 37.1934 13.0525 37.8974 10.88 37.8974 8.14072 37.8974 5.4064 37.1912 3.23635 35.7785 1.63019 34.3662 0.0289907 32.4724-0.771788 30.0974-0.771788 27.6788-0.771788 25.7656 0.0289907 24.358 1.63019 22.9552 3.23635 22.2538 5.4064 22.2538 8.14072 22.2538 10.8941 22.96 13.0713 24.3727 14.6725 25.785 16.274 27.6935 17.0744 30.0974 17.0744ZM6.69761 30.4402C5.39614 30.4402 4.37092 29.8947 3.62085 28.8036 2.87589 27.7172 2.50378 26.2213 2.50378 24.3157 2.50378 22.3864 2.8737 20.8789 3.61389 19.7925 4.35372 18.711 5.38187 18.1704 6.69761 18.1704 8.01299 18.1704 9.04333 18.711 9.78829 19.7925 10.5384 20.8789 10.913 22.3864 10.913 24.3157 10.913 26.2026 10.5358 27.6939 9.78133 28.7895 9.0265 29.8901 7.99872 30.4402 6.69761 30.4402ZM27.1732 33.2282 30.8013 33.2282 9.62144-0.771788 5.99364-0.771788ZM6.69761 33.2282C9.08687 33.2282 10.9906 32.4278 12.4077 30.8263 13.8299 29.2251 14.5408 27.055 14.5408 24.3157 14.5408 21.5531 13.8347 19.3735 12.4223 17.7769 11.0096 16.1803 9.10151 15.382 6.69761 15.382 4.29335 15.382 2.39219 16.1828 0.994489 17.784-0.403577 19.3902-1.10243 21.5673-1.10243 24.3157-1.10243 27.0409-0.401015 29.2063 1.00181 30.8125 2.40938 32.4229 4.30799 33.2282 6.69761 33.2282Z" fill-rule="evenodd" transform="matrix(1 0 0 -1 1444 1406)"/><path d="M1518.01 1277.05 1502.01 1277.05" stroke="#000000" stroke-width="3.66414" stroke-linejoin="round" stroke-miterlimit="10" fill="none" fill-rule="evenodd"/><path d="M4.90841 2.9892 21.2708 2.9892 21.2708-0.811798-0.729238-0.811798-0.729238 2.9892C1.04835 4.76449 3.4724 7.14548 6.54217 10.1329 9.61718 13.125 11.5483 15.0552 12.3356 15.9236 13.8361 17.5461 14.8833 18.9203 15.4777 20.0467 16.0766 21.1727 16.3762 22.2799 16.3762 23.3677 16.3762 25.143 15.7301 26.589 14.4376 27.7056 13.1454 28.8269 11.4618 29.3876 9.38684 29.3876 7.91637 29.3876 6.36389 29.1419 4.73012 28.6504 3.10085 28.1589 1.3581 27.412-0.498893 26.4099L-0.498893 30.9766C1.38769 31.707 3.15029 32.2579 4.7893 32.6301 6.43318 33.0023 7.93623 33.1886 9.29807 33.1886 12.8877 33.1886 15.75 32.3224 17.8841 30.5903 20.0183 28.8626 21.0854 26.553 21.0854 23.6614 21.0854 22.2872 20.8179 20.9842 20.2831 19.753 19.7531 18.5269 18.7827 17.0784 17.3714 15.4083 16.9852 14.9738 15.7548 13.7238 13.6802 11.6574 11.6101 9.59096 8.68644 6.70193 4.90841 2.9892Z" fill-rule="evenodd" transform="matrix(1 0 0 -1 1343 1294)"/><path d="M10.7683 30.5818C8.45297 30.5818 6.71052 29.4252 5.54061 27.1116 4.37574 24.8027 3.79348 21.3274 3.79348 16.6861 3.79348 12.0636 4.37574 8.59561 5.54061 6.28203 6.71052 3.96844 8.45297 2.81183 10.7683 2.81183 13.1028 2.81183 14.8524 3.96844 16.0173 6.28203 17.1872 8.59561 17.772 12.0636 17.772 16.6861 17.772 21.3274 17.1872 24.8027 16.0173 27.1116 14.8524 29.4252 13.1028 30.5818 10.7683 30.5818ZM10.7683 34.1968C14.5007 34.1968 17.3512 32.7003 19.3195 29.7072 21.2878 26.7189 22.2721 22.3781 22.2721 16.6861 22.2721 11.0082 21.2878 6.67254 19.3195 3.6791 17.3512 0.690764 14.5007-0.803223 10.7683-0.803223 7.04067-0.803223 4.19268 0.690764 2.22437 3.6791 0.256063 6.67254-0.72827 11.0082-0.72827 16.6861-0.72827 22.3781 0.256063 26.7189 2.22437 29.7072 4.19268 32.7003 7.04067 34.1968 10.7683 34.1968Z" fill-rule="evenodd" transform="matrix(1 0 0 -1 1372 1295)"/><path d="M-0.38166 4.9139 4.6185 4.9139 4.6185-0.0862199-0.38166-0.0862199Z" fill-rule="evenodd" transform="matrix(1 0 0 -1 1403 1294)"/><path d="M10.7719 30.5818C8.45621 30.5818 6.71375 29.4252 5.5442 27.1116 4.37933 24.8027 3.79672 21.3274 3.79672 16.6861 3.79672 12.0636 4.37933 8.59561 5.5442 6.28203 6.71375 3.96844 8.45621 2.81183 10.7719 2.81183 13.1063 2.81183 14.856 3.96844 16.0209 6.28203 17.1904 8.59561 17.7752 12.0636 17.7752 16.6861 17.7752 21.3274 17.1904 24.8027 16.0209 27.1116 14.856 29.4252 13.1063 30.5818 10.7719 30.5818ZM10.7719 34.1968C14.5043 34.1968 17.3544 32.7003 19.3231 29.7072 21.2914 26.7189 22.2754 22.3781 22.2754 16.6861 22.2754 11.0082 21.2914 6.67254 19.3231 3.6791 17.3544 0.690764 14.5043-0.803223 10.7719-0.803223 7.04426-0.803223 4.19628 0.690764 2.22797 3.6791 0.2593 6.67254-0.724674 11.0082-0.724674 16.6861-0.724674 22.3781 0.2593 26.7189 2.22797 29.7072 4.19628 32.7003 7.04426 34.1968 10.7719 34.1968Z" fill-rule="evenodd" transform="matrix(1 0 0 -1 1416 1295)"/><path d="M30.0974 14.6979C28.7816 14.6979 27.7491 14.141 26.999 13.0277 26.2541 11.914 25.882 10.3622 25.882 8.37142 25.882 6.4145 26.2541 4.87466 26.999 3.75153 27.7491 2.6284 28.7816 2.06683 30.0974 2.06683 31.3842 2.06683 32.3999 2.6284 33.1449 3.75153 33.8946 4.87466 34.2696 6.4145 34.2696 8.37142 34.2696 10.3476 33.8946 11.8948 33.1449 13.0132 32.3999 14.1363 31.3842 14.6979 30.0974 14.6979ZM30.0974 17.5679C32.487 17.5679 34.383 16.7388 35.7859 15.0811 37.1934 13.4277 37.8974 11.1913 37.8974 8.37142 37.8974 5.55669 37.1912 3.32244 35.7785 1.66941 34.3662 0.0207448 32.4724-0.803223 30.0974-0.803223 27.6788-0.803223 25.7656 0.0207448 24.358 1.66941 22.9552 3.32244 22.2538 5.55669 22.2538 8.37142 22.2538 11.2058 22.96 13.447 24.3727 15.0953 25.785 16.7439 27.6935 17.5679 30.0974 17.5679ZM6.69761 31.3268C5.39614 31.3268 4.37092 30.7652 3.62085 29.6421 2.87589 28.5237 2.50378 26.9839 2.50378 25.0222 2.50378 23.0362 2.8737 21.4843 3.61389 20.3659 4.35372 19.2526 5.38187 18.6958 6.69761 18.6958 8.01299 18.6958 9.04333 19.2526 9.78829 20.3659 10.5384 21.4843 10.913 23.0362 10.913 25.0222 10.913 26.9646 10.5358 28.4997 9.78133 29.6275 9.0265 30.7601 7.99872 31.3268 6.69761 31.3268ZM27.1732 34.1968 30.8013 34.1968 9.62144-0.803223 5.99364-0.803223ZM6.69761 34.1968C9.08687 34.1968 10.9906 33.3725 12.4077 31.7242 13.8299 30.0759 14.5408 27.8417 14.5408 25.0222 14.5408 22.1783 13.8347 19.9346 12.4223 18.2911 11.0096 16.6475 9.10151 15.8257 6.69761 15.8257 4.29335 15.8257 2.39219 16.6497 0.994489 18.2983-0.403577 19.9514-1.10243 22.1929-1.10243 25.0222-1.10243 27.8275-0.401015 30.0566 1.00181 31.7097 2.40938 33.3678 4.30799 34.1968 6.69761 34.1968Z" fill-rule="evenodd" transform="matrix(1 0 0 -1 1444 1295)"/><path d="M1518.01 1166.03 1502.01 1166.03" stroke="#000000" stroke-width="3.66414" stroke-linejoin="round" stroke-miterlimit="10" fill="none" fill-rule="evenodd"/><path d="M4.90841 2.98052 21.2708 2.98052 21.2708-0.820437-0.729238-0.820437-0.729238 2.98052C1.04835 4.75544 3.4724 7.13676 6.54217 10.1238 9.61718 13.1158 11.5483 15.046 12.3356 15.9147 13.8361 17.5372 14.8833 18.9115 15.4777 20.0375 16.0766 21.1638 16.3762 22.2707 16.3762 23.3589 16.3762 25.1341 15.7301 26.5801 14.4376 27.6967 13.1454 28.818 11.4618 29.3786 9.38684 29.3786 7.91637 29.3786 6.36389 29.1329 4.73012 28.6414 3.10085 28.15 1.3581 27.403-0.498893 26.401L-0.498893 30.9676C1.38769 31.6976 3.15029 32.2489 4.7893 32.6211 6.43318 32.9933 7.93623 33.1796 9.29807 33.1796 12.8877 33.1796 15.75 32.3134 17.8841 30.581 20.0183 28.8537 21.0854 26.544 21.0854 23.6521 21.0854 22.2779 20.8179 20.9754 20.2831 19.7442 19.7531 18.5177 18.7827 17.0696 17.3714 15.3991 16.9852 14.965 15.7548 13.7147 13.6802 11.6486 11.6101 9.58221 8.68644 6.69285 4.90841 2.98052Z" fill-rule="evenodd" transform="matrix(1 0 0 -1 1343 1183)"/><path d="M0.671025 33.2125 17.9079 33.2125 17.9079 29.4102 4.69156 29.4102 4.69156 21.2405C5.32681 21.4646 5.96206 21.6312 6.5973 21.741 7.23746 21.8507 7.87727 21.9054 8.51742 21.9054 12.1391 21.9054 15.0074 20.8857 17.1218 18.8461 19.2412 16.8068 20.3009 14.0454 20.3009 10.5623 20.3009 6.9745 19.2135 4.18434 17.0384 2.19291 14.8636 0.205799 11.7982-0.787578 7.84254-0.787578 6.47909-0.787578 5.09039-0.668487 3.67608-0.430307 2.26633-0.192127 0.807826 0.165143-0.699438 0.641863L-0.699438 5.18024C0.603677 4.45131 1.95099 3.90803 3.34215 3.55075 4.73331 3.19348 6.20339 3.01467 7.75204 3.01467 10.2611 3.01467 12.2458 3.69143 13.7064 5.0446 15.1719 6.39776 15.9047 8.237 15.9047 10.5623 15.9047 12.883 15.1719 14.7197 13.7064 16.0732 12.2458 17.431 10.2611 18.11 7.75204 18.11 6.57906 18.11 5.40784 17.9765 4.23942 17.7099 3.07556 17.4429 1.8861 17.0259 0.671025 16.4589Z" fill-rule="evenodd" transform="matrix(1 0 0 -1 1373 1184)"/><path d="M-0.38166 4.90598 4.6185 4.90598 4.6185-0.0938275-0.38166-0.0938275Z" fill-rule="evenodd" transform="matrix(1 0 0 -1 1403 1183)"/><path d="M10.7719 30.5727C8.45621 30.5727 6.71375 29.4161 5.5442 27.1026 4.37933 24.7937 3.79672 21.3185 3.79672 16.6768 3.79672 12.0548 4.37933 8.58679 5.5442 6.27323 6.71375 3.95966 8.45621 2.8027 10.7719 2.8027 13.1063 2.8027 14.856 3.95966 16.0209 6.27323 17.1904 8.58679 17.7752 12.0548 17.7752 16.6768 17.7752 21.3185 17.1904 24.7937 16.0209 27.1026 14.856 29.4161 13.1063 30.5727 10.7719 30.5727ZM10.7719 34.1878C14.5043 34.1878 17.3544 32.6912 19.3231 29.6978 21.2914 26.7095 22.2754 22.3692 22.2754 16.6768 22.2754 10.999 21.2914 6.66373 19.3231 3.67033 17.3544 0.682023 14.5043-0.811949 10.7719-0.811949 7.04426-0.811949 4.19628 0.682023 2.22797 3.67033 0.2593 6.66373-0.724674 10.999-0.724674 16.6768-0.724674 22.3692 0.2593 26.7095 2.22797 29.6978 4.19628 32.6912 7.04426 34.1878 10.7719 34.1878Z" fill-rule="evenodd" transform="matrix(1 0 0 -1 1416 1184)"/><path d="M30.0974 14.6886C28.7816 14.6886 27.7491 14.1321 26.999 13.0185 26.2541 11.9052 25.882 10.3534 25.882 8.3626 25.882 6.4057 26.2541 4.86587 26.999 3.74275 27.7491 2.61964 28.7816 2.05808 30.0974 2.05808 31.3842 2.05808 32.3999 2.61964 33.1449 3.74275 33.8946 4.86587 34.2696 6.4057 34.2696 8.3626 34.2696 10.3388 33.8946 11.8859 33.1449 13.0043 32.3999 14.127 31.3842 14.6886 30.0974 14.6886ZM30.0974 17.559C32.487 17.559 34.383 16.7299 35.7859 15.0718 37.1934 13.4188 37.8974 11.1824 37.8974 8.3626 37.8974 5.54789 37.1912 3.31367 35.7785 1.66066 34.3662 0.01201 32.4724-0.811949 30.0974-0.811949 27.6788-0.811949 25.7656 0.01201 24.358 1.66066 22.9552 3.31367 22.2538 5.54789 22.2538 8.3626 22.2538 11.1966 22.96 13.4381 24.3727 15.0864 25.785 16.7347 27.6935 17.559 30.0974 17.559ZM6.69761 31.3174C5.39614 31.3174 4.37092 30.7558 3.62085 29.6331 2.87589 28.5147 2.50378 26.9748 2.50378 25.0128 2.50378 23.0272 2.8737 21.4753 3.61389 20.357 4.35372 19.2437 5.38187 18.6868 6.69761 18.6868 8.01299 18.6868 9.04333 19.2437 9.78829 20.357 10.5384 21.4753 10.913 23.0272 10.913 25.0128 10.913 26.9555 10.5358 28.4906 9.78133 29.6185 9.0265 30.7511 7.99872 31.3174 6.69761 31.3174ZM27.1732 34.1878 30.8013 34.1878 9.62144-0.811949 5.99364-0.811949ZM6.69761 34.1878C9.08687 34.1878 10.9906 33.3634 12.4077 31.7151 13.8299 30.0669 14.5408 27.8326 14.5408 25.0128 14.5408 22.1694 13.8347 19.9257 12.4223 18.2821 11.0096 16.6386 9.10151 15.8165 6.69761 15.8165 4.29335 15.8165 2.39219 16.6408 0.994489 18.2891-0.403577 19.9424-1.10243 22.1836-1.10243 25.0128-1.10243 27.8181-0.401015 30.0476 1.00181 31.7006 2.40938 33.3587 4.30799 34.1878 6.69761 34.1878Z" fill-rule="evenodd" transform="matrix(1 0 0 -1 1444 1184)"/><path d="M1518.01 1055.02 1502.01 1055.02" stroke="#000000" stroke-width="3.66414" stroke-linejoin="round" stroke-miterlimit="10" fill="none" fill-rule="evenodd"/><path d="M14.379 18.0274C16.5422 17.5597 18.2307 16.5862 19.4438 15.1064 20.6616 13.6317 21.2706 11.8098 21.2706 9.64076 21.2706 6.31508 20.1363 3.73875 17.8676 1.91214 15.5989 0.0898931 12.3755-0.821048 8.19649-0.821048 6.79699-0.821048 5.35487-0.681295 3.86939-0.401425 2.38428-0.12192 0.851114 0.297339-0.729733 0.85635L-0.729733 5.25929C0.521651 4.52195 1.89225 3.96512 3.38242 3.58917 4.87729 3.21322 6.43899 3.02543 8.06752 3.02543 10.8994 3.02543 13.0582 3.58917 14.5437 4.71702 16.0288 5.84487 16.7716 7.48624 16.7716 9.64076 16.7716 11.6311 16.0816 13.1859 14.7012 14.3039 13.3209 15.427 11.4012 15.9886 8.94139 15.9886L5.04419 15.9886 5.04419 19.7408 9.12058 19.7408C11.3412 19.7408 13.0416 20.1892 14.2211 21.0856 15.401 21.9819 15.9905 23.2739 15.9905 24.9608 15.9905 26.6913 15.3818 28.019 14.164 28.9445 12.951 29.8747 11.2101 30.3398 8.94139 30.3398 7.69977 30.3398 6.36963 30.2026 4.95135 29.9278 3.5327 29.6578 1.97353 29.2385 0.273108 28.6697L0.273108 32.7331C1.99268 33.2149 3.60206 33.5763 5.10163 33.8173 6.60119 34.0586 8.01478 34.179 9.34275 34.179 12.7765 34.179 15.4916 33.3907 17.4879 31.8149 19.4889 30.2434 20.4896 28.118 20.4896 25.4379 20.4896 23.568 19.9596 21.9892 18.8994 20.7023 17.8391 19.4154 16.3323 18.5238 14.379 18.0274Z" fill-rule="evenodd" transform="matrix(1 0 0 -1 1343 1073)"/><path d="M10.7683 30.564C8.45297 30.564 6.71052 29.407 5.54061 27.0935 4.37574 24.785 3.79348 21.3098 3.79348 16.6681 3.79348 12.046 4.37574 8.57806 5.54061 6.26449 6.71052 3.95093 8.45297 2.79396 10.7683 2.79396 13.1028 2.79396 14.8524 3.95093 16.0173 6.26449 17.1872 8.57806 17.772 12.046 17.772 16.6681 17.772 21.3098 17.1872 24.785 16.0173 27.0935 14.8524 29.407 13.1028 30.564 10.7683 30.564ZM10.7683 34.179C14.5007 34.179 17.3512 32.6825 19.3195 29.6891 21.2878 26.7008 22.2721 22.3604 22.2721 16.6681 22.2721 10.9902 21.2878 6.65463 19.3195 3.6616 17.3512 0.673288 14.5007-0.821048 10.7683-0.821048 7.04067-0.821048 4.19268 0.673288 2.22437 3.6616 0.256063 6.65463-0.72827 10.9902-0.72827 16.6681-0.72827 22.3604 0.256063 26.7008 2.22437 29.6891 4.19268 32.6825 7.04067 34.179 10.7683 34.179Z" fill-rule="evenodd" transform="matrix(1 0 0 -1 1372 1073)"/><path d="M-0.38166 5.87847 4.6185 5.87847 4.6185-0.121731-0.38166-0.121731Z" fill-rule="evenodd" transform="matrix(1 0 0 -1 1403 1072)"/><path d="M10.7719 30.564C8.45621 30.564 6.71375 29.407 5.5442 27.0935 4.37933 24.785 3.79672 21.3098 3.79672 16.6681 3.79672 12.046 4.37933 8.57806 5.5442 6.26449 6.71375 3.95093 8.45621 2.79396 10.7719 2.79396 13.1063 2.79396 14.856 3.95093 16.0209 6.26449 17.1904 8.57806 17.7752 12.046 17.7752 16.6681 17.7752 21.3098 17.1904 24.785 16.0209 27.0935 14.856 29.407 13.1063 30.564 10.7719 30.564ZM10.7719 34.179C14.5043 34.179 17.3544 32.6825 19.3231 29.6891 21.2914 26.7008 22.2754 22.3604 22.2754 16.6681 22.2754 10.9902 21.2914 6.65463 19.3231 3.6616 17.3544 0.673288 14.5043-0.821048 10.7719-0.821048 7.04426-0.821048 4.19628 0.673288 2.22797 3.6616 0.2593 6.65463-0.724674 10.9902-0.724674 16.6681-0.724674 22.3604 0.2593 26.7008 2.22797 29.6891 4.19628 32.6825 7.04426 34.179 10.7719 34.179Z" fill-rule="evenodd" transform="matrix(1 0 0 -1 1416 1073)"/><path d="M30.0974 14.6799C28.7816 14.6799 27.7491 14.1234 26.999 13.0097 26.2541 11.8965 25.882 10.3443 25.882 8.35387 25.882 6.39697 26.2541 4.85677 26.999 3.73402 27.7491 2.6109 28.7816 2.04934 30.0974 2.04934 31.3842 2.04934 32.3999 2.6109 33.1449 3.73402 33.8946 4.85677 34.2696 6.39697 34.2696 8.35387 34.2696 10.3301 33.8946 11.8772 33.1449 12.9952 32.3999 14.1183 31.3842 14.6799 30.0974 14.6799ZM30.0974 17.5503C32.487 17.5503 34.383 16.7212 35.7859 15.0631 37.1934 13.4097 37.8974 11.1733 37.8974 8.35387 37.8974 5.5388 37.1912 3.30494 35.7785 1.65156 34.3662 0.00327546 32.4724-0.821048 30.0974-0.821048 27.6788-0.821048 25.7656 0.00327546 24.358 1.65156 22.9552 3.30494 22.2538 5.5388 22.2538 8.35387 22.2538 11.1879 22.96 13.429 24.3727 15.0777 25.785 16.7259 27.6935 17.5503 30.0974 17.5503ZM6.69761 31.3086C5.39614 31.3086 4.37092 30.7471 3.62085 29.624 2.87589 28.5059 2.50378 26.9657 2.50378 25.0041 2.50378 23.0184 2.8737 21.4662 3.61389 20.3482 4.35372 19.2349 5.38187 18.6781 6.69761 18.6781 8.01299 18.6781 9.04333 19.2349 9.78829 20.3482 10.5384 21.4662 10.913 23.0184 10.913 25.0041 10.913 26.9468 10.5358 28.4819 9.78133 29.6098 9.0265 30.7423 7.99872 31.3086 6.69761 31.3086ZM27.1732 34.179 30.8013 34.179 9.62144-0.821048 5.99364-0.821048ZM6.69761 34.179C9.08687 34.179 10.9906 33.3547 12.4077 31.7064 13.8299 30.0578 14.5408 27.8239 14.5408 25.0041 14.5408 22.1606 13.8347 19.9166 12.4223 18.273 11.0096 16.6295 9.10151 15.8077 6.69761 15.8077 4.29335 15.8077 2.39219 16.632 0.994489 18.2803-0.403577 19.9337-1.10243 22.1748-1.10243 25.0041-1.10243 27.8093-0.401015 30.0385 1.00181 31.6919 2.40938 33.35 4.30799 34.179 6.69761 34.179Z" fill-rule="evenodd" transform="matrix(1 0 0 -1 1444 1073)"/><path d="M1518.01 944.015 1502.01 944.015" stroke="#000000" stroke-width="3.66414" stroke-linejoin="round" stroke-miterlimit="10" fill="none" fill-rule="evenodd"/><path d="M14.379 18.0188C16.5422 17.5512 18.2307 16.5776 19.4438 15.0978 20.6616 13.6228 21.2706 11.8009 21.2706 9.63212 21.2706 6.30605 20.1363 3.73006 17.8676 1.90306 15.5989 0.0811594 12.3755-0.829791 8.19649-0.829791 6.79699-0.829791 5.35487-0.690037 3.86939-0.410528 2.38428-0.13102 0.851114 0.288607-0.729733 0.847624L-0.729733 5.25061C0.521651 4.51326 1.89225 3.95643 3.38242 3.58047 4.87729 3.20452 6.43899 3.01673 8.06752 3.01673 10.8994 3.01673 13.0582 3.58047 14.5437 4.70833 16.0288 5.83619 16.7716 7.47758 16.7716 9.63212 16.7716 11.6225 16.0816 13.1769 14.7012 14.2953 13.3209 15.4185 11.4012 15.98 8.94139 15.98L5.04419 15.98 5.04419 19.7323 9.12058 19.7323C11.3412 19.7323 13.0416 20.1807 14.2211 21.077 15.401 21.9734 15.9905 23.2654 15.9905 24.9523 15.9905 26.6825 15.3818 28.0105 14.164 28.936 12.951 29.8663 11.2101 30.3314 8.94139 30.3314 7.69977 30.3314 6.36963 30.1938 4.95135 29.9194 3.5327 29.6494 1.97353 29.2301 0.273108 28.6613L0.273108 32.7243C1.99268 33.2066 3.60206 33.5679 5.10163 33.8089 6.60119 34.0498 8.01478 34.1703 9.34275 34.1703 12.7765 34.1703 15.4916 33.3823 17.4879 31.8061 19.4889 30.235 20.4896 28.1095 20.4896 25.4294 20.4896 23.5591 19.9596 21.9807 18.8994 20.6938 17.8391 19.4069 16.3323 18.5153 14.379 18.0188Z" fill-rule="evenodd" transform="matrix(1 0 0 -1 1343 962)"/><path d="M0.671025 33.1952 17.9079 33.1952 17.9079 29.3926 4.69156 29.3926 4.69156 21.2232C5.32681 21.447 5.96206 21.6139 6.5973 21.7237 7.23746 21.8331 7.87727 21.8877 8.51742 21.8877 12.1391 21.8877 15.0074 20.8681 17.1218 18.8288 19.2412 16.7895 20.3009 14.0282 20.3009 10.545 20.3009 6.95687 19.2135 4.16707 17.0384 2.17528 14.8636 0.188169 11.7982-0.805207 7.84254-0.805207 6.47909-0.805207 5.09039-0.686117 3.67608-0.447937 2.26633-0.209397 0.807826 0.147873-0.699438 0.624233L-0.699438 5.16297C0.603677 4.43404 1.95099 3.89076 3.34215 3.53348 4.73331 3.17585 6.20339 2.9974 7.75204 2.9974 10.2611 2.9974 12.2458 3.6738 13.7064 5.02697 15.1719 6.38049 15.9047 8.21973 15.9047 10.545 15.9047 12.8657 15.1719 14.7024 13.7064 16.0556 12.2458 17.4138 10.2611 18.0927 7.75204 18.0927 6.57906 18.0927 5.40784 17.9592 4.23942 17.6922 3.07556 17.4256 1.8861 17.0087 0.671025 16.4416Z" fill-rule="evenodd" transform="matrix(1 0 0 -1 1373 962)"/><path d="M-0.38166 5.86934 4.6185 5.86934 4.6185-0.130861-0.38166-0.130861Z" fill-rule="evenodd" transform="matrix(1 0 0 -1 1403 961)"/><path d="M10.7719 30.5556C8.45621 30.5556 6.71375 29.3986 5.5442 27.085 4.37933 24.7765 3.79672 21.3012 3.79672 16.6595 3.79672 12.0371 4.37933 8.56905 5.5442 6.25546 6.71375 3.94187 8.45621 2.78526 10.7719 2.78526 13.1063 2.78526 14.856 3.94187 16.0209 6.25546 17.1904 8.56905 17.7752 12.0371 17.7752 16.6595 17.7752 21.3012 17.1904 24.7765 16.0209 27.085 14.856 29.3986 13.1063 30.5556 10.7719 30.5556ZM10.7719 34.1703C14.5043 34.1703 17.3544 32.6737 19.3231 29.6807 21.2914 26.6923 22.2754 22.3519 22.2754 16.6595 22.2754 10.9816 21.2914 6.64597 19.3231 3.6529 17.3544 0.66456 14.5043-0.829791 10.7719-0.829791 7.04426-0.829791 4.19628 0.66456 2.22797 3.6529 0.2593 6.64597-0.724674 10.9816-0.724674 16.6595-0.724674 22.3519 0.2593 26.6923 2.22797 29.6807 4.19628 32.6737 7.04426 34.1703 10.7719 34.1703Z" fill-rule="evenodd" transform="matrix(1 0 0 -1 1416 962)"/><path d="M30.0974 14.6713C28.7816 14.6713 27.7491 14.1145 26.999 13.0011 26.2541 11.8878 25.882 10.3356 25.882 8.34522 25.882 6.3883 26.2541 4.84809 26.999 3.72496 27.7491 2.60219 28.7816 2.04063 30.0974 2.04063 31.3842 2.04063 32.3999 2.60219 33.1449 3.72496 33.8946 4.84809 34.2696 6.3883 34.2696 8.34522 34.2696 10.3211 33.8946 11.8686 33.1449 12.9866 32.3999 14.1097 31.3842 14.6713 30.0974 14.6713ZM30.0974 17.5417C32.487 17.5417 34.383 16.7126 35.7859 15.0545 37.1934 13.4011 37.8974 11.1647 37.8974 8.34522 37.8974 5.53012 37.1912 3.29623 35.7785 1.64284 34.3662-0.00545915 32.4724-0.829791 30.0974-0.829791 27.6788-0.829791 25.7656-0.00545915 24.358 1.64284 22.9552 3.29623 22.2538 5.53012 22.2538 8.34522 22.2538 11.1792 22.96 13.4204 24.3727 15.0691 25.785 16.7174 27.6935 17.5417 30.0974 17.5417ZM6.69761 31.3002C5.39614 31.3002 4.37092 30.7387 3.62085 29.6155 2.87589 28.4975 2.50378 26.9573 2.50378 24.9956 2.50378 23.01 2.8737 21.4577 3.61389 20.3397 4.35372 19.226 5.38187 18.6696 6.69761 18.6696 8.01299 18.6696 9.04333 19.226 9.78829 20.3397 10.5384 21.4577 10.913 23.01 10.913 24.9956 10.913 26.938 10.5358 28.4731 9.78133 29.601 9.0265 30.7339 7.99872 31.3002 6.69761 31.3002ZM27.1732 34.1703 30.8013 34.1703 9.62144-0.829791 5.99364-0.829791ZM6.69761 34.1703C9.08687 34.1703 10.9906 33.3463 12.4077 31.6976 13.8299 30.0493 14.5408 27.8155 14.5408 24.9956 14.5408 22.1518 13.8347 19.9081 12.4223 18.2645 11.0096 16.6209 9.10151 15.7991 6.69761 15.7991 4.29335 15.7991 2.39219 16.6235 0.994489 18.2718-0.403577 19.9252-1.10243 22.1663-1.10243 24.9956-1.10243 27.8009-0.401015 30.0301 1.00181 31.6835 2.40938 33.3416 4.30799 34.1703 6.69761 34.1703Z" fill-rule="evenodd" transform="matrix(1 0 0 -1 1444 962)"/><path d="M1518.01 832.01 1502.01 832.01" stroke="#000000" stroke-width="3.66414" stroke-linejoin="round" stroke-miterlimit="10" fill="none" fill-rule="evenodd"/><path d="M14.7406 29.1461 3.01975 10.9947 14.7406 10.9947ZM13.5199 33.1538 19.3581 33.1538 19.3581 10.9947 24.2552 10.9947 24.2552 7.16923 19.3581 7.16923 19.3581-0.84659 14.7406-0.84659 14.7406 7.16923-0.745298 7.16923-0.745298 11.6069Z" fill-rule="evenodd" transform="matrix(1 0 0 -1 1342 850)"/><path d="M10.7683 29.6737C8.45297 29.6737 6.71052 28.5501 5.54061 26.3027 4.37574 24.0598 3.79348 20.6838 3.79348 16.175 3.79348 11.6846 4.37574 8.31572 5.54061 6.06824 6.71052 3.82076 8.45297 2.69719 10.7683 2.69719 13.1028 2.69719 14.8524 3.82076 16.0173 6.06824 17.1872 8.31572 17.772 11.6846 17.772 16.175 17.772 20.6838 17.1872 24.0598 16.0173 26.3027 14.8524 28.5501 13.1028 29.6737 10.7683 29.6737ZM10.7683 33.1855C14.5007 33.1855 17.3512 31.7317 19.3195 28.8241 21.2878 25.9212 22.2721 21.7048 22.2721 16.175 22.2721 10.6594 21.2878 6.44759 19.3195 3.54004 17.3512 0.636734 14.5007-0.814567 10.7683-0.814567 7.04067-0.814567 4.19268 0.636734 2.22437 3.54004 0.256063 6.44759-0.72827 10.6594-0.72827 16.175-0.72827 21.7048 0.256063 25.9212 2.22437 28.8241 4.19268 31.7317 7.04067 33.1855 10.7683 33.1855Z" fill-rule="evenodd" transform="matrix(1 0 0 -1 1372 850)"/><path d="M-0.38166 5.86021 4.6185 5.86021 4.6185-0.140371-0.38166-0.140371Z" fill-rule="evenodd" transform="matrix(1 0 0 -1 1403 850)"/><path d="M10.7719 29.6737C8.45621 29.6737 6.71375 28.5501 5.5442 26.3027 4.37933 24.0598 3.79672 20.6838 3.79672 16.175 3.79672 11.6846 4.37933 8.31572 5.5442 6.06824 6.71375 3.82076 8.45621 2.69719 10.7719 2.69719 13.1063 2.69719 14.856 3.82076 16.0209 6.06824 17.1904 8.31572 17.7752 11.6846 17.7752 16.175 17.7752 20.6838 17.1904 24.0598 16.0209 26.3027 14.856 28.5501 13.1063 29.6737 10.7719 29.6737ZM10.7719 33.1855C14.5043 33.1855 17.3544 31.7317 19.3231 28.8241 21.2914 25.9212 22.2754 21.7048 22.2754 16.175 22.2754 10.6594 21.2914 6.44759 19.3231 3.54004 17.3544 0.636734 14.5043-0.814567 10.7719-0.814567 7.04426-0.814567 4.19628 0.636734 2.22797 3.54004 0.2593 6.44759-0.724674 10.6594-0.724674 16.175-0.724674 21.7048 0.2593 25.9212 2.22797 28.8241 4.19628 31.7317 7.04426 33.1855 10.7719 33.1855Z" fill-rule="evenodd" transform="matrix(1 0 0 -1 1416 850)"/><path d="M30.0974 14.2436C28.7816 14.2436 27.7491 13.7027 26.999 12.6212 26.2541 11.5393 25.882 10.0318 25.882 8.09794 25.882 6.19693 26.2541 4.70108 26.999 3.61004 27.7491 2.51901 28.7816 1.97384 30.0974 1.97384 31.3842 1.97384 32.3999 2.51901 33.1449 3.61004 33.8946 4.70108 34.2696 6.19693 34.2696 8.09794 34.2696 10.0177 33.8946 11.5206 33.1449 12.607 32.3999 13.6981 31.3842 14.2436 30.0974 14.2436ZM30.0974 17.0317C32.487 17.0317 34.383 16.2263 35.7859 14.6159 37.1934 13.0097 37.8974 10.8372 37.8974 8.09794 37.8974 5.36363 37.1912 3.19357 35.7785 1.58742 34.3662-0.0137882 32.4724-0.814567 30.0974-0.814567 27.6788-0.814567 25.7656-0.0137882 24.358 1.58742 22.9552 3.19357 22.2538 5.36363 22.2538 8.09794 22.2538 10.8513 22.96 13.0285 24.3727 14.6297 25.785 16.2312 27.6935 17.0317 30.0974 17.0317ZM6.69761 30.3974C5.39614 30.3974 4.37092 29.8519 3.62085 28.7609 2.87589 27.6744 2.50378 26.1786 2.50378 24.273 2.50378 22.3437 2.8737 20.8362 3.61389 19.7497 4.35372 18.6682 5.38187 18.1273 6.69761 18.1273 8.01299 18.1273 9.04333 18.6682 9.78829 19.7497 10.5384 20.8362 10.913 22.3437 10.913 24.273 10.913 26.1598 10.5358 27.6511 9.78133 28.7467 9.0265 29.8473 7.99872 30.3974 6.69761 30.3974ZM27.1732 33.1855 30.8013 33.1855 9.62144-0.814567 5.99364-0.814567ZM6.69761 33.1855C9.08687 33.1855 10.9906 32.385 12.4077 30.7835 13.8299 29.1823 14.5408 27.0119 14.5408 24.273 14.5408 21.5104 13.8347 19.3308 12.4223 17.7342 11.0096 16.1375 9.10151 15.3392 6.69761 15.3392 4.29335 15.3392 2.39219 16.1397 0.994489 17.7412-0.403577 19.347-1.10243 21.5245-1.10243 24.273-1.10243 26.9981-0.401015 29.1635 1.00181 30.7693 2.40938 32.3801 4.30799 33.1855 6.69761 33.1855Z" fill-rule="evenodd" transform="matrix(1 0 0 -1 1444 850)"/><path d="M1520.99 1721.99 1528.99 1721.99 1528.99 770.988 1520.99 770.988Z" fill="#1F77B4" fill-rule="evenodd"/><path d="M1536.99 1721.99 1544 1721.99 1544 942.988 1536.99 942.988Z" fill="#1F77B4" fill-rule="evenodd"/><path d="M1551.99 1721.99 1559.99 1721.99 1559.99 1085.99 1551.99 1085.99Z" fill="#1F77B4" fill-rule="evenodd"/><path d="M1566.99 1721.99 1574.99 1721.99 1574.99 1095.99 1566.99 1095.99Z" fill="#1F77B4" fill-rule="evenodd"/><path d="M1583 1721.99 1590 1721.99 1590 1139.99 1583 1139.99Z" fill="#1F77B4" fill-rule="evenodd"/><path d="M1597.99 1721.99 1605.99 1721.99 1605.99 1165.99 1597.99 1165.99Z" fill="#1F77B4" fill-rule="evenodd"/><path d="M1612.99 1721.99 1620.99 1721.99 1620.99 1170.99 1612.99 1170.99Z" fill="#1F77B4" fill-rule="evenodd"/><path d="M1629 1721.99 1636 1721.99 1636 1203.99 1629 1203.99Z" fill="#1F77B4" fill-rule="evenodd"/><path d="M1643.99 1721.99 1651.99 1721.99 1651.99 1226.99 1643.99 1226.99Z" fill="#1F77B4" fill-rule="evenodd"/><path d="M1658.99 1721.99 1666.99 1721.99 1666.99 1227.99 1658.99 1227.99Z" fill="#1F77B4" fill-rule="evenodd"/><path d="M1675 1721.99 1682 1721.99 1682 1232.99 1675 1232.99Z" fill="#1F77B4" fill-rule="evenodd"/><path d="M1689.99 1721.99 1697.99 1721.99 1697.99 1236.99 1689.99 1236.99Z" fill="#1F77B4" fill-rule="evenodd"/><path d="M1704.99 1721.99 1712.99 1721.99 1712.99 1238.99 1704.99 1238.99Z" fill="#1F77B4" fill-rule="evenodd"/><path d="M1721 1721.99 1728 1721.99 1728 1247.99 1721 1247.99Z" fill="#1F77B4" fill-rule="evenodd"/><path d="M1735.99 1721.99 1743.99 1721.99 1743.99 1270.99 1735.99 1270.99Z" fill="#1F77B4" fill-rule="evenodd"/><path d="M1750.99 1721.99 1758.99 1721.99 1758.99 1274.99 1750.99 1274.99Z" fill="#1F77B4" fill-rule="evenodd"/><path d="M1766.99 1721.99 1774 1721.99 1774 1285.99 1766.99 1285.99Z" fill="#1F77B4" fill-rule="evenodd"/><path d="M1781.99 1721.99 1789.99 1721.99 1789.99 1288.99 1781.99 1288.99Z" fill="#1F77B4" fill-rule="evenodd"/><path d="M1796.99 1721.99 1804.99 1721.99 1804.99 1289.99 1796.99 1289.99Z" fill="#1F77B4" fill-rule="evenodd"/><path d="M1812.99 1721.99 1820 1721.99 1820 1299.99 1812.99 1299.99Z" fill="#1F77B4" fill-rule="evenodd"/><path d="M1827.99 1721.99 1835.99 1721.99 1835.99 1314.99 1827.99 1314.99Z" fill="#1F77B4" fill-rule="evenodd"/><path d="M1842.99 1721.99 1850.99 1721.99 1850.99 1316.99 1842.99 1316.99Z" fill="#1F77B4" fill-rule="evenodd"/><path d="M1859 1721.99 1866 1721.99 1866 1336.99 1859 1336.99Z" fill="#1F77B4" fill-rule="evenodd"/><path d="M1873.99 1721.99 1881.99 1721.99 1881.99 1350.99 1873.99 1350.99Z" fill="#1F77B4" fill-rule="evenodd"/><path d="M1888.99 1721.99 1896.99 1721.99 1896.99 1351.99 1888.99 1351.99Z" fill="#1F77B4" fill-rule="evenodd"/><path d="M1905 1721.99 1912 1721.99 1912 1352.99 1905 1352.99Z" fill="#1F77B4" fill-rule="evenodd"/><path d="M1919.99 1721.99 1927.99 1721.99 1927.99 1365.99 1919.99 1365.99Z" fill="#1F77B4" fill-rule="evenodd"/><path d="M1934.99 1721.99 1942.99 1721.99 1942.99 1382.99 1934.99 1382.99Z" fill="#1F77B4" fill-rule="evenodd"/><path d="M1951 1721.99 1958 1721.99 1958 1388.99 1951 1388.99Z" fill="#1F77B4" fill-rule="evenodd"/><path d="M1965.99 1721.99 1973.99 1721.99 1973.99 1398.99 1965.99 1398.99Z" fill="#1F77B4" fill-rule="evenodd"/><path d="M1980.99 1721.99 1988.99 1721.99 1988.99 1417.99 1980.99 1417.99Z" fill="#1F77B4" fill-rule="evenodd"/><path d="M1996.99 1721.99 2004 1721.99 2004 1434.99 1996.99 1434.99Z" fill="#1F77B4" fill-rule="evenodd"/><path d="M2011.99 1721.99 2019.99 1721.99 2019.99 1451.99 2011.99 1451.99Z" fill="#1F77B4" fill-rule="evenodd"/><path d="M2026.99 1721.99 2034.99 1721.99 2034.99 1451.99 2026.99 1451.99Z" fill="#1F77B4" fill-rule="evenodd"/><path d="M2042.99 1721.99 2050 1721.99 2050 1458.99 2042.99 1458.99Z" fill="#1F77B4" fill-rule="evenodd"/><path d="M2057.99 1721.99 2065.99 1721.99 2065.99 1460.99 2057.99 1460.99Z" fill="#1F77B4" fill-rule="evenodd"/><path d="M2072.99 1721.99 2080.99 1721.99 2080.99 1465.99 2072.99 1465.99Z" fill="#1F77B4" fill-rule="evenodd"/><path d="M2089 1721.99 2096 1721.99 2096 1466.99 2089 1466.99Z" fill="#1F77B4" fill-rule="evenodd"/><path d="M2103.99 1721.99 2111.99 1721.99 2111.99 1467.99 2103.99 1467.99Z" fill="#1F77B4" fill-rule="evenodd"/><path d="M2118.99 1721.99 2126.99 1721.99 2126.99 1486.99 2118.99 1486.99Z" fill="#1F77B4" fill-rule="evenodd"/><path d="M2135 1721.99 2142 1721.99 2142 1493.99 2135 1493.99Z" fill="#1F77B4" fill-rule="evenodd"/><path d="M2149.99 1721.99 2157.99 1721.99 2157.99 1498.99 2149.99 1498.99Z" fill="#1F77B4" fill-rule="evenodd"/><path d="M2164.99 1721.99 2172.99 1721.99 2172.99 1518.99 2164.99 1518.99Z" fill="#1F77B4" fill-rule="evenodd"/><path d="M2181 1721.99 2188 1721.99 2188 1520.99 2181 1520.99Z" fill="#1F77B4" fill-rule="evenodd"/><path d="M2195.99 1721.99 2203.99 1721.99 2203.99 1522.99 2195.99 1522.99Z" fill="#1F77B4" fill-rule="evenodd"/><path d="M2210.99 1721.99 2218.99 1721.99 2218.99 1522.99 2210.99 1522.99Z" fill="#1F77B4" fill-rule="evenodd"/><path d="M2227 1721.99 2234 1721.99 2234 1525.99 2227 1525.99Z" fill="#1F77B4" fill-rule="evenodd"/><path d="M2241.99 1721.99 2249.99 1721.99 2249.99 1530.99 2241.99 1530.99Z" fill="#1F77B4" fill-rule="evenodd"/><path d="M2256.99 1721.99 2264.99 1721.99 2264.99 1544.99 2256.99 1544.99Z" fill="#1F77B4" fill-rule="evenodd"/><path d="M2272.99 1721.99 2280 1721.99 2280 1546.99 2272.99 1546.99Z" fill="#1F77B4" fill-rule="evenodd"/><path d="M2287.99 1721.99 2295.99 1721.99 2295.99 1548.99 2287.99 1548.99Z" fill="#1F77B4" fill-rule="evenodd"/><path d="M2302.99 1721.99 2310.99 1721.99 2310.99 1549.99 2302.99 1549.99Z" fill="#1F77B4" fill-rule="evenodd"/><path d="M2319 1721.99 2326 1721.99 2326 1551.99 2319 1551.99Z" fill="#1F77B4" fill-rule="evenodd"/><path d="M2333.99 1721.99 2341.99 1721.99 2341.99 1562.99 2333.99 1562.99Z" fill="#1F77B4" fill-rule="evenodd"/><path d="M2348.99 1721.99 2356.99 1721.99 2356.99 1575.99 2348.99 1575.99Z" fill="#1F77B4" fill-rule="evenodd"/><path d="M2365 1721.99 2372 1721.99 2372 1580.99 2365 1580.99Z" fill="#1F77B4" fill-rule="evenodd"/><path d="M2379.99 1721.99 2387.99 1721.99 2387.99 1585.99 2379.99 1585.99Z" fill="#1F77B4" fill-rule="evenodd"/><path d="M2394.99 1721.99 2402.99 1721.99 2402.99 1586.99 2394.99 1586.99Z" fill="#1F77B4" fill-rule="evenodd"/><path d="M2411 1721.99 2418 1721.99 2418 1587.99 2411 1587.99Z" fill="#1F77B4" fill-rule="evenodd"/><path d="M2425.99 1721.99 2433.99 1721.99 2433.99 1587.99 2425.99 1587.99Z" fill="#1F77B4" fill-rule="evenodd"/><path d="M2440.99 1721.99 2448.99 1721.99 2448.99 1588.99 2440.99 1588.99Z" fill="#1F77B4" fill-rule="evenodd"/><path d="M2457 1721.99 2464 1721.99 2464 1590.99 2457 1590.99Z" fill="#1F77B4" fill-rule="evenodd"/><path d="M2471.99 1721.99 2479.99 1721.99 2479.99 1591.99 2471.99 1591.99Z" fill="#1F77B4" fill-rule="evenodd"/><path d="M2486.99 1721.99 2494.99 1721.99 2494.99 1591.99 2486.99 1591.99Z" fill="#1F77B4" fill-rule="evenodd"/><path d="M2502.99 1721.99 2510 1721.99 2510 1592.99 2502.99 1592.99Z" fill="#1F77B4" fill-rule="evenodd"/><path d="M2517.99 1721.99 2525.99 1721.99 2525.99 1592.99 2517.99 1592.99Z" fill="#1F77B4" fill-rule="evenodd"/><path d="M2532.99 1721.99 2540.99 1721.99 2540.99 1598.99 2532.99 1598.99Z" fill="#1F77B4" fill-rule="evenodd"/><path d="M2549 1721.99 2556 1721.99 2556 1599.99 2549 1599.99Z" fill="#1F77B4" fill-rule="evenodd"/><path d="M2563.99 1721.99 2571.99 1721.99 2571.99 1599.99 2563.99 1599.99Z" fill="#1F77B4" fill-rule="evenodd"/><path d="M2578.99 1721.99 2586.99 1721.99 2586.99 1600.99 2578.99 1600.99Z" fill="#1F77B4" fill-rule="evenodd"/><path d="M2595 1721.99 2602 1721.99 2602 1601.99 2595 1601.99Z" fill="#1F77B4" fill-rule="evenodd"/><path d="M2609.99 1721.99 2617.99 1721.99 2617.99 1605.99 2609.99 1605.99Z" fill="#1F77B4" fill-rule="evenodd"/><path d="M2624.99 1721.99 2632.99 1721.99 2632.99 1606.99 2624.99 1606.99Z" fill="#1F77B4" fill-rule="evenodd"/><path d="M2641 1721.99 2648 1721.99 2648 1606.99 2641 1606.99Z" fill="#1F77B4" fill-rule="evenodd"/><path d="M2655.99 1721.99 2663.99 1721.99 2663.99 1609.99 2655.99 1609.99Z" fill="#1F77B4" fill-rule="evenodd"/><path d="M2670.99 1721.99 2678.99 1721.99 2678.99 1611.99 2670.99 1611.99Z" fill="#1F77B4" fill-rule="evenodd"/><path d="M2687 1721.99 2694 1721.99 2694 1618.99 2687 1618.99Z" fill="#1F77B4" fill-rule="evenodd"/><path d="M2701.99 1721.99 2709.99 1721.99 2709.99 1618.99 2701.99 1618.99Z" fill="#1F77B4" fill-rule="evenodd"/><path d="M2716.99 1721.99 2724.99 1721.99 2724.99 1622.99 2716.99 1622.99Z" fill="#1F77B4" fill-rule="evenodd"/><path d="M2733 1721.99 2740 1721.99 2740 1625.99 2733 1625.99Z" fill="#1F77B4" fill-rule="evenodd"/><path d="M2747.99 1721.99 2755.99 1721.99 2755.99 1631.99 2747.99 1631.99Z" fill="#1F77B4" fill-rule="evenodd"/><path d="M2762.99 1721.99 2770.99 1721.99 2770.99 1634.99 2762.99 1634.99Z" fill="#1F77B4" fill-rule="evenodd"/><path d="M2778.99 1721.99 2786 1721.99 2786 1638.99 2778.99 1638.99Z" fill="#1F77B4" fill-rule="evenodd"/><path d="M2793.99 1721.99 2801.99 1721.99 2801.99 1639.99 2793.99 1639.99Z" fill="#1F77B4" fill-rule="evenodd"/><path d="M2808.99 1721.99 2816.99 1721.99 2816.99 1639.99 2808.99 1639.99Z" fill="#1F77B4" fill-rule="evenodd"/><path d="M2825 1721.99 2832 1721.99 2832 1640.99 2825 1640.99Z" fill="#1F77B4" fill-rule="evenodd"/><path d="M2839.99 1721.99 2847.99 1721.99 2847.99 1640.99 2839.99 1640.99Z" fill="#1F77B4" fill-rule="evenodd"/><path d="M2854.99 1721.99 2862.99 1721.99 2862.99 1645.99 2854.99 1645.99Z" fill="#1F77B4" fill-rule="evenodd"/><path d="M2870.99 1721.99 2878.99 1721.99 2878.99 1648.99 2870.99 1648.99Z" fill="#1F77B4" fill-rule="evenodd"/><path d="M2885.99 1721.99 2893.99 1721.99 2893.99 1652.99 2885.99 1652.99Z" fill="#1F77B4" fill-rule="evenodd"/><path d="M2902 1721.99 2909 1721.99 2909 1659.99 2902 1659.99Z" fill="#1F77B4" fill-rule="evenodd"/><path d="M2916.99 1721.99 2924.99 1721.99 2924.99 1664.99 2916.99 1664.99Z" fill="#1F77B4" fill-rule="evenodd"/><path d="M2931.99 1721.99 2939.99 1721.99 2939.99 1669.99 2931.99 1669.99Z" fill="#1F77B4" fill-rule="evenodd"/><path d="M2948 1721.99 2955 1721.99 2955 1681.99 2948 1681.99Z" fill="#1F77B4" fill-rule="evenodd"/><path d="M2962.99 1721.99 2970.99 1721.99 2970.99 1684.99 2962.99 1684.99Z" fill="#1F77B4" fill-rule="evenodd"/><path d="M2977.99 1721.99 2985.99 1721.99 2985.99 1689.99 2977.99 1689.99Z" fill="#1F77B4" fill-rule="evenodd"/><path d="M2994 1721.99 3001 1721.99 3001 1704.99 2994 1704.99Z" fill="#1F77B4" fill-rule="evenodd"/><path d="M3008.99 1721.99 3016.99 1721.99 3016.99 1705.99 3008.99 1705.99Z" fill="#1F77B4" fill-rule="evenodd"/><path d="M3023.99 1721.99 3031.99 1721.99 3031.99 1712.99 3023.99 1712.99Z" fill="#1F77B4" fill-rule="evenodd"/><path d="M1518.49 1482.49 3051.5 1482.49" stroke="#FF0000" stroke-width="6.87031" stroke-linecap="square" stroke-linejoin="round" stroke-miterlimit="10" fill="none" fill-rule="evenodd"/><path d="M1518 1721.99 1518 723.988" stroke="#000000" stroke-width="3.66414" stroke-linecap="square" stroke-miterlimit="8" fill="none" fill-rule="evenodd"/><path d="M1517.99 1721.99 3051 1721.99" stroke="#000000" stroke-width="3.66414" stroke-linecap="square" stroke-miterlimit="8" fill="none" fill-rule="evenodd"/><text font-family="Aptos,Aptos_MSFontService,sans-serif" font-weight="400" font-size="55" transform="matrix(1 0 0 1 2068.38 1805)">Youtube</text><text font-family="Aptos,Aptos_MSFontService,sans-serif" font-weight="400" font-size="55" transform="matrix(1 0 0 1 2275.93 1805)">channels</text><text fill="#FF0000" font-family="Aptos,Aptos_MSFontService,sans-serif" font-weight="400" font-size="55" transform="matrix(1 0 0 1 2816.94 1458)">Average</text></g></svg>