<?xml version="1.0" encoding="UTF-8" standalone="no"?>
<svg
   xmlns:dc="http://purl.org/dc/elements/1.1/"
   xmlns:cc="http://creativecommons.org/ns#"
   xmlns:rdf="http://www.w3.org/1999/02/22-rdf-syntax-ns#"
   xmlns:svg="http://www.w3.org/2000/svg"
   xmlns="http://www.w3.org/2000/svg"
   xmlns:xlink="http://www.w3.org/1999/xlink"
   xmlns:sodipodi="http://sodipodi.sourceforge.net/DTD/sodipodi-0.dtd"
   xmlns:inkscape="http://www.inkscape.org/namespaces/inkscape"
   height="227pt"
   version="1.1"
   viewBox="0 0 376 227"
   width="376pt"
   id="svg559"
   sodipodi:docname="educational content.svg"
   inkscape:version="1.0.2-2 (e86c870879, 2021-01-15)">
  <sodipodi:namedview
     pagecolor="#ffffff"
     bordercolor="#666666"
     borderopacity="1"
     objecttolerance="10"
     gridtolerance="10"
     guidetolerance="10"
     inkscape:pageopacity="0"
     inkscape:pageshadow="2"
     inkscape:window-width="2560"
     inkscape:window-height="1360"
     id="namedview561"
     showgrid="false"
     inkscape:zoom="2.2152778"
     inkscape:cx="288"
     inkscape:cy="192"
     inkscape:window-x="2549"
     inkscape:window-y="-11"
     inkscape:window-maximized="1"
     inkscape:current-layer="axes_1"
     inkscape:document-rotation="0" />
  <metadata
     id="metadata2">
    <rdf:RDF>
      <cc:Work>
        <dc:type
           rdf:resource="http://purl.org/dc/dcmitype/StillImage" />
        <dc:date>2023-02-23T15:58:32.470311</dc:date>
        <dc:format>image/svg+xml</dc:format>
        <dc:creator>
          <cc:Agent>
            <dc:title>Matplotlib v3.4.3, https://matplotlib.org/</dc:title>
          </cc:Agent>
        </dc:creator>
        <dc:title></dc:title>
      </cc:Work>
    </rdf:RDF>
  </metadata>
  <defs
     id="defs6">
    <style
       type="text/css"
       id="style4">*{stroke-linecap:butt;stroke-linejoin:round;}</style>
  </defs>
  <g
     id="figure_1">
    <g
       id="patch_1">
      <path
         d="M 0,288 H 432 V 0 H 0 Z"
         style="fill:none"
         id="path8" />
    </g>
    <g
       id="axes_1">
      <g
         id="patch_2"
         transform="translate(-15,-33)">
        <path
           d="M 54,252 H 388.8 V 34.56 H 54 Z"
           style="fill:#ffffff"
           id="path11" />
      </g>
      <g
         id="patch_3"
         transform="translate(-15,-33)">
        <path
           clip-path="url(#p81f25ee717)"
           d="m 54.837,252 h 1.674 V 44.914286 h -1.674 z"
           style="fill:#1f77b4"
           id="path14" />
      </g>
      <g
         id="patch_4"
         transform="translate(-15,-33)">
        <path
           clip-path="url(#p81f25ee717)"
           d="m 58.185,252 h 1.674 V 82.210311 h -1.674 z"
           style="fill:#1f77b4"
           id="path17" />
      </g>
      <g
         id="patch_5"
         transform="translate(-15,-33)">
        <path
           clip-path="url(#p81f25ee717)"
           d="m 61.533,252 h 1.674 V 113.58098 h -1.674 z"
           style="fill:#1f77b4"
           id="path20" />
      </g>
      <g
         id="patch_6"
         transform="translate(-15,-33)">
        <path
           clip-path="url(#p81f25ee717)"
           d="m 64.881,252 h 1.674 V 115.56976 h -1.674 z"
           style="fill:#1f77b4"
           id="path23" />
      </g>
      <g
         id="patch_7"
         transform="translate(-15,-33)">
        <path
           clip-path="url(#p81f25ee717)"
           d="m 68.229,252 h 1.674 V 125.29336 h -1.674 z"
           style="fill:#1f77b4"
           id="path26" />
      </g>
      <g
         id="patch_8"
         transform="translate(-15,-33)">
        <path
           clip-path="url(#p81f25ee717)"
           d="m 71.577,252 h 1.674 V 130.88335 h -1.674 z"
           style="fill:#1f77b4"
           id="path29" />
      </g>
      <g
         id="patch_9"
         transform="translate(-15,-33)">
        <path
           clip-path="url(#p81f25ee717)"
           d="m 74.925,252 h 1.674 V 132.08253 h -1.674 z"
           style="fill:#1f77b4"
           id="path32" />
      </g>
      <g
         id="patch_10"
         transform="translate(-15,-33)">
        <path
           clip-path="url(#p81f25ee717)"
           d="m 78.273,252 h 1.674 V 139.20435 h -1.674 z"
           style="fill:#1f77b4"
           id="path35" />
      </g>
      <g
         id="patch_11"
         transform="translate(-15,-33)">
        <path
           clip-path="url(#p81f25ee717)"
           d="m 81.621,252 h 1.674 V 144.13763 h -1.674 z"
           style="fill:#1f77b4"
           id="path38" />
      </g>
      <g
         id="patch_12"
         transform="translate(-15,-33)">
        <path
           clip-path="url(#p81f25ee717)"
           d="m 84.969,252 h 1.674 V 144.34076 h -1.674 z"
           style="fill:#1f77b4"
           id="path41" />
      </g>
      <g
         id="patch_13"
         transform="translate(-15,-33)">
        <path
           clip-path="url(#p81f25ee717)"
           d="m 88.317,252 h 1.674 V 145.50088 h -1.674 z"
           style="fill:#1f77b4"
           id="path44" />
      </g>
      <g
         id="patch_14"
         transform="translate(-15,-33)">
        <path
           clip-path="url(#p81f25ee717)"
           d="m 91.665,252 h 1.674 V 146.2982 h -1.674 z"
           style="fill:#1f77b4"
           id="path47" />
      </g>
      <g
         id="patch_15"
         transform="translate(-15,-33)">
        <path
           clip-path="url(#p81f25ee717)"
           d="m 95.013,252 h 1.674 V 146.84446 h -1.674 z"
           style="fill:#1f77b4"
           id="path50" />
      </g>
      <g
         id="patch_16"
         transform="translate(-15,-33)">
        <path
           clip-path="url(#p81f25ee717)"
           d="m 98.361,252 h 1.674 V 148.71811 h -1.674 z"
           style="fill:#1f77b4"
           id="path53" />
      </g>
      <g
         id="patch_17"
         transform="translate(-15,-33)">
        <path
           clip-path="url(#p81f25ee717)"
           d="m 101.709,252 h 1.674 v -98.1868 h -1.674 z"
           style="fill:#1f77b4"
           id="path56" />
      </g>
      <g
         id="patch_18"
         transform="translate(-15,-33)">
        <path
           clip-path="url(#p81f25ee717)"
           d="m 105.057,252 h 1.674 v -97.31277 h -1.674 z"
           style="fill:#1f77b4"
           id="path59" />
      </g>
      <g
         id="patch_19"
         transform="translate(-15,-33)">
        <path
           clip-path="url(#p81f25ee717)"
           d="m 108.405,252 h 1.674 v -94.92926 h -1.674 z"
           style="fill:#1f77b4"
           id="path62" />
      </g>
      <g
         id="patch_20"
         transform="translate(-15,-33)">
        <path
           clip-path="url(#p81f25ee717)"
           d="m 111.753,252 h 1.674 v -94.20184 h -1.674 z"
           style="fill:#1f77b4"
           id="path65" />
      </g>
      <g
         id="patch_21"
         transform="translate(-15,-33)">
        <path
           clip-path="url(#p81f25ee717)"
           d="m 115.101,252 h 1.674 v -94.14988 h -1.674 z"
           style="fill:#1f77b4"
           id="path68" />
      </g>
      <g
         id="patch_22"
         transform="translate(-15,-33)">
        <path
           clip-path="url(#p81f25ee717)"
           d="m 118.449,252 h 1.674 v -91.88159 h -1.674 z"
           style="fill:#1f77b4"
           id="path71" />
      </g>
      <g
         id="patch_23"
         transform="translate(-15,-33)">
        <path
           clip-path="url(#p81f25ee717)"
           d="m 121.797,252 h 1.674 v -88.57785 h -1.674 z"
           style="fill:#1f77b4"
           id="path74" />
      </g>
      <g
         id="patch_24"
         transform="translate(-15,-33)">
        <path
           clip-path="url(#p81f25ee717)"
           d="m 125.145,252 h 1.674 v -88.19173 h -1.674 z"
           style="fill:#1f77b4"
           id="path77" />
      </g>
      <g
         id="patch_25"
         transform="translate(-15,-33)">
        <path
           clip-path="url(#p81f25ee717)"
           d="m 128.493,252 h 1.674 v -83.76375 h -1.674 z"
           style="fill:#1f77b4"
           id="path80" />
      </g>
      <g
         id="patch_26"
         transform="translate(-15,-33)">
        <path
           clip-path="url(#p81f25ee717)"
           d="m 131.841,252 h 1.674 v -80.74443 h -1.674 z"
           style="fill:#1f77b4"
           id="path83" />
      </g>
      <g
         id="patch_27"
         transform="translate(-15,-33)">
        <path
           clip-path="url(#p81f25ee717)"
           d="m 135.189,252 h 1.674 v -80.49131 h -1.674 z"
           style="fill:#1f77b4"
           id="path86" />
      </g>
      <g
         id="patch_28"
         transform="translate(-15,-33)">
        <path
           clip-path="url(#p81f25ee717)"
           d="m 138.537,252 h 1.674 v -80.27499 h -1.674 z"
           style="fill:#1f77b4"
           id="path89" />
      </g>
      <g
         id="patch_29"
         transform="translate(-15,-33)">
        <path
           clip-path="url(#p81f25ee717)"
           d="m 141.885,252 h 1.674 v -77.51465 h -1.674 z"
           style="fill:#1f77b4"
           id="path92" />
      </g>
      <g
         id="patch_30"
         transform="translate(-15,-33)">
        <path
           clip-path="url(#p81f25ee717)"
           d="m 145.233,252 h 1.674 v -73.72318 h -1.674 z"
           style="fill:#1f77b4"
           id="path95" />
      </g>
      <g
         id="patch_31"
         transform="translate(-15,-33)">
        <path
           clip-path="url(#p81f25ee717)"
           d="m 148.581,252 h 1.674 v -72.57926 h -1.674 z"
           style="fill:#1f77b4"
           id="path98" />
      </g>
      <g
         id="patch_32"
         transform="translate(-15,-33)">
        <path
           clip-path="url(#p81f25ee717)"
           d="m 151.929,252 h 1.674 v -70.24765 h -1.674 z"
           style="fill:#1f77b4"
           id="path101" />
      </g>
      <g
         id="patch_33"
         transform="translate(-15,-33)">
        <path
           clip-path="url(#p81f25ee717)"
           d="m 155.277,252 h 1.674 v -66.19166 h -1.674 z"
           style="fill:#1f77b4"
           id="path104" />
      </g>
      <g
         id="patch_34"
         transform="translate(-15,-33)">
        <path
           clip-path="url(#p81f25ee717)"
           d="m 158.625,252 h 1.674 v -62.51182 h -1.674 z"
           style="fill:#1f77b4"
           id="path107" />
      </g>
      <g
         id="patch_35"
         transform="translate(-15,-33)">
        <path
           clip-path="url(#p81f25ee717)"
           d="m 161.973,252 h 1.674 v -58.83327 h -1.674 z"
           style="fill:#1f77b4"
           id="path110" />
      </g>
      <g
         id="patch_36"
         transform="translate(-15,-33)">
        <path
           clip-path="url(#p81f25ee717)"
           d="m 165.321,252 h 1.674 v -58.80808 h -1.674 z"
           style="fill:#1f77b4"
           id="path113" />
      </g>
      <g
         id="patch_37"
         transform="translate(-15,-33)">
        <path
           clip-path="url(#p81f25ee717)"
           d="m 168.669,252 h 1.674 v -57.17953 h -1.674 z"
           style="fill:#1f77b4"
           id="path116" />
      </g>
      <g
         id="patch_38"
         transform="translate(-15,-33)">
        <path
           clip-path="url(#p81f25ee717)"
           d="m 172.017,252 h 1.674 v -56.88069 h -1.674 z"
           style="fill:#1f77b4"
           id="path119" />
      </g>
      <g
         id="patch_39"
         transform="translate(-15,-33)">
        <path
           clip-path="url(#p81f25ee717)"
           d="m 175.365,252 h 1.674 v -55.79162 h -1.674 z"
           style="fill:#1f77b4"
           id="path122" />
      </g>
      <g
         id="patch_40"
         transform="translate(-15,-33)">
        <path
           clip-path="url(#p81f25ee717)"
           d="m 178.713,252 h 1.674 v -55.56257 h -1.674 z"
           style="fill:#1f77b4"
           id="path125" />
      </g>
      <g
         id="patch_41"
         transform="translate(-15,-33)">
        <path
           clip-path="url(#p81f25ee717)"
           d="m 182.061,252 h 1.674 v -55.36761 h -1.674 z"
           style="fill:#1f77b4"
           id="path128" />
      </g>
      <g
         id="patch_42"
         transform="translate(-15,-33)">
        <path
           clip-path="url(#p81f25ee717)"
           d="m 185.409,252 h 1.674 v -51.0744 h -1.674 z"
           style="fill:#1f77b4"
           id="path131" />
      </g>
      <g
         id="patch_43"
         transform="translate(-15,-33)">
        <path
           clip-path="url(#p81f25ee717)"
           d="m 188.757,252 h 1.674 v -49.54772 h -1.674 z"
           style="fill:#1f77b4"
           id="path134" />
      </g>
      <g
         id="patch_44"
         transform="translate(-15,-33)">
        <path
           clip-path="url(#p81f25ee717)"
           d="m 192.105,252 h 1.674 v -48.44666 h -1.674 z"
           style="fill:#1f77b4"
           id="path137" />
      </g>
      <g
         id="patch_45"
         transform="translate(-15,-33)">
        <path
           clip-path="url(#p81f25ee717)"
           d="m 195.453,252 h 1.674 v -44.12264 h -1.674 z"
           style="fill:#1f77b4"
           id="path140" />
      </g>
      <g
         id="patch_46"
         transform="translate(-15,-33)">
        <path
           clip-path="url(#p81f25ee717)"
           d="m 198.801,252 h 1.674 v -43.69813 h -1.674 z"
           style="fill:#1f77b4"
           id="path143" />
      </g>
      <g
         id="patch_47"
         transform="translate(-15,-33)">
        <path
           clip-path="url(#p81f25ee717)"
           d="m 202.149,252 h 1.674 v -43.33886 h -1.674 z"
           style="fill:#1f77b4"
           id="path146" />
      </g>
      <g
         id="patch_48"
         transform="translate(-15,-33)">
        <path
           clip-path="url(#p81f25ee717)"
           d="m 205.497,252 h 1.674 v -43.17029 h -1.674 z"
           style="fill:#1f77b4"
           id="path149" />
      </g>
      <g
         id="patch_49"
         transform="translate(-15,-33)">
        <path
           clip-path="url(#p81f25ee717)"
           d="m 208.845,252 h 1.674 v -42.54683 h -1.674 z"
           style="fill:#1f77b4"
           id="path152" />
      </g>
      <g
         id="patch_50"
         transform="translate(-15,-33)">
        <path
           clip-path="url(#p81f25ee717)"
           d="m 212.193,252 h 1.674 v -41.4599 h -1.674 z"
           style="fill:#1f77b4"
           id="path155" />
      </g>
      <g
         id="patch_51"
         transform="translate(-15,-33)">
        <path
           clip-path="url(#p81f25ee717)"
           d="m 215.541,252 h 1.674 v -38.39595 h -1.674 z"
           style="fill:#1f77b4"
           id="path158" />
      </g>
      <g
         id="patch_52"
         transform="translate(-15,-33)">
        <path
           clip-path="url(#p81f25ee717)"
           d="m 218.889,252 h 1.674 v -37.99738 h -1.674 z"
           style="fill:#1f77b4"
           id="path161" />
      </g>
      <g
         id="patch_53"
         transform="translate(-15,-33)">
        <path
           clip-path="url(#p81f25ee717)"
           d="m 222.237,252 h 1.674 v -37.55555 h -1.674 z"
           style="fill:#1f77b4"
           id="path164" />
      </g>
      <g
         id="patch_54"
         transform="translate(-15,-33)">
        <path
           clip-path="url(#p81f25ee717)"
           d="m 225.585,252 h 1.674 v -37.43605 h -1.674 z"
           style="fill:#1f77b4"
           id="path167" />
      </g>
      <g
         id="patch_55"
         transform="translate(-15,-33)">
        <path
           clip-path="url(#p81f25ee717)"
           d="m 228.933,252 h 1.674 v -37.02428 h -1.674 z"
           style="fill:#1f77b4"
           id="path170" />
      </g>
      <g
         id="patch_56"
         transform="translate(-15,-33)">
        <path
           clip-path="url(#p81f25ee717)"
           d="m 232.281,252 h 1.674 v -34.58772 h -1.674 z"
           style="fill:#1f77b4"
           id="path173" />
      </g>
      <g
         id="patch_57"
         transform="translate(-15,-33)">
        <path
           clip-path="url(#p81f25ee717)"
           d="m 235.629,252 h 1.674 v -31.79673 h -1.674 z"
           style="fill:#1f77b4"
           id="path176" />
      </g>
      <g
         id="patch_58"
         transform="translate(-15,-33)">
        <path
           clip-path="url(#p81f25ee717)"
           d="m 238.977,252 h 1.674 v -30.71104 h -1.674 z"
           style="fill:#1f77b4"
           id="path179" />
      </g>
      <g
         id="patch_59"
         transform="translate(-15,-33)">
        <path
           clip-path="url(#p81f25ee717)"
           d="m 242.325,252 h 1.674 v -29.60629 h -1.674 z"
           style="fill:#1f77b4"
           id="path182" />
      </g>
      <g
         id="patch_60"
         transform="translate(-15,-33)">
        <path
           clip-path="url(#p81f25ee717)"
           d="m 245.673,252 h 1.674 v -29.3946 h -1.674 z"
           style="fill:#1f77b4"
           id="path185" />
      </g>
      <g
         id="patch_61"
         transform="translate(-15,-33)">
        <path
           clip-path="url(#p81f25ee717)"
           d="m 249.021,252 h 1.674 v -29.15771 h -1.674 z"
           style="fill:#1f77b4"
           id="path188" />
      </g>
      <g
         id="patch_62"
         transform="translate(-15,-33)">
        <path
           clip-path="url(#p81f25ee717)"
           d="m 252.369,252 h 1.674 v -29.07432 h -1.674 z"
           style="fill:#1f77b4"
           id="path191" />
      </g>
      <g
         id="patch_63"
         transform="translate(-15,-33)">
        <path
           clip-path="url(#p81f25ee717)"
           d="m 255.717,252 h 1.674 v -28.88088 h -1.674 z"
           style="fill:#1f77b4"
           id="path194" />
      </g>
      <g
         id="patch_64"
         transform="translate(-15,-33)">
        <path
           clip-path="url(#p81f25ee717)"
           d="m 259.065,252 h 1.674 v -28.49803 h -1.674 z"
           style="fill:#1f77b4"
           id="path197" />
      </g>
      <g
         id="patch_65"
         transform="translate(-15,-33)">
        <path
           clip-path="url(#p81f25ee717)"
           d="m 262.413,252 h 1.674 v -28.22876 h -1.674 z"
           style="fill:#1f77b4"
           id="path200" />
      </g>
      <g
         id="patch_66"
         transform="translate(-15,-33)">
        <path
           clip-path="url(#p81f25ee717)"
           d="m 265.761,252 h 1.674 v -28.16666 h -1.674 z"
           style="fill:#1f77b4"
           id="path203" />
      </g>
      <g
         id="patch_67"
         transform="translate(-15,-33)">
        <path
           clip-path="url(#p81f25ee717)"
           d="m 269.109,252 h 1.674 v -27.97831 h -1.674 z"
           style="fill:#1f77b4"
           id="path206" />
      </g>
      <g
         id="patch_68"
         transform="translate(-15,-33)">
        <path
           clip-path="url(#p81f25ee717)"
           d="m 272.457,252 h 1.674 v -27.95 h -1.674 z"
           style="fill:#1f77b4"
           id="path209" />
      </g>
      <g
         id="patch_69"
         transform="translate(-15,-33)">
        <path
           clip-path="url(#p81f25ee717)"
           d="m 275.805,252 h 1.674 v -26.72919 h -1.674 z"
           style="fill:#1f77b4"
           id="path212" />
      </g>
      <g
         id="patch_70"
         transform="translate(-15,-33)">
        <path
           clip-path="url(#p81f25ee717)"
           d="m 279.153,252 h 1.674 v -26.42545 h -1.674 z"
           style="fill:#1f77b4"
           id="path215" />
      </g>
      <g
         id="patch_71"
         transform="translate(-15,-33)">
        <path
           clip-path="url(#p81f25ee717)"
           d="m 282.501,252 h 1.674 v -26.39118 h -1.674 z"
           style="fill:#1f77b4"
           id="path218" />
      </g>
      <g
         id="patch_72"
         transform="translate(-15,-33)">
        <path
           clip-path="url(#p81f25ee717)"
           d="m 285.849,252 h 1.674 v -26.22908 h -1.674 z"
           style="fill:#1f77b4"
           id="path221" />
      </g>
      <g
         id="patch_73"
         transform="translate(-15,-33)">
        <path
           clip-path="url(#p81f25ee717)"
           d="m 289.197,252 h 1.674 v -25.99577 h -1.674 z"
           style="fill:#1f77b4"
           id="path224" />
      </g>
      <g
         id="patch_74"
         transform="translate(-15,-33)">
        <path
           clip-path="url(#p81f25ee717)"
           d="m 292.545,252 h 1.674 v -25.1671 h -1.674 z"
           style="fill:#1f77b4"
           id="path227" />
      </g>
      <g
         id="patch_75"
         transform="translate(-15,-33)">
        <path
           clip-path="url(#p81f25ee717)"
           d="m 295.893,252 h 1.674 v -25.05862 h -1.674 z"
           style="fill:#1f77b4"
           id="path230" />
      </g>
      <g
         id="patch_76"
         transform="translate(-15,-33)">
        <path
           clip-path="url(#p81f25ee717)"
           d="m 299.241,252 h 1.674 v -24.93578 h -1.674 z"
           style="fill:#1f77b4"
           id="path233" />
      </g>
      <g
         id="patch_77"
         transform="translate(-15,-33)">
        <path
           clip-path="url(#p81f25ee717)"
           d="m 302.589,252 h 1.674 v -24.22333 h -1.674 z"
           style="fill:#1f77b4"
           id="path236" />
      </g>
      <g
         id="patch_78"
         transform="translate(-15,-33)">
        <path
           clip-path="url(#p81f25ee717)"
           d="m 305.937,252 h 1.674 v -23.7775 h -1.674 z"
           style="fill:#1f77b4"
           id="path239" />
      </g>
      <g
         id="patch_79"
         transform="translate(-15,-33)">
        <path
           clip-path="url(#p81f25ee717)"
           d="m 309.285,252 h 1.674 v -22.44123 h -1.674 z"
           style="fill:#1f77b4"
           id="path242" />
      </g>
      <g
         id="patch_80"
         transform="translate(-15,-33)">
        <path
           clip-path="url(#p81f25ee717)"
           d="m 312.633,252 h 1.674 v -22.40826 h -1.674 z"
           style="fill:#1f77b4"
           id="path245" />
      </g>
      <g
         id="patch_81"
         transform="translate(-15,-33)">
        <path
           clip-path="url(#p81f25ee717)"
           d="m 315.981,252 h 1.674 v -21.45959 h -1.674 z"
           style="fill:#1f77b4"
           id="path248" />
      </g>
      <g
         id="patch_82"
         transform="translate(-15,-33)">
        <path
           clip-path="url(#p81f25ee717)"
           d="m 319.329,252 h 1.674 v -20.90149 h -1.674 z"
           style="fill:#1f77b4"
           id="path251" />
      </g>
      <g
         id="patch_83"
         transform="translate(-15,-33)">
        <path
           clip-path="url(#p81f25ee717)"
           d="m 322.677,252 h 1.674 v -19.45649 h -1.674 z"
           style="fill:#1f77b4"
           id="path254" />
      </g>
      <g
         id="patch_84"
         transform="translate(-15,-33)">
        <path
           clip-path="url(#p81f25ee717)"
           d="m 326.025,252 h 1.674 v -18.84812 h -1.674 z"
           style="fill:#1f77b4"
           id="path257" />
      </g>
      <g
         id="patch_85"
         transform="translate(-15,-33)">
        <path
           clip-path="url(#p81f25ee717)"
           d="m 329.373,252 h 1.674 v -18.08885 h -1.674 z"
           style="fill:#1f77b4"
           id="path260" />
      </g>
      <g
         id="patch_86"
         transform="translate(-15,-33)">
        <path
           clip-path="url(#p81f25ee717)"
           d="m 332.721,252 h 1.674 v -17.72439 h -1.674 z"
           style="fill:#1f77b4"
           id="path263" />
      </g>
      <g
         id="patch_87"
         transform="translate(-15,-33)">
        <path
           clip-path="url(#p81f25ee717)"
           d="m 336.069,252 h 1.674 v -17.68126 h -1.674 z"
           style="fill:#1f77b4"
           id="path266" />
      </g>
      <g
         id="patch_88"
         transform="translate(-15,-33)">
        <path
           clip-path="url(#p81f25ee717)"
           d="m 339.417,252 h 1.674 v -17.66284 h -1.674 z"
           style="fill:#1f77b4"
           id="path269" />
      </g>
      <g
         id="patch_89"
         transform="translate(-15,-33)">
        <path
           clip-path="url(#p81f25ee717)"
           d="m 342.765,252 h 1.674 v -17.61697 h -1.674 z"
           style="fill:#1f77b4"
           id="path272" />
      </g>
      <g
         id="patch_90"
         transform="translate(-15,-33)">
        <path
           clip-path="url(#p81f25ee717)"
           d="m 346.113,252 h 1.674 v -16.36711 h -1.674 z"
           style="fill:#1f77b4"
           id="path275" />
      </g>
      <g
         id="patch_91"
         transform="translate(-15,-33)">
        <path
           clip-path="url(#p81f25ee717)"
           d="m 349.461,252 h 1.674 v -15.81932 h -1.674 z"
           style="fill:#1f77b4"
           id="path278" />
      </g>
      <g
         id="patch_92"
         transform="translate(-15,-33)">
        <path
           clip-path="url(#p81f25ee717)"
           d="m 352.809,252 h 1.674 v -14.89575 h -1.674 z"
           style="fill:#1f77b4"
           id="path281" />
      </g>
      <g
         id="patch_93"
         transform="translate(-15,-33)">
        <path
           clip-path="url(#p81f25ee717)"
           d="m 356.157,252 h 1.674 v -13.31867 h -1.674 z"
           style="fill:#1f77b4"
           id="path284" />
      </g>
      <g
         id="patch_94"
         transform="translate(-15,-33)">
        <path
           clip-path="url(#p81f25ee717)"
           d="m 359.505,252 h 1.674 v -12.29611 h -1.674 z"
           style="fill:#1f77b4"
           id="path287" />
      </g>
      <g
         id="patch_95"
         transform="translate(-15,-33)">
        <path
           clip-path="url(#p81f25ee717)"
           d="m 362.853,252 h 1.674 v -11.28416 h -1.674 z"
           style="fill:#1f77b4"
           id="path290" />
      </g>
      <g
         id="patch_96"
         transform="translate(-15,-33)">
        <path
           clip-path="url(#p81f25ee717)"
           d="m 366.201,252 h 1.674 v -8.57463 h -1.674 z"
           style="fill:#1f77b4"
           id="path293" />
      </g>
      <g
         id="patch_97"
         transform="translate(-15,-33)">
        <path
           clip-path="url(#p81f25ee717)"
           d="m 369.549,252 h 1.674 v -7.94208 h -1.674 z"
           style="fill:#1f77b4"
           id="path296" />
      </g>
      <g
         id="patch_98"
         transform="translate(-15,-33)">
        <path
           clip-path="url(#p81f25ee717)"
           d="m 372.897,252 h 1.674 v -6.82347 h -1.674 z"
           style="fill:#1f77b4"
           id="path299" />
      </g>
      <g
         id="patch_99"
         transform="translate(-15,-33)">
        <path
           clip-path="url(#p81f25ee717)"
           d="m 376.245,252 h 1.674 v -3.64261 h -1.674 z"
           style="fill:#1f77b4"
           id="path302" />
      </g>
      <g
         id="patch_100"
         transform="translate(-15,-33)">
        <path
           clip-path="url(#p81f25ee717)"
           d="m 379.593,252 h 1.674 v -3.36435 h -1.674 z"
           style="fill:#1f77b4"
           id="path305" />
      </g>
      <g
         id="patch_101"
         transform="translate(-15,-33)">
        <path
           clip-path="url(#p81f25ee717)"
           d="m 382.941,252 h 1.674 v -1.9036 h -1.674 z"
           style="fill:#1f77b4"
           id="path308" />
      </g>
      <g
         id="patch_102"
         transform="translate(-15,-33)">
        <path
           clip-path="url(#p81f25ee717)"
           d="m 386.289,252 h 1.674 v 0 z"
           style="fill:#1f77b4"
           id="path311" />
      </g>
      <g
         id="matplotlib.axis_2"
         transform="translate(-15,-33)">
        <g
           id="ytick_1">
          <g
             id="line2d_1">
            <defs
               id="defs347">
              <path
                 d="M 0,0 H -3.5"
                 id="m78e5c9d69e"
                 style="stroke:#000000;stroke-width:0.8" />
            </defs>
            <g
               id="g351">
              <use
                 style="stroke:#000000;stroke-width:0.8"
                 x="54"
                 xlink:href="#m78e5c9d69e"
                 y="252"
                 id="use349"
                 width="100%"
                 height="100%" />
            </g>
          </g>
          <g
             id="text_2">
            <!-- 0.0% -->
            <g
               transform="matrix(0.1,0,0,-0.1,21.595312,255.79922)"
               id="g367">
              <defs
                 id="defs357">
                <path
                   d="m 2034,4250 q -487,0 -733,-480 -245,-479 -245,-1442 0,-959 245,-1439 246,-480 733,-480 491,0 736,480 246,480 246,1439 0,963 -246,1442 -245,480 -736,480 z m 0,500 q 785,0 1199,-621 414,-620 414,-1801 0,-1178 -414,-1799 -414,-620 -1199,-620 -784,0 -1198,620 -414,621 -414,1799 0,1181 414,1801 414,621 1198,621 z"
                   id="DejaVuSans-30"
                   transform="scale(0.015625)" />
                <path
                   d="m 684,794 h 660 V 0 H 684 Z"
                   id="DejaVuSans-2e"
                   transform="scale(0.015625)" />
                <path
                   d="m 4653,2053 q -272,0 -427,-231 -154,-231 -154,-644 0,-406 154,-639 155,-233 427,-233 266,0 420,233 155,233 155,639 0,410 -155,642 -154,233 -420,233 z m 0,397 q 494,0 784,-344 291,-343 291,-928 0,-584 -292,-927 -292,-342 -783,-342 -500,0 -791,342 -290,343 -290,927 0,588 292,930 292,342 789,342 z M 1428,4353 q -269,0 -424,-233 -154,-232 -154,-639 0,-412 153,-644 153,-231 425,-231 272,0 426,231 155,232 155,644 0,403 -156,637 -156,235 -425,235 z m 2822,397 h 500 L 1831,-91 h -500 z m -2822,0 q 494,0 787,-342 294,-342 294,-927 0,-590 -292,-931 -292,-341 -789,-341 -497,0 -786,342 -289,343 -289,930 0,582 290,925 291,344 785,344 z"
                   id="DejaVuSans-25"
                   transform="scale(0.015625)" />
              </defs>
              <use
                 xlink:href="#DejaVuSans-30"
                 id="use359"
                 x="0"
                 y="0"
                 width="100%"
                 height="100%" />
              <use
                 x="63.623047"
                 xlink:href="#DejaVuSans-2e"
                 id="use361"
                 y="0"
                 width="100%"
                 height="100%" />
              <use
                 x="95.410156"
                 xlink:href="#DejaVuSans-30"
                 id="use363"
                 y="0"
                 width="100%"
                 height="100%" />
              <use
                 x="159.0332"
                 xlink:href="#DejaVuSans-25"
                 id="use365"
                 y="0"
                 width="100%"
                 height="100%" />
            </g>
          </g>
        </g>
        <g
           id="ytick_2">
          <g
             id="line2d_2">
            <g
               id="g373">
              <use
                 style="stroke:#000000;stroke-width:0.8"
                 x="54"
                 xlink:href="#m78e5c9d69e"
                 y="227.77667"
                 id="use371"
                 width="100%"
                 height="100%" />
            </g>
          </g>
          <g
             id="text_3">
            <!-- 5.0% -->
            <g
               transform="matrix(0.1,0,0,-0.1,21.595312,231.57589)"
               id="g387">
              <defs
                 id="defs377">
                <path
                   d="M 691,4666 H 3169 V 4134 H 1269 V 2991 q 137,47 274,70 138,23 276,23 781,0 1237,-428 457,-428 457,-1159 Q 3513,744 3044,326 2575,-91 1722,-91 1428,-91 1123,-41 819,9 494,109 v 635 q 281,-153 581,-228 300,-75 634,-75 541,0 856,284 316,284 316,772 0,487 -316,771 -315,285 -856,285 -253,0 -505,-56 -251,-56 -513,-175 z"
                   id="DejaVuSans-35"
                   transform="scale(0.015625)" />
              </defs>
              <use
                 xlink:href="#DejaVuSans-35"
                 id="use379"
                 x="0"
                 y="0"
                 width="100%"
                 height="100%" />
              <use
                 x="63.623047"
                 xlink:href="#DejaVuSans-2e"
                 id="use381"
                 y="0"
                 width="100%"
                 height="100%" />
              <use
                 x="95.410156"
                 xlink:href="#DejaVuSans-30"
                 id="use383"
                 y="0"
                 width="100%"
                 height="100%" />
              <use
                 x="159.0332"
                 xlink:href="#DejaVuSans-25"
                 id="use385"
                 y="0"
                 width="100%"
                 height="100%" />
            </g>
          </g>
        </g>
        <g
           id="ytick_3">
          <g
             id="line2d_3">
            <g
               id="g393">
              <use
                 style="stroke:#000000;stroke-width:0.8"
                 x="54"
                 xlink:href="#m78e5c9d69e"
                 y="203.55334"
                 id="use391"
                 width="100%"
                 height="100%" />
            </g>
          </g>
          <g
             id="text_4">
            <!-- 10.0% -->
            <g
               transform="matrix(0.1,0,0,-0.1,15.232812,207.35256)"
               id="g409">
              <defs
                 id="defs397">
                <path
                   d="M 794,531 H 1825 V 4091 L 703,3866 v 575 l 1116,225 h 631 V 531 H 3481 V 0 H 794 Z"
                   id="DejaVuSans-31"
                   transform="scale(0.015625)" />
              </defs>
              <use
                 xlink:href="#DejaVuSans-31"
                 id="use399"
                 x="0"
                 y="0"
                 width="100%"
                 height="100%" />
              <use
                 x="63.623047"
                 xlink:href="#DejaVuSans-30"
                 id="use401"
                 y="0"
                 width="100%"
                 height="100%" />
              <use
                 x="127.24609"
                 xlink:href="#DejaVuSans-2e"
                 id="use403"
                 y="0"
                 width="100%"
                 height="100%" />
              <use
                 x="159.0332"
                 xlink:href="#DejaVuSans-30"
                 id="use405"
                 y="0"
                 width="100%"
                 height="100%" />
              <use
                 x="222.65625"
                 xlink:href="#DejaVuSans-25"
                 id="use407"
                 y="0"
                 width="100%"
                 height="100%" />
            </g>
          </g>
        </g>
        <g
           id="ytick_4">
          <g
             id="line2d_4">
            <g
               id="g415">
              <use
                 style="stroke:#000000;stroke-width:0.8"
                 x="54"
                 xlink:href="#m78e5c9d69e"
                 y="179.33002"
                 id="use413"
                 width="100%"
                 height="100%" />
            </g>
          </g>
          <g
             id="text_5">
            <!-- 15.0% -->
            <g
               transform="matrix(0.1,0,0,-0.1,15.232812,183.12923)"
               id="g428">
              <use
                 xlink:href="#DejaVuSans-31"
                 id="use418"
                 x="0"
                 y="0"
                 width="100%"
                 height="100%" />
              <use
                 x="63.623047"
                 xlink:href="#DejaVuSans-35"
                 id="use420"
                 y="0"
                 width="100%"
                 height="100%" />
              <use
                 x="127.24609"
                 xlink:href="#DejaVuSans-2e"
                 id="use422"
                 y="0"
                 width="100%"
                 height="100%" />
              <use
                 x="159.0332"
                 xlink:href="#DejaVuSans-30"
                 id="use424"
                 y="0"
                 width="100%"
                 height="100%" />
              <use
                 x="222.65625"
                 xlink:href="#DejaVuSans-25"
                 id="use426"
                 y="0"
                 width="100%"
                 height="100%" />
            </g>
          </g>
        </g>
        <g
           id="ytick_5">
          <g
             id="line2d_5">
            <g
               id="g434">
              <use
                 style="stroke:#000000;stroke-width:0.8"
                 x="54"
                 xlink:href="#m78e5c9d69e"
                 y="155.10669"
                 id="use432"
                 width="100%"
                 height="100%" />
            </g>
          </g>
          <g
             id="text_6">
            <!-- 20.0% -->
            <g
               transform="matrix(0.1,0,0,-0.1,15.232812,158.9059)"
               id="g450">
              <defs
                 id="defs438">
                <path
                   d="M 1228,531 H 3431 V 0 H 469 v 531 q 359,372 979,998 621,627 780,809 303,340 423,576 121,236 121,464 0,372 -261,606 -261,235 -680,235 -297,0 -627,-103 -329,-103 -704,-313 v 638 q 381,153 712,231 332,78 607,78 725,0 1156,-363 431,-362 431,-968 0,-288 -108,-546 -107,-257 -392,-607 -78,-91 -497,-524 Q 1991,1309 1228,531 Z"
                   id="DejaVuSans-32"
                   transform="scale(0.015625)" />
              </defs>
              <use
                 xlink:href="#DejaVuSans-32"
                 id="use440"
                 x="0"
                 y="0"
                 width="100%"
                 height="100%" />
              <use
                 x="63.623047"
                 xlink:href="#DejaVuSans-30"
                 id="use442"
                 y="0"
                 width="100%"
                 height="100%" />
              <use
                 x="127.24609"
                 xlink:href="#DejaVuSans-2e"
                 id="use444"
                 y="0"
                 width="100%"
                 height="100%" />
              <use
                 x="159.0332"
                 xlink:href="#DejaVuSans-30"
                 id="use446"
                 y="0"
                 width="100%"
                 height="100%" />
              <use
                 x="222.65625"
                 xlink:href="#DejaVuSans-25"
                 id="use448"
                 y="0"
                 width="100%"
                 height="100%" />
            </g>
          </g>
        </g>
        <g
           id="ytick_6">
          <g
             id="line2d_6">
            <g
               id="g456">
              <use
                 style="stroke:#000000;stroke-width:0.8"
                 x="54"
                 xlink:href="#m78e5c9d69e"
                 y="130.88336"
                 id="use454"
                 width="100%"
                 height="100%" />
            </g>
          </g>
          <g
             id="text_7">
            <!-- 25.0% -->
            <g
               transform="matrix(0.1,0,0,-0.1,15.232812,134.68257)"
               id="g469">
              <use
                 xlink:href="#DejaVuSans-32"
                 id="use459"
                 x="0"
                 y="0"
                 width="100%"
                 height="100%" />
              <use
                 x="63.623047"
                 xlink:href="#DejaVuSans-35"
                 id="use461"
                 y="0"
                 width="100%"
                 height="100%" />
              <use
                 x="127.24609"
                 xlink:href="#DejaVuSans-2e"
                 id="use463"
                 y="0"
                 width="100%"
                 height="100%" />
              <use
                 x="159.0332"
                 xlink:href="#DejaVuSans-30"
                 id="use465"
                 y="0"
                 width="100%"
                 height="100%" />
              <use
                 x="222.65625"
                 xlink:href="#DejaVuSans-25"
                 id="use467"
                 y="0"
                 width="100%"
                 height="100%" />
            </g>
          </g>
        </g>
        <g
           id="ytick_7">
          <g
             id="line2d_7">
            <g
               id="g475">
              <use
                 style="stroke:#000000;stroke-width:0.8"
                 x="54"
                 xlink:href="#m78e5c9d69e"
                 y="106.66003"
                 id="use473"
                 width="100%"
                 height="100%" />
            </g>
          </g>
          <g
             id="text_8">
            <!-- 30.0% -->
            <g
               transform="matrix(0.1,0,0,-0.1,15.232812,110.45924)"
               id="g491">
              <defs
                 id="defs479">
                <path
                   d="m 2597,2516 q 453,-97 707,-404 255,-306 255,-756 0,-690 -475,-1069 -475,-378 -1350,-378 -293,0 -604,58 -311,58 -642,174 v 609 q 262,-153 574,-231 313,-78 654,-78 593,0 904,234 311,234 311,681 0,413 -289,645 -289,233 -804,233 h -544 v 519 h 569 q 465,0 712,186 247,186 247,536 0,359 -255,551 -254,193 -729,193 -260,0 -557,-57 -297,-56 -653,-174 v 562 q 360,100 674,150 314,50 592,50 719,0 1137,-327 419,-326 419,-882 0,-388 -222,-655 -222,-267 -631,-370 z"
                   id="DejaVuSans-33"
                   transform="scale(0.015625)" />
              </defs>
              <use
                 xlink:href="#DejaVuSans-33"
                 id="use481"
                 x="0"
                 y="0"
                 width="100%"
                 height="100%" />
              <use
                 x="63.623047"
                 xlink:href="#DejaVuSans-30"
                 id="use483"
                 y="0"
                 width="100%"
                 height="100%" />
              <use
                 x="127.24609"
                 xlink:href="#DejaVuSans-2e"
                 id="use485"
                 y="0"
                 width="100%"
                 height="100%" />
              <use
                 x="159.0332"
                 xlink:href="#DejaVuSans-30"
                 id="use487"
                 y="0"
                 width="100%"
                 height="100%" />
              <use
                 x="222.65625"
                 xlink:href="#DejaVuSans-25"
                 id="use489"
                 y="0"
                 width="100%"
                 height="100%" />
            </g>
          </g>
        </g>
        <g
           id="ytick_8">
          <g
             id="line2d_8">
            <g
               id="g497">
              <use
                 style="stroke:#000000;stroke-width:0.8"
                 x="54"
                 xlink:href="#m78e5c9d69e"
                 y="82.436699"
                 id="use495"
                 width="100%"
                 height="100%" />
            </g>
          </g>
          <g
             id="text_9">
            <!-- 35.0% -->
            <g
               transform="matrix(0.1,0,0,-0.1,15.232812,86.235916)"
               id="g510">
              <use
                 xlink:href="#DejaVuSans-33"
                 id="use500"
                 x="0"
                 y="0"
                 width="100%"
                 height="100%" />
              <use
                 x="63.623047"
                 xlink:href="#DejaVuSans-35"
                 id="use502"
                 y="0"
                 width="100%"
                 height="100%" />
              <use
                 x="127.24609"
                 xlink:href="#DejaVuSans-2e"
                 id="use504"
                 y="0"
                 width="100%"
                 height="100%" />
              <use
                 x="159.0332"
                 xlink:href="#DejaVuSans-30"
                 id="use506"
                 y="0"
                 width="100%"
                 height="100%" />
              <use
                 x="222.65625"
                 xlink:href="#DejaVuSans-25"
                 id="use508"
                 y="0"
                 width="100%"
                 height="100%" />
            </g>
          </g>
        </g>
        <g
           id="ytick_9">
          <g
             id="line2d_9">
            <g
               id="g516">
              <use
                 style="stroke:#000000;stroke-width:0.8"
                 x="54"
                 xlink:href="#m78e5c9d69e"
                 y="58.213367"
                 id="use514"
                 width="100%"
                 height="100%" />
            </g>
          </g>
          <g
             id="text_10">
            <!-- 40.0% -->
            <g
               transform="matrix(0.1,0,0,-0.1,15.232812,62.012587)"
               id="g532">
              <defs
                 id="defs520">
                <path
                   d="M 2419,4116 825,1625 h 1594 z m -166,550 h 794 V 1625 h 666 V 1100 H 3047 V 0 H 2419 V 1100 H 313 v 609 z"
                   id="DejaVuSans-34"
                   transform="scale(0.015625)" />
              </defs>
              <use
                 xlink:href="#DejaVuSans-34"
                 id="use522"
                 x="0"
                 y="0"
                 width="100%"
                 height="100%" />
              <use
                 x="63.623047"
                 xlink:href="#DejaVuSans-30"
                 id="use524"
                 y="0"
                 width="100%"
                 height="100%" />
              <use
                 x="127.24609"
                 xlink:href="#DejaVuSans-2e"
                 id="use526"
                 y="0"
                 width="100%"
                 height="100%" />
              <use
                 x="159.0332"
                 xlink:href="#DejaVuSans-30"
                 id="use528"
                 y="0"
                 width="100%"
                 height="100%" />
              <use
                 x="222.65625"
                 xlink:href="#DejaVuSans-25"
                 id="use530"
                 y="0"
                 width="100%"
                 height="100%" />
            </g>
          </g>
        </g>
      </g>
      <g
         id="line2d_10"
         transform="translate(-15,-33)">
        <path
           clip-path="url(#p81f25ee717)"
           d="M 54,199.72381 H 388.8"
           style="fill:none;stroke:#ff0000;stroke-width:1.5;stroke-linecap:square"
           id="path537" />
      </g>
      <g
         id="patch_103"
         transform="translate(-15,-33)">
        <path
           d="M 54,252 V 34.56"
           style="fill:none;stroke:#000000;stroke-width:0.8;stroke-linecap:square;stroke-linejoin:miter"
           id="path540" />
      </g>
      <g
         id="patch_105"
         transform="translate(-15,-33)">
        <path
           d="M 54,252 H 388.8"
           style="fill:none;stroke:#000000;stroke-width:0.8;stroke-linecap:square;stroke-linejoin:miter"
           id="path546" />
      </g>
    </g>
  </g>
  <defs
     id="defs557">
    <clipPath
       id="p81f25ee717">
      <rect
         height="217.44"
         width="334.79999"
         x="54"
         y="34.560001"
         id="rect554" />
    </clipPath>
  </defs>
</svg>
