<?xml version="1.0" encoding="utf-8" standalone="no"?>
<!DOCTYPE svg PUBLIC "-//W3C//DTD SVG 1.1//EN"
  "http://www.w3.org/Graphics/SVG/1.1/DTD/svg11.dtd">
<svg height="275.228378pt" version="1.1" viewBox="0 0 383.85039 275.228378" width="383.85039pt" xmlns="http://www.w3.org/2000/svg" xmlns:xlink="http://www.w3.org/1999/xlink">
 <metadata>
  <rdf:RDF xmlns:cc="http://creativecommons.org/ns#" xmlns:dc="http://purl.org/dc/elements/1.1/" xmlns:rdf="http://www.w3.org/1999/02/22-rdf-syntax-ns#">
   <cc:Work>
    <dc:type rdf:resource="http://purl.org/dc/dcmitype/StillImage"/>
    <dc:date>2023-02-24T11:10:50.509389</dc:date>
    <dc:format>image/svg+xml</dc:format>
    <dc:creator>
     <cc:Agent>
      <dc:title>Matplotlib v3.4.3, https://matplotlib.org/</dc:title>
     </cc:Agent>
    </dc:creator>
   </cc:Work>
  </rdf:RDF>
 </metadata>
 <defs>
  <style type="text/css">*{stroke-linecap:butt;stroke-linejoin:round;}</style>
 </defs>
 <g id="figure_1">
  <g id="patch_1">
   <path d="M 0 275.228378 
L 383.85039 275.228378 
L 383.85039 0 
L 0 0 
z
" style="fill:none;"/>
  </g>
  <g id="axes_1">
   <g id="patch_2">
    <path d="M 33.2875 224.64 
L 368.0875 224.64 
L 368.0875 7.2 
L 33.2875 7.2 
z
" style="fill:#ffffff;"/>
   </g>
   <g id="PolyCollection_1">
    <path clip-path="url(#pe6cad61db5)" d="M 48.505682 206.966637 
L 48.505682 224.64 
L 50.206037 224.64 
L 51.906393 224.64 
L 53.606748 224.64 
L 55.307104 224.64 
L 57.007459 224.64 
L 58.707815 224.64 
L 60.40817 224.64 
L 62.108526 224.64 
L 63.808881 224.64 
L 65.509237 224.64 
L 67.209592 224.64 
L 68.909948 224.64 
L 70.610303 224.64 
L 72.310659 224.64 
L 74.011014 224.64 
L 75.71137 224.64 
L 77.411725 224.64 
L 79.112081 224.64 
L 80.812437 224.64 
L 82.512792 224.64 
L 84.213148 224.64 
L 85.913503 224.64 
L 87.613859 224.64 
L 89.314214 224.64 
L 91.01457 224.64 
L 92.714925 224.64 
L 94.415281 224.64 
L 96.115636 224.64 
L 97.815992 224.64 
L 99.516347 224.64 
L 101.216703 224.64 
L 102.917058 224.64 
L 104.617414 224.64 
L 106.317769 224.64 
L 108.018125 224.64 
L 109.71848 224.64 
L 111.418836 224.64 
L 113.119191 224.64 
L 114.819547 224.64 
L 116.519902 224.64 
L 118.220258 224.64 
L 119.920613 224.64 
L 121.620969 224.64 
L 123.321324 224.64 
L 125.02168 224.64 
L 126.722035 224.64 
L 128.422391 224.64 
L 130.122746 224.64 
L 131.823102 224.64 
L 133.523457 224.64 
L 135.223813 224.64 
L 136.924168 224.64 
L 138.624524 224.64 
L 140.324879 224.64 
L 142.025235 224.64 
L 143.72559 224.64 
L 145.425946 224.64 
L 147.126301 224.64 
L 148.826657 224.64 
L 150.527012 224.64 
L 152.227368 224.64 
L 153.927723 224.64 
L 155.628079 224.64 
L 157.328434 224.64 
L 159.02879 224.64 
L 160.729146 224.64 
L 162.429501 224.64 
L 164.129857 224.64 
L 165.830212 224.64 
L 167.530568 224.64 
L 169.230923 224.64 
L 170.931279 224.64 
L 172.631634 224.64 
L 174.33199 224.64 
L 176.032345 224.64 
L 177.732701 224.64 
L 179.433056 224.64 
L 181.133412 224.64 
L 182.833767 224.64 
L 184.534123 224.64 
L 186.234478 224.64 
L 187.934834 224.64 
L 189.635189 224.64 
L 191.335545 224.64 
L 193.0359 224.64 
L 194.736256 224.64 
L 196.436611 224.64 
L 198.136967 224.64 
L 199.837322 224.64 
L 201.537678 224.64 
L 203.238033 224.64 
L 204.938389 224.64 
L 206.638744 224.64 
L 208.3391 224.64 
L 210.039455 224.64 
L 211.739811 224.64 
L 213.440166 224.64 
L 215.140522 224.64 
L 216.840877 224.64 
L 218.541233 224.64 
L 220.241588 224.64 
L 221.941944 224.64 
L 223.642299 224.64 
L 225.342655 224.64 
L 227.04301 224.64 
L 228.743366 224.64 
L 230.443721 224.64 
L 232.144077 224.64 
L 233.844432 224.64 
L 235.544788 224.64 
L 237.245143 224.64 
L 238.945499 224.64 
L 240.645854 224.64 
L 242.34621 224.64 
L 244.046566 224.64 
L 245.746921 224.64 
L 247.447277 224.64 
L 249.147632 224.64 
L 250.847988 224.64 
L 252.548343 224.64 
L 254.248699 224.64 
L 255.949054 224.64 
L 257.64941 224.64 
L 259.349765 224.64 
L 261.050121 224.64 
L 262.750476 224.64 
L 264.450832 224.64 
L 266.151187 224.64 
L 267.851543 224.64 
L 269.551898 224.64 
L 271.252254 224.64 
L 272.952609 224.64 
L 274.652965 224.64 
L 276.35332 224.64 
L 278.053676 224.64 
L 279.754031 224.64 
L 281.454387 224.64 
L 283.154742 224.64 
L 284.855098 224.64 
L 286.555453 224.64 
L 288.255809 224.64 
L 289.956164 224.64 
L 291.65652 224.64 
L 293.356875 224.64 
L 295.057231 224.64 
L 296.757586 224.64 
L 298.457942 224.64 
L 300.158297 224.64 
L 301.858653 224.64 
L 303.559008 224.64 
L 305.259364 224.64 
L 306.959719 224.64 
L 308.660075 224.64 
L 310.36043 224.64 
L 312.060786 224.64 
L 313.761141 224.64 
L 315.461497 224.64 
L 317.161852 224.64 
L 318.862208 224.64 
L 320.562563 224.64 
L 322.262919 224.64 
L 323.963275 224.64 
L 325.66363 224.64 
L 327.363986 224.64 
L 329.064341 224.64 
L 330.764697 224.64 
L 332.465052 224.64 
L 334.165408 224.64 
L 335.865763 224.64 
L 337.566119 224.64 
L 339.266474 224.64 
L 340.96683 224.64 
L 342.667185 224.64 
L 344.367541 224.64 
L 346.067896 224.64 
L 347.768252 224.64 
L 349.468607 224.64 
L 351.168963 224.64 
L 352.869318 224.64 
L 352.869318 160.86221 
L 352.869318 160.86221 
L 351.168963 167.777874 
L 349.468607 170.083096 
L 347.768252 157.404378 
L 346.067896 162.783228 
L 344.367541 161.246414 
L 342.667185 147.79929 
L 340.96683 154.33075 
L 339.266474 163.551635 
L 337.566119 154.33075 
L 335.865763 147.030883 
L 334.165408 143.188847 
L 332.465052 153.562343 
L 330.764697 158.941193 
L 329.064341 155.483361 
L 327.363986 148.183493 
L 325.66363 149.336104 
L 323.963275 137.04159 
L 322.262919 133.583758 
L 320.562563 141.652033 
L 318.862208 151.641325 
L 317.161852 149.720307 
L 315.461497 145.109865 
L 313.761141 153.178139 
L 312.060786 163.935839 
L 310.36043 140.883626 
L 308.660075 143.188847 
L 306.959719 149.336104 
L 305.259364 154.33075 
L 303.559008 130.894333 
L 301.858653 139.346812 
L 300.158297 127.820705 
L 298.457942 143.957254 
L 296.757586 132.431148 
L 295.057231 137.425794 
L 293.356875 141.267829 
L 291.65652 139.346812 
L 289.956164 142.036236 
L 288.255809 144.725661 
L 286.555453 136.657387 
L 284.855098 151.257122 
L 283.154742 140.115219 
L 281.454387 144.725661 
L 279.754031 134.736369 
L 278.053676 136.273183 
L 276.35332 129.357519 
L 274.652965 129.741723 
L 272.952609 132.431148 
L 271.252254 137.425794 
L 269.551898 143.188847 
L 267.851543 126.283891 
L 266.151187 142.804644 
L 264.450832 128.589112 
L 262.750476 140.499422 
L 261.050121 146.262475 
L 259.349765 152.793936 
L 257.64941 152.409732 
L 255.949054 151.641325 
L 254.248699 141.652033 
L 252.548343 143.188847 
L 250.847988 151.641325 
L 249.147632 136.657387 
L 247.447277 140.115219 
L 245.746921 132.431148 
L 244.046566 134.352165 
L 242.34621 121.673448 
L 240.645854 138.578404 
L 238.945499 128.973316 
L 237.245143 122.826059 
L 235.544788 128.589112 
L 233.844432 123.210262 
L 232.144077 114.757784 
L 230.443721 119.75243 
L 228.743366 118.984023 
L 227.04301 124.747077 
L 225.342655 134.352165 
L 223.642299 151.641325 
L 221.941944 137.425794 
L 220.241588 129.741723 
L 218.541233 130.894333 
L 216.840877 145.109865 
L 215.140522 143.188847 
L 213.440166 140.499422 
L 211.739811 149.336104 
L 210.039455 155.867564 
L 208.3391 159.325396 
L 206.638744 160.093803 
L 204.938389 145.878272 
L 203.238033 160.86221 
L 201.537678 157.788582 
L 199.837322 160.093803 
L 198.136967 167.393671 
L 196.436611 165.856857 
L 194.736256 152.025529 
L 193.0359 169.314689 
L 191.335545 163.935839 
L 189.635189 165.856857 
L 187.934834 160.478007 
L 186.234478 163.935839 
L 184.534123 171.61991 
L 182.833767 167.393671 
L 181.133412 168.930485 
L 179.433056 170.083096 
L 177.732701 169.698892 
L 176.032345 172.004113 
L 174.33199 169.698892 
L 172.631634 179.303981 
L 170.931279 173.156724 
L 169.230923 177.382963 
L 167.530568 176.230353 
L 165.830212 180.840795 
L 164.129857 184.682831 
L 162.429501 189.293273 
L 160.729146 189.677477 
L 159.02879 191.982698 
L 157.328434 196.977344 
L 155.628079 197.361548 
L 153.927723 201.203583 
L 152.227368 205.045619 
L 150.527012 205.429822 
L 148.826657 205.814026 
L 147.126301 201.97199 
L 145.425946 201.203583 
L 143.72559 203.124601 
L 142.025235 205.045619 
L 140.324879 205.814026 
L 138.624524 205.045619 
L 136.924168 211.961283 
L 135.223813 211.961283 
L 133.523457 210.424469 
L 131.823102 206.19823 
L 130.122746 205.814026 
L 128.422391 210.424469 
L 126.722035 208.119247 
L 125.02168 208.503451 
L 123.321324 210.424469 
L 121.620969 212.72969 
L 119.920613 208.503451 
L 118.220258 209.656061 
L 116.519902 210.808672 
L 114.819547 210.808672 
L 113.119191 213.882301 
L 111.418836 210.040265 
L 109.71848 213.882301 
L 108.018125 207.35084 
L 106.317769 212.345486 
L 104.617414 209.271858 
L 102.917058 211.577079 
L 101.216703 209.271858 
L 99.516347 213.882301 
L 97.815992 213.882301 
L 96.115636 206.966637 
L 94.415281 209.271858 
L 92.714925 211.577079 
L 91.01457 215.419115 
L 89.314214 208.503451 
L 87.613859 213.498097 
L 85.913503 211.961283 
L 84.213148 211.961283 
L 82.512792 213.113893 
L 80.812437 206.19823 
L 79.112081 211.192876 
L 77.411725 209.656061 
L 75.71137 206.19823 
L 74.011014 211.192876 
L 72.310659 211.961283 
L 70.610303 210.808672 
L 68.909948 211.577079 
L 67.209592 213.113893 
L 65.509237 210.808672 
L 63.808881 211.961283 
L 62.108526 210.040265 
L 60.40817 211.192876 
L 58.707815 210.040265 
L 57.007459 208.119247 
L 55.307104 210.424469 
L 53.606748 205.814026 
L 51.906393 205.814026 
L 50.206037 209.271858 
L 48.505682 206.966637 
z
" style="fill:#1f77b4;"/>
   </g>
   <g id="PolyCollection_2">
    <path clip-path="url(#pe6cad61db5)" d="M 48.505682 200.435176 
L 48.505682 206.966637 
L 50.206037 209.271858 
L 51.906393 205.814026 
L 53.606748 205.814026 
L 55.307104 210.424469 
L 57.007459 208.119247 
L 58.707815 210.040265 
L 60.40817 211.192876 
L 62.108526 210.040265 
L 63.808881 211.961283 
L 65.509237 210.808672 
L 67.209592 213.113893 
L 68.909948 211.577079 
L 70.610303 210.808672 
L 72.310659 211.961283 
L 74.011014 211.192876 
L 75.71137 206.19823 
L 77.411725 209.656061 
L 79.112081 211.192876 
L 80.812437 206.19823 
L 82.512792 213.113893 
L 84.213148 211.961283 
L 85.913503 211.961283 
L 87.613859 213.498097 
L 89.314214 208.503451 
L 91.01457 215.419115 
L 92.714925 211.577079 
L 94.415281 209.271858 
L 96.115636 206.966637 
L 97.815992 213.882301 
L 99.516347 213.882301 
L 101.216703 209.271858 
L 102.917058 211.577079 
L 104.617414 209.271858 
L 106.317769 212.345486 
L 108.018125 207.35084 
L 109.71848 213.882301 
L 111.418836 210.040265 
L 113.119191 213.882301 
L 114.819547 210.808672 
L 116.519902 210.808672 
L 118.220258 209.656061 
L 119.920613 208.503451 
L 121.620969 212.72969 
L 123.321324 210.424469 
L 125.02168 208.503451 
L 126.722035 208.119247 
L 128.422391 210.424469 
L 130.122746 205.814026 
L 131.823102 206.19823 
L 133.523457 210.424469 
L 135.223813 211.961283 
L 136.924168 211.961283 
L 138.624524 205.045619 
L 140.324879 205.814026 
L 142.025235 205.045619 
L 143.72559 203.124601 
L 145.425946 201.203583 
L 147.126301 201.97199 
L 148.826657 205.814026 
L 150.527012 205.429822 
L 152.227368 205.045619 
L 153.927723 201.203583 
L 155.628079 197.361548 
L 157.328434 196.977344 
L 159.02879 191.982698 
L 160.729146 189.677477 
L 162.429501 189.293273 
L 164.129857 184.682831 
L 165.830212 180.840795 
L 167.530568 176.230353 
L 169.230923 177.382963 
L 170.931279 173.156724 
L 172.631634 179.303981 
L 174.33199 169.698892 
L 176.032345 172.004113 
L 177.732701 169.698892 
L 179.433056 170.083096 
L 181.133412 168.930485 
L 182.833767 167.393671 
L 184.534123 171.61991 
L 186.234478 163.935839 
L 187.934834 160.478007 
L 189.635189 165.856857 
L 191.335545 163.935839 
L 193.0359 169.314689 
L 194.736256 152.025529 
L 196.436611 165.856857 
L 198.136967 167.393671 
L 199.837322 160.093803 
L 201.537678 157.788582 
L 203.238033 160.86221 
L 204.938389 145.878272 
L 206.638744 160.093803 
L 208.3391 159.325396 
L 210.039455 155.867564 
L 211.739811 149.336104 
L 213.440166 140.499422 
L 215.140522 143.188847 
L 216.840877 145.109865 
L 218.541233 130.894333 
L 220.241588 129.741723 
L 221.941944 137.425794 
L 223.642299 151.641325 
L 225.342655 134.352165 
L 227.04301 124.747077 
L 228.743366 118.984023 
L 230.443721 119.75243 
L 232.144077 114.757784 
L 233.844432 123.210262 
L 235.544788 128.589112 
L 237.245143 122.826059 
L 238.945499 128.973316 
L 240.645854 138.578404 
L 242.34621 121.673448 
L 244.046566 134.352165 
L 245.746921 132.431148 
L 247.447277 140.115219 
L 249.147632 136.657387 
L 250.847988 151.641325 
L 252.548343 143.188847 
L 254.248699 141.652033 
L 255.949054 151.641325 
L 257.64941 152.409732 
L 259.349765 152.793936 
L 261.050121 146.262475 
L 262.750476 140.499422 
L 264.450832 128.589112 
L 266.151187 142.804644 
L 267.851543 126.283891 
L 269.551898 143.188847 
L 271.252254 137.425794 
L 272.952609 132.431148 
L 274.652965 129.741723 
L 276.35332 129.357519 
L 278.053676 136.273183 
L 279.754031 134.736369 
L 281.454387 144.725661 
L 283.154742 140.115219 
L 284.855098 151.257122 
L 286.555453 136.657387 
L 288.255809 144.725661 
L 289.956164 142.036236 
L 291.65652 139.346812 
L 293.356875 141.267829 
L 295.057231 137.425794 
L 296.757586 132.431148 
L 298.457942 143.957254 
L 300.158297 127.820705 
L 301.858653 139.346812 
L 303.559008 130.894333 
L 305.259364 154.33075 
L 306.959719 149.336104 
L 308.660075 143.188847 
L 310.36043 140.883626 
L 312.060786 163.935839 
L 313.761141 153.178139 
L 315.461497 145.109865 
L 317.161852 149.720307 
L 318.862208 151.641325 
L 320.562563 141.652033 
L 322.262919 133.583758 
L 323.963275 137.04159 
L 325.66363 149.336104 
L 327.363986 148.183493 
L 329.064341 155.483361 
L 330.764697 158.941193 
L 332.465052 153.562343 
L 334.165408 143.188847 
L 335.865763 147.030883 
L 337.566119 154.33075 
L 339.266474 163.551635 
L 340.96683 154.33075 
L 342.667185 147.79929 
L 344.367541 161.246414 
L 346.067896 162.783228 
L 347.768252 157.404378 
L 349.468607 170.083096 
L 351.168963 167.777874 
L 352.869318 160.86221 
L 352.869318 133.583758 
L 352.869318 133.583758 
L 351.168963 142.036236 
L 349.468607 144.341458 
L 347.768252 127.820705 
L 346.067896 125.899687 
L 344.367541 128.204909 
L 342.667185 121.289245 
L 340.96683 128.589112 
L 339.266474 149.336104 
L 337.566119 135.504776 
L 335.865763 128.973316 
L 334.165408 128.973316 
L 332.465052 132.431148 
L 330.764697 137.809997 
L 329.064341 133.967962 
L 327.363986 117.447209 
L 325.66363 117.447209 
L 323.963275 107.457917 
L 322.262919 103.615881 
L 320.562563 112.068359 
L 318.862208 114.757784 
L 317.161852 125.899687 
L 315.461497 120.136634 
L 313.761141 134.352165 
L 312.060786 144.725661 
L 310.36043 120.905041 
L 308.660075 123.594466 
L 306.959719 125.899687 
L 305.259364 138.962608 
L 303.559008 115.910395 
L 301.858653 127.052298 
L 300.158297 115.141988 
L 298.457942 130.51013 
L 296.757586 118.984023 
L 295.057231 127.436501 
L 293.356875 126.283891 
L 291.65652 117.447209 
L 289.956164 121.673448 
L 288.255809 123.210262 
L 286.555453 118.215616 
L 284.855098 138.194201 
L 283.154742 125.13128 
L 281.454387 126.668094 
L 279.754031 120.905041 
L 278.053676 122.057652 
L 276.35332 114.757784 
L 274.652965 115.526191 
L 272.952609 108.610527 
L 271.252254 117.447209 
L 269.551898 128.589112 
L 267.851543 111.684156 
L 266.151187 124.747077 
L 264.450832 116.294598 
L 262.750476 125.13128 
L 261.050121 134.736369 
L 259.349765 139.731015 
L 257.64941 137.04159 
L 255.949054 133.967962 
L 254.248699 132.815351 
L 252.548343 129.741723 
L 250.847988 138.962608 
L 249.147632 123.210262 
L 247.447277 128.589112 
L 245.746921 117.063006 
L 244.046566 120.136634 
L 242.34621 109.378935 
L 240.645854 115.141988 
L 238.945499 105.921103 
L 237.245143 107.457917 
L 235.544788 120.520838 
L 233.844432 111.684156 
L 232.144077 98.237032 
L 230.443721 107.073713 
L 228.743366 111.684156 
L 227.04301 114.757784 
L 225.342655 123.594466 
L 223.642299 142.804644 
L 221.941944 125.515484 
L 220.241588 122.057652 
L 218.541233 123.978669 
L 216.840877 137.04159 
L 215.140522 132.815351 
L 213.440166 128.973316 
L 211.739811 136.273183 
L 210.039455 140.883626 
L 208.3391 147.415086 
L 206.638744 150.488715 
L 204.938389 138.194201 
L 203.238033 147.415086 
L 201.537678 148.9519 
L 199.837322 150.872918 
L 198.136967 157.404378 
L 196.436611 151.257122 
L 194.736256 147.415086 
L 193.0359 160.093803 
L 191.335545 156.251768 
L 189.635189 157.020175 
L 187.934834 154.33075 
L 186.234478 153.946547 
L 184.534123 164.704246 
L 182.833767 162.783228 
L 181.133412 162.014821 
L 179.433056 159.7096 
L 177.732701 160.093803 
L 176.032345 156.635971 
L 174.33199 157.404378 
L 172.631634 170.083096 
L 170.931279 167.009467 
L 169.230923 164.320042 
L 167.530568 169.698892 
L 165.830212 170.851503 
L 164.129857 180.072388 
L 162.429501 179.303981 
L 160.729146 176.614556 
L 159.02879 178.919777 
L 157.328434 185.451238 
L 155.628079 181.993406 
L 153.927723 181.224999 
L 152.227368 195.056327 
L 150.527012 194.672123 
L 148.826657 197.361548 
L 147.126301 196.977344 
L 145.425946 196.208937 
L 143.72559 198.898362 
L 142.025235 200.81938 
L 140.324879 200.435176 
L 138.624524 198.129955 
L 136.924168 207.735044 
L 135.223813 207.735044 
L 133.523457 205.429822 
L 131.823102 202.740398 
L 130.122746 201.587787 
L 128.422391 206.582433 
L 126.722035 204.661415 
L 125.02168 205.429822 
L 123.321324 203.893008 
L 121.620969 208.119247 
L 119.920613 206.966637 
L 118.220258 206.966637 
L 116.519902 205.814026 
L 114.819547 206.19823 
L 113.119191 210.808672 
L 111.418836 206.19823 
L 109.71848 210.424469 
L 108.018125 201.203583 
L 106.317769 210.040265 
L 104.617414 205.814026 
L 102.917058 204.661415 
L 101.216703 204.277212 
L 99.516347 206.582433 
L 97.815992 210.424469 
L 96.115636 204.277212 
L 94.415281 205.429822 
L 92.714925 207.735044 
L 91.01457 211.192876 
L 89.314214 204.277212 
L 87.613859 209.656061 
L 85.913503 208.119247 
L 84.213148 209.271858 
L 82.512792 208.887654 
L 80.812437 201.97199 
L 79.112081 207.735044 
L 77.411725 205.429822 
L 75.71137 203.508805 
L 74.011014 208.887654 
L 72.310659 206.966637 
L 70.610303 206.582433 
L 68.909948 208.503451 
L 67.209592 210.808672 
L 65.509237 203.893008 
L 63.808881 207.35084 
L 62.108526 208.119247 
L 60.40817 208.503451 
L 58.707815 207.735044 
L 57.007459 206.582433 
L 55.307104 205.045619 
L 53.606748 200.435176 
L 51.906393 200.050973 
L 50.206037 202.740398 
L 48.505682 200.435176 
z
" style="fill:#ff7f0e;"/>
   </g>
   <g id="PolyCollection_3">
    <path clip-path="url(#pe6cad61db5)" d="M 48.505682 198.514158 
L 48.505682 200.435176 
L 50.206037 202.740398 
L 51.906393 200.050973 
L 53.606748 200.435176 
L 55.307104 205.045619 
L 57.007459 206.582433 
L 58.707815 207.735044 
L 60.40817 208.503451 
L 62.108526 208.119247 
L 63.808881 207.35084 
L 65.509237 203.893008 
L 67.209592 210.808672 
L 68.909948 208.503451 
L 70.610303 206.582433 
L 72.310659 206.966637 
L 74.011014 208.887654 
L 75.71137 203.508805 
L 77.411725 205.429822 
L 79.112081 207.735044 
L 80.812437 201.97199 
L 82.512792 208.887654 
L 84.213148 209.271858 
L 85.913503 208.119247 
L 87.613859 209.656061 
L 89.314214 204.277212 
L 91.01457 211.192876 
L 92.714925 207.735044 
L 94.415281 205.429822 
L 96.115636 204.277212 
L 97.815992 210.424469 
L 99.516347 206.582433 
L 101.216703 204.277212 
L 102.917058 204.661415 
L 104.617414 205.814026 
L 106.317769 210.040265 
L 108.018125 201.203583 
L 109.71848 210.424469 
L 111.418836 206.19823 
L 113.119191 210.808672 
L 114.819547 206.19823 
L 116.519902 205.814026 
L 118.220258 206.966637 
L 119.920613 206.966637 
L 121.620969 208.119247 
L 123.321324 203.893008 
L 125.02168 205.429822 
L 126.722035 204.661415 
L 128.422391 206.582433 
L 130.122746 201.587787 
L 131.823102 202.740398 
L 133.523457 205.429822 
L 135.223813 207.735044 
L 136.924168 207.735044 
L 138.624524 198.129955 
L 140.324879 200.435176 
L 142.025235 200.81938 
L 143.72559 198.898362 
L 145.425946 196.208937 
L 147.126301 196.977344 
L 148.826657 197.361548 
L 150.527012 194.672123 
L 152.227368 195.056327 
L 153.927723 181.224999 
L 155.628079 181.993406 
L 157.328434 185.451238 
L 159.02879 178.919777 
L 160.729146 176.614556 
L 162.429501 179.303981 
L 164.129857 180.072388 
L 165.830212 170.851503 
L 167.530568 169.698892 
L 169.230923 164.320042 
L 170.931279 167.009467 
L 172.631634 170.083096 
L 174.33199 157.404378 
L 176.032345 156.635971 
L 177.732701 160.093803 
L 179.433056 159.7096 
L 181.133412 162.014821 
L 182.833767 162.783228 
L 184.534123 164.704246 
L 186.234478 153.946547 
L 187.934834 154.33075 
L 189.635189 157.020175 
L 191.335545 156.251768 
L 193.0359 160.093803 
L 194.736256 147.415086 
L 196.436611 151.257122 
L 198.136967 157.404378 
L 199.837322 150.872918 
L 201.537678 148.9519 
L 203.238033 147.415086 
L 204.938389 138.194201 
L 206.638744 150.488715 
L 208.3391 147.415086 
L 210.039455 140.883626 
L 211.739811 136.273183 
L 213.440166 128.973316 
L 215.140522 132.815351 
L 216.840877 137.04159 
L 218.541233 123.978669 
L 220.241588 122.057652 
L 221.941944 125.515484 
L 223.642299 142.804644 
L 225.342655 123.594466 
L 227.04301 114.757784 
L 228.743366 111.684156 
L 230.443721 107.073713 
L 232.144077 98.237032 
L 233.844432 111.684156 
L 235.544788 120.520838 
L 237.245143 107.457917 
L 238.945499 105.921103 
L 240.645854 115.141988 
L 242.34621 109.378935 
L 244.046566 120.136634 
L 245.746921 117.063006 
L 247.447277 128.589112 
L 249.147632 123.210262 
L 250.847988 138.962608 
L 252.548343 129.741723 
L 254.248699 132.815351 
L 255.949054 133.967962 
L 257.64941 137.04159 
L 259.349765 139.731015 
L 261.050121 134.736369 
L 262.750476 125.13128 
L 264.450832 116.294598 
L 266.151187 124.747077 
L 267.851543 111.684156 
L 269.551898 128.589112 
L 271.252254 117.447209 
L 272.952609 108.610527 
L 274.652965 115.526191 
L 276.35332 114.757784 
L 278.053676 122.057652 
L 279.754031 120.905041 
L 281.454387 126.668094 
L 283.154742 125.13128 
L 284.855098 138.194201 
L 286.555453 118.215616 
L 288.255809 123.210262 
L 289.956164 121.673448 
L 291.65652 117.447209 
L 293.356875 126.283891 
L 295.057231 127.436501 
L 296.757586 118.984023 
L 298.457942 130.51013 
L 300.158297 115.141988 
L 301.858653 127.052298 
L 303.559008 115.910395 
L 305.259364 138.962608 
L 306.959719 125.899687 
L 308.660075 123.594466 
L 310.36043 120.905041 
L 312.060786 144.725661 
L 313.761141 134.352165 
L 315.461497 120.136634 
L 317.161852 125.899687 
L 318.862208 114.757784 
L 320.562563 112.068359 
L 322.262919 103.615881 
L 323.963275 107.457917 
L 325.66363 117.447209 
L 327.363986 117.447209 
L 329.064341 133.967962 
L 330.764697 137.809997 
L 332.465052 132.431148 
L 334.165408 128.973316 
L 335.865763 128.973316 
L 337.566119 135.504776 
L 339.266474 149.336104 
L 340.96683 128.589112 
L 342.667185 121.289245 
L 344.367541 128.204909 
L 346.067896 125.899687 
L 347.768252 127.820705 
L 349.468607 144.341458 
L 351.168963 142.036236 
L 352.869318 133.583758 
L 352.869318 118.215616 
L 352.869318 118.215616 
L 351.168963 128.973316 
L 349.468607 134.736369 
L 347.768252 117.063006 
L 346.067896 107.84212 
L 344.367541 116.678802 
L 342.667185 113.22097 
L 340.96683 118.59982 
L 339.266474 138.194201 
L 337.566119 123.210262 
L 335.865763 117.831413 
L 334.165408 115.910395 
L 332.465052 122.441855 
L 330.764697 126.668094 
L 329.064341 122.441855 
L 327.363986 102.847474 
L 325.66363 102.847474 
L 323.963275 90.552961 
L 322.262919 86.710925 
L 320.562563 95.93181 
L 318.862208 94.7792 
L 317.161852 109.378935 
L 315.461497 105.152695 
L 313.761141 122.441855 
L 312.060786 126.668094 
L 310.36043 99.005439 
L 308.660075 98.621235 
L 306.959719 94.010792 
L 305.259364 112.452563 
L 303.559008 91.705571 
L 301.858653 94.7792 
L 300.158297 79.411058 
L 298.457942 89.016146 
L 296.757586 94.010792 
L 295.057231 107.073713 
L 293.356875 107.073713 
L 291.65652 105.152695 
L 289.956164 111.299952 
L 288.255809 112.068359 
L 286.555453 107.84212 
L 284.855098 125.13128 
L 283.154742 113.22097 
L 281.454387 116.678802 
L 279.754031 107.457917 
L 278.053676 102.847474 
L 276.35332 101.694864 
L 274.652965 102.847474 
L 272.952609 98.237032 
L 271.252254 110.147342 
L 269.551898 118.59982 
L 267.851543 94.7792 
L 266.151187 113.989377 
L 264.450832 104.000085 
L 262.750476 110.147342 
L 261.050121 116.294598 
L 259.349765 110.531545 
L 257.64941 106.305306 
L 255.949054 106.305306 
L 254.248699 114.757784 
L 252.548343 109.763138 
L 250.847988 104.000085 
L 249.147632 106.305306 
L 247.447277 120.905041 
L 245.746921 109.378935 
L 244.046566 111.299952 
L 242.34621 102.079067 
L 240.645854 107.84212 
L 238.945499 99.773846 
L 237.245143 102.079067 
L 235.544788 110.531545 
L 233.844432 101.694864 
L 232.144077 93.242385 
L 230.443721 99.005439 
L 228.743366 106.305306 
L 227.04301 107.457917 
L 225.342655 119.75243 
L 223.642299 139.731015 
L 221.941944 118.59982 
L 220.241588 120.520838 
L 218.541233 121.673448 
L 216.840877 133.583758 
L 215.140522 127.436501 
L 213.440166 126.668094 
L 211.739811 133.967962 
L 210.039455 136.657387 
L 208.3391 144.341458 
L 206.638744 147.79929 
L 204.938389 136.657387 
L 203.238033 145.878272 
L 201.537678 146.646679 
L 199.837322 148.567697 
L 198.136967 155.483361 
L 196.436611 148.567697 
L 194.736256 145.109865 
L 193.0359 158.172786 
L 191.335545 152.793936 
L 189.635189 154.714954 
L 187.934834 149.336104 
L 186.234478 151.257122 
L 184.534123 162.783228 
L 182.833767 160.478007 
L 181.133412 160.86221 
L 179.433056 157.788582 
L 177.732701 156.635971 
L 176.032345 154.33075 
L 174.33199 155.483361 
L 172.631634 166.625264 
L 170.931279 164.704246 
L 169.230923 162.014821 
L 167.530568 166.24106 
L 165.830212 168.930485 
L 164.129857 177.382963 
L 162.429501 176.230353 
L 160.729146 175.461945 
L 159.02879 177.382963 
L 157.328434 183.914424 
L 155.628079 181.224999 
L 153.927723 178.15137 
L 152.227368 193.903716 
L 150.527012 193.135309 
L 148.826657 195.44053 
L 147.126301 193.903716 
L 145.425946 193.903716 
L 143.72559 197.361548 
L 142.025235 200.050973 
L 140.324879 198.129955 
L 138.624524 195.824734 
L 136.924168 206.19823 
L 135.223813 206.19823 
L 133.523457 204.277212 
L 131.823102 199.666769 
L 130.122746 198.514158 
L 128.422391 205.814026 
L 126.722035 201.587787 
L 125.02168 202.356194 
L 123.321324 201.587787 
L 121.620969 205.814026 
L 119.920613 205.814026 
L 118.220258 205.045619 
L 116.519902 204.661415 
L 114.819547 204.277212 
L 113.119191 210.040265 
L 111.418836 205.045619 
L 109.71848 208.503451 
L 108.018125 200.050973 
L 106.317769 207.735044 
L 104.617414 203.508805 
L 102.917058 202.356194 
L 101.216703 201.587787 
L 99.516347 203.508805 
L 97.815992 208.503451 
L 96.115636 201.97199 
L 94.415281 203.508805 
L 92.714925 205.429822 
L 91.01457 209.656061 
L 89.314214 201.97199 
L 87.613859 207.35084 
L 85.913503 206.19823 
L 84.213148 208.503451 
L 82.512792 208.503451 
L 80.812437 199.666769 
L 79.112081 206.19823 
L 77.411725 203.508805 
L 75.71137 202.356194 
L 74.011014 206.582433 
L 72.310659 205.045619 
L 70.610303 204.661415 
L 68.909948 204.661415 
L 67.209592 209.656061 
L 65.509237 201.587787 
L 63.808881 205.814026 
L 62.108526 206.19823 
L 60.40817 208.119247 
L 58.707815 206.19823 
L 57.007459 204.661415 
L 55.307104 202.740398 
L 53.606748 198.898362 
L 51.906393 199.666769 
L 50.206037 199.282566 
L 48.505682 198.514158 
z
" style="fill:#2ca02c;"/>
   </g>
   <g id="PolyCollection_4">
    <path clip-path="url(#pe6cad61db5)" d="M 48.505682 190.445884 
L 48.505682 198.514158 
L 50.206037 199.282566 
L 51.906393 199.666769 
L 53.606748 198.898362 
L 55.307104 202.740398 
L 57.007459 204.661415 
L 58.707815 206.19823 
L 60.40817 208.119247 
L 62.108526 206.19823 
L 63.808881 205.814026 
L 65.509237 201.587787 
L 67.209592 209.656061 
L 68.909948 204.661415 
L 70.610303 204.661415 
L 72.310659 205.045619 
L 74.011014 206.582433 
L 75.71137 202.356194 
L 77.411725 203.508805 
L 79.112081 206.19823 
L 80.812437 199.666769 
L 82.512792 208.503451 
L 84.213148 208.503451 
L 85.913503 206.19823 
L 87.613859 207.35084 
L 89.314214 201.97199 
L 91.01457 209.656061 
L 92.714925 205.429822 
L 94.415281 203.508805 
L 96.115636 201.97199 
L 97.815992 208.503451 
L 99.516347 203.508805 
L 101.216703 201.587787 
L 102.917058 202.356194 
L 104.617414 203.508805 
L 106.317769 207.735044 
L 108.018125 200.050973 
L 109.71848 208.503451 
L 111.418836 205.045619 
L 113.119191 210.040265 
L 114.819547 204.277212 
L 116.519902 204.661415 
L 118.220258 205.045619 
L 119.920613 205.814026 
L 121.620969 205.814026 
L 123.321324 201.587787 
L 125.02168 202.356194 
L 126.722035 201.587787 
L 128.422391 205.814026 
L 130.122746 198.514158 
L 131.823102 199.666769 
L 133.523457 204.277212 
L 135.223813 206.19823 
L 136.924168 206.19823 
L 138.624524 195.824734 
L 140.324879 198.129955 
L 142.025235 200.050973 
L 143.72559 197.361548 
L 145.425946 193.903716 
L 147.126301 193.903716 
L 148.826657 195.44053 
L 150.527012 193.135309 
L 152.227368 193.903716 
L 153.927723 178.15137 
L 155.628079 181.224999 
L 157.328434 183.914424 
L 159.02879 177.382963 
L 160.729146 175.461945 
L 162.429501 176.230353 
L 164.129857 177.382963 
L 165.830212 168.930485 
L 167.530568 166.24106 
L 169.230923 162.014821 
L 170.931279 164.704246 
L 172.631634 166.625264 
L 174.33199 155.483361 
L 176.032345 154.33075 
L 177.732701 156.635971 
L 179.433056 157.788582 
L 181.133412 160.86221 
L 182.833767 160.478007 
L 184.534123 162.783228 
L 186.234478 151.257122 
L 187.934834 149.336104 
L 189.635189 154.714954 
L 191.335545 152.793936 
L 193.0359 158.172786 
L 194.736256 145.109865 
L 196.436611 148.567697 
L 198.136967 155.483361 
L 199.837322 148.567697 
L 201.537678 146.646679 
L 203.238033 145.878272 
L 204.938389 136.657387 
L 206.638744 147.79929 
L 208.3391 144.341458 
L 210.039455 136.657387 
L 211.739811 133.967962 
L 213.440166 126.668094 
L 215.140522 127.436501 
L 216.840877 133.583758 
L 218.541233 121.673448 
L 220.241588 120.520838 
L 221.941944 118.59982 
L 223.642299 139.731015 
L 225.342655 119.75243 
L 227.04301 107.457917 
L 228.743366 106.305306 
L 230.443721 99.005439 
L 232.144077 93.242385 
L 233.844432 101.694864 
L 235.544788 110.531545 
L 237.245143 102.079067 
L 238.945499 99.773846 
L 240.645854 107.84212 
L 242.34621 102.079067 
L 244.046566 111.299952 
L 245.746921 109.378935 
L 247.447277 120.905041 
L 249.147632 106.305306 
L 250.847988 104.000085 
L 252.548343 109.763138 
L 254.248699 114.757784 
L 255.949054 106.305306 
L 257.64941 106.305306 
L 259.349765 110.531545 
L 261.050121 116.294598 
L 262.750476 110.147342 
L 264.450832 104.000085 
L 266.151187 113.989377 
L 267.851543 94.7792 
L 269.551898 118.59982 
L 271.252254 110.147342 
L 272.952609 98.237032 
L 274.652965 102.847474 
L 276.35332 101.694864 
L 278.053676 102.847474 
L 279.754031 107.457917 
L 281.454387 116.678802 
L 283.154742 113.22097 
L 284.855098 125.13128 
L 286.555453 107.84212 
L 288.255809 112.068359 
L 289.956164 111.299952 
L 291.65652 105.152695 
L 293.356875 107.073713 
L 295.057231 107.073713 
L 296.757586 94.010792 
L 298.457942 89.016146 
L 300.158297 79.411058 
L 301.858653 94.7792 
L 303.559008 91.705571 
L 305.259364 112.452563 
L 306.959719 94.010792 
L 308.660075 98.621235 
L 310.36043 99.005439 
L 312.060786 126.668094 
L 313.761141 122.441855 
L 315.461497 105.152695 
L 317.161852 109.378935 
L 318.862208 94.7792 
L 320.562563 95.93181 
L 322.262919 86.710925 
L 323.963275 90.552961 
L 325.66363 102.847474 
L 327.363986 102.847474 
L 329.064341 122.441855 
L 330.764697 126.668094 
L 332.465052 122.441855 
L 334.165408 115.910395 
L 335.865763 117.831413 
L 337.566119 123.210262 
L 339.266474 138.194201 
L 340.96683 118.59982 
L 342.667185 113.22097 
L 344.367541 116.678802 
L 346.067896 107.84212 
L 347.768252 117.063006 
L 349.468607 134.736369 
L 351.168963 128.973316 
L 352.869318 118.215616 
L 352.869318 84.789907 
L 352.869318 84.789907 
L 351.168963 89.40035 
L 349.468607 104.000085 
L 347.768252 88.247739 
L 346.067896 80.179465 
L 344.367541 77.49004 
L 342.667185 79.026854 
L 340.96683 84.405704 
L 339.266474 101.694864 
L 337.566119 86.710925 
L 335.865763 78.64265 
L 334.165408 74.032208 
L 332.465052 90.937164 
L 330.764697 99.389642 
L 329.064341 84.405704 
L 327.363986 65.963933 
L 325.66363 67.116544 
L 323.963275 54.053623 
L 322.262919 57.127252 
L 320.562563 68.269155 
L 318.862208 64.427119 
L 317.161852 79.026854 
L 315.461497 77.49004 
L 313.761141 100.158049 
L 312.060786 100.158049 
L 310.36043 70.574376 
L 308.660075 72.495394 
L 306.959719 68.653358 
L 305.259364 93.626589 
L 303.559008 70.190172 
L 301.858653 66.73234 
L 300.158297 59.816676 
L 298.457942 59.816676 
L 296.757586 64.042915 
L 295.057231 84.405704 
L 293.356875 82.868889 
L 291.65652 83.253093 
L 289.956164 83.253093 
L 288.255809 84.405704 
L 286.555453 81.716279 
L 284.855098 105.152695 
L 283.154742 89.016146 
L 281.454387 82.868889 
L 279.754031 76.337429 
L 278.053676 81.716279 
L 276.35332 73.263801 
L 274.652965 77.105836 
L 272.952609 78.258447 
L 271.252254 85.942518 
L 269.551898 96.316014 
L 267.851543 69.037562 
L 266.151187 90.937164 
L 264.450832 81.716279 
L 262.750476 87.479332 
L 261.050121 96.316014 
L 259.349765 88.631943 
L 257.64941 86.326721 
L 255.949054 87.863536 
L 254.248699 95.547607 
L 252.548343 86.326721 
L 250.847988 86.326721 
L 249.147632 85.558314 
L 247.447277 104.384288 
L 245.746921 91.705571 
L 244.046566 92.858182 
L 242.34621 85.174111 
L 240.645854 88.631943 
L 238.945499 82.868889 
L 237.245143 86.326721 
L 235.544788 96.316014 
L 233.844432 80.947872 
L 232.144077 67.500747 
L 230.443721 81.332075 
L 228.743366 86.710925 
L 227.04301 82.484686 
L 225.342655 102.847474 
L 223.642299 121.673448 
L 221.941944 99.389642 
L 220.241588 99.389642 
L 218.541233 101.31066 
L 216.840877 110.915749 
L 215.140522 110.531545 
L 213.440166 109.763138 
L 211.739811 115.910395 
L 210.039455 122.057652 
L 208.3391 127.052298 
L 206.638744 127.052298 
L 204.938389 118.984023 
L 203.238033 128.204909 
L 201.537678 124.362873 
L 199.837322 133.583758 
L 198.136967 139.346812 
L 196.436611 136.657387 
L 194.736256 136.273183 
L 193.0359 148.183493 
L 191.335545 140.499422 
L 189.635189 141.652033 
L 187.934834 136.657387 
L 186.234478 140.883626 
L 184.534123 151.641325 
L 182.833767 148.9519 
L 181.133412 144.341458 
L 179.433056 143.957254 
L 177.732701 144.725661 
L 176.032345 143.188847 
L 174.33199 143.573051 
L 172.631634 154.714954 
L 170.931279 144.725661 
L 169.230923 149.336104 
L 167.530568 151.257122 
L 165.830212 150.872918 
L 164.129857 160.86221 
L 162.429501 155.483361 
L 160.729146 155.483361 
L 159.02879 162.014821 
L 157.328434 168.546281 
L 155.628079 168.930485 
L 153.927723 170.851503 
L 152.227368 185.067034 
L 150.527012 182.377609 
L 148.826657 186.219645 
L 147.126301 181.224999 
L 145.425946 183.53022 
L 143.72559 185.451238 
L 142.025235 185.451238 
L 140.324879 186.988052 
L 138.624524 186.219645 
L 136.924168 196.208937 
L 135.223813 196.977344 
L 133.523457 193.135309 
L 131.823102 194.672123 
L 130.122746 191.214291 
L 128.422391 198.898362 
L 126.722035 195.44053 
L 125.02168 194.287919 
L 123.321324 190.06168 
L 121.620969 195.44053 
L 119.920613 194.672123 
L 118.220258 196.977344 
L 116.519902 196.593141 
L 114.819547 193.519512 
L 113.119191 199.666769 
L 111.418836 190.06168 
L 109.71848 200.435176 
L 108.018125 189.293273 
L 106.317769 202.356194 
L 104.617414 195.824734 
L 102.917058 196.208937 
L 101.216703 195.44053 
L 99.516347 197.745751 
L 97.815992 200.81938 
L 96.115636 191.214291 
L 94.415281 195.056327 
L 92.714925 188.140663 
L 91.01457 199.666769 
L 89.314214 189.293273 
L 87.613859 197.745751 
L 85.913503 196.593141 
L 84.213148 197.745751 
L 82.512792 200.050973 
L 80.812437 192.751105 
L 79.112081 194.287919 
L 77.411725 194.672123 
L 75.71137 195.824734 
L 74.011014 201.203583 
L 72.310659 196.593141 
L 70.610303 191.214291 
L 68.909948 193.903716 
L 67.209592 199.282566 
L 65.509237 194.672123 
L 63.808881 196.593141 
L 62.108526 196.593141 
L 60.40817 196.593141 
L 58.707815 196.977344 
L 57.007459 191.598495 
L 55.307104 196.593141 
L 53.606748 192.751105 
L 51.906393 186.988052 
L 50.206037 185.451238 
L 48.505682 190.445884 
z
" style="fill:#d62728;"/>
   </g>
   <g id="PolyCollection_5">
    <path clip-path="url(#pe6cad61db5)" d="M 48.505682 182.377609 
L 48.505682 190.445884 
L 50.206037 185.451238 
L 51.906393 186.988052 
L 53.606748 192.751105 
L 55.307104 196.593141 
L 57.007459 191.598495 
L 58.707815 196.977344 
L 60.40817 196.593141 
L 62.108526 196.593141 
L 63.808881 196.593141 
L 65.509237 194.672123 
L 67.209592 199.282566 
L 68.909948 193.903716 
L 70.610303 191.214291 
L 72.310659 196.593141 
L 74.011014 201.203583 
L 75.71137 195.824734 
L 77.411725 194.672123 
L 79.112081 194.287919 
L 80.812437 192.751105 
L 82.512792 200.050973 
L 84.213148 197.745751 
L 85.913503 196.593141 
L 87.613859 197.745751 
L 89.314214 189.293273 
L 91.01457 199.666769 
L 92.714925 188.140663 
L 94.415281 195.056327 
L 96.115636 191.214291 
L 97.815992 200.81938 
L 99.516347 197.745751 
L 101.216703 195.44053 
L 102.917058 196.208937 
L 104.617414 195.824734 
L 106.317769 202.356194 
L 108.018125 189.293273 
L 109.71848 200.435176 
L 111.418836 190.06168 
L 113.119191 199.666769 
L 114.819547 193.519512 
L 116.519902 196.593141 
L 118.220258 196.977344 
L 119.920613 194.672123 
L 121.620969 195.44053 
L 123.321324 190.06168 
L 125.02168 194.287919 
L 126.722035 195.44053 
L 128.422391 198.898362 
L 130.122746 191.214291 
L 131.823102 194.672123 
L 133.523457 193.135309 
L 135.223813 196.977344 
L 136.924168 196.208937 
L 138.624524 186.219645 
L 140.324879 186.988052 
L 142.025235 185.451238 
L 143.72559 185.451238 
L 145.425946 183.53022 
L 147.126301 181.224999 
L 148.826657 186.219645 
L 150.527012 182.377609 
L 152.227368 185.067034 
L 153.927723 170.851503 
L 155.628079 168.930485 
L 157.328434 168.546281 
L 159.02879 162.014821 
L 160.729146 155.483361 
L 162.429501 155.483361 
L 164.129857 160.86221 
L 165.830212 150.872918 
L 167.530568 151.257122 
L 169.230923 149.336104 
L 170.931279 144.725661 
L 172.631634 154.714954 
L 174.33199 143.573051 
L 176.032345 143.188847 
L 177.732701 144.725661 
L 179.433056 143.957254 
L 181.133412 144.341458 
L 182.833767 148.9519 
L 184.534123 151.641325 
L 186.234478 140.883626 
L 187.934834 136.657387 
L 189.635189 141.652033 
L 191.335545 140.499422 
L 193.0359 148.183493 
L 194.736256 136.273183 
L 196.436611 136.657387 
L 198.136967 139.346812 
L 199.837322 133.583758 
L 201.537678 124.362873 
L 203.238033 128.204909 
L 204.938389 118.984023 
L 206.638744 127.052298 
L 208.3391 127.052298 
L 210.039455 122.057652 
L 211.739811 115.910395 
L 213.440166 109.763138 
L 215.140522 110.531545 
L 216.840877 110.915749 
L 218.541233 101.31066 
L 220.241588 99.389642 
L 221.941944 99.389642 
L 223.642299 121.673448 
L 225.342655 102.847474 
L 227.04301 82.484686 
L 228.743366 86.710925 
L 230.443721 81.332075 
L 232.144077 67.500747 
L 233.844432 80.947872 
L 235.544788 96.316014 
L 237.245143 86.326721 
L 238.945499 82.868889 
L 240.645854 88.631943 
L 242.34621 85.174111 
L 244.046566 92.858182 
L 245.746921 91.705571 
L 247.447277 104.384288 
L 249.147632 85.558314 
L 250.847988 86.326721 
L 252.548343 86.326721 
L 254.248699 95.547607 
L 255.949054 87.863536 
L 257.64941 86.326721 
L 259.349765 88.631943 
L 261.050121 96.316014 
L 262.750476 87.479332 
L 264.450832 81.716279 
L 266.151187 90.937164 
L 267.851543 69.037562 
L 269.551898 96.316014 
L 271.252254 85.942518 
L 272.952609 78.258447 
L 274.652965 77.105836 
L 276.35332 73.263801 
L 278.053676 81.716279 
L 279.754031 76.337429 
L 281.454387 82.868889 
L 283.154742 89.016146 
L 284.855098 105.152695 
L 286.555453 81.716279 
L 288.255809 84.405704 
L 289.956164 83.253093 
L 291.65652 83.253093 
L 293.356875 82.868889 
L 295.057231 84.405704 
L 296.757586 64.042915 
L 298.457942 59.816676 
L 300.158297 59.816676 
L 301.858653 66.73234 
L 303.559008 70.190172 
L 305.259364 93.626589 
L 306.959719 68.653358 
L 308.660075 72.495394 
L 310.36043 70.574376 
L 312.060786 100.158049 
L 313.761141 100.158049 
L 315.461497 77.49004 
L 317.161852 79.026854 
L 318.862208 64.427119 
L 320.562563 68.269155 
L 322.262919 57.127252 
L 323.963275 54.053623 
L 325.66363 67.116544 
L 327.363986 65.963933 
L 329.064341 84.405704 
L 330.764697 99.389642 
L 332.465052 90.937164 
L 334.165408 74.032208 
L 335.865763 78.64265 
L 337.566119 86.710925 
L 339.266474 101.694864 
L 340.96683 84.405704 
L 342.667185 79.026854 
L 344.367541 77.49004 
L 346.067896 80.179465 
L 347.768252 88.247739 
L 349.468607 104.000085 
L 351.168963 89.40035 
L 352.869318 84.789907 
L 352.869318 51.364198 
L 352.869318 51.364198 
L 351.168963 49.827384 
L 349.468607 73.263801 
L 347.768252 59.432473 
L 346.067896 52.516809 
L 344.367541 38.301277 
L 342.667185 44.832738 
L 340.96683 50.211588 
L 339.266474 65.195526 
L 337.566119 50.211588 
L 335.865763 39.453888 
L 334.165408 32.154021 
L 332.465052 59.432473 
L 330.764697 72.11119 
L 329.064341 46.369552 
L 327.363986 29.080392 
L 325.66363 31.385614 
L 323.963275 17.554286 
L 322.262919 27.543578 
L 320.562563 40.606499 
L 318.862208 34.075038 
L 317.161852 48.674773 
L 315.461497 49.827384 
L 313.761141 77.874243 
L 312.060786 73.648004 
L 310.36043 42.143313 
L 308.660075 46.369552 
L 306.959719 43.295924 
L 305.259364 74.800615 
L 303.559008 48.674773 
L 301.858653 38.685481 
L 300.158297 40.222295 
L 298.457942 30.617206 
L 296.757586 34.075038 
L 295.057231 61.737694 
L 293.356875 58.664066 
L 291.65652 61.353491 
L 289.956164 55.206234 
L 288.255809 56.743048 
L 286.555453 55.590437 
L 284.855098 85.174111 
L 283.154742 64.811323 
L 281.454387 49.058977 
L 279.754031 45.216941 
L 278.053676 60.585083 
L 276.35332 44.832738 
L 274.652965 51.364198 
L 272.952609 58.279862 
L 271.252254 61.737694 
L 269.551898 74.032208 
L 267.851543 43.295924 
L 266.151187 67.884951 
L 264.450832 59.432473 
L 262.750476 64.811323 
L 261.050121 76.337429 
L 259.349765 66.73234 
L 257.64941 66.348137 
L 255.949054 69.421765 
L 254.248699 76.337429 
L 252.548343 62.890305 
L 250.847988 68.653358 
L 249.147632 64.811323 
L 247.447277 87.863536 
L 245.746921 74.032208 
L 244.046566 74.416411 
L 242.34621 68.269155 
L 240.645854 69.421765 
L 238.945499 65.963933 
L 237.245143 70.574376 
L 235.544788 82.100482 
L 233.844432 60.20088 
L 232.144077 41.759109 
L 230.443721 63.658712 
L 228.743366 67.116544 
L 227.04301 57.511455 
L 225.342655 85.942518 
L 223.642299 103.615881 
L 221.941944 80.179465 
L 220.241588 78.258447 
L 218.541233 80.947872 
L 216.840877 88.247739 
L 215.140522 93.626589 
L 213.440166 92.858182 
L 211.739811 97.852828 
L 210.039455 107.457917 
L 208.3391 109.763138 
L 206.638744 106.305306 
L 204.938389 101.31066 
L 203.238033 110.531545 
L 201.537678 102.079067 
L 199.837322 118.59982 
L 198.136967 123.210262 
L 196.436611 124.747077 
L 194.736256 127.436501 
L 193.0359 138.194201 
L 191.335545 128.204909 
L 189.635189 128.589112 
L 187.934834 123.978669 
L 186.234478 130.51013 
L 184.534123 140.499422 
L 182.833767 137.425794 
L 181.133412 127.820705 
L 179.433056 130.125926 
L 177.732701 132.815351 
L 176.032345 132.046944 
L 174.33199 131.662741 
L 172.631634 142.804644 
L 170.931279 124.747077 
L 169.230923 136.657387 
L 167.530568 136.273183 
L 165.830212 132.815351 
L 164.129857 144.341458 
L 162.429501 134.736369 
L 160.729146 135.504776 
L 159.02879 146.646679 
L 157.328434 153.178139 
L 155.628079 156.635971 
L 153.927723 163.551635 
L 152.227368 176.230353 
L 150.527012 171.61991 
L 148.826657 176.99876 
L 147.126301 168.546281 
L 145.425946 173.156724 
L 143.72559 173.540928 
L 142.025235 170.851503 
L 140.324879 175.846149 
L 138.624524 176.614556 
L 136.924168 186.219645 
L 135.223813 187.756459 
L 133.523457 181.993406 
L 131.823102 189.677477 
L 130.122746 183.914424 
L 128.422391 191.982698 
L 126.722035 189.293273 
L 125.02168 186.219645 
L 123.321324 178.535574 
L 121.620969 185.067034 
L 119.920613 183.53022 
L 118.220258 188.90907 
L 116.519902 188.524866 
L 114.819547 182.761813 
L 113.119191 189.293273 
L 111.418836 175.077742 
L 109.71848 192.366902 
L 108.018125 178.535574 
L 106.317769 196.977344 
L 104.617414 188.140663 
L 102.917058 190.06168 
L 101.216703 189.293273 
L 99.516347 191.982698 
L 97.815992 193.135309 
L 96.115636 180.456592 
L 94.415281 186.603848 
L 92.714925 170.851503 
L 91.01457 189.677477 
L 89.314214 176.614556 
L 87.613859 188.140663 
L 85.913503 186.988052 
L 84.213148 186.988052 
L 82.512792 191.598495 
L 80.812437 185.835441 
L 79.112081 182.377609 
L 77.411725 185.835441 
L 75.71137 189.293273 
L 74.011014 195.824734 
L 72.310659 188.140663 
L 70.610303 177.767167 
L 68.909948 183.146016 
L 67.209592 188.90907 
L 65.509237 187.756459 
L 63.808881 187.372255 
L 62.108526 186.988052 
L 60.40817 185.067034 
L 58.707815 187.756459 
L 57.007459 178.535574 
L 55.307104 190.445884 
L 53.606748 186.603848 
L 51.906393 174.309335 
L 50.206037 171.61991 
L 48.505682 182.377609 
z
" style="fill:#9467bd;"/>
   </g>
   <g id="matplotlib.axis_1">
    <g id="xtick_1">
     <g id="line2d_1">
      <defs>
       <path d="M 0 0 
L 0 3.5 
" id="m6549727c97" style="stroke:#000000;stroke-width:0.8;"/>
      </defs>
      <g>
       <use style="stroke:#000000;stroke-width:0.8;" x="48.262774" xlink:href="#m6549727c97" y="224.64"/>
      </g>
     </g>
     <g id="text_1">
      <!-- 2019-01 -->
      <g transform="translate(35.441492 266.557817)rotate(-45)scale(0.1 -0.1)">
       <defs>
        <path d="M 1228 531 
L 3431 531 
L 3431 0 
L 469 0 
L 469 531 
Q 828 903 1448 1529 
Q 2069 2156 2228 2338 
Q 2531 2678 2651 2914 
Q 2772 3150 2772 3378 
Q 2772 3750 2511 3984 
Q 2250 4219 1831 4219 
Q 1534 4219 1204 4116 
Q 875 4013 500 3803 
L 500 4441 
Q 881 4594 1212 4672 
Q 1544 4750 1819 4750 
Q 2544 4750 2975 4387 
Q 3406 4025 3406 3419 
Q 3406 3131 3298 2873 
Q 3191 2616 2906 2266 
Q 2828 2175 2409 1742 
Q 1991 1309 1228 531 
z
" id="DejaVuSans-32" transform="scale(0.015625)"/>
        <path d="M 2034 4250 
Q 1547 4250 1301 3770 
Q 1056 3291 1056 2328 
Q 1056 1369 1301 889 
Q 1547 409 2034 409 
Q 2525 409 2770 889 
Q 3016 1369 3016 2328 
Q 3016 3291 2770 3770 
Q 2525 4250 2034 4250 
z
M 2034 4750 
Q 2819 4750 3233 4129 
Q 3647 3509 3647 2328 
Q 3647 1150 3233 529 
Q 2819 -91 2034 -91 
Q 1250 -91 836 529 
Q 422 1150 422 2328 
Q 422 3509 836 4129 
Q 1250 4750 2034 4750 
z
" id="DejaVuSans-30" transform="scale(0.015625)"/>
        <path d="M 794 531 
L 1825 531 
L 1825 4091 
L 703 3866 
L 703 4441 
L 1819 4666 
L 2450 4666 
L 2450 531 
L 3481 531 
L 3481 0 
L 794 0 
L 794 531 
z
" id="DejaVuSans-31" transform="scale(0.015625)"/>
        <path d="M 703 97 
L 703 672 
Q 941 559 1184 500 
Q 1428 441 1663 441 
Q 2288 441 2617 861 
Q 2947 1281 2994 2138 
Q 2813 1869 2534 1725 
Q 2256 1581 1919 1581 
Q 1219 1581 811 2004 
Q 403 2428 403 3163 
Q 403 3881 828 4315 
Q 1253 4750 1959 4750 
Q 2769 4750 3195 4129 
Q 3622 3509 3622 2328 
Q 3622 1225 3098 567 
Q 2575 -91 1691 -91 
Q 1453 -91 1209 -44 
Q 966 3 703 97 
z
M 1959 2075 
Q 2384 2075 2632 2365 
Q 2881 2656 2881 3163 
Q 2881 3666 2632 3958 
Q 2384 4250 1959 4250 
Q 1534 4250 1286 3958 
Q 1038 3666 1038 3163 
Q 1038 2656 1286 2365 
Q 1534 2075 1959 2075 
z
" id="DejaVuSans-39" transform="scale(0.015625)"/>
        <path d="M 313 2009 
L 1997 2009 
L 1997 1497 
L 313 1497 
L 313 2009 
z
" id="DejaVuSans-2d" transform="scale(0.015625)"/>
       </defs>
       <use xlink:href="#DejaVuSans-32"/>
       <use x="63.623047" xlink:href="#DejaVuSans-30"/>
       <use x="127.246094" xlink:href="#DejaVuSans-31"/>
       <use x="190.869141" xlink:href="#DejaVuSans-39"/>
       <use x="254.492188" xlink:href="#DejaVuSans-2d"/>
       <use x="290.576172" xlink:href="#DejaVuSans-30"/>
       <use x="354.199219" xlink:href="#DejaVuSans-31"/>
      </g>
     </g>
    </g>
    <g id="xtick_2">
     <g id="line2d_2">
      <g>
       <use style="stroke:#000000;stroke-width:0.8;" x="92.229109" xlink:href="#m6549727c97" y="224.64"/>
      </g>
     </g>
     <g id="text_2">
      <!-- 2019-07 -->
      <g transform="translate(79.407827 266.557817)rotate(-45)scale(0.1 -0.1)">
       <defs>
        <path d="M 525 4666 
L 3525 4666 
L 3525 4397 
L 1831 0 
L 1172 0 
L 2766 4134 
L 525 4134 
L 525 4666 
z
" id="DejaVuSans-37" transform="scale(0.015625)"/>
       </defs>
       <use xlink:href="#DejaVuSans-32"/>
       <use x="63.623047" xlink:href="#DejaVuSans-30"/>
       <use x="127.246094" xlink:href="#DejaVuSans-31"/>
       <use x="190.869141" xlink:href="#DejaVuSans-39"/>
       <use x="254.492188" xlink:href="#DejaVuSans-2d"/>
       <use x="290.576172" xlink:href="#DejaVuSans-30"/>
       <use x="354.199219" xlink:href="#DejaVuSans-37"/>
      </g>
     </g>
    </g>
    <g id="xtick_3">
     <g id="line2d_3">
      <g>
       <use style="stroke:#000000;stroke-width:0.8;" x="136.924168" xlink:href="#m6549727c97" y="224.64"/>
      </g>
     </g>
     <g id="text_3">
      <!-- 2020-01 -->
      <g transform="translate(124.102886 266.557817)rotate(-45)scale(0.1 -0.1)">
       <use xlink:href="#DejaVuSans-32"/>
       <use x="63.623047" xlink:href="#DejaVuSans-30"/>
       <use x="127.246094" xlink:href="#DejaVuSans-32"/>
       <use x="190.869141" xlink:href="#DejaVuSans-30"/>
       <use x="254.492188" xlink:href="#DejaVuSans-2d"/>
       <use x="290.576172" xlink:href="#DejaVuSans-30"/>
       <use x="354.199219" xlink:href="#DejaVuSans-31"/>
      </g>
     </g>
    </g>
    <g id="xtick_4">
     <g id="line2d_4">
      <g>
       <use style="stroke:#000000;stroke-width:0.8;" x="181.133412" xlink:href="#m6549727c97" y="224.64"/>
      </g>
     </g>
     <g id="text_4">
      <!-- 2020-07 -->
      <g transform="translate(168.312129 266.557817)rotate(-45)scale(0.1 -0.1)">
       <use xlink:href="#DejaVuSans-32"/>
       <use x="63.623047" xlink:href="#DejaVuSans-30"/>
       <use x="127.246094" xlink:href="#DejaVuSans-32"/>
       <use x="190.869141" xlink:href="#DejaVuSans-30"/>
       <use x="254.492188" xlink:href="#DejaVuSans-2d"/>
       <use x="290.576172" xlink:href="#DejaVuSans-30"/>
       <use x="354.199219" xlink:href="#DejaVuSans-37"/>
      </g>
     </g>
    </g>
    <g id="xtick_5">
     <g id="line2d_5">
      <g>
       <use style="stroke:#000000;stroke-width:0.8;" x="225.828471" xlink:href="#m6549727c97" y="224.64"/>
      </g>
     </g>
     <g id="text_5">
      <!-- 2021-01 -->
      <g transform="translate(213.007189 266.557817)rotate(-45)scale(0.1 -0.1)">
       <use xlink:href="#DejaVuSans-32"/>
       <use x="63.623047" xlink:href="#DejaVuSans-30"/>
       <use x="127.246094" xlink:href="#DejaVuSans-32"/>
       <use x="190.869141" xlink:href="#DejaVuSans-31"/>
       <use x="254.492188" xlink:href="#DejaVuSans-2d"/>
       <use x="290.576172" xlink:href="#DejaVuSans-30"/>
       <use x="354.199219" xlink:href="#DejaVuSans-31"/>
      </g>
     </g>
    </g>
    <g id="xtick_6">
     <g id="line2d_6">
      <g>
       <use style="stroke:#000000;stroke-width:0.8;" x="269.794806" xlink:href="#m6549727c97" y="224.64"/>
      </g>
     </g>
     <g id="text_6">
      <!-- 2021-07 -->
      <g transform="translate(256.973524 266.557817)rotate(-45)scale(0.1 -0.1)">
       <use xlink:href="#DejaVuSans-32"/>
       <use x="63.623047" xlink:href="#DejaVuSans-30"/>
       <use x="127.246094" xlink:href="#DejaVuSans-32"/>
       <use x="190.869141" xlink:href="#DejaVuSans-31"/>
       <use x="254.492188" xlink:href="#DejaVuSans-2d"/>
       <use x="290.576172" xlink:href="#DejaVuSans-30"/>
       <use x="354.199219" xlink:href="#DejaVuSans-37"/>
      </g>
     </g>
    </g>
    <g id="xtick_7">
     <g id="line2d_7">
      <g>
       <use style="stroke:#000000;stroke-width:0.8;" x="314.489865" xlink:href="#m6549727c97" y="224.64"/>
      </g>
     </g>
     <g id="text_7">
      <!-- 2022-01 -->
      <g transform="translate(301.668583 266.557817)rotate(-45)scale(0.1 -0.1)">
       <use xlink:href="#DejaVuSans-32"/>
       <use x="63.623047" xlink:href="#DejaVuSans-30"/>
       <use x="127.246094" xlink:href="#DejaVuSans-32"/>
       <use x="190.869141" xlink:href="#DejaVuSans-32"/>
       <use x="254.492188" xlink:href="#DejaVuSans-2d"/>
       <use x="290.576172" xlink:href="#DejaVuSans-30"/>
       <use x="354.199219" xlink:href="#DejaVuSans-31"/>
      </g>
     </g>
    </g>
    <g id="xtick_8">
     <g id="line2d_8">
      <g>
       <use style="stroke:#000000;stroke-width:0.8;" x="358.456201" xlink:href="#m6549727c97" y="224.64"/>
      </g>
     </g>
     <g id="text_8">
      <!-- 2022-07 -->
      <g transform="translate(345.634918 266.557817)rotate(-45)scale(0.1 -0.1)">
       <use xlink:href="#DejaVuSans-32"/>
       <use x="63.623047" xlink:href="#DejaVuSans-30"/>
       <use x="127.246094" xlink:href="#DejaVuSans-32"/>
       <use x="190.869141" xlink:href="#DejaVuSans-32"/>
       <use x="254.492188" xlink:href="#DejaVuSans-2d"/>
       <use x="290.576172" xlink:href="#DejaVuSans-30"/>
       <use x="354.199219" xlink:href="#DejaVuSans-37"/>
      </g>
     </g>
    </g>
   </g>
   <g id="matplotlib.axis_2">
    <g id="ytick_1">
     <g id="line2d_9">
      <defs>
       <path d="M 0 0 
L -3.5 0 
" id="me35a031b67" style="stroke:#000000;stroke-width:0.8;"/>
      </defs>
      <g>
       <use style="stroke:#000000;stroke-width:0.8;" x="33.2875" xlink:href="#me35a031b67" y="224.64"/>
      </g>
     </g>
     <g id="text_9">
      <!-- 0 -->
      <g transform="translate(19.925 228.439219)scale(0.1 -0.1)">
       <use xlink:href="#DejaVuSans-30"/>
      </g>
     </g>
    </g>
    <g id="ytick_2">
     <g id="line2d_10">
      <g>
       <use style="stroke:#000000;stroke-width:0.8;" x="33.2875" xlink:href="#me35a031b67" y="186.219645"/>
      </g>
     </g>
     <g id="text_10">
      <!-- 100 -->
      <g transform="translate(7.2 190.018864)scale(0.1 -0.1)">
       <use xlink:href="#DejaVuSans-31"/>
       <use x="63.623047" xlink:href="#DejaVuSans-30"/>
       <use x="127.246094" xlink:href="#DejaVuSans-30"/>
      </g>
     </g>
    </g>
    <g id="ytick_3">
     <g id="line2d_11">
      <g>
       <use style="stroke:#000000;stroke-width:0.8;" x="33.2875" xlink:href="#me35a031b67" y="147.79929"/>
      </g>
     </g>
     <g id="text_11">
      <!-- 200 -->
      <g transform="translate(7.2 151.598508)scale(0.1 -0.1)">
       <use xlink:href="#DejaVuSans-32"/>
       <use x="63.623047" xlink:href="#DejaVuSans-30"/>
       <use x="127.246094" xlink:href="#DejaVuSans-30"/>
      </g>
     </g>
    </g>
    <g id="ytick_4">
     <g id="line2d_12">
      <g>
       <use style="stroke:#000000;stroke-width:0.8;" x="33.2875" xlink:href="#me35a031b67" y="109.378935"/>
      </g>
     </g>
     <g id="text_12">
      <!-- 300 -->
      <g transform="translate(7.2 113.178153)scale(0.1 -0.1)">
       <defs>
        <path d="M 2597 2516 
Q 3050 2419 3304 2112 
Q 3559 1806 3559 1356 
Q 3559 666 3084 287 
Q 2609 -91 1734 -91 
Q 1441 -91 1130 -33 
Q 819 25 488 141 
L 488 750 
Q 750 597 1062 519 
Q 1375 441 1716 441 
Q 2309 441 2620 675 
Q 2931 909 2931 1356 
Q 2931 1769 2642 2001 
Q 2353 2234 1838 2234 
L 1294 2234 
L 1294 2753 
L 1863 2753 
Q 2328 2753 2575 2939 
Q 2822 3125 2822 3475 
Q 2822 3834 2567 4026 
Q 2313 4219 1838 4219 
Q 1578 4219 1281 4162 
Q 984 4106 628 3988 
L 628 4550 
Q 988 4650 1302 4700 
Q 1616 4750 1894 4750 
Q 2613 4750 3031 4423 
Q 3450 4097 3450 3541 
Q 3450 3153 3228 2886 
Q 3006 2619 2597 2516 
z
" id="DejaVuSans-33" transform="scale(0.015625)"/>
       </defs>
       <use xlink:href="#DejaVuSans-33"/>
       <use x="63.623047" xlink:href="#DejaVuSans-30"/>
       <use x="127.246094" xlink:href="#DejaVuSans-30"/>
      </g>
     </g>
    </g>
    <g id="ytick_5">
     <g id="line2d_13">
      <g>
       <use style="stroke:#000000;stroke-width:0.8;" x="33.2875" xlink:href="#me35a031b67" y="70.958579"/>
      </g>
     </g>
     <g id="text_13">
      <!-- 400 -->
      <g transform="translate(7.2 74.757798)scale(0.1 -0.1)">
       <defs>
        <path d="M 2419 4116 
L 825 1625 
L 2419 1625 
L 2419 4116 
z
M 2253 4666 
L 3047 4666 
L 3047 1625 
L 3713 1625 
L 3713 1100 
L 3047 1100 
L 3047 0 
L 2419 0 
L 2419 1100 
L 313 1100 
L 313 1709 
L 2253 4666 
z
" id="DejaVuSans-34" transform="scale(0.015625)"/>
       </defs>
       <use xlink:href="#DejaVuSans-34"/>
       <use x="63.623047" xlink:href="#DejaVuSans-30"/>
       <use x="127.246094" xlink:href="#DejaVuSans-30"/>
      </g>
     </g>
    </g>
    <g id="ytick_6">
     <g id="line2d_14">
      <g>
       <use style="stroke:#000000;stroke-width:0.8;" x="33.2875" xlink:href="#me35a031b67" y="32.538224"/>
      </g>
     </g>
     <g id="text_14">
      <!-- 500 -->
      <g transform="translate(7.2 36.337443)scale(0.1 -0.1)">
       <defs>
        <path d="M 691 4666 
L 3169 4666 
L 3169 4134 
L 1269 4134 
L 1269 2991 
Q 1406 3038 1543 3061 
Q 1681 3084 1819 3084 
Q 2600 3084 3056 2656 
Q 3513 2228 3513 1497 
Q 3513 744 3044 326 
Q 2575 -91 1722 -91 
Q 1428 -91 1123 -41 
Q 819 9 494 109 
L 494 744 
Q 775 591 1075 516 
Q 1375 441 1709 441 
Q 2250 441 2565 725 
Q 2881 1009 2881 1497 
Q 2881 1984 2565 2268 
Q 2250 2553 1709 2553 
Q 1456 2553 1204 2497 
Q 953 2441 691 2322 
L 691 4666 
z
" id="DejaVuSans-35" transform="scale(0.015625)"/>
       </defs>
       <use xlink:href="#DejaVuSans-35"/>
       <use x="63.623047" xlink:href="#DejaVuSans-30"/>
       <use x="127.246094" xlink:href="#DejaVuSans-30"/>
      </g>
     </g>
    </g>
   </g>
   <g id="patch_3">
    <path d="M 33.2875 224.64 
L 33.2875 7.2 
" style="fill:none;stroke:#000000;stroke-linecap:square;stroke-linejoin:miter;stroke-width:0.8;"/>
   </g>
   <g id="patch_4">
    <path d="M 368.0875 224.64 
L 368.0875 7.2 
" style="fill:none;stroke:#000000;stroke-linecap:square;stroke-linejoin:miter;stroke-width:0.8;"/>
   </g>
   <g id="patch_5">
    <path d="M 33.2875 224.64 
L 368.0875 224.64 
" style="fill:none;stroke:#000000;stroke-linecap:square;stroke-linejoin:miter;stroke-width:0.8;"/>
   </g>
   <g id="patch_6">
    <path d="M 33.2875 7.2 
L 368.0875 7.2 
" style="fill:none;stroke:#000000;stroke-linecap:square;stroke-linejoin:miter;stroke-width:0.8;"/>
   </g>
   <g id="legend_1">
    <g id="patch_7">
     <path d="M 40.2875 88.86875 
L 129.146875 88.86875 
Q 131.146875 88.86875 131.146875 86.86875 
L 131.146875 14.2 
Q 131.146875 12.2 129.146875 12.2 
L 40.2875 12.2 
Q 38.2875 12.2 38.2875 14.2 
L 38.2875 86.86875 
Q 38.2875 88.86875 40.2875 88.86875 
z
" style="fill:#ffffff;opacity:0.8;stroke:#cccccc;stroke-linejoin:miter;"/>
    </g>
    <g id="patch_8">
     <path d="M 42.2875 23.798437 
L 62.2875 23.798437 
L 62.2875 16.798437 
L 42.2875 16.798437 
z
" style="fill:#1f77b4;"/>
    </g>
    <g id="text_15">
     <!-- Stocks -->
     <g transform="translate(70.2875 23.798437)scale(0.1 -0.1)">
      <defs>
       <path d="M 3425 4513 
L 3425 3897 
Q 3066 4069 2747 4153 
Q 2428 4238 2131 4238 
Q 1616 4238 1336 4038 
Q 1056 3838 1056 3469 
Q 1056 3159 1242 3001 
Q 1428 2844 1947 2747 
L 2328 2669 
Q 3034 2534 3370 2195 
Q 3706 1856 3706 1288 
Q 3706 609 3251 259 
Q 2797 -91 1919 -91 
Q 1588 -91 1214 -16 
Q 841 59 441 206 
L 441 856 
Q 825 641 1194 531 
Q 1563 422 1919 422 
Q 2459 422 2753 634 
Q 3047 847 3047 1241 
Q 3047 1584 2836 1778 
Q 2625 1972 2144 2069 
L 1759 2144 
Q 1053 2284 737 2584 
Q 422 2884 422 3419 
Q 422 4038 858 4394 
Q 1294 4750 2059 4750 
Q 2388 4750 2728 4690 
Q 3069 4631 3425 4513 
z
" id="DejaVuSans-53" transform="scale(0.015625)"/>
       <path d="M 1172 4494 
L 1172 3500 
L 2356 3500 
L 2356 3053 
L 1172 3053 
L 1172 1153 
Q 1172 725 1289 603 
Q 1406 481 1766 481 
L 2356 481 
L 2356 0 
L 1766 0 
Q 1100 0 847 248 
Q 594 497 594 1153 
L 594 3053 
L 172 3053 
L 172 3500 
L 594 3500 
L 594 4494 
L 1172 4494 
z
" id="DejaVuSans-74" transform="scale(0.015625)"/>
       <path d="M 1959 3097 
Q 1497 3097 1228 2736 
Q 959 2375 959 1747 
Q 959 1119 1226 758 
Q 1494 397 1959 397 
Q 2419 397 2687 759 
Q 2956 1122 2956 1747 
Q 2956 2369 2687 2733 
Q 2419 3097 1959 3097 
z
M 1959 3584 
Q 2709 3584 3137 3096 
Q 3566 2609 3566 1747 
Q 3566 888 3137 398 
Q 2709 -91 1959 -91 
Q 1206 -91 779 398 
Q 353 888 353 1747 
Q 353 2609 779 3096 
Q 1206 3584 1959 3584 
z
" id="DejaVuSans-6f" transform="scale(0.015625)"/>
       <path d="M 3122 3366 
L 3122 2828 
Q 2878 2963 2633 3030 
Q 2388 3097 2138 3097 
Q 1578 3097 1268 2742 
Q 959 2388 959 1747 
Q 959 1106 1268 751 
Q 1578 397 2138 397 
Q 2388 397 2633 464 
Q 2878 531 3122 666 
L 3122 134 
Q 2881 22 2623 -34 
Q 2366 -91 2075 -91 
Q 1284 -91 818 406 
Q 353 903 353 1747 
Q 353 2603 823 3093 
Q 1294 3584 2113 3584 
Q 2378 3584 2631 3529 
Q 2884 3475 3122 3366 
z
" id="DejaVuSans-63" transform="scale(0.015625)"/>
       <path d="M 581 4863 
L 1159 4863 
L 1159 1991 
L 2875 3500 
L 3609 3500 
L 1753 1863 
L 3688 0 
L 2938 0 
L 1159 1709 
L 1159 0 
L 581 0 
L 581 4863 
z
" id="DejaVuSans-6b" transform="scale(0.015625)"/>
       <path d="M 2834 3397 
L 2834 2853 
Q 2591 2978 2328 3040 
Q 2066 3103 1784 3103 
Q 1356 3103 1142 2972 
Q 928 2841 928 2578 
Q 928 2378 1081 2264 
Q 1234 2150 1697 2047 
L 1894 2003 
Q 2506 1872 2764 1633 
Q 3022 1394 3022 966 
Q 3022 478 2636 193 
Q 2250 -91 1575 -91 
Q 1294 -91 989 -36 
Q 684 19 347 128 
L 347 722 
Q 666 556 975 473 
Q 1284 391 1588 391 
Q 1994 391 2212 530 
Q 2431 669 2431 922 
Q 2431 1156 2273 1281 
Q 2116 1406 1581 1522 
L 1381 1569 
Q 847 1681 609 1914 
Q 372 2147 372 2553 
Q 372 3047 722 3315 
Q 1072 3584 1716 3584 
Q 2034 3584 2315 3537 
Q 2597 3491 2834 3397 
z
" id="DejaVuSans-73" transform="scale(0.015625)"/>
      </defs>
      <use xlink:href="#DejaVuSans-53"/>
      <use x="63.476562" xlink:href="#DejaVuSans-74"/>
      <use x="102.685547" xlink:href="#DejaVuSans-6f"/>
      <use x="163.867188" xlink:href="#DejaVuSans-63"/>
      <use x="218.847656" xlink:href="#DejaVuSans-6b"/>
      <use x="276.757812" xlink:href="#DejaVuSans-73"/>
     </g>
    </g>
    <g id="patch_9">
     <path d="M 42.2875 38.476562 
L 62.2875 38.476562 
L 62.2875 31.476562 
L 42.2875 31.476562 
z
" style="fill:#ff7f0e;"/>
    </g>
    <g id="text_16">
     <!-- Market -->
     <g transform="translate(70.2875 38.476562)scale(0.1 -0.1)">
      <defs>
       <path d="M 628 4666 
L 1569 4666 
L 2759 1491 
L 3956 4666 
L 4897 4666 
L 4897 0 
L 4281 0 
L 4281 4097 
L 3078 897 
L 2444 897 
L 1241 4097 
L 1241 0 
L 628 0 
L 628 4666 
z
" id="DejaVuSans-4d" transform="scale(0.015625)"/>
       <path d="M 2194 1759 
Q 1497 1759 1228 1600 
Q 959 1441 959 1056 
Q 959 750 1161 570 
Q 1363 391 1709 391 
Q 2188 391 2477 730 
Q 2766 1069 2766 1631 
L 2766 1759 
L 2194 1759 
z
M 3341 1997 
L 3341 0 
L 2766 0 
L 2766 531 
Q 2569 213 2275 61 
Q 1981 -91 1556 -91 
Q 1019 -91 701 211 
Q 384 513 384 1019 
Q 384 1609 779 1909 
Q 1175 2209 1959 2209 
L 2766 2209 
L 2766 2266 
Q 2766 2663 2505 2880 
Q 2244 3097 1772 3097 
Q 1472 3097 1187 3025 
Q 903 2953 641 2809 
L 641 3341 
Q 956 3463 1253 3523 
Q 1550 3584 1831 3584 
Q 2591 3584 2966 3190 
Q 3341 2797 3341 1997 
z
" id="DejaVuSans-61" transform="scale(0.015625)"/>
       <path d="M 2631 2963 
Q 2534 3019 2420 3045 
Q 2306 3072 2169 3072 
Q 1681 3072 1420 2755 
Q 1159 2438 1159 1844 
L 1159 0 
L 581 0 
L 581 3500 
L 1159 3500 
L 1159 2956 
Q 1341 3275 1631 3429 
Q 1922 3584 2338 3584 
Q 2397 3584 2469 3576 
Q 2541 3569 2628 3553 
L 2631 2963 
z
" id="DejaVuSans-72" transform="scale(0.015625)"/>
       <path d="M 3597 1894 
L 3597 1613 
L 953 1613 
Q 991 1019 1311 708 
Q 1631 397 2203 397 
Q 2534 397 2845 478 
Q 3156 559 3463 722 
L 3463 178 
Q 3153 47 2828 -22 
Q 2503 -91 2169 -91 
Q 1331 -91 842 396 
Q 353 884 353 1716 
Q 353 2575 817 3079 
Q 1281 3584 2069 3584 
Q 2775 3584 3186 3129 
Q 3597 2675 3597 1894 
z
M 3022 2063 
Q 3016 2534 2758 2815 
Q 2500 3097 2075 3097 
Q 1594 3097 1305 2825 
Q 1016 2553 972 2059 
L 3022 2063 
z
" id="DejaVuSans-65" transform="scale(0.015625)"/>
      </defs>
      <use xlink:href="#DejaVuSans-4d"/>
      <use x="86.279297" xlink:href="#DejaVuSans-61"/>
      <use x="147.558594" xlink:href="#DejaVuSans-72"/>
      <use x="188.671875" xlink:href="#DejaVuSans-6b"/>
      <use x="242.957031" xlink:href="#DejaVuSans-65"/>
      <use x="304.480469" xlink:href="#DejaVuSans-74"/>
     </g>
    </g>
    <g id="patch_10">
     <path d="M 42.2875 53.154687 
L 62.2875 53.154687 
L 62.2875 46.154687 
L 42.2875 46.154687 
z
" style="fill:#2ca02c;"/>
    </g>
    <g id="text_17">
     <!-- Crypto -->
     <g transform="translate(70.2875 53.154687)scale(0.1 -0.1)">
      <defs>
       <path d="M 4122 4306 
L 4122 3641 
Q 3803 3938 3442 4084 
Q 3081 4231 2675 4231 
Q 1875 4231 1450 3742 
Q 1025 3253 1025 2328 
Q 1025 1406 1450 917 
Q 1875 428 2675 428 
Q 3081 428 3442 575 
Q 3803 722 4122 1019 
L 4122 359 
Q 3791 134 3420 21 
Q 3050 -91 2638 -91 
Q 1578 -91 968 557 
Q 359 1206 359 2328 
Q 359 3453 968 4101 
Q 1578 4750 2638 4750 
Q 3056 4750 3426 4639 
Q 3797 4528 4122 4306 
z
" id="DejaVuSans-43" transform="scale(0.015625)"/>
       <path d="M 2059 -325 
Q 1816 -950 1584 -1140 
Q 1353 -1331 966 -1331 
L 506 -1331 
L 506 -850 
L 844 -850 
Q 1081 -850 1212 -737 
Q 1344 -625 1503 -206 
L 1606 56 
L 191 3500 
L 800 3500 
L 1894 763 
L 2988 3500 
L 3597 3500 
L 2059 -325 
z
" id="DejaVuSans-79" transform="scale(0.015625)"/>
       <path d="M 1159 525 
L 1159 -1331 
L 581 -1331 
L 581 3500 
L 1159 3500 
L 1159 2969 
Q 1341 3281 1617 3432 
Q 1894 3584 2278 3584 
Q 2916 3584 3314 3078 
Q 3713 2572 3713 1747 
Q 3713 922 3314 415 
Q 2916 -91 2278 -91 
Q 1894 -91 1617 61 
Q 1341 213 1159 525 
z
M 3116 1747 
Q 3116 2381 2855 2742 
Q 2594 3103 2138 3103 
Q 1681 3103 1420 2742 
Q 1159 2381 1159 1747 
Q 1159 1113 1420 752 
Q 1681 391 2138 391 
Q 2594 391 2855 752 
Q 3116 1113 3116 1747 
z
" id="DejaVuSans-70" transform="scale(0.015625)"/>
      </defs>
      <use xlink:href="#DejaVuSans-43"/>
      <use x="69.824219" xlink:href="#DejaVuSans-72"/>
      <use x="110.9375" xlink:href="#DejaVuSans-79"/>
      <use x="170.117188" xlink:href="#DejaVuSans-70"/>
      <use x="233.59375" xlink:href="#DejaVuSans-74"/>
      <use x="272.802734" xlink:href="#DejaVuSans-6f"/>
     </g>
    </g>
    <g id="patch_11">
     <path d="M 42.2875 67.832812 
L 62.2875 67.832812 
L 62.2875 60.832812 
L 42.2875 60.832812 
z
" style="fill:#d62728;"/>
    </g>
    <g id="text_18">
     <!-- ETF -->
     <g transform="translate(70.2875 67.832812)scale(0.1 -0.1)">
      <defs>
       <path d="M 628 4666 
L 3578 4666 
L 3578 4134 
L 1259 4134 
L 1259 2753 
L 3481 2753 
L 3481 2222 
L 1259 2222 
L 1259 531 
L 3634 531 
L 3634 0 
L 628 0 
L 628 4666 
z
" id="DejaVuSans-45" transform="scale(0.015625)"/>
       <path d="M -19 4666 
L 3928 4666 
L 3928 4134 
L 2272 4134 
L 2272 0 
L 1638 0 
L 1638 4134 
L -19 4134 
L -19 4666 
z
" id="DejaVuSans-54" transform="scale(0.015625)"/>
       <path d="M 628 4666 
L 3309 4666 
L 3309 4134 
L 1259 4134 
L 1259 2759 
L 3109 2759 
L 3109 2228 
L 1259 2228 
L 1259 0 
L 628 0 
L 628 4666 
z
" id="DejaVuSans-46" transform="scale(0.015625)"/>
      </defs>
      <use xlink:href="#DejaVuSans-45"/>
      <use x="63.183594" xlink:href="#DejaVuSans-54"/>
      <use x="124.267578" xlink:href="#DejaVuSans-46"/>
     </g>
    </g>
    <g id="patch_12">
     <path d="M 42.2875 82.510937 
L 62.2875 82.510937 
L 62.2875 75.510937 
L 42.2875 75.510937 
z
" style="fill:#9467bd;"/>
    </g>
    <g id="text_19">
     <!-- No_Finance -->
     <g transform="translate(70.2875 82.510937)scale(0.1 -0.1)">
      <defs>
       <path d="M 628 4666 
L 1478 4666 
L 3547 763 
L 3547 4666 
L 4159 4666 
L 4159 0 
L 3309 0 
L 1241 3903 
L 1241 0 
L 628 0 
L 628 4666 
z
" id="DejaVuSans-4e" transform="scale(0.015625)"/>
       <path d="M 3263 -1063 
L 3263 -1509 
L -63 -1509 
L -63 -1063 
L 3263 -1063 
z
" id="DejaVuSans-5f" transform="scale(0.015625)"/>
       <path d="M 603 3500 
L 1178 3500 
L 1178 0 
L 603 0 
L 603 3500 
z
M 603 4863 
L 1178 4863 
L 1178 4134 
L 603 4134 
L 603 4863 
z
" id="DejaVuSans-69" transform="scale(0.015625)"/>
       <path d="M 3513 2113 
L 3513 0 
L 2938 0 
L 2938 2094 
Q 2938 2591 2744 2837 
Q 2550 3084 2163 3084 
Q 1697 3084 1428 2787 
Q 1159 2491 1159 1978 
L 1159 0 
L 581 0 
L 581 3500 
L 1159 3500 
L 1159 2956 
Q 1366 3272 1645 3428 
Q 1925 3584 2291 3584 
Q 2894 3584 3203 3211 
Q 3513 2838 3513 2113 
z
" id="DejaVuSans-6e" transform="scale(0.015625)"/>
      </defs>
      <use xlink:href="#DejaVuSans-4e"/>
      <use x="74.804688" xlink:href="#DejaVuSans-6f"/>
      <use x="135.986328" xlink:href="#DejaVuSans-5f"/>
      <use x="185.986328" xlink:href="#DejaVuSans-46"/>
      <use x="236.255859" xlink:href="#DejaVuSans-69"/>
      <use x="264.039062" xlink:href="#DejaVuSans-6e"/>
      <use x="327.417969" xlink:href="#DejaVuSans-61"/>
      <use x="388.697266" xlink:href="#DejaVuSans-6e"/>
      <use x="452.076172" xlink:href="#DejaVuSans-63"/>
      <use x="507.056641" xlink:href="#DejaVuSans-65"/>
     </g>
    </g>
   </g>
  </g>
 </g>
 <defs>
  <clipPath id="pe6cad61db5">
   <rect height="217.44" width="334.8" x="33.2875" y="7.2"/>
  </clipPath>
 </defs>
</svg>
