<?xml version="1.0" encoding="utf-8" standalone="no"?>
<!DOCTYPE svg PUBLIC "-//W3C//DTD SVG 1.1//EN"
  "http://www.w3.org/Graphics/SVG/1.1/DTD/svg11.dtd">
<svg height="277.738427pt" version="1.1" viewBox="0 0 422.36875 277.738427" width="422.36875pt" xmlns="http://www.w3.org/2000/svg" xmlns:xlink="http://www.w3.org/1999/xlink">
 <metadata>
  <rdf:RDF xmlns:cc="http://creativecommons.org/ns#" xmlns:dc="http://purl.org/dc/elements/1.1/" xmlns:rdf="http://www.w3.org/1999/02/22-rdf-syntax-ns#">
   <cc:Work>
    <dc:type rdf:resource="http://purl.org/dc/dcmitype/StillImage"/>
    <dc:date>2023-02-23T16:32:40.239719</dc:date>
    <dc:format>image/svg+xml</dc:format>
    <dc:creator>
     <cc:Agent>
      <dc:title>Matplotlib v3.4.3, https://matplotlib.org/</dc:title>
     </cc:Agent>
    </dc:creator>
   </cc:Work>
  </rdf:RDF>
 </metadata>
 <defs>
  <style type="text/css">*{stroke-linecap:butt;stroke-linejoin:round;}</style>
 </defs>
 <g id="figure_1">
  <g id="patch_1">
   <path d="M 0 277.738427 
L 422.36875 277.738427 
L 422.36875 0 
L 0 0 
z
" style="fill:none;"/>
  </g>
  <g id="axes_1">
   <g id="patch_2">
    <path d="M 40.603125 227.150049 
L 375.403125 227.150049 
L 375.403125 9.710049 
L 40.603125 9.710049 
z
" style="fill:#ffffff;"/>
   </g>
   <g id="matplotlib.axis_1">
    <g id="xtick_1">
     <g id="line2d_1">
      <defs>
       <path d="M 0 0 
L 0 3.5 
" id="mb35ea3e492" style="stroke:#000000;stroke-width:0.8;"/>
      </defs>
      <g>
       <use style="stroke:#000000;stroke-width:0.8;" x="55.578399" xlink:href="#mb35ea3e492" y="227.150049"/>
      </g>
     </g>
     <g id="text_1">
      <!-- 2019-01 -->
      <g transform="translate(42.757117 269.067866)rotate(-45)scale(0.1 -0.1)">
       <defs>
        <path d="M 1228 531 
L 3431 531 
L 3431 0 
L 469 0 
L 469 531 
Q 828 903 1448 1529 
Q 2069 2156 2228 2338 
Q 2531 2678 2651 2914 
Q 2772 3150 2772 3378 
Q 2772 3750 2511 3984 
Q 2250 4219 1831 4219 
Q 1534 4219 1204 4116 
Q 875 4013 500 3803 
L 500 4441 
Q 881 4594 1212 4672 
Q 1544 4750 1819 4750 
Q 2544 4750 2975 4387 
Q 3406 4025 3406 3419 
Q 3406 3131 3298 2873 
Q 3191 2616 2906 2266 
Q 2828 2175 2409 1742 
Q 1991 1309 1228 531 
z
" id="DejaVuSans-32" transform="scale(0.015625)"/>
        <path d="M 2034 4250 
Q 1547 4250 1301 3770 
Q 1056 3291 1056 2328 
Q 1056 1369 1301 889 
Q 1547 409 2034 409 
Q 2525 409 2770 889 
Q 3016 1369 3016 2328 
Q 3016 3291 2770 3770 
Q 2525 4250 2034 4250 
z
M 2034 4750 
Q 2819 4750 3233 4129 
Q 3647 3509 3647 2328 
Q 3647 1150 3233 529 
Q 2819 -91 2034 -91 
Q 1250 -91 836 529 
Q 422 1150 422 2328 
Q 422 3509 836 4129 
Q 1250 4750 2034 4750 
z
" id="DejaVuSans-30" transform="scale(0.015625)"/>
        <path d="M 794 531 
L 1825 531 
L 1825 4091 
L 703 3866 
L 703 4441 
L 1819 4666 
L 2450 4666 
L 2450 531 
L 3481 531 
L 3481 0 
L 794 0 
L 794 531 
z
" id="DejaVuSans-31" transform="scale(0.015625)"/>
        <path d="M 703 97 
L 703 672 
Q 941 559 1184 500 
Q 1428 441 1663 441 
Q 2288 441 2617 861 
Q 2947 1281 2994 2138 
Q 2813 1869 2534 1725 
Q 2256 1581 1919 1581 
Q 1219 1581 811 2004 
Q 403 2428 403 3163 
Q 403 3881 828 4315 
Q 1253 4750 1959 4750 
Q 2769 4750 3195 4129 
Q 3622 3509 3622 2328 
Q 3622 1225 3098 567 
Q 2575 -91 1691 -91 
Q 1453 -91 1209 -44 
Q 966 3 703 97 
z
M 1959 2075 
Q 2384 2075 2632 2365 
Q 2881 2656 2881 3163 
Q 2881 3666 2632 3958 
Q 2384 4250 1959 4250 
Q 1534 4250 1286 3958 
Q 1038 3666 1038 3163 
Q 1038 2656 1286 2365 
Q 1534 2075 1959 2075 
z
" id="DejaVuSans-39" transform="scale(0.015625)"/>
        <path d="M 313 2009 
L 1997 2009 
L 1997 1497 
L 313 1497 
L 313 2009 
z
" id="DejaVuSans-2d" transform="scale(0.015625)"/>
       </defs>
       <use xlink:href="#DejaVuSans-32"/>
       <use x="63.623047" xlink:href="#DejaVuSans-30"/>
       <use x="127.246094" xlink:href="#DejaVuSans-31"/>
       <use x="190.869141" xlink:href="#DejaVuSans-39"/>
       <use x="254.492188" xlink:href="#DejaVuSans-2d"/>
       <use x="290.576172" xlink:href="#DejaVuSans-30"/>
       <use x="354.199219" xlink:href="#DejaVuSans-31"/>
      </g>
     </g>
    </g>
    <g id="xtick_2">
     <g id="line2d_2">
      <g>
       <use style="stroke:#000000;stroke-width:0.8;" x="99.544734" xlink:href="#mb35ea3e492" y="227.150049"/>
      </g>
     </g>
     <g id="text_2">
      <!-- 2019-07 -->
      <g transform="translate(86.723452 269.067866)rotate(-45)scale(0.1 -0.1)">
       <defs>
        <path d="M 525 4666 
L 3525 4666 
L 3525 4397 
L 1831 0 
L 1172 0 
L 2766 4134 
L 525 4134 
L 525 4666 
z
" id="DejaVuSans-37" transform="scale(0.015625)"/>
       </defs>
       <use xlink:href="#DejaVuSans-32"/>
       <use x="63.623047" xlink:href="#DejaVuSans-30"/>
       <use x="127.246094" xlink:href="#DejaVuSans-31"/>
       <use x="190.869141" xlink:href="#DejaVuSans-39"/>
       <use x="254.492188" xlink:href="#DejaVuSans-2d"/>
       <use x="290.576172" xlink:href="#DejaVuSans-30"/>
       <use x="354.199219" xlink:href="#DejaVuSans-37"/>
      </g>
     </g>
    </g>
    <g id="xtick_3">
     <g id="line2d_3">
      <g>
       <use style="stroke:#000000;stroke-width:0.8;" x="144.239793" xlink:href="#mb35ea3e492" y="227.150049"/>
      </g>
     </g>
     <g id="text_3">
      <!-- 2020-01 -->
      <g transform="translate(131.418511 269.067866)rotate(-45)scale(0.1 -0.1)">
       <use xlink:href="#DejaVuSans-32"/>
       <use x="63.623047" xlink:href="#DejaVuSans-30"/>
       <use x="127.246094" xlink:href="#DejaVuSans-32"/>
       <use x="190.869141" xlink:href="#DejaVuSans-30"/>
       <use x="254.492188" xlink:href="#DejaVuSans-2d"/>
       <use x="290.576172" xlink:href="#DejaVuSans-30"/>
       <use x="354.199219" xlink:href="#DejaVuSans-31"/>
      </g>
     </g>
    </g>
    <g id="xtick_4">
     <g id="line2d_4">
      <g>
       <use style="stroke:#000000;stroke-width:0.8;" x="188.449037" xlink:href="#mb35ea3e492" y="227.150049"/>
      </g>
     </g>
     <g id="text_4">
      <!-- 2020-07 -->
      <g transform="translate(175.627754 269.067866)rotate(-45)scale(0.1 -0.1)">
       <use xlink:href="#DejaVuSans-32"/>
       <use x="63.623047" xlink:href="#DejaVuSans-30"/>
       <use x="127.246094" xlink:href="#DejaVuSans-32"/>
       <use x="190.869141" xlink:href="#DejaVuSans-30"/>
       <use x="254.492188" xlink:href="#DejaVuSans-2d"/>
       <use x="290.576172" xlink:href="#DejaVuSans-30"/>
       <use x="354.199219" xlink:href="#DejaVuSans-37"/>
      </g>
     </g>
    </g>
    <g id="xtick_5">
     <g id="line2d_5">
      <g>
       <use style="stroke:#000000;stroke-width:0.8;" x="233.144096" xlink:href="#mb35ea3e492" y="227.150049"/>
      </g>
     </g>
     <g id="text_5">
      <!-- 2021-01 -->
      <g transform="translate(220.322814 269.067866)rotate(-45)scale(0.1 -0.1)">
       <use xlink:href="#DejaVuSans-32"/>
       <use x="63.623047" xlink:href="#DejaVuSans-30"/>
       <use x="127.246094" xlink:href="#DejaVuSans-32"/>
       <use x="190.869141" xlink:href="#DejaVuSans-31"/>
       <use x="254.492188" xlink:href="#DejaVuSans-2d"/>
       <use x="290.576172" xlink:href="#DejaVuSans-30"/>
       <use x="354.199219" xlink:href="#DejaVuSans-31"/>
      </g>
     </g>
    </g>
    <g id="xtick_6">
     <g id="line2d_6">
      <g>
       <use style="stroke:#000000;stroke-width:0.8;" x="277.110431" xlink:href="#mb35ea3e492" y="227.150049"/>
      </g>
     </g>
     <g id="text_6">
      <!-- 2021-07 -->
      <g transform="translate(264.289149 269.067866)rotate(-45)scale(0.1 -0.1)">
       <use xlink:href="#DejaVuSans-32"/>
       <use x="63.623047" xlink:href="#DejaVuSans-30"/>
       <use x="127.246094" xlink:href="#DejaVuSans-32"/>
       <use x="190.869141" xlink:href="#DejaVuSans-31"/>
       <use x="254.492188" xlink:href="#DejaVuSans-2d"/>
       <use x="290.576172" xlink:href="#DejaVuSans-30"/>
       <use x="354.199219" xlink:href="#DejaVuSans-37"/>
      </g>
     </g>
    </g>
    <g id="xtick_7">
     <g id="line2d_7">
      <g>
       <use style="stroke:#000000;stroke-width:0.8;" x="321.80549" xlink:href="#mb35ea3e492" y="227.150049"/>
      </g>
     </g>
     <g id="text_7">
      <!-- 2022-01 -->
      <g transform="translate(308.984208 269.067866)rotate(-45)scale(0.1 -0.1)">
       <use xlink:href="#DejaVuSans-32"/>
       <use x="63.623047" xlink:href="#DejaVuSans-30"/>
       <use x="127.246094" xlink:href="#DejaVuSans-32"/>
       <use x="190.869141" xlink:href="#DejaVuSans-32"/>
       <use x="254.492188" xlink:href="#DejaVuSans-2d"/>
       <use x="290.576172" xlink:href="#DejaVuSans-30"/>
       <use x="354.199219" xlink:href="#DejaVuSans-31"/>
      </g>
     </g>
    </g>
    <g id="xtick_8">
     <g id="line2d_8">
      <g>
       <use style="stroke:#000000;stroke-width:0.8;" x="365.771826" xlink:href="#mb35ea3e492" y="227.150049"/>
      </g>
     </g>
     <g id="text_8">
      <!-- 2022-07 -->
      <g transform="translate(352.950543 269.067866)rotate(-45)scale(0.1 -0.1)">
       <use xlink:href="#DejaVuSans-32"/>
       <use x="63.623047" xlink:href="#DejaVuSans-30"/>
       <use x="127.246094" xlink:href="#DejaVuSans-32"/>
       <use x="190.869141" xlink:href="#DejaVuSans-32"/>
       <use x="254.492188" xlink:href="#DejaVuSans-2d"/>
       <use x="290.576172" xlink:href="#DejaVuSans-30"/>
       <use x="354.199219" xlink:href="#DejaVuSans-37"/>
      </g>
     </g>
    </g>
   </g>
   <g id="matplotlib.axis_2">
    <g id="ytick_1">
     <g id="line2d_9">
      <defs>
       <path d="M 0 0 
L -3.5 0 
" id="mff75ce2a90" style="stroke:#000000;stroke-width:0.8;"/>
      </defs>
      <g>
       <use style="stroke:#000000;stroke-width:0.8;" x="40.603125" xlink:href="#mff75ce2a90" y="225.324186"/>
      </g>
     </g>
     <g id="text_9">
      <!-- 10 -->
      <g transform="translate(20.878125 229.123405)scale(0.1 -0.1)">
       <use xlink:href="#DejaVuSans-31"/>
       <use x="63.623047" xlink:href="#DejaVuSans-30"/>
      </g>
     </g>
    </g>
    <g id="ytick_2">
     <g id="line2d_10">
      <g>
       <use style="stroke:#000000;stroke-width:0.8;" x="40.603125" xlink:href="#mff75ce2a90" y="189.306041"/>
      </g>
     </g>
     <g id="text_10">
      <!-- 20 -->
      <g transform="translate(20.878125 193.105259)scale(0.1 -0.1)">
       <use xlink:href="#DejaVuSans-32"/>
       <use x="63.623047" xlink:href="#DejaVuSans-30"/>
      </g>
     </g>
    </g>
    <g id="ytick_3">
     <g id="line2d_11">
      <g>
       <use style="stroke:#000000;stroke-width:0.8;" x="40.603125" xlink:href="#mff75ce2a90" y="153.287895"/>
      </g>
     </g>
     <g id="text_11">
      <!-- 30 -->
      <g transform="translate(20.878125 157.087114)scale(0.1 -0.1)">
       <defs>
        <path d="M 2597 2516 
Q 3050 2419 3304 2112 
Q 3559 1806 3559 1356 
Q 3559 666 3084 287 
Q 2609 -91 1734 -91 
Q 1441 -91 1130 -33 
Q 819 25 488 141 
L 488 750 
Q 750 597 1062 519 
Q 1375 441 1716 441 
Q 2309 441 2620 675 
Q 2931 909 2931 1356 
Q 2931 1769 2642 2001 
Q 2353 2234 1838 2234 
L 1294 2234 
L 1294 2753 
L 1863 2753 
Q 2328 2753 2575 2939 
Q 2822 3125 2822 3475 
Q 2822 3834 2567 4026 
Q 2313 4219 1838 4219 
Q 1578 4219 1281 4162 
Q 984 4106 628 3988 
L 628 4550 
Q 988 4650 1302 4700 
Q 1616 4750 1894 4750 
Q 2613 4750 3031 4423 
Q 3450 4097 3450 3541 
Q 3450 3153 3228 2886 
Q 3006 2619 2597 2516 
z
" id="DejaVuSans-33" transform="scale(0.015625)"/>
       </defs>
       <use xlink:href="#DejaVuSans-33"/>
       <use x="63.623047" xlink:href="#DejaVuSans-30"/>
      </g>
     </g>
    </g>
    <g id="ytick_4">
     <g id="line2d_12">
      <g>
       <use style="stroke:#000000;stroke-width:0.8;" x="40.603125" xlink:href="#mff75ce2a90" y="117.26975"/>
      </g>
     </g>
     <g id="text_12">
      <!-- 40 -->
      <g transform="translate(20.878125 121.068969)scale(0.1 -0.1)">
       <defs>
        <path d="M 2419 4116 
L 825 1625 
L 2419 1625 
L 2419 4116 
z
M 2253 4666 
L 3047 4666 
L 3047 1625 
L 3713 1625 
L 3713 1100 
L 3047 1100 
L 3047 0 
L 2419 0 
L 2419 1100 
L 313 1100 
L 313 1709 
L 2253 4666 
z
" id="DejaVuSans-34" transform="scale(0.015625)"/>
       </defs>
       <use xlink:href="#DejaVuSans-34"/>
       <use x="63.623047" xlink:href="#DejaVuSans-30"/>
      </g>
     </g>
    </g>
    <g id="ytick_5">
     <g id="line2d_13">
      <g>
       <use style="stroke:#000000;stroke-width:0.8;" x="40.603125" xlink:href="#mff75ce2a90" y="81.251605"/>
      </g>
     </g>
     <g id="text_13">
      <!-- 50 -->
      <g transform="translate(20.878125 85.050823)scale(0.1 -0.1)">
       <defs>
        <path d="M 691 4666 
L 3169 4666 
L 3169 4134 
L 1269 4134 
L 1269 2991 
Q 1406 3038 1543 3061 
Q 1681 3084 1819 3084 
Q 2600 3084 3056 2656 
Q 3513 2228 3513 1497 
Q 3513 744 3044 326 
Q 2575 -91 1722 -91 
Q 1428 -91 1123 -41 
Q 819 9 494 109 
L 494 744 
Q 775 591 1075 516 
Q 1375 441 1709 441 
Q 2250 441 2565 725 
Q 2881 1009 2881 1497 
Q 2881 1984 2565 2268 
Q 2250 2553 1709 2553 
Q 1456 2553 1204 2497 
Q 953 2441 691 2322 
L 691 4666 
z
" id="DejaVuSans-35" transform="scale(0.015625)"/>
       </defs>
       <use xlink:href="#DejaVuSans-35"/>
       <use x="63.623047" xlink:href="#DejaVuSans-30"/>
      </g>
     </g>
    </g>
    <g id="ytick_6">
     <g id="line2d_14">
      <g>
       <use style="stroke:#000000;stroke-width:0.8;" x="40.603125" xlink:href="#mff75ce2a90" y="45.233459"/>
      </g>
     </g>
     <g id="text_14">
      <!-- 60 -->
      <g transform="translate(20.878125 49.032678)scale(0.1 -0.1)">
       <defs>
        <path d="M 2113 2584 
Q 1688 2584 1439 2293 
Q 1191 2003 1191 1497 
Q 1191 994 1439 701 
Q 1688 409 2113 409 
Q 2538 409 2786 701 
Q 3034 994 3034 1497 
Q 3034 2003 2786 2293 
Q 2538 2584 2113 2584 
z
M 3366 4563 
L 3366 3988 
Q 3128 4100 2886 4159 
Q 2644 4219 2406 4219 
Q 1781 4219 1451 3797 
Q 1122 3375 1075 2522 
Q 1259 2794 1537 2939 
Q 1816 3084 2150 3084 
Q 2853 3084 3261 2657 
Q 3669 2231 3669 1497 
Q 3669 778 3244 343 
Q 2819 -91 2113 -91 
Q 1303 -91 875 529 
Q 447 1150 447 2328 
Q 447 3434 972 4092 
Q 1497 4750 2381 4750 
Q 2619 4750 2861 4703 
Q 3103 4656 3366 4563 
z
" id="DejaVuSans-36" transform="scale(0.015625)"/>
       </defs>
       <use xlink:href="#DejaVuSans-36"/>
       <use x="63.623047" xlink:href="#DejaVuSans-30"/>
      </g>
     </g>
    </g>
    <g id="text_15">
     <!-- AVG Weekly VIX -->
     <g transform="translate(14.798438 158.371455)rotate(-90)scale(0.1 -0.1)">
      <defs>
       <path d="M 2188 4044 
L 1331 1722 
L 3047 1722 
L 2188 4044 
z
M 1831 4666 
L 2547 4666 
L 4325 0 
L 3669 0 
L 3244 1197 
L 1141 1197 
L 716 0 
L 50 0 
L 1831 4666 
z
" id="DejaVuSans-41" transform="scale(0.015625)"/>
       <path d="M 1831 0 
L 50 4666 
L 709 4666 
L 2188 738 
L 3669 4666 
L 4325 4666 
L 2547 0 
L 1831 0 
z
" id="DejaVuSans-56" transform="scale(0.015625)"/>
       <path d="M 3809 666 
L 3809 1919 
L 2778 1919 
L 2778 2438 
L 4434 2438 
L 4434 434 
Q 4069 175 3628 42 
Q 3188 -91 2688 -91 
Q 1594 -91 976 548 
Q 359 1188 359 2328 
Q 359 3472 976 4111 
Q 1594 4750 2688 4750 
Q 3144 4750 3555 4637 
Q 3966 4525 4313 4306 
L 4313 3634 
Q 3963 3931 3569 4081 
Q 3175 4231 2741 4231 
Q 1884 4231 1454 3753 
Q 1025 3275 1025 2328 
Q 1025 1384 1454 906 
Q 1884 428 2741 428 
Q 3075 428 3337 486 
Q 3600 544 3809 666 
z
" id="DejaVuSans-47" transform="scale(0.015625)"/>
       <path id="DejaVuSans-20" transform="scale(0.015625)"/>
       <path d="M 213 4666 
L 850 4666 
L 1831 722 
L 2809 4666 
L 3519 4666 
L 4500 722 
L 5478 4666 
L 6119 4666 
L 4947 0 
L 4153 0 
L 3169 4050 
L 2175 0 
L 1381 0 
L 213 4666 
z
" id="DejaVuSans-57" transform="scale(0.015625)"/>
       <path d="M 3597 1894 
L 3597 1613 
L 953 1613 
Q 991 1019 1311 708 
Q 1631 397 2203 397 
Q 2534 397 2845 478 
Q 3156 559 3463 722 
L 3463 178 
Q 3153 47 2828 -22 
Q 2503 -91 2169 -91 
Q 1331 -91 842 396 
Q 353 884 353 1716 
Q 353 2575 817 3079 
Q 1281 3584 2069 3584 
Q 2775 3584 3186 3129 
Q 3597 2675 3597 1894 
z
M 3022 2063 
Q 3016 2534 2758 2815 
Q 2500 3097 2075 3097 
Q 1594 3097 1305 2825 
Q 1016 2553 972 2059 
L 3022 2063 
z
" id="DejaVuSans-65" transform="scale(0.015625)"/>
       <path d="M 581 4863 
L 1159 4863 
L 1159 1991 
L 2875 3500 
L 3609 3500 
L 1753 1863 
L 3688 0 
L 2938 0 
L 1159 1709 
L 1159 0 
L 581 0 
L 581 4863 
z
" id="DejaVuSans-6b" transform="scale(0.015625)"/>
       <path d="M 603 4863 
L 1178 4863 
L 1178 0 
L 603 0 
L 603 4863 
z
" id="DejaVuSans-6c" transform="scale(0.015625)"/>
       <path d="M 2059 -325 
Q 1816 -950 1584 -1140 
Q 1353 -1331 966 -1331 
L 506 -1331 
L 506 -850 
L 844 -850 
Q 1081 -850 1212 -737 
Q 1344 -625 1503 -206 
L 1606 56 
L 191 3500 
L 800 3500 
L 1894 763 
L 2988 3500 
L 3597 3500 
L 2059 -325 
z
" id="DejaVuSans-79" transform="scale(0.015625)"/>
       <path d="M 628 4666 
L 1259 4666 
L 1259 0 
L 628 0 
L 628 4666 
z
" id="DejaVuSans-49" transform="scale(0.015625)"/>
       <path d="M 403 4666 
L 1081 4666 
L 2241 2931 
L 3406 4666 
L 4084 4666 
L 2584 2425 
L 4184 0 
L 3506 0 
L 2194 1984 
L 872 0 
L 191 0 
L 1856 2491 
L 403 4666 
z
" id="DejaVuSans-58" transform="scale(0.015625)"/>
      </defs>
      <use xlink:href="#DejaVuSans-41"/>
      <use x="62.033203" xlink:href="#DejaVuSans-56"/>
      <use x="130.441406" xlink:href="#DejaVuSans-47"/>
      <use x="207.931641" xlink:href="#DejaVuSans-20"/>
      <use x="239.71875" xlink:href="#DejaVuSans-57"/>
      <use x="332.720703" xlink:href="#DejaVuSans-65"/>
      <use x="394.244141" xlink:href="#DejaVuSans-65"/>
      <use x="455.767578" xlink:href="#DejaVuSans-6b"/>
      <use x="513.677734" xlink:href="#DejaVuSans-6c"/>
      <use x="541.460938" xlink:href="#DejaVuSans-79"/>
      <use x="600.640625" xlink:href="#DejaVuSans-20"/>
      <use x="632.427734" xlink:href="#DejaVuSans-56"/>
      <use x="700.835938" xlink:href="#DejaVuSans-49"/>
      <use x="730.328125" xlink:href="#DejaVuSans-58"/>
     </g>
    </g>
   </g>
   <g id="line2d_15">
    <path clip-path="url(#pa012d4557e)" d="M 55.821307 181.752521 
L 57.521662 193.566473 
L 59.222018 194.91458 
L 60.922373 195.135835 
L 62.622729 202.709936 
L 66.02344 206.599896 
L 67.723795 210.386947 
L 69.424151 210.155401 
L 71.124506 205.473043 
L 72.824862 213.896143 
L 74.525217 205.776624 
L 76.225573 211.189637 
L 77.925928 213.366162 
L 79.626284 216.654104 
L 81.326639 217.266412 
L 83.026995 214.616506 
L 84.72735 208.555167 
L 86.427706 196.905869 
L 88.128062 204.294735 
L 89.828417 203.420008 
L 91.528773 195.912798 
L 93.229128 203.275936 
L 94.929484 205.73546 
L 96.629839 206.378642 
L 98.330195 207.695877 
L 100.03055 213.474216 
L 101.730906 215.717632 
L 103.431261 211.436618 
L 105.131617 216.031505 
L 106.831972 193.638509 
L 108.532328 195.007199 
L 110.232683 192.871837 
L 111.933039 193.566473 
L 113.633394 193.005619 
L 115.33375 205.220916 
L 117.034105 210.320056 
L 118.734461 206.841732 
L 120.434816 200.373902 
L 122.135172 194.996908 
L 123.835527 204.196971 
L 125.535883 210.567037 
L 127.236238 214.014488 
L 128.936594 215.86685 
L 130.636949 216.61294 
L 132.337305 216.309359 
L 134.03766 216.916522 
L 135.738016 213.885852 
L 137.438371 209.002821 
L 139.138727 214.390106 
L 140.839082 216.118977 
L 142.539438 212.867053 
L 144.239793 211.971745 
L 145.940149 215.86685 
L 147.640504 217.096613 
L 151.041215 198.351741 
L 152.741571 206.419805 
L 154.441926 211.205073 
L 156.142282 192.362438 
L 157.842637 128.955065 
L 159.542993 107.395633 
L 161.243348 23.900426 
L 162.943704 19.593685 
L 164.644059 38.961156 
L 166.344415 86.237545 
L 168.044771 112.659427 
L 169.745126 114.882261 
L 171.445482 128.584593 
L 173.145837 134.491569 
L 174.846193 153.231295 
L 176.546548 146.398139 
L 178.246904 159.374962 
L 179.947259 161.618378 
L 181.647615 169.54237 
L 183.34797 135.433186 
L 185.048326 140.470581 
L 186.748681 141.731216 
L 188.449037 160.126198 
L 190.149392 157.959963 
L 191.849748 167.643699 
L 193.550103 169.701879 
L 195.250459 173.72562 
L 196.950814 179.822978 
L 198.65117 182.400848 
L 200.351525 180.414704 
L 202.051881 174.307056 
L 203.752236 150.905552 
L 205.452592 163.285503 
L 207.152947 166.3419 
L 208.853303 164.252848 
L 210.553658 161.829341 
L 212.254014 168.436098 
L 213.954369 161.453723 
L 215.654725 155.74742 
L 217.35508 125.188596 
L 219.055436 167.551081 
L 220.755791 177.337726 
L 222.456147 177.805961 
L 224.156502 186.033535 
L 225.856858 185.807135 
L 227.557213 177.816252 
L 229.257569 179.771523 
L 230.957924 181.994357 
L 232.65828 175.886709 
L 234.358635 179.256978 
L 236.058991 175.897 
L 237.759346 181.670194 
L 239.459702 146.861229 
L 241.160057 184.078264 
L 242.860413 186.949425 
L 244.560768 180.71314 
L 246.261124 167.93699 
L 247.961479 169.382861 
L 249.661835 186.033535 
L 251.362191 187.844733 
L 253.062546 190.366003 
L 254.762902 197.152851 
L 256.463257 200.759811 
L 258.163613 200.481957 
L 261.564324 195.218162 
L 263.264679 194.909435 
L 264.965035 185.081627 
L 266.66539 189.028186 
L 268.365746 200.090903 
L 270.066101 200.487102 
L 271.766457 202.504118 
L 273.466812 193.1394 
L 275.167168 204.263862 
L 276.867523 205.756042 
L 278.567879 201.125138 
L 280.268234 193.978109 
L 281.96859 197.466723 
L 283.668945 195.362235 
L 285.369301 201.03252 
L 287.069656 203.697863 
L 288.770012 192.758637 
L 290.470367 200.898738 
L 292.170723 201.500756 
L 293.871078 190.108731 
L 295.571434 184.484755 
L 297.271789 192.002256 
L 298.972145 182.405993 
L 300.6725 191.004039 
L 302.372856 201.444156 
L 304.073211 205.766333 
L 305.773567 202.308591 
L 307.473922 202.179955 
L 309.174278 200.564284 
L 310.874633 196.005416 
L 312.574989 172.238585 
L 314.275344 158.356163 
L 315.9757 189.434677 
L 317.676055 184.958136 
L 319.376411 196.669179 
L 321.076766 199.879939 
L 322.777122 192.686601 
L 324.477477 190.602694 
L 326.177833 159.951252 
L 327.878188 162.436504 
L 329.578544 178.809324 
L 331.2789 168.734534 
L 332.979255 162.44165 
L 334.679611 154.533094 
L 336.379966 143.645323 
L 338.080322 149.927917 
L 339.780677 173.653584 
L 341.481033 186.115862 
L 343.181388 190.139604 
L 344.881744 181.196813 
L 346.582099 180.990995 
L 348.282455 164.520411 
L 349.98281 146.403284 
L 351.683166 150.751189 
L 353.383521 156.112747 
L 355.083877 155.073366 
L 356.784232 165.760465 
L 358.484588 171.878404 
L 360.184943 158.428199 
L 360.184943 158.428199 
" style="fill:none;stroke:#0000ff;stroke-linecap:square;stroke-width:1.5;"/>
   </g>
   <g id="patch_3">
    <path d="M 40.603125 227.150049 
L 40.603125 9.710049 
" style="fill:none;stroke:#000000;stroke-linecap:square;stroke-linejoin:miter;stroke-width:0.8;"/>
   </g>
   <g id="patch_4">
    <path d="M 375.403125 227.150049 
L 375.403125 9.710049 
" style="fill:none;stroke:#000000;stroke-linecap:square;stroke-linejoin:miter;stroke-width:0.8;"/>
   </g>
   <g id="patch_5">
    <path d="M 40.603125 227.150049 
L 375.403125 227.150049 
" style="fill:none;stroke:#000000;stroke-linecap:square;stroke-linejoin:miter;stroke-width:0.8;"/>
   </g>
   <g id="patch_6">
    <path d="M 40.603125 9.710049 
L 375.403125 9.710049 
" style="fill:none;stroke:#000000;stroke-linecap:square;stroke-linejoin:miter;stroke-width:0.8;"/>
   </g>
   <g id="legend_1">
    <g id="line2d_16">
     <path d="M 47.951125 19.982886 
L 67.951125 19.982886 
" style="fill:none;stroke:#0000ff;stroke-linecap:square;stroke-width:1.5;"/>
    </g>
    <g id="line2d_17"/>
    <g id="text_16">
     <!-- AVG Weekly VIX -->
     <g transform="translate(75.951125 23.482886)scale(0.1 -0.1)">
      <use xlink:href="#DejaVuSans-41"/>
      <use x="62.033203" xlink:href="#DejaVuSans-56"/>
      <use x="130.441406" xlink:href="#DejaVuSans-47"/>
      <use x="207.931641" xlink:href="#DejaVuSans-20"/>
      <use x="239.71875" xlink:href="#DejaVuSans-57"/>
      <use x="332.720703" xlink:href="#DejaVuSans-65"/>
      <use x="394.244141" xlink:href="#DejaVuSans-65"/>
      <use x="455.767578" xlink:href="#DejaVuSans-6b"/>
      <use x="513.677734" xlink:href="#DejaVuSans-6c"/>
      <use x="541.460938" xlink:href="#DejaVuSans-79"/>
      <use x="600.640625" xlink:href="#DejaVuSans-20"/>
      <use x="632.427734" xlink:href="#DejaVuSans-56"/>
      <use x="700.835938" xlink:href="#DejaVuSans-49"/>
      <use x="730.328125" xlink:href="#DejaVuSans-58"/>
     </g>
    </g>
   </g>
  </g>
  <g id="axes_2">
   <g id="matplotlib.axis_3">
    <g id="ytick_7">
     <g id="line2d_18">
      <defs>
       <path d="M 0 0 
L 3.5 0 
" id="mb5f064ebfd" style="stroke:#000000;stroke-width:0.8;"/>
      </defs>
      <g>
       <use style="stroke:#000000;stroke-width:0.8;" x="375.403125" xlink:href="#mb5f064ebfd" y="225.860879"/>
      </g>
     </g>
     <g id="text_17">
      <!-- 0 -->
      <g transform="translate(382.403125 229.660098)scale(0.1 -0.1)">
       <use xlink:href="#DejaVuSans-30"/>
      </g>
     </g>
    </g>
    <g id="ytick_8">
     <g id="line2d_19">
      <g>
       <use style="stroke:#000000;stroke-width:0.8;" x="375.403125" xlink:href="#mb5f064ebfd" y="182.888547"/>
      </g>
     </g>
     <g id="text_18">
      <!-- 20 -->
      <g transform="translate(382.403125 186.687766)scale(0.1 -0.1)">
       <use xlink:href="#DejaVuSans-32"/>
       <use x="63.623047" xlink:href="#DejaVuSans-30"/>
      </g>
     </g>
    </g>
    <g id="ytick_9">
     <g id="line2d_20">
      <g>
       <use style="stroke:#000000;stroke-width:0.8;" x="375.403125" xlink:href="#mb5f064ebfd" y="139.916215"/>
      </g>
     </g>
     <g id="text_19">
      <!-- 40 -->
      <g transform="translate(382.403125 143.715434)scale(0.1 -0.1)">
       <use xlink:href="#DejaVuSans-34"/>
       <use x="63.623047" xlink:href="#DejaVuSans-30"/>
      </g>
     </g>
    </g>
    <g id="ytick_10">
     <g id="line2d_21">
      <g>
       <use style="stroke:#000000;stroke-width:0.8;" x="375.403125" xlink:href="#mb5f064ebfd" y="96.943883"/>
      </g>
     </g>
     <g id="text_20">
      <!-- 60 -->
      <g transform="translate(382.403125 100.743102)scale(0.1 -0.1)">
       <use xlink:href="#DejaVuSans-36"/>
       <use x="63.623047" xlink:href="#DejaVuSans-30"/>
      </g>
     </g>
    </g>
    <g id="ytick_11">
     <g id="line2d_22">
      <g>
       <use style="stroke:#000000;stroke-width:0.8;" x="375.403125" xlink:href="#mb5f064ebfd" y="53.971551"/>
      </g>
     </g>
     <g id="text_21">
      <!-- 80 -->
      <g transform="translate(382.403125 57.77077)scale(0.1 -0.1)">
       <defs>
        <path d="M 2034 2216 
Q 1584 2216 1326 1975 
Q 1069 1734 1069 1313 
Q 1069 891 1326 650 
Q 1584 409 2034 409 
Q 2484 409 2743 651 
Q 3003 894 3003 1313 
Q 3003 1734 2745 1975 
Q 2488 2216 2034 2216 
z
M 1403 2484 
Q 997 2584 770 2862 
Q 544 3141 544 3541 
Q 544 4100 942 4425 
Q 1341 4750 2034 4750 
Q 2731 4750 3128 4425 
Q 3525 4100 3525 3541 
Q 3525 3141 3298 2862 
Q 3072 2584 2669 2484 
Q 3125 2378 3379 2068 
Q 3634 1759 3634 1313 
Q 3634 634 3220 271 
Q 2806 -91 2034 -91 
Q 1263 -91 848 271 
Q 434 634 434 1313 
Q 434 1759 690 2068 
Q 947 2378 1403 2484 
z
M 1172 3481 
Q 1172 3119 1398 2916 
Q 1625 2713 2034 2713 
Q 2441 2713 2670 2916 
Q 2900 3119 2900 3481 
Q 2900 3844 2670 4047 
Q 2441 4250 2034 4250 
Q 1625 4250 1398 4047 
Q 1172 3844 1172 3481 
z
" id="DejaVuSans-38" transform="scale(0.015625)"/>
       </defs>
       <use xlink:href="#DejaVuSans-38"/>
       <use x="63.623047" xlink:href="#DejaVuSans-30"/>
      </g>
     </g>
    </g>
    <g id="ytick_12">
     <g id="line2d_23">
      <g>
       <use style="stroke:#000000;stroke-width:0.8;" x="375.403125" xlink:href="#mb5f064ebfd" y="10.999219"/>
      </g>
     </g>
     <g id="text_22">
      <!-- 100 -->
      <g transform="translate(382.403125 14.798438)scale(0.1 -0.1)">
       <use xlink:href="#DejaVuSans-31"/>
       <use x="63.623047" xlink:href="#DejaVuSans-30"/>
       <use x="127.246094" xlink:href="#DejaVuSans-30"/>
      </g>
     </g>
    </g>
    <g id="text_23">
     <!-- No. of Market Videos -->
     <g transform="translate(413.089062 170.114424)rotate(-90)scale(0.1 -0.1)">
      <defs>
       <path d="M 628 4666 
L 1478 4666 
L 3547 763 
L 3547 4666 
L 4159 4666 
L 4159 0 
L 3309 0 
L 1241 3903 
L 1241 0 
L 628 0 
L 628 4666 
z
" id="DejaVuSans-4e" transform="scale(0.015625)"/>
       <path d="M 1959 3097 
Q 1497 3097 1228 2736 
Q 959 2375 959 1747 
Q 959 1119 1226 758 
Q 1494 397 1959 397 
Q 2419 397 2687 759 
Q 2956 1122 2956 1747 
Q 2956 2369 2687 2733 
Q 2419 3097 1959 3097 
z
M 1959 3584 
Q 2709 3584 3137 3096 
Q 3566 2609 3566 1747 
Q 3566 888 3137 398 
Q 2709 -91 1959 -91 
Q 1206 -91 779 398 
Q 353 888 353 1747 
Q 353 2609 779 3096 
Q 1206 3584 1959 3584 
z
" id="DejaVuSans-6f" transform="scale(0.015625)"/>
       <path d="M 684 794 
L 1344 794 
L 1344 0 
L 684 0 
L 684 794 
z
" id="DejaVuSans-2e" transform="scale(0.015625)"/>
       <path d="M 2375 4863 
L 2375 4384 
L 1825 4384 
Q 1516 4384 1395 4259 
Q 1275 4134 1275 3809 
L 1275 3500 
L 2222 3500 
L 2222 3053 
L 1275 3053 
L 1275 0 
L 697 0 
L 697 3053 
L 147 3053 
L 147 3500 
L 697 3500 
L 697 3744 
Q 697 4328 969 4595 
Q 1241 4863 1831 4863 
L 2375 4863 
z
" id="DejaVuSans-66" transform="scale(0.015625)"/>
       <path d="M 628 4666 
L 1569 4666 
L 2759 1491 
L 3956 4666 
L 4897 4666 
L 4897 0 
L 4281 0 
L 4281 4097 
L 3078 897 
L 2444 897 
L 1241 4097 
L 1241 0 
L 628 0 
L 628 4666 
z
" id="DejaVuSans-4d" transform="scale(0.015625)"/>
       <path d="M 2194 1759 
Q 1497 1759 1228 1600 
Q 959 1441 959 1056 
Q 959 750 1161 570 
Q 1363 391 1709 391 
Q 2188 391 2477 730 
Q 2766 1069 2766 1631 
L 2766 1759 
L 2194 1759 
z
M 3341 1997 
L 3341 0 
L 2766 0 
L 2766 531 
Q 2569 213 2275 61 
Q 1981 -91 1556 -91 
Q 1019 -91 701 211 
Q 384 513 384 1019 
Q 384 1609 779 1909 
Q 1175 2209 1959 2209 
L 2766 2209 
L 2766 2266 
Q 2766 2663 2505 2880 
Q 2244 3097 1772 3097 
Q 1472 3097 1187 3025 
Q 903 2953 641 2809 
L 641 3341 
Q 956 3463 1253 3523 
Q 1550 3584 1831 3584 
Q 2591 3584 2966 3190 
Q 3341 2797 3341 1997 
z
" id="DejaVuSans-61" transform="scale(0.015625)"/>
       <path d="M 2631 2963 
Q 2534 3019 2420 3045 
Q 2306 3072 2169 3072 
Q 1681 3072 1420 2755 
Q 1159 2438 1159 1844 
L 1159 0 
L 581 0 
L 581 3500 
L 1159 3500 
L 1159 2956 
Q 1341 3275 1631 3429 
Q 1922 3584 2338 3584 
Q 2397 3584 2469 3576 
Q 2541 3569 2628 3553 
L 2631 2963 
z
" id="DejaVuSans-72" transform="scale(0.015625)"/>
       <path d="M 1172 4494 
L 1172 3500 
L 2356 3500 
L 2356 3053 
L 1172 3053 
L 1172 1153 
Q 1172 725 1289 603 
Q 1406 481 1766 481 
L 2356 481 
L 2356 0 
L 1766 0 
Q 1100 0 847 248 
Q 594 497 594 1153 
L 594 3053 
L 172 3053 
L 172 3500 
L 594 3500 
L 594 4494 
L 1172 4494 
z
" id="DejaVuSans-74" transform="scale(0.015625)"/>
       <path d="M 603 3500 
L 1178 3500 
L 1178 0 
L 603 0 
L 603 3500 
z
M 603 4863 
L 1178 4863 
L 1178 4134 
L 603 4134 
L 603 4863 
z
" id="DejaVuSans-69" transform="scale(0.015625)"/>
       <path d="M 2906 2969 
L 2906 4863 
L 3481 4863 
L 3481 0 
L 2906 0 
L 2906 525 
Q 2725 213 2448 61 
Q 2172 -91 1784 -91 
Q 1150 -91 751 415 
Q 353 922 353 1747 
Q 353 2572 751 3078 
Q 1150 3584 1784 3584 
Q 2172 3584 2448 3432 
Q 2725 3281 2906 2969 
z
M 947 1747 
Q 947 1113 1208 752 
Q 1469 391 1925 391 
Q 2381 391 2643 752 
Q 2906 1113 2906 1747 
Q 2906 2381 2643 2742 
Q 2381 3103 1925 3103 
Q 1469 3103 1208 2742 
Q 947 2381 947 1747 
z
" id="DejaVuSans-64" transform="scale(0.015625)"/>
       <path d="M 2834 3397 
L 2834 2853 
Q 2591 2978 2328 3040 
Q 2066 3103 1784 3103 
Q 1356 3103 1142 2972 
Q 928 2841 928 2578 
Q 928 2378 1081 2264 
Q 1234 2150 1697 2047 
L 1894 2003 
Q 2506 1872 2764 1633 
Q 3022 1394 3022 966 
Q 3022 478 2636 193 
Q 2250 -91 1575 -91 
Q 1294 -91 989 -36 
Q 684 19 347 128 
L 347 722 
Q 666 556 975 473 
Q 1284 391 1588 391 
Q 1994 391 2212 530 
Q 2431 669 2431 922 
Q 2431 1156 2273 1281 
Q 2116 1406 1581 1522 
L 1381 1569 
Q 847 1681 609 1914 
Q 372 2147 372 2553 
Q 372 3047 722 3315 
Q 1072 3584 1716 3584 
Q 2034 3584 2315 3537 
Q 2597 3491 2834 3397 
z
" id="DejaVuSans-73" transform="scale(0.015625)"/>
      </defs>
      <use xlink:href="#DejaVuSans-4e"/>
      <use x="74.804688" xlink:href="#DejaVuSans-6f"/>
      <use x="134.236328" xlink:href="#DejaVuSans-2e"/>
      <use x="166.023438" xlink:href="#DejaVuSans-20"/>
      <use x="197.810547" xlink:href="#DejaVuSans-6f"/>
      <use x="258.992188" xlink:href="#DejaVuSans-66"/>
      <use x="294.197266" xlink:href="#DejaVuSans-20"/>
      <use x="325.984375" xlink:href="#DejaVuSans-4d"/>
      <use x="412.263672" xlink:href="#DejaVuSans-61"/>
      <use x="473.542969" xlink:href="#DejaVuSans-72"/>
      <use x="514.65625" xlink:href="#DejaVuSans-6b"/>
      <use x="568.941406" xlink:href="#DejaVuSans-65"/>
      <use x="630.464844" xlink:href="#DejaVuSans-74"/>
      <use x="669.673828" xlink:href="#DejaVuSans-20"/>
      <use x="701.460938" xlink:href="#DejaVuSans-56"/>
      <use x="767.619141" xlink:href="#DejaVuSans-69"/>
      <use x="795.402344" xlink:href="#DejaVuSans-64"/>
      <use x="858.878906" xlink:href="#DejaVuSans-65"/>
      <use x="920.402344" xlink:href="#DejaVuSans-6f"/>
      <use x="981.583984" xlink:href="#DejaVuSans-73"/>
     </g>
    </g>
   </g>
   <g id="line2d_24">
    <path clip-path="url(#pa012d4557e)" d="M 55.821307 189.334397 
L 57.521662 189.334397 
L 59.222018 193.63163 
L 60.922373 195.780246 
L 62.622729 195.780246 
L 64.323084 217.266412 
L 66.02344 212.969179 
L 67.723795 210.820563 
L 69.424151 215.117796 
L 71.124506 200.07748 
L 72.824862 187.18578 
L 74.525217 212.969179 
L 76.225573 208.671946 
L 77.925928 202.226096 
L 79.626284 197.928863 
L 81.326639 212.969179 
L 83.026995 210.820563 
L 84.72735 202.226096 
L 86.427706 206.523329 
L 88.128062 202.226096 
L 89.828417 202.226096 
L 91.528773 210.820563 
L 93.229128 204.374713 
L 94.929484 204.374713 
L 96.629839 202.226096 
L 98.330195 202.226096 
L 100.03055 204.374713 
L 101.730906 204.374713 
L 103.431261 210.820563 
L 105.131617 206.523329 
L 106.831972 185.037163 
L 108.532328 197.928863 
L 110.232683 187.18578 
L 111.933039 206.523329 
L 113.633394 212.969179 
L 115.33375 191.483013 
L 117.034105 206.523329 
L 118.734461 204.374713 
L 120.434816 208.671946 
L 122.135172 200.07748 
L 123.835527 197.928863 
L 125.535883 210.820563 
L 127.236238 217.266412 
L 128.936594 200.07748 
L 130.636949 189.334397 
L 132.337305 208.671946 
L 137.438371 202.226096 
L 139.138727 206.523329 
L 140.839082 197.928863 
L 142.539438 202.226096 
L 144.239793 202.226096 
L 145.940149 187.18578 
L 147.640504 195.780246 
L 149.34086 202.226096 
L 151.041215 202.226096 
L 152.741571 197.928863 
L 154.441926 197.928863 
L 156.142282 178.591314 
L 157.842637 165.699614 
L 159.542993 169.996847 
L 161.243348 114.132816 
L 162.943704 139.916215 
L 164.644059 161.402381 
L 166.344415 152.807914 
L 168.044771 152.807914 
L 169.745126 169.996847 
L 171.445482 200.07748 
L 173.145837 169.996847 
L 174.846193 189.334397 
L 176.546548 152.807914 
L 178.246904 191.483013 
L 183.34797 139.916215 
L 185.048326 172.145464 
L 186.748681 167.848231 
L 188.449037 187.18578 
L 190.149392 200.07748 
L 191.849748 187.18578 
L 193.550103 169.996847 
L 195.250459 191.483013 
L 196.950814 176.442697 
L 198.65117 182.888547 
L 200.351525 174.29408 
L 202.051881 200.07748 
L 203.752236 144.213448 
L 205.452592 169.996847 
L 207.152947 174.29408 
L 208.853303 176.442697 
L 210.553658 150.659298 
L 212.254014 182.888547 
L 213.954369 172.145464 
L 215.654725 159.253764 
L 217.35508 142.064831 
L 219.055436 152.807914 
L 220.755791 161.402381 
L 222.456147 167.848231 
L 224.156502 180.73993 
L 225.856858 187.18578 
L 227.557213 182.888547 
L 229.257569 159.253764 
L 230.957924 176.442697 
L 232.65828 165.699614 
L 234.358635 169.996847 
L 236.058991 185.037163 
L 237.759346 154.956531 
L 239.459702 133.470365 
L 241.160057 161.402381 
L 242.860413 180.73993 
L 246.261124 96.943883 
L 247.961479 94.795266 
L 249.661835 157.105148 
L 251.362191 146.362065 
L 253.062546 139.916215 
L 254.762902 161.402381 
L 256.463257 150.659298 
L 258.163613 154.956531 
L 259.863968 150.659298 
L 261.564324 176.442697 
L 263.264679 127.024515 
L 266.66539 152.807914 
L 268.365746 161.402381 
L 270.066101 139.916215 
L 271.766457 157.105148 
L 273.466812 124.875899 
L 275.167168 144.213448 
L 276.867523 144.213448 
L 278.567879 114.132816 
L 280.268234 92.64665 
L 281.96859 146.362065 
L 283.668945 144.213448 
L 287.069656 148.510681 
L 288.770012 124.875899 
L 290.470367 142.064831 
L 292.170723 152.807914 
L 293.871078 122.727282 
L 295.571434 105.538349 
L 297.271789 111.984199 
L 298.972145 103.389733 
L 300.6725 142.064831 
L 302.372856 169.996847 
L 304.073211 150.659298 
L 305.773567 150.659298 
L 307.473922 154.956531 
L 309.174278 157.105148 
L 310.874633 142.064831 
L 312.574989 139.916215 
L 314.275344 94.795266 
L 315.9757 116.281432 
L 317.676055 114.132816 
L 319.376411 118.430049 
L 321.076766 120.578665 
L 322.777122 86.2008 
L 324.477477 92.64665 
L 326.177833 19.593685 
L 327.878188 60.417401 
L 329.578544 58.268784 
L 331.2789 60.417401 
L 332.979255 47.525701 
L 334.679611 53.971551 
L 336.379966 105.538349 
L 338.080322 107.686966 
L 339.780677 107.686966 
L 341.481033 146.362065 
L 343.181388 124.875899 
L 344.881744 120.578665 
L 346.582099 146.362065 
L 348.282455 81.903567 
L 349.98281 77.606333 
L 351.683166 41.079851 
L 353.383521 19.593685 
L 355.083877 60.417401 
L 356.784232 81.903567 
L 358.484588 81.903567 
L 360.184943 73.3091 
L 360.184943 73.3091 
" style="fill:none;stroke:#a9a9a9;stroke-linecap:square;stroke-width:1.5;"/>
   </g>
   <g id="patch_7">
    <path d="M 40.603125 227.150049 
L 40.603125 9.710049 
" style="fill:none;stroke:#000000;stroke-linecap:square;stroke-linejoin:miter;stroke-width:0.8;"/>
   </g>
   <g id="patch_8">
    <path d="M 375.403125 227.150049 
L 375.403125 9.710049 
" style="fill:none;stroke:#000000;stroke-linecap:square;stroke-linejoin:miter;stroke-width:0.8;"/>
   </g>
   <g id="patch_9">
    <path d="M 40.603125 227.150049 
L 375.403125 227.150049 
" style="fill:none;stroke:#000000;stroke-linecap:square;stroke-linejoin:miter;stroke-width:0.8;"/>
   </g>
   <g id="patch_10">
    <path d="M 40.603125 9.710049 
L 375.403125 9.710049 
" style="fill:none;stroke:#000000;stroke-linecap:square;stroke-linejoin:miter;stroke-width:0.8;"/>
   </g>
   <g id="legend_2">
    <g id="line2d_25">
     <path d="M 47.951125 39.552486 
L 67.951125 39.552486 
" style="fill:none;stroke:#a9a9a9;stroke-linecap:square;stroke-width:1.5;"/>
    </g>
    <g id="line2d_26"/>
    <g id="text_24">
     <!-- No. of Videos -->
     <g transform="translate(75.951125 43.052486)scale(0.1 -0.1)">
      <use xlink:href="#DejaVuSans-4e"/>
      <use x="74.804688" xlink:href="#DejaVuSans-6f"/>
      <use x="134.236328" xlink:href="#DejaVuSans-2e"/>
      <use x="166.023438" xlink:href="#DejaVuSans-20"/>
      <use x="197.810547" xlink:href="#DejaVuSans-6f"/>
      <use x="258.992188" xlink:href="#DejaVuSans-66"/>
      <use x="294.197266" xlink:href="#DejaVuSans-20"/>
      <use x="325.984375" xlink:href="#DejaVuSans-56"/>
      <use x="392.142578" xlink:href="#DejaVuSans-69"/>
      <use x="419.925781" xlink:href="#DejaVuSans-64"/>
      <use x="483.402344" xlink:href="#DejaVuSans-65"/>
      <use x="544.925781" xlink:href="#DejaVuSans-6f"/>
      <use x="606.107422" xlink:href="#DejaVuSans-73"/>
     </g>
    </g>
   </g>
  </g>
 </g>
 <defs>
  <clipPath id="pa012d4557e">
   <rect height="217.44" width="334.8" x="40.603125" y="9.710049"/>
  </clipPath>
 </defs>
</svg>
